<svg id="svg" version="1.1" xmlns="http://www.w3.org/2000/svg" xmlns:xlink="http://www.w3.org/1999/xlink" width="400" height="114.24207712867506" viewBox="0, 0, 400,114.24207712867506"><g id="svgg"><path id="path0" d="M67.667 5.594 C 67.438 5.622,65.121 5.736,62.518 5.848 L 57.787 6.051 56.993 6.734 C 54.346 9.011,51.719 10.620,46.250 13.316 C 42.128 15.348,41.306 15.703,37.500 17.087 C 35.059 17.975,34.051 18.309,32.958 18.593 C 32.890 18.610,32.815 18.640,32.792 18.658 C 32.769 18.676,32.563 18.723,32.333 18.762 C 32.104 18.802,31.542 18.954,31.083 19.101 C 30.625 19.249,30.063 19.402,29.833 19.442 C 29.604 19.482,29.154 19.590,28.833 19.682 C 28.512 19.775,27.500 19.991,26.583 20.164 C 25.667 20.336,24.729 20.515,24.500 20.561 C 24.271 20.606,23.483 20.734,22.750 20.845 C 22.017 20.956,21.287 21.159,21.129 21.296 C 20.930 21.468,20.633 21.517,20.170 21.455 C 19.757 21.400,19.538 21.427,19.600 21.527 C 19.655 21.616,19.599 21.675,19.475 21.658 C 19.351 21.641,18.940 21.636,18.561 21.647 L 17.871 21.667 17.356 23.542 C 16.788 25.605,16.735 25.852,16.004 29.833 C 15.524 32.450,15.000 35.922,15.000 36.489 C 15.000 36.786,14.919 36.786,19.250 36.485 C 20.925 36.369,22.970 36.089,24.750 35.733 C 26.308 35.422,27.822 35.167,28.113 35.167 C 28.784 35.167,33.188 34.053,36.056 33.158 C 40.566 31.751,46.668 29.574,47.250 29.163 C 47.342 29.099,47.641 28.992,47.916 28.926 C 48.191 28.860,49.203 28.449,50.166 28.012 C 51.129 27.576,52.592 26.927,53.417 26.570 C 55.160 25.818,60.662 23.052,62.000 22.257 C 62.504 21.957,63.742 21.234,64.750 20.649 C 65.758 20.065,67.521 18.956,68.667 18.184 C 69.813 17.412,71.031 16.591,71.375 16.361 C 72.122 15.859,72.111 16.075,71.587 12.167 C 71.360 10.471,71.078 8.296,70.962 7.333 L 70.750 5.583 69.417 5.564 C 68.683 5.553,67.896 5.566,67.667 5.594 M70.625 29.460 C 70.373 29.616,70.169 29.858,70.172 29.997 C 70.176 30.197,70.212 30.189,70.349 29.955 C 70.443 29.792,70.610 29.711,70.719 29.773 C 70.828 29.836,70.858 29.822,70.786 29.744 C 70.715 29.665,70.827 29.506,71.036 29.390 C 71.246 29.273,71.342 29.178,71.250 29.177 C 71.158 29.176,70.877 29.303,70.625 29.460 M69.583 30.107 C 69.400 30.252,68.931 30.516,68.542 30.693 C 68.152 30.871,67.833 31.087,67.833 31.174 C 67.833 31.262,67.777 31.318,67.708 31.300 C 67.481 31.240,66.833 31.520,66.833 31.678 C 66.833 31.763,66.777 31.820,66.708 31.804 C 66.508 31.758,65.667 32.207,65.667 32.360 C 65.667 32.437,65.575 32.500,65.463 32.500 C 65.352 32.500,64.208 33.018,62.922 33.650 C 60.092 35.042,57.362 36.333,57.248 36.333 C 57.202 36.333,56.321 36.716,55.290 37.185 C 54.260 37.653,53.042 38.170,52.583 38.334 C 52.125 38.497,51.112 38.909,50.333 39.247 C 49.554 39.586,48.804 39.887,48.667 39.916 C 48.529 39.946,47.892 40.170,47.250 40.415 C 44.859 41.326,39.854 43.037,38.000 43.576 C 36.946 43.882,35.183 44.397,34.083 44.720 C 32.392 45.216,27.851 46.322,24.750 46.994 C 23.963 47.164,22.880 47.316,22.042 47.374 C 21.835 47.388,21.667 47.441,21.667 47.492 C 21.667 47.542,21.460 47.589,21.208 47.596 C 20.403 47.619,19.146 47.833,18.831 48.001 C 18.616 48.116,18.502 48.103,18.443 47.957 C 18.380 47.799,18.357 47.802,18.346 47.968 C 18.339 48.088,18.255 48.138,18.159 48.079 C 18.064 48.020,17.895 48.043,17.784 48.130 C 17.674 48.217,17.471 48.293,17.333 48.300 C 17.196 48.306,16.529 48.366,15.852 48.432 L 14.620 48.552 14.719 51.484 C 14.829 54.757,15.091 56.949,15.858 61.000 C 16.144 62.512,16.436 64.186,16.506 64.719 C 16.673 65.996,16.458 65.934,19.629 65.629 C 21.162 65.482,22.604 65.367,22.833 65.374 C 23.521 65.393,27.621 64.708,29.583 64.246 C 30.592 64.009,31.829 63.734,32.333 63.634 C 34.380 63.230,39.509 61.815,43.250 60.622 C 44.717 60.154,45.917 59.791,45.917 59.814 C 45.917 59.837,46.779 59.545,47.833 59.165 C 48.887 58.784,50.387 58.263,51.167 58.006 C 51.946 57.749,53.258 57.261,54.083 56.921 C 54.908 56.582,55.921 56.191,56.333 56.052 C 57.083 55.800,58.986 55.008,59.901 54.567 C 60.167 54.438,60.471 54.333,60.576 54.333 C 60.761 54.333,61.054 54.204,63.579 53.014 C 64.218 52.713,64.887 52.438,65.066 52.404 C 65.246 52.369,65.435 52.283,65.488 52.212 C 65.540 52.141,65.658 52.069,65.750 52.052 C 66.209 51.965,67.236 51.337,66.812 51.403 C 66.571 51.440,66.143 51.590,65.862 51.735 C 65.580 51.881,65.318 52.000,65.280 52.000 C 65.209 52.000,64.926 49.460,64.741 47.167 C 64.611 45.549,64.905 41.730,65.339 39.409 C 65.527 38.405,65.746 37.171,65.827 36.667 C 65.974 35.750,66.748 33.236,67.202 32.202 C 67.449 31.638,68.461 30.828,68.966 30.790 C 69.123 30.778,69.425 30.558,69.638 30.301 C 70.076 29.772,70.064 29.728,69.583 30.107 M69.000 60.343 C 69.000 60.440,68.925 60.473,68.833 60.417 C 68.742 60.360,68.667 60.393,68.667 60.490 C 68.667 60.587,68.610 60.659,68.542 60.649 C 68.290 60.612,67.667 60.876,67.667 61.019 C 67.667 61.100,67.610 61.155,67.542 61.140 C 67.353 61.100,66.320 61.500,63.583 62.670 C 59.311 64.499,48.240 68.555,46.540 68.914 C 46.381 68.948,45.387 69.247,44.333 69.578 C 41.588 70.440,33.892 72.474,32.917 72.595 C 32.733 72.618,31.121 72.935,29.333 73.301 C 27.546 73.667,25.483 74.056,24.750 74.166 C 24.017 74.277,23.278 74.440,23.108 74.529 C 22.882 74.648,22.831 74.639,22.919 74.496 C 23.011 74.347,22.955 74.346,22.682 74.492 C 22.485 74.597,21.894 74.722,21.370 74.769 C 19.869 74.902,19.680 74.931,19.568 75.043 C 19.411 75.200,20.362 77.960,21.249 79.921 C 21.458 80.382,21.750 81.118,21.899 81.556 C 22.048 81.995,22.891 83.811,23.774 85.593 L 25.378 88.833 26.653 88.833 C 27.931 88.833,31.249 88.347,35.188 87.583 C 36.345 87.359,37.695 87.135,38.188 87.087 C 39.971 86.910,40.231 86.854,44.250 85.768 C 45.442 85.446,46.867 85.074,47.417 84.941 C 49.647 84.402,58.119 81.625,61.288 80.394 C 62.317 79.994,63.227 79.667,63.310 79.667 C 63.515 79.667,66.637 78.388,67.208 78.070 C 67.460 77.929,67.667 77.853,67.667 77.901 C 67.667 77.976,69.294 77.317,70.907 76.588 C 71.187 76.462,71.942 76.136,72.583 75.864 C 75.033 74.827,76.919 73.942,76.973 73.806 C 77.003 73.728,77.109 73.714,77.207 73.775 C 77.312 73.840,77.336 73.806,77.266 73.693 C 77.179 73.552,77.024 73.565,76.678 73.744 C 76.213 73.985,76.202 73.979,75.313 72.959 C 74.820 72.393,74.098 71.582,73.708 71.156 C 73.319 70.731,73.000 70.314,73.000 70.232 C 73.000 70.149,72.671 69.680,72.269 69.189 C 71.866 68.699,71.437 68.100,71.313 67.857 C 71.190 67.615,70.694 66.795,70.211 66.036 C 69.728 65.276,69.333 64.586,69.333 64.501 C 69.333 64.416,68.996 63.691,68.583 62.889 C 67.671 61.116,67.671 61.245,68.585 60.815 C 69.398 60.433,69.675 60.167,69.260 60.167 C 69.117 60.167,69.000 60.246,69.000 60.343 M85.351 78.347 C 85.131 78.435,84.990 78.545,85.036 78.592 C 85.133 78.689,86.000 78.386,86.000 78.254 C 86.000 78.134,85.820 78.160,85.351 78.347 M84.333 79.000 C 84.333 79.061,84.240 79.113,84.125 79.115 C 84.010 79.117,82.867 79.624,81.583 80.243 C 77.816 82.058,70.924 85.133,70.376 85.245 C 70.215 85.278,69.263 85.650,68.260 86.072 C 67.257 86.494,66.095 86.946,65.677 87.076 C 65.259 87.207,64.232 87.573,63.395 87.891 C 59.521 89.361,51.059 92.032,48.000 92.750 C 47.129 92.954,45.364 93.391,44.077 93.721 C 42.790 94.051,41.425 94.360,41.043 94.408 C 40.662 94.456,39.990 94.576,39.550 94.674 C 39.110 94.773,38.450 94.895,38.083 94.946 C 37.717 94.996,37.295 95.101,37.147 95.180 C 36.999 95.258,36.844 95.288,36.803 95.247 C 36.762 95.206,36.493 95.240,36.206 95.322 C 35.919 95.404,35.212 95.523,34.634 95.587 C 34.056 95.650,33.546 95.750,33.500 95.809 C 33.454 95.868,33.342 95.919,33.250 95.923 C 32.917 95.935,30.905 96.186,30.458 96.272 L 29.999 96.360 31.191 98.097 C 31.848 99.052,32.439 99.833,32.505 99.833 C 32.572 99.833,32.713 100.040,32.819 100.292 C 32.926 100.544,33.385 101.161,33.840 101.663 C 34.295 102.165,34.667 102.667,34.667 102.778 C 34.667 102.890,34.807 103.080,34.979 103.200 C 35.151 103.321,35.568 103.756,35.905 104.168 C 38.020 106.750,38.314 107.000,39.236 107.000 C 40.422 107.000,43.633 106.587,46.417 106.077 C 47.700 105.841,49.350 105.546,50.083 105.421 C 53.757 104.795,61.315 102.656,67.583 100.470 C 69.692 99.734,71.717 99.075,72.083 99.005 C 72.693 98.887,73.178 98.711,74.583 98.093 C 74.858 97.972,75.383 97.777,75.750 97.661 C 76.117 97.545,77.102 97.123,77.940 96.725 C 78.778 96.326,79.543 96.000,79.642 96.000 C 80.487 96.000,96.167 87.910,96.167 87.474 C 96.167 87.386,96.233 87.355,96.314 87.405 C 96.396 87.455,96.555 87.385,96.668 87.248 C 96.781 87.112,96.941 87.000,97.023 87.000 C 97.209 87.000,99.063 85.795,99.139 85.625 C 99.169 85.556,99.305 85.500,99.440 85.500 C 99.576 85.500,99.638 85.421,99.578 85.325 C 99.504 85.204,99.406 85.204,99.261 85.324 C 99.147 85.419,99.003 85.448,98.943 85.387 C 98.883 85.327,98.832 85.422,98.831 85.597 C 98.829 85.801,98.783 85.846,98.704 85.722 C 98.636 85.615,97.954 85.441,97.189 85.336 C 95.842 85.152,91.746 83.954,91.425 83.650 C 91.338 83.567,91.086 83.500,90.864 83.500 C 90.643 83.500,89.627 83.096,88.606 82.603 C 87.585 82.110,86.563 81.623,86.333 81.521 C 86.104 81.418,85.467 81.037,84.917 80.673 C 84.367 80.309,83.767 79.939,83.583 79.850 L 83.250 79.688 83.583 79.671 C 83.994 79.651,84.977 78.889,84.593 78.889 C 84.450 78.889,84.333 78.939,84.333 79.000 M101.681 83.833 C 101.368 84.101,101.050 84.281,100.973 84.233 C 100.896 84.186,100.833 84.231,100.833 84.333 C 100.833 84.436,100.758 84.473,100.667 84.417 C 100.575 84.360,100.500 84.433,100.500 84.580 C 100.500 84.777,100.757 84.671,101.500 84.167 C 102.050 83.793,102.500 83.453,102.500 83.410 C 102.500 83.230,102.213 83.378,101.681 83.833 M100.000 84.833 C 99.868 84.915,99.815 85.037,99.883 85.105 C 99.950 85.172,100.093 85.140,100.200 85.033 C 100.452 84.782,100.311 84.641,100.000 84.833 M103.583 91.082 C 103.033 91.487,102.246 92.025,101.833 92.276 C 101.421 92.528,101.046 92.776,101.000 92.827 C 100.882 92.959,99.800 93.651,98.250 94.585 C 97.517 95.027,96.879 95.439,96.833 95.500 C 96.755 95.604,94.227 97.079,92.529 98.011 C 88.446 100.252,83.390 102.751,81.104 103.659 C 80.382 103.946,79.562 104.298,79.283 104.443 C 78.116 105.046,72.844 106.795,68.833 107.908 C 66.437 108.574,59.855 110.026,58.167 110.262 C 57.846 110.306,57.428 110.376,57.238 110.417 C 57.048 110.458,56.448 110.533,55.905 110.584 C 55.361 110.635,54.804 110.710,54.667 110.751 C 54.360 110.841,53.377 110.963,52.006 111.081 C 51.436 111.130,50.837 111.242,50.675 111.329 C 50.305 111.527,46.620 111.833,44.605 111.833 C 43.139 111.833,43.105 111.842,43.493 112.114 C 43.882 112.386,44.037 112.424,45.381 112.568 C 45.728 112.606,46.110 112.717,46.230 112.817 C 46.349 112.916,46.478 112.967,46.515 112.930 C 46.553 112.893,46.921 112.932,47.333 113.018 C 47.746 113.103,48.421 113.215,48.833 113.266 C 49.246 113.317,49.761 113.473,49.979 113.613 C 50.233 113.777,50.328 113.793,50.245 113.658 C 50.152 113.508,50.182 113.490,50.349 113.595 C 51.053 114.034,61.112 114.293,64.417 113.957 C 68.073 113.586,73.875 112.271,77.083 111.087 C 77.908 110.782,78.771 110.479,79.000 110.413 C 80.349 110.025,85.789 107.334,88.257 105.833 C 88.784 105.513,89.374 105.159,89.566 105.047 C 93.133 102.983,99.990 96.812,103.228 92.750 C 105.393 90.036,105.465 89.695,103.583 91.082 M255.109 92.625 C 255.067 92.694,255.269 92.763,255.558 92.778 C 255.984 92.801,256.020 92.779,255.750 92.665 C 255.316 92.481,255.203 92.474,255.109 92.625 M259.482 92.712 C 259.610 92.875,259.753 92.969,259.800 92.922 C 259.847 92.875,260.005 92.929,260.151 93.043 C 260.387 93.227,260.391 93.217,260.185 92.954 C 260.057 92.792,259.914 92.697,259.867 92.745 C 259.819 92.792,259.661 92.737,259.515 92.624 C 259.280 92.440,259.276 92.450,259.482 92.712 M318.750 92.658 C 318.567 92.731,318.349 92.752,318.266 92.703 C 318.183 92.655,318.164 92.695,318.224 92.792 C 318.343 92.984,318.950 92.883,319.096 92.647 C 319.200 92.478,319.196 92.478,318.750 92.658 M322.000 92.649 C 322.000 92.860,322.657 93.232,322.792 93.097 C 322.845 93.044,322.807 93.000,322.706 93.000 C 322.606 93.000,322.406 92.882,322.262 92.738 C 322.118 92.594,322.000 92.554,322.000 92.649 M222.778 92.778 C 222.612 92.944,222.644 94.133,222.817 94.240 C 222.900 94.291,222.994 93.958,223.026 93.500 C 223.081 92.703,223.022 92.533,222.778 92.778 M227.225 92.792 L 231.200 92.839 231.140 93.586 C 231.108 93.997,231.138 94.333,231.207 94.333 C 231.277 94.333,231.333 93.958,231.333 93.500 L 231.333 92.667 227.292 92.705 L 223.250 92.744 227.225 92.792 M244.167 92.741 C 244.167 92.787,244.410 92.948,244.708 93.098 C 245.006 93.248,245.471 93.569,245.742 93.811 L 246.234 94.250 245.742 93.651 C 245.471 93.321,245.222 93.075,245.187 93.103 C 245.153 93.131,244.909 93.042,244.646 92.906 C 244.382 92.770,244.167 92.696,244.167 92.741 M286.711 92.786 C 286.964 92.825,287.339 92.824,287.544 92.784 C 287.749 92.744,287.542 92.713,287.083 92.714 C 286.625 92.716,286.457 92.748,286.711 92.786 M292.533 95.792 C 292.565 98.917,292.625 98.548,292.706 94.708 C 292.730 93.585,292.694 92.666,292.625 92.666 C 292.556 92.667,292.515 94.073,292.533 95.792 M293.208 92.782 C 293.369 92.823,293.631 92.823,293.792 92.782 C 293.952 92.740,293.821 92.705,293.500 92.705 C 293.179 92.705,293.048 92.740,293.208 92.782 M300.750 92.794 C 300.655 92.864,300.626 93.237,300.683 93.667 L 300.783 94.417 300.808 93.628 L 300.833 92.839 304.792 92.792 L 308.750 92.744 304.833 92.708 C 302.679 92.688,300.842 92.727,300.750 92.794 M317.748 93.003 C 317.691 93.096,317.586 93.136,317.515 93.093 C 317.444 93.049,317.208 93.254,316.991 93.548 L 316.596 94.083 317.275 93.546 C 317.648 93.251,318.013 93.063,318.087 93.129 C 318.160 93.196,318.166 93.156,318.100 93.042 C 317.955 92.789,317.885 92.781,317.748 93.003 M239.684 93.119 C 239.423 93.222,238.492 94.233,238.276 94.647 C 238.199 94.795,238.334 94.676,238.575 94.382 C 238.816 94.088,239.254 93.657,239.548 93.425 C 240.088 93.000,240.110 92.950,239.684 93.119 M323.007 93.119 C 323.014 93.270,324.500 94.914,324.500 94.772 C 324.500 94.720,324.162 94.298,323.750 93.833 C 323.337 93.369,323.003 93.048,323.007 93.119 M276.348 93.208 C 276.387 93.231,276.680 93.475,277.001 93.750 L 277.583 94.250 277.094 93.708 C 276.825 93.410,276.531 93.167,276.441 93.167 C 276.351 93.167,276.309 93.185,276.348 93.208 M242.000 94.064 C 242.000 94.100,242.221 94.161,242.491 94.201 C 242.761 94.241,242.944 94.212,242.898 94.137 C 242.815 94.003,242.000 93.937,242.000 94.064 M256.738 94.389 C 256.691 94.511,256.674 95.242,256.701 96.014 L 256.750 97.417 257.583 97.430 L 258.417 97.443 257.625 97.379 L 256.833 97.316 256.833 95.839 C 256.833 94.813,256.897 94.335,257.042 94.277 C 257.205 94.211,257.204 94.190,257.036 94.180 C 256.919 94.173,256.784 94.267,256.738 94.389 M225.833 98.833 C 225.833 101.339,225.869 103.354,225.912 103.310 C 226.024 103.198,226.039 94.484,225.927 94.371 C 225.876 94.320,225.833 96.328,225.833 98.833 M227.944 94.444 C 227.883 94.506,227.833 96.531,227.833 98.944 L 227.833 103.333 226.958 103.361 C 226.196 103.386,226.167 103.398,226.734 103.456 C 228.179 103.605,228.083 103.930,228.083 98.841 C 228.083 96.362,228.077 94.333,228.069 94.333 C 228.062 94.333,228.006 94.383,227.944 94.444 M258.870 94.525 C 258.911 94.649,259.013 94.751,259.097 94.753 C 259.181 94.754,259.355 94.822,259.484 94.903 C 259.645 95.005,259.681 94.991,259.600 94.860 C 259.403 94.541,258.780 94.256,258.870 94.525 M303.833 98.891 L 303.917 103.417 304.750 103.430 L 305.583 103.443 304.792 103.379 L 304.000 103.316 304.000 98.918 C 304.000 96.499,303.944 94.485,303.875 94.442 C 303.806 94.400,303.787 96.401,303.833 98.891 M305.906 98.833 C 305.906 101.354,305.930 102.385,305.958 101.125 C 305.986 99.865,305.986 97.802,305.958 96.542 C 305.930 95.281,305.906 96.313,305.906 98.833 M240.481 94.979 C 240.241 95.220,239.981 95.529,239.904 95.667 C 239.826 95.804,240.053 95.635,240.408 95.291 C 240.763 94.946,241.023 94.637,240.985 94.603 C 240.947 94.569,240.720 94.739,240.481 94.979 M321.500 94.677 C 321.500 94.774,321.569 94.810,321.653 94.758 C 321.738 94.706,322.008 94.908,322.254 95.207 C 322.499 95.506,322.644 95.638,322.575 95.500 C 322.241 94.831,321.500 94.264,321.500 94.677 M318.234 95.024 C 317.918 95.380,317.919 95.381,318.292 95.185 C 318.498 95.077,318.667 94.916,318.667 94.827 C 318.667 94.591,318.587 94.627,318.234 95.024 M269.143 95.597 C 268.958 96.017,268.835 96.391,268.871 96.427 C 268.907 96.463,269.095 96.119,269.287 95.663 C 269.480 95.207,269.603 94.833,269.560 94.833 C 269.517 94.833,269.329 95.177,269.143 95.597 M276.327 96.230 C 276.427 96.495,276.464 96.851,276.410 97.022 C 276.355 97.193,276.391 97.333,276.489 97.333 C 276.737 97.333,276.712 98.549,276.458 98.834 C 276.281 99.032,276.294 99.034,276.542 98.847 C 276.829 98.629,276.960 97.515,276.726 97.281 C 276.666 97.222,276.600 96.940,276.577 96.655 C 276.555 96.370,276.448 96.049,276.341 95.943 C 276.192 95.796,276.188 95.863,276.327 96.230 M270.946 96.625 C 270.730 96.989,270.655 98.473,270.846 98.591 C 270.992 98.681,271.027 98.621,270.965 98.386 C 270.917 98.202,270.931 97.703,270.996 97.276 C 271.110 96.522,271.098 96.367,270.946 96.625 M278.625 97.466 C 278.720 98.815,278.805 98.924,278.820 97.718 C 278.827 97.151,278.771 96.648,278.695 96.601 C 278.619 96.554,278.588 96.943,278.625 97.466 M288.134 99.833 C 288.177 101.712,288.240 103.281,288.273 103.319 C 288.376 103.438,288.296 98.986,288.172 97.667 C 288.108 96.979,288.090 97.954,288.134 99.833 M268.687 97.117 C 268.572 97.396,268.507 97.915,268.544 98.270 C 268.611 98.916,268.611 98.916,268.639 98.158 C 268.654 97.741,268.750 97.317,268.852 97.215 C 268.954 97.113,269.006 96.935,268.968 96.819 C 268.929 96.704,268.803 96.838,268.687 97.117 M175.029 97.458 C 182.148 97.482,193.848 97.482,201.029 97.458 C 208.209 97.434,202.383 97.415,188.083 97.415 C 173.783 97.415,167.909 97.434,175.029 97.458 M336.733 97.567 C 336.684 97.696,336.674 98.052,336.712 98.359 C 336.773 98.862,336.783 98.848,336.807 98.209 L 336.833 97.501 362.042 97.458 L 387.250 97.416 362.036 97.374 C 340.510 97.339,336.810 97.368,336.733 97.567 M289.218 98.083 C 289.359 98.358,289.599 98.733,289.752 98.917 C 289.904 99.100,289.860 98.950,289.654 98.583 C 289.200 97.774,288.860 97.384,289.218 98.083 M260.285 98.125 C 260.248 98.194,260.393 98.505,260.609 98.816 C 260.824 99.128,261.000 99.307,261.000 99.214 C 261.000 99.121,260.852 98.857,260.672 98.628 C 260.492 98.399,260.392 98.164,260.450 98.106 C 260.508 98.048,260.510 98.000,260.454 98.000 C 260.399 98.000,260.322 98.056,260.285 98.125 M270.839 99.092 C 270.831 99.574,271.628 101.116,271.948 101.239 C 272.222 101.344,271.974 100.913,271.606 100.645 C 271.527 100.588,271.323 100.138,271.153 99.645 C 270.983 99.153,270.842 98.904,270.839 99.092 M256.778 99.111 C 256.717 99.172,256.667 100.144,256.667 101.270 L 256.667 103.317 255.625 103.381 L 254.583 103.445 255.667 103.431 L 256.750 103.417 256.797 101.275 L 256.844 99.134 257.588 99.193 C 257.998 99.226,258.333 99.196,258.333 99.126 C 258.333 98.971,256.932 98.957,256.778 99.111 M276.361 99.658 C 276.264 99.938,276.219 100.167,276.263 100.167 C 276.375 100.167,276.690 99.301,276.607 99.218 C 276.569 99.181,276.459 99.378,276.361 99.658 M261.091 99.917 C 261.156 100.192,261.274 100.487,261.352 100.572 C 261.430 100.658,261.423 100.479,261.336 100.174 C 261.132 99.466,260.935 99.258,261.091 99.917 M324.565 100.595 C 324.372 101.088,324.272 101.455,324.344 101.410 C 324.506 101.310,325.072 99.849,324.982 99.762 C 324.946 99.727,324.758 100.102,324.565 100.595 M237.695 100.342 C 237.792 100.622,237.903 100.819,237.941 100.782 C 238.023 100.699,237.709 99.833,237.596 99.833 C 237.553 99.833,237.597 100.062,237.695 100.342 M269.086 100.450 C 269.336 101.048,269.500 101.318,269.500 101.131 C 269.500 100.952,268.994 99.833,268.912 99.833 C 268.866 99.833,268.945 100.111,269.086 100.450 M315.513 100.176 C 315.506 100.319,315.617 100.582,315.759 100.760 C 316.014 101.078,316.016 101.078,315.865 100.750 C 315.781 100.567,315.670 100.304,315.619 100.167 C 315.539 99.951,315.525 99.952,315.513 100.176 M240.200 100.825 C 240.318 101.013,240.508 101.167,240.623 101.167 C 240.933 101.167,240.882 101.071,240.410 100.761 C 239.997 100.490,239.992 100.492,240.200 100.825 M244.095 101.151 L 243.608 101.750 244.170 101.214 C 244.480 100.919,244.699 100.649,244.658 100.615 C 244.617 100.580,244.364 100.821,244.095 101.151 M272.543 101.685 C 272.704 101.776,272.910 101.805,273.001 101.749 C 273.092 101.693,273.167 101.726,273.167 101.823 C 273.167 101.921,273.257 102.000,273.367 102.000 C 273.768 102.000,273.189 101.614,272.715 101.565 C 272.332 101.526,272.301 101.547,272.543 101.685 M274.158 101.760 C 274.017 101.930,274.014 102.000,274.146 102.000 C 274.249 102.000,274.333 101.927,274.333 101.839 C 274.333 101.750,274.446 101.720,274.583 101.773 C 274.721 101.826,274.833 101.831,274.833 101.786 C 274.833 101.567,274.335 101.548,274.158 101.760 M238.500 101.947 C 238.500 102.036,238.688 102.285,238.917 102.500 C 239.146 102.715,239.333 102.845,239.333 102.788 C 239.333 102.731,239.146 102.482,238.917 102.234 C 238.688 101.987,238.500 101.858,238.500 101.947 M277.024 102.257 C 276.740 102.554,276.700 102.667,276.879 102.667 C 277.173 102.667,277.555 102.246,277.474 102.013 C 277.443 101.922,277.240 102.032,277.024 102.257 M316.500 102.120 C 316.500 102.330,316.976 102.746,317.088 102.634 C 317.133 102.590,317.018 102.417,316.834 102.251 C 316.650 102.085,316.500 102.026,316.500 102.120 M260.708 103.453 C 260.960 103.491,261.373 103.491,261.625 103.453 C 261.877 103.415,261.671 103.383,261.167 103.383 C 260.662 103.383,260.456 103.415,260.708 103.453 M286.628 103.454 C 286.928 103.491,287.378 103.490,287.628 103.452 C 287.878 103.414,287.633 103.384,287.083 103.385 C 286.533 103.386,286.328 103.417,286.628 103.454 M293.208 103.453 C 293.460 103.491,293.873 103.491,294.125 103.453 C 294.377 103.415,294.171 103.383,293.667 103.383 C 293.162 103.383,292.956 103.415,293.208 103.453 " stroke="none" fill="#77aa36" fill-rule="evenodd"></path><path id="path1" d="M152.640 66.728 C 148.170 68.315,146.690 74.232,149.798 78.090 C 151.981 80.801,156.713 81.287,159.307 79.067 C 160.385 78.144,160.434 77.950,159.723 77.407 L 159.119 76.946 158.684 77.455 C 156.323 80.218,151.346 79.114,150.072 75.543 C 148.158 70.180,154.114 65.391,158.217 68.993 L 158.776 69.485 159.302 69.117 C 161.486 67.591,155.877 65.579,152.640 66.728 M180.833 66.713 C 178.646 67.509,177.455 68.734,176.745 70.918 C 174.745 77.067,180.222 82.297,186.171 79.918 C 191.568 77.760,191.696 69.076,186.363 66.907 C 184.732 66.243,182.354 66.160,180.833 66.713 M239.306 66.643 C 235.468 68.193,236.009 72.716,240.183 73.983 C 242.721 74.753,243.498 75.376,243.499 76.641 C 243.502 79.120,239.605 79.955,238.095 77.799 L 237.841 77.437 237.087 77.814 C 236.188 78.263,236.184 78.283,236.875 78.994 C 239.089 81.274,243.667 80.853,244.733 78.271 C 245.845 75.579,244.473 73.513,240.970 72.603 C 239.237 72.153,238.333 71.302,238.334 70.119 C 238.336 67.876,241.240 66.904,243.088 68.527 C 243.635 69.006,243.661 69.012,244.166 68.750 C 246.437 67.576,241.884 65.602,239.306 66.643 M392.000 66.565 C 388.676 67.541,387.250 69.599,387.250 73.417 C 387.250 79.092,391.741 81.872,397.694 79.881 L 399.083 79.417 399.128 76.042 L 399.174 72.667 396.837 72.667 L 394.500 72.667 394.500 73.417 L 394.500 74.167 396.083 74.167 L 397.667 74.167 397.667 76.219 L 397.667 78.272 397.063 78.560 C 393.923 80.057,389.724 78.374,388.903 75.290 C 387.431 69.761,392.640 65.705,397.232 68.804 L 397.995 69.319 398.539 68.818 L 399.083 68.316 398.485 67.763 C 397.207 66.584,393.972 65.986,392.000 66.565 M207.833 73.417 L 207.833 80.167 208.581 80.167 L 209.329 80.167 209.373 74.625 L 209.417 69.083 210.500 70.646 C 211.096 71.505,211.786 72.534,212.034 72.932 C 212.282 73.331,212.769 74.029,213.117 74.485 C 213.896 75.504,215.345 77.572,215.620 78.058 C 216.484 79.584,217.066 80.082,218.048 80.133 L 219.000 80.183 219.000 73.425 L 219.000 66.667 218.167 66.667 L 217.333 66.667 217.333 72.205 L 217.333 77.744 216.792 76.971 C 216.494 76.546,215.350 74.904,214.250 73.321 C 213.150 71.739,211.928 69.988,211.534 69.430 C 211.141 68.873,210.549 68.023,210.219 67.542 C 209.621 66.670,209.617 66.667,208.726 66.667 L 207.833 66.667 207.833 73.417 M262.368 71.708 C 262.432 77.152,262.506 77.620,263.509 78.977 C 264.963 80.943,269.424 80.937,271.087 78.967 C 272.139 77.720,272.159 77.590,272.163 71.875 L 272.167 66.667 271.417 66.667 L 270.667 66.667 270.666 71.208 C 270.665 76.894,270.530 77.553,269.181 78.473 C 268.126 79.194,266.903 79.252,265.712 78.640 C 264.111 77.816,263.833 76.681,263.833 70.965 L 263.833 66.667 263.070 66.667 L 262.308 66.667 262.368 71.708 M290.333 73.417 L 290.333 80.167 294.167 80.167 L 298.000 80.167 298.000 79.417 L 298.000 78.667 294.917 78.667 L 291.833 78.667 291.833 72.667 L 291.833 66.667 291.083 66.667 L 290.333 66.667 290.333 73.417 M311.333 67.333 L 311.333 68.000 313.583 68.000 L 315.833 68.000 315.833 74.092 L 315.833 80.185 316.625 80.134 L 317.417 80.083 317.460 74.042 L 317.504 68.000 319.669 68.000 L 321.833 68.000 321.833 67.333 L 321.833 66.667 316.583 66.667 L 311.333 66.667 311.333 67.333 M338.540 73.375 L 338.583 80.083 339.375 80.134 L 340.167 80.185 340.167 73.426 L 340.167 66.667 339.331 66.667 L 338.496 66.667 338.540 73.375 M358.373 73.375 L 358.417 80.083 359.125 80.135 L 359.833 80.186 359.833 74.470 L 359.833 68.754 360.413 69.586 C 360.732 70.043,361.442 71.054,361.990 71.833 C 362.537 72.612,363.398 73.850,363.902 74.583 C 364.406 75.317,365.162 76.404,365.583 77.000 C 366.004 77.596,366.664 78.551,367.049 79.122 L 367.750 80.160 368.708 80.163 L 369.667 80.167 369.667 73.417 L 369.667 66.667 368.919 66.667 L 368.171 66.667 368.127 72.265 L 368.083 77.863 366.833 76.067 C 364.393 72.561,362.670 70.065,361.737 68.686 C 360.333 66.610,360.402 66.667,359.294 66.667 L 358.330 66.667 358.373 73.375 M185.785 68.340 C 189.860 70.338,189.616 77.067,185.410 78.659 C 181.500 80.139,177.907 77.540,177.922 73.243 C 177.937 69.041,182.020 66.495,185.785 68.340 " stroke="none" fill="#5f6f52" fill-rule="evenodd"></path><path id="path2" d="M29.750 5.366 C 29.567 5.470,29.371 5.624,29.315 5.708 C 29.259 5.793,29.159 5.846,29.093 5.827 C 28.804 5.742,23.568 9.211,21.933 10.570 C 19.175 12.864,14.667 17.194,14.667 17.549 C 14.667 17.639,14.544 17.803,14.395 17.912 C 14.143 18.096,14.143 18.111,14.395 18.111 C 14.544 18.111,14.667 18.049,14.667 17.974 C 14.667 17.898,14.909 17.605,15.205 17.322 L 15.743 16.808 15.943 17.529 C 16.286 18.764,16.670 19.701,17.010 20.134 C 17.315 20.522,17.320 20.579,17.072 20.957 C 16.926 21.180,16.850 21.406,16.903 21.459 C 16.957 21.512,17.000 21.464,17.000 21.351 C 17.000 21.239,17.068 21.189,17.152 21.241 C 17.235 21.293,17.545 20.941,17.840 20.459 C 19.928 17.050,24.597 12.386,29.874 8.438 C 31.190 7.453,31.630 7.017,31.104 7.219 C 30.930 7.286,30.461 7.126,29.900 6.810 L 28.982 6.291 29.353 5.896 C 29.558 5.678,29.824 5.500,29.946 5.500 C 30.067 5.500,30.167 5.425,30.167 5.333 C 30.167 5.131,30.165 5.131,29.750 5.366 M31.850 6.659 C 31.538 6.819,31.354 6.993,31.440 7.046 C 31.527 7.100,31.838 6.992,32.132 6.806 C 32.991 6.262,32.810 6.168,31.850 6.659 M13.301 18.958 C 13.008 19.300,12.787 19.667,12.875 19.667 C 12.909 19.667,13.104 19.442,13.307 19.167 C 13.709 18.623,13.705 18.488,13.301 18.958 M26.667 35.810 C 26.667 36.062,25.495 36.370,25.264 36.178 C 25.104 36.046,24.529 36.066,23.147 36.255 C 18.094 36.944,17.189 37.017,14.230 36.967 L 11.211 36.917 10.612 37.702 C 8.906 39.935,8.325 42.774,8.952 45.801 C 9.196 46.978,9.204 47.207,9.006 47.329 C 8.878 47.409,8.757 47.584,8.737 47.720 C 8.717 47.856,9.298 47.505,10.028 46.942 C 10.757 46.378,11.556 45.766,11.802 45.583 C 13.785 44.105,14.836 43.351,15.341 43.042 C 15.666 42.844,16.116 42.521,16.341 42.325 C 16.566 42.129,16.960 41.859,17.217 41.725 C 17.474 41.592,18.351 41.055,19.167 40.533 C 21.248 39.200,22.728 38.314,24.083 37.586 C 24.725 37.242,25.363 36.862,25.500 36.742 C 25.637 36.622,26.106 36.371,26.542 36.185 C 27.425 35.806,27.481 35.749,27.000 35.712 C 26.817 35.699,26.667 35.743,26.667 35.810 M4.740 36.542 L 4.250 37.083 4.792 36.594 C 5.297 36.138,5.410 36.000,5.281 36.000 C 5.252 36.000,5.009 36.244,4.740 36.542 M20.500 65.757 C 16.208 66.344,10.349 66.464,8.018 66.011 L 7.286 65.869 7.392 67.495 C 7.555 69.985,8.875 72.618,10.591 73.880 C 10.992 74.175,11.323 74.510,11.327 74.625 C 11.339 75.013,11.581 74.833,13.417 73.061 C 15.971 70.598,18.321 68.660,21.580 66.331 C 22.851 65.422,22.870 65.432,20.500 65.757 M36.333 87.601 C 34.156 88.089,28.464 88.918,25.583 89.166 C 24.392 89.268,23.098 89.390,22.708 89.436 L 22.000 89.520 22.000 91.484 C 22.000 93.512,22.249 94.658,22.944 95.835 L 23.239 96.333 25.568 96.333 L 27.897 96.333 29.824 94.358 C 31.668 92.468,33.335 90.946,34.207 90.358 C 34.982 89.835,38.333 87.296,38.333 87.232 C 38.333 87.150,38.410 87.136,36.333 87.601 M294.575 98.000 C 294.575 101.071,294.597 102.327,294.625 100.792 C 294.652 99.256,294.652 96.744,294.625 95.208 C 294.597 93.673,294.575 94.929,294.575 98.000 M256.890 95.750 C 256.891 96.483,256.920 96.763,256.956 96.371 C 256.991 95.979,256.990 95.379,256.954 95.037 C 256.919 94.696,256.890 95.017,256.890 95.750 M261.695 96.491 C 261.597 96.771,261.553 97.000,261.596 97.000 C 261.709 97.000,262.023 96.134,261.941 96.052 C 261.903 96.014,261.792 96.212,261.695 96.491 M290.666 96.458 C 290.884 96.756,291.089 97.000,291.121 97.000 C 291.247 97.000,290.834 96.375,290.561 96.153 C 290.381 96.007,290.421 96.123,290.666 96.458 M175.029 97.292 C 182.148 97.316,193.848 97.316,201.029 97.292 C 208.209 97.268,202.383 97.248,188.083 97.248 C 173.783 97.248,167.909 97.268,175.029 97.292 M257.294 97.285 C 257.501 97.324,257.801 97.323,257.960 97.281 C 258.120 97.239,257.950 97.207,257.583 97.209 C 257.217 97.211,257.086 97.245,257.294 97.285 M349.375 97.292 C 356.319 97.316,367.681 97.316,374.625 97.292 C 381.569 97.268,375.887 97.248,362.000 97.248 C 348.113 97.248,342.431 97.268,349.375 97.292 M245.042 98.083 C 245.044 98.450,245.078 98.580,245.118 98.373 C 245.158 98.166,245.156 97.866,245.115 97.706 C 245.073 97.547,245.040 97.717,245.042 98.083 M290.000 99.667 C 290.196 99.942,290.394 100.167,290.439 100.167 C 290.485 100.167,290.362 99.942,290.167 99.667 C 289.971 99.392,289.773 99.167,289.727 99.167 C 289.681 99.167,289.804 99.392,290.000 99.667 M64.667 101.689 C 62.817 102.359,55.160 104.481,52.042 105.189 C 48.581 105.974,48.495 106.025,49.167 106.879 C 49.350 107.112,49.500 107.417,49.500 107.556 C 49.500 107.696,50.024 108.317,50.664 108.937 C 51.759 109.998,51.811 110.082,51.554 110.365 C 51.164 110.797,51.520 110.737,52.184 110.259 C 53.027 109.651,56.409 107.454,56.948 107.164 C 57.206 107.025,58.065 106.519,58.856 106.039 C 59.648 105.559,60.350 105.167,60.417 105.167 C 60.483 105.167,61.147 104.800,61.894 104.352 C 62.640 103.904,63.625 103.370,64.083 103.164 C 64.542 102.959,64.954 102.744,65.000 102.687 C 65.046 102.630,65.365 102.440,65.708 102.265 C 66.353 101.938,66.522 101.667,66.083 101.667 C 65.946 101.667,65.833 101.592,65.833 101.500 C 65.833 101.283,65.754 101.296,64.667 101.689 " stroke="none" fill="#446d1c" fill-rule="evenodd"></path><path id="path3" d="M180.589 13.007 C 171.644 14.416,169.077 24.754,176.552 29.266 C 176.993 29.532,177.781 29.992,178.302 30.287 C 178.918 30.636,179.131 30.826,178.910 30.829 C 177.664 30.846,173.291 34.018,172.258 35.654 C 170.923 37.769,170.765 42.228,171.944 44.545 C 172.209 45.066,174.136 47.167,174.349 47.167 C 174.426 47.167,174.847 47.394,175.286 47.672 C 178.618 49.786,187.003 49.723,190.676 47.557 C 194.689 45.191,196.108 39.836,193.834 35.637 C 193.358 34.758,191.356 32.667,190.990 32.667 C 190.899 32.667,190.464 32.418,190.022 32.114 C 189.580 31.810,188.692 31.309,188.048 31.000 L 186.878 30.438 187.885 29.787 C 188.439 29.429,189.047 29.074,189.237 28.997 C 190.480 28.498,192.924 25.651,193.438 24.104 C 193.962 22.524,193.845 19.315,193.214 17.966 C 191.504 14.310,186.011 12.153,180.589 13.007 M207.333 13.094 C 205.084 13.580,201.000 16.345,201.000 17.382 C 201.000 17.504,200.856 17.759,200.680 17.948 C 200.152 18.514,199.361 20.229,198.750 22.129 C 195.465 32.347,197.885 44.200,204.000 47.842 C 208.086 50.275,214.862 49.350,217.416 46.010 C 217.691 45.650,218.123 45.100,218.375 44.788 C 219.267 43.681,220.686 40.464,221.001 38.833 C 221.673 35.357,221.843 34.084,221.936 31.833 C 222.202 25.443,220.704 19.719,217.928 16.514 C 215.404 13.598,211.231 12.251,207.333 13.094 M157.179 14.523 C 156.223 15.084,155.291 15.682,155.108 15.853 C 154.924 16.023,154.619 16.210,154.429 16.268 C 154.022 16.393,151.775 17.844,151.694 18.035 C 151.664 18.108,151.514 18.169,151.361 18.172 C 151.208 18.175,150.783 18.396,150.417 18.663 C 150.050 18.929,149.206 19.467,148.542 19.857 C 147.243 20.619,147.122 20.853,147.667 21.545 C 147.850 21.779,148.000 22.019,148.000 22.080 C 148.000 22.392,149.056 23.667,149.316 23.667 C 149.480 23.667,150.088 23.348,150.666 22.958 C 151.244 22.569,152.074 22.025,152.510 21.750 C 152.946 21.475,154.049 20.781,154.960 20.207 C 155.871 19.634,156.834 18.978,157.100 18.749 C 157.366 18.521,157.640 18.334,157.708 18.334 C 157.863 18.333,157.871 29.235,157.723 38.458 L 157.612 45.333 154.140 45.333 L 150.667 45.333 150.667 47.000 L 150.667 48.667 160.000 48.667 L 169.333 48.667 169.333 47.000 L 169.333 45.333 165.728 45.333 L 162.124 45.333 162.248 29.417 L 162.372 13.500 160.644 13.502 L 158.917 13.503 157.179 14.523 M224.167 14.750 L 224.167 16.000 226.250 16.000 L 228.333 16.000 228.333 22.306 C 228.333 25.774,228.284 32.562,228.223 37.389 L 228.112 46.167 226.139 46.167 L 224.167 46.167 224.167 47.426 L 224.167 48.685 233.458 48.622 C 243.623 48.553,243.446 48.568,246.727 47.479 C 252.701 45.496,256.294 40.764,257.149 33.750 C 257.778 28.597,256.402 22.195,254.147 19.773 C 253.974 19.588,253.833 19.356,253.833 19.256 C 253.833 19.016,251.298 16.662,250.690 16.337 C 245.712 13.682,244.551 13.500,232.629 13.500 L 224.167 13.500 224.167 14.750 M242.506 16.313 C 245.653 16.721,249.172 18.584,250.933 20.775 C 251.291 21.220,251.626 21.621,251.679 21.667 C 251.857 21.821,252.862 23.909,253.284 25.000 C 254.219 27.420,254.319 33.213,253.475 36.083 C 252.009 41.071,248.477 44.399,243.417 45.564 C 241.188 46.077,240.059 46.164,235.654 46.165 L 231.224 46.167 231.282 32.958 C 231.313 25.694,231.383 18.896,231.437 17.853 L 231.536 15.956 236.393 16.053 C 239.064 16.107,241.815 16.224,242.506 16.313 M184.536 16.741 C 189.583 17.641,191.202 22.838,187.370 25.839 C 186.964 26.157,186.543 26.500,186.435 26.602 C 186.326 26.703,185.865 26.972,185.410 27.198 C 184.955 27.425,184.224 27.818,183.784 28.074 C 183.069 28.488,182.954 28.511,182.700 28.291 C 182.544 28.155,181.742 27.698,180.917 27.274 C 174.421 23.938,175.746 16.819,182.917 16.525 C 183.100 16.518,183.829 16.615,184.536 16.741 M210.750 16.719 C 212.628 17.117,214.778 18.992,215.526 20.884 C 217.914 26.924,218.059 34.792,215.884 40.333 C 214.454 43.978,212.791 45.370,209.833 45.398 C 207.453 45.420,207.133 45.291,205.308 43.575 C 201.597 40.085,200.851 26.725,204.023 20.547 C 205.093 18.463,206.903 16.973,208.750 16.656 C 209.717 16.490,209.663 16.488,210.750 16.719 M269.583 22.275 C 262.956 23.655,259.431 29.270,260.175 37.264 C 260.739 43.321,263.474 47.200,268.250 48.714 C 272.098 49.933,281.163 48.583,281.168 46.790 C 281.169 46.493,281.217 45.856,281.275 45.375 C 281.400 44.334,281.244 44.273,280.023 44.890 C 278.004 45.908,275.243 46.573,273.083 46.560 C 270.951 46.547,269.654 46.220,267.362 45.117 C 265.380 44.162,263.185 39.628,263.170 36.458 L 263.167 35.667 272.750 35.667 L 282.333 35.667 282.333 34.458 C 282.332 26.351,276.548 20.824,269.583 22.275 M292.167 22.471 C 287.479 23.783,285.000 27.048,285.000 31.913 C 285.000 34.540,285.226 35.451,286.266 37.021 C 286.978 38.095,288.936 39.833,289.433 39.833 C 289.555 39.833,289.918 39.958,290.238 40.111 L 290.821 40.389 289.921 40.693 C 287.788 41.413,286.833 42.538,286.833 44.333 C 286.833 46.134,287.400 46.871,289.554 47.870 L 290.358 48.243 289.637 48.447 C 288.001 48.908,287.572 49.130,286.422 50.108 C 281.899 53.957,283.746 59.118,290.395 61.210 C 292.232 61.787,299.633 61.776,301.500 61.193 C 306.412 59.657,308.799 56.643,308.311 52.591 C 308.043 50.368,306.973 49.214,304.270 48.234 C 303.480 47.947,299.676 47.167,299.070 47.167 C 297.140 47.167,290.815 45.538,290.208 44.885 C 288.608 43.162,291.554 41.356,296.000 41.334 C 298.085 41.323,300.640 40.393,302.285 39.046 C 305.670 36.272,306.321 29.891,303.582 26.332 L 302.814 25.333 305.824 25.333 L 308.833 25.333 308.833 24.167 L 308.833 23.000 304.208 22.998 C 299.946 22.996,299.498 22.968,298.500 22.641 C 296.955 22.136,293.679 22.048,292.167 22.471 M324.699 22.574 C 324.122 22.789,323.516 23.085,323.353 23.232 C 323.190 23.380,322.999 23.500,322.928 23.500 C 322.712 23.500,321.500 24.516,321.500 24.697 C 321.500 24.790,321.212 25.193,320.859 25.594 C 320.506 25.994,320.051 26.681,319.847 27.119 C 319.643 27.558,319.294 28.292,319.072 28.750 L 318.667 29.583 318.746 28.333 C 318.789 27.646,318.873 26.127,318.932 24.958 L 319.040 22.833 315.020 22.833 L 311.000 22.833 311.000 24.083 L 311.000 25.333 313.527 25.333 L 316.054 25.333 315.944 32.361 C 315.883 36.226,315.833 40.913,315.833 42.777 L 315.833 46.167 313.750 46.167 L 311.667 46.167 311.667 47.417 L 311.667 48.667 317.500 48.667 L 323.333 48.667 323.333 47.417 L 323.333 46.167 321.000 46.167 L 318.667 46.167 318.670 41.958 C 318.674 36.024,319.133 32.717,320.267 30.470 C 322.509 26.026,325.476 24.297,329.242 25.242 C 330.601 25.583,330.537 25.639,330.632 24.009 C 330.718 22.519,330.890 22.716,329.167 22.339 C 327.806 22.041,325.857 22.144,324.699 22.574 M339.928 22.434 C 337.110 23.115,334.643 24.974,332.984 27.667 C 332.641 28.222,331.753 30.836,331.482 32.083 C 330.980 34.398,331.297 39.045,332.106 41.238 C 332.244 41.611,332.421 42.173,332.500 42.486 C 332.904 44.085,335.038 46.489,337.153 47.728 C 340.468 49.672,347.396 49.697,351.284 47.779 L 352.333 47.262 352.333 46.402 C 352.333 45.929,352.380 45.307,352.438 45.021 C 352.568 44.366,352.286 44.337,351.189 44.889 C 350.344 45.315,348.851 45.827,347.167 46.268 C 344.950 46.850,340.948 46.485,339.548 45.574 C 339.345 45.441,339.065 45.333,338.926 45.333 C 338.390 45.333,336.330 43.147,335.802 42.017 C 334.855 39.990,334.333 38.028,334.333 36.489 L 334.333 35.667 343.917 35.667 L 353.500 35.667 353.499 34.625 C 353.494 26.004,347.485 20.606,339.928 22.434 M364.941 22.420 C 357.140 24.392,353.774 34.331,357.894 43.233 C 358.921 45.453,360.332 46.795,363.088 48.171 C 366.279 49.765,373.080 49.490,376.625 47.623 L 377.333 47.251 377.333 45.875 C 377.333 44.396,377.240 44.267,376.528 44.766 C 374.229 46.376,368.257 47.036,365.603 45.974 C 365.134 45.786,364.500 45.539,364.195 45.425 C 361.659 44.476,359.928 41.276,359.432 36.625 L 359.330 35.667 368.915 35.667 L 378.500 35.667 378.497 34.875 C 378.480 29.654,376.240 24.922,373.066 23.405 C 370.632 22.242,367.263 21.833,364.941 22.420 M388.167 22.328 C 386.562 22.637,384.384 23.629,383.703 24.361 C 382.523 25.629,382.322 25.873,382.092 26.316 C 381.392 27.669,381.346 31.108,382.011 32.401 C 382.743 33.825,384.933 35.537,386.583 35.973 C 386.950 36.070,388.337 36.422,389.667 36.755 C 395.670 38.257,396.530 38.795,396.930 41.298 C 397.652 45.810,389.935 48.606,384.923 45.648 L 384.333 45.300 384.333 43.234 L 384.333 41.167 383.000 41.167 L 381.667 41.167 381.667 44.343 L 381.667 47.518 382.605 47.948 C 384.874 48.987,389.635 49.468,393.250 49.025 C 398.159 48.422,401.149 43.950,399.819 39.198 C 399.212 37.032,396.011 35.017,392.460 34.568 C 388.540 34.071,385.822 32.880,385.084 31.334 C 382.735 26.420,388.785 23.008,395.375 25.532 L 395.833 25.707 395.833 27.770 L 395.833 29.833 397.167 29.833 L 398.500 29.833 398.499 28.125 C 398.498 27.185,398.450 25.800,398.391 25.047 L 398.285 23.678 396.962 23.237 C 396.235 22.995,395.215 22.691,394.695 22.561 C 393.566 22.278,389.226 22.123,388.167 22.328 M273.679 25.229 C 274.281 25.355,274.959 25.561,275.185 25.688 C 275.975 26.127,277.305 27.253,277.523 27.667 C 277.645 27.896,277.912 28.346,278.117 28.667 C 278.638 29.483,279.105 30.917,279.246 32.134 L 279.366 33.167 271.266 33.167 L 263.167 33.167 263.167 32.675 C 263.167 32.005,263.918 29.697,264.336 29.083 C 264.524 28.808,264.794 28.343,264.937 28.050 C 265.080 27.757,265.434 27.334,265.723 27.111 C 266.013 26.887,266.438 26.539,266.667 26.336 C 268.014 25.146,271.016 24.672,273.679 25.229 M297.033 25.175 C 297.952 25.356,299.500 25.978,299.500 26.164 C 299.500 26.223,299.831 26.520,300.236 26.823 C 302.928 28.840,303.055 34.468,300.462 36.801 C 300.086 37.140,299.680 37.514,299.559 37.634 C 299.438 37.753,298.819 38.028,298.184 38.244 C 292.725 40.101,287.917 37.060,287.917 31.750 C 287.917 26.959,291.821 24.143,297.033 25.175 M344.948 25.261 C 347.845 25.927,349.966 28.651,350.422 32.292 L 350.531 33.167 342.432 33.167 L 334.333 33.167 334.333 32.578 C 334.333 31.210,335.881 27.888,336.876 27.121 C 337.174 26.892,337.604 26.539,337.833 26.336 C 339.204 25.125,342.314 24.655,344.948 25.261 M369.833 25.225 C 372.648 25.849,374.835 28.419,375.244 31.583 C 375.303 32.042,375.386 32.585,375.429 32.792 L 375.506 33.167 367.407 33.167 L 359.307 33.167 359.414 32.625 C 360.021 29.542,360.427 28.660,361.946 27.121 C 363.790 25.253,366.751 24.541,369.833 25.225 M183.842 33.135 C 184.250 33.392,185.274 33.966,186.118 34.410 C 191.596 37.293,191.950 42.474,186.833 44.889 C 185.157 45.680,180.659 45.685,178.992 44.898 C 174.226 42.647,174.685 36.898,179.847 34.198 C 180.252 33.986,181.033 33.557,181.583 33.244 C 182.802 32.552,182.911 32.547,183.842 33.135 M298.000 49.661 C 305.041 50.897,306.047 51.669,305.155 55.149 C 303.743 60.658,288.493 60.544,287.004 55.014 C 286.817 54.320,287.121 52.622,287.459 52.472 C 287.528 52.442,287.866 52.083,288.211 51.676 C 288.957 50.793,290.219 50.057,292.250 49.316 C 293.406 48.894,293.755 48.915,298.000 49.661 M224.875 92.458 C 226.044 92.487,227.956 92.487,229.125 92.458 C 230.294 92.429,229.338 92.406,227.000 92.406 C 224.662 92.406,223.706 92.429,224.875 92.458 M286.875 92.453 C 287.127 92.491,287.540 92.491,287.792 92.453 C 288.044 92.415,287.837 92.383,287.333 92.383 C 286.829 92.383,286.623 92.415,286.875 92.453 M292.955 92.454 C 293.250 92.490,293.775 92.491,294.121 92.455 C 294.467 92.419,294.225 92.389,293.583 92.388 C 292.942 92.387,292.659 92.417,292.955 92.454 M302.532 92.458 C 303.695 92.486,305.645 92.486,306.865 92.458 C 308.085 92.429,307.133 92.406,304.750 92.406 C 302.367 92.406,301.368 92.429,302.532 92.458 M319.875 94.448 C 320.035 94.490,320.298 94.490,320.458 94.448 C 320.619 94.406,320.487 94.372,320.167 94.372 C 319.846 94.372,319.715 94.406,319.875 94.448 M257.072 95.791 C 257.083 97.083,257.083 97.083,257.544 97.104 C 257.951 97.122,257.957 97.116,257.592 97.052 C 257.204 96.983,257.177 96.907,257.121 95.739 L 257.061 94.499 257.072 95.791 M228.240 99.083 C 228.240 101.558,228.263 102.594,228.291 101.385 C 228.320 100.176,228.320 98.151,228.291 96.885 C 228.263 95.619,228.240 96.608,228.240 99.083 M303.573 99.250 C 303.573 101.725,303.596 102.761,303.624 101.552 C 303.653 100.343,303.653 98.318,303.625 97.052 C 303.596 95.786,303.573 96.775,303.573 99.250 M162.109 97.125 C 162.039 97.238,180.008 97.237,204.750 97.123 C 209.883 97.100,202.407 97.062,188.135 97.040 C 173.863 97.018,162.152 97.056,162.109 97.125 M349.375 97.125 C 356.319 97.149,367.681 97.149,374.625 97.125 C 381.569 97.101,375.887 97.081,362.000 97.081 C 348.113 97.081,342.431 97.101,349.375 97.125 M336.400 97.399 C 336.351 97.527,336.337 97.921,336.368 98.274 C 336.421 98.869,336.431 98.852,336.504 98.042 C 336.585 97.148,336.559 96.986,336.400 97.399 M317.542 97.917 C 317.544 98.283,317.578 98.414,317.618 98.206 C 317.658 97.999,317.656 97.699,317.615 97.540 C 317.573 97.380,317.540 97.550,317.542 97.917 M278.872 98.000 C 278.872 98.321,278.906 98.452,278.948 98.292 C 278.990 98.131,278.990 97.869,278.948 97.708 C 278.906 97.548,278.872 97.679,278.872 98.000 " stroke="none" fill="#040404" fill-rule="evenodd"></path><path id="path4" d="M79.583 23.807 C 78.942 24.249,77.648 25.151,76.708 25.810 C 75.768 26.469,74.827 27.074,74.615 27.154 C 74.404 27.235,74.010 27.483,73.741 27.706 C 73.471 27.929,72.841 28.330,72.341 28.598 C 71.309 29.149,71.127 29.271,70.567 29.784 C 70.343 29.990,70.165 30.063,70.162 29.951 C 70.159 29.840,69.949 29.975,69.695 30.250 C 69.441 30.525,69.094 30.775,68.924 30.805 C 68.754 30.835,68.451 30.967,68.252 31.097 C 68.053 31.228,67.828 31.278,67.752 31.209 C 67.676 31.140,67.667 31.177,67.733 31.292 C 67.799 31.406,67.775 31.500,67.679 31.500 C 67.348 31.500,66.095 34.999,65.827 36.667 C 65.746 37.171,65.527 38.405,65.339 39.409 C 64.905 41.730,64.611 45.549,64.741 47.167 C 65.022 50.651,65.213 51.982,65.446 52.071 C 65.577 52.122,65.645 52.100,65.597 52.022 C 65.502 51.868,66.195 51.507,66.802 51.394 C 67.204 51.320,68.474 50.761,70.763 49.652 C 71.503 49.294,72.191 49.000,72.290 49.000 C 72.390 49.000,72.497 48.944,72.528 48.875 C 72.558 48.806,73.633 48.214,74.917 47.560 C 77.913 46.031,78.398 45.772,78.500 45.647 C 78.546 45.591,78.921 45.376,79.333 45.170 C 80.228 44.723,82.494 43.385,84.000 42.413 C 84.596 42.029,85.284 41.610,85.530 41.482 C 85.775 41.354,86.579 40.819,87.316 40.292 C 88.053 39.765,88.771 39.333,88.911 39.333 C 89.052 39.333,89.167 39.271,89.167 39.194 C 89.167 39.117,89.692 38.692,90.333 38.250 C 90.975 37.808,91.500 37.400,91.500 37.344 C 91.500 37.288,91.768 37.098,92.095 36.922 C 92.422 36.746,92.766 36.459,92.859 36.285 C 93.088 35.858,92.897 24.642,92.659 24.495 C 92.511 24.404,91.380 24.260,88.000 23.901 C 87.587 23.857,87.063 23.779,86.833 23.728 C 86.604 23.677,85.967 23.606,85.417 23.569 C 84.867 23.533,83.892 23.430,83.250 23.340 C 80.572 22.963,80.862 22.926,79.583 23.807 M91.360 48.279 C 91.267 48.446,91.147 48.564,91.094 48.540 C 90.978 48.488,89.606 49.365,89.528 49.542 C 89.497 49.610,89.393 49.667,89.296 49.667 C 89.199 49.667,88.651 49.963,88.078 50.324 C 87.506 50.686,86.991 50.936,86.935 50.880 C 86.879 50.824,86.833 50.860,86.833 50.961 C 86.833 51.062,86.670 51.196,86.471 51.259 C 86.272 51.322,86.028 51.443,85.929 51.528 C 85.614 51.799,83.975 52.833,83.860 52.834 C 83.800 52.834,83.329 53.088,82.815 53.398 C 82.301 53.708,80.539 54.658,78.899 55.508 C 77.259 56.359,75.606 57.221,75.225 57.422 C 74.657 57.724,73.716 58.131,73.333 58.240 C 73.287 58.253,72.987 58.407,72.667 58.582 C 72.346 58.756,71.661 59.102,71.145 59.350 C 70.629 59.597,70.154 59.886,70.089 59.990 C 70.025 60.095,69.826 60.134,69.648 60.078 C 69.430 60.008,69.340 60.047,69.371 60.196 C 69.396 60.318,69.287 60.406,69.127 60.394 C 68.967 60.381,68.877 60.435,68.925 60.514 C 68.974 60.592,68.748 60.768,68.423 60.903 C 67.689 61.210,67.683 61.140,68.583 62.889 C 68.996 63.691,69.333 64.416,69.333 64.501 C 69.333 64.586,69.728 65.276,70.211 66.036 C 70.694 66.795,71.190 67.615,71.313 67.857 C 71.437 68.100,71.866 68.699,72.269 69.189 C 72.671 69.680,73.000 70.149,73.000 70.232 C 73.000 70.314,73.319 70.731,73.708 71.156 C 74.098 71.582,74.820 72.394,75.313 72.960 C 76.061 73.817,76.261 73.961,76.515 73.825 C 76.683 73.736,76.879 73.672,76.952 73.684 C 77.279 73.739,77.497 73.651,77.458 73.479 C 77.435 73.376,77.521 73.254,77.648 73.208 C 77.790 73.156,77.835 73.196,77.763 73.312 C 77.699 73.415,77.718 73.500,77.806 73.500 C 77.893 73.500,78.009 73.383,78.064 73.239 C 78.119 73.096,78.232 73.021,78.315 73.072 C 78.397 73.123,78.510 73.048,78.565 72.905 C 78.619 72.762,78.743 72.694,78.839 72.754 C 78.936 72.813,79.196 72.743,79.418 72.598 C 79.641 72.452,79.956 72.311,80.119 72.285 C 80.413 72.238,81.677 71.615,84.917 69.919 C 87.974 68.318,88.745 67.899,89.417 67.472 C 89.783 67.239,90.271 66.990,90.500 66.919 C 90.729 66.847,90.954 66.736,91.000 66.673 C 91.046 66.609,91.946 66.041,93.000 65.409 C 94.054 64.777,94.997 64.183,95.096 64.089 C 95.194 63.994,95.569 63.767,95.929 63.583 C 96.289 63.400,96.643 63.156,96.717 63.042 C 96.790 62.927,96.924 62.833,97.015 62.833 C 97.157 62.833,98.089 62.244,98.333 62.000 C 98.691 61.642,99.197 61.295,99.086 61.484 C 98.990 61.647,99.010 61.680,99.152 61.592 C 99.264 61.523,99.319 61.371,99.275 61.254 C 99.223 61.119,99.335 61.042,99.581 61.042 C 99.805 61.042,100.224 60.787,100.571 60.440 C 100.902 60.110,101.207 59.831,101.249 59.822 C 102.043 59.642,102.181 59.333,101.468 59.333 C 100.370 59.333,97.008 57.417,95.417 55.884 C 93.249 53.796,90.913 49.378,91.489 48.456 C 91.599 48.279,91.654 48.098,91.610 48.055 C 91.566 48.011,91.454 48.112,91.360 48.279 M102.500 58.774 L 101.917 59.364 102.540 58.974 C 102.882 58.759,103.163 58.490,103.165 58.375 C 103.167 58.098,103.170 58.096,102.500 58.774 M103.708 67.301 C 101.458 68.884,99.466 70.265,99.213 70.417 C 99.060 70.508,98.856 70.642,98.759 70.714 C 98.148 71.170,96.061 72.496,95.952 72.498 C 95.879 72.499,95.617 72.643,95.368 72.819 C 94.474 73.450,93.414 74.071,93.292 74.036 C 93.223 74.016,93.167 74.068,93.167 74.150 C 93.167 74.233,92.960 74.383,92.708 74.484 C 92.456 74.585,92.025 74.812,91.750 74.989 C 91.310 75.272,90.888 75.514,89.583 76.234 C 89.400 76.336,89.138 76.491,89.000 76.580 C 88.862 76.668,88.653 76.755,88.533 76.773 C 88.414 76.791,88.058 77.004,87.742 77.245 C 87.425 77.486,87.167 77.640,87.167 77.588 C 87.167 77.426,86.092 78.030,85.950 78.272 C 85.877 78.397,85.521 78.546,85.159 78.604 C 84.796 78.662,84.500 78.779,84.500 78.864 C 84.500 78.950,84.594 78.967,84.708 78.902 C 84.864 78.814,84.862 78.843,84.701 79.016 C 84.518 79.213,84.460 79.210,84.311 78.999 C 84.160 78.785,84.147 78.789,84.221 79.021 C 84.329 79.361,84.039 79.663,83.592 79.677 C 83.253 79.688,83.253 79.689,83.583 79.850 C 83.767 79.939,84.367 80.309,84.917 80.673 C 85.467 81.037,86.104 81.418,86.333 81.521 C 86.563 81.623,87.585 82.110,88.606 82.603 C 89.627 83.096,90.643 83.500,90.864 83.500 C 91.086 83.500,91.338 83.567,91.425 83.650 C 91.746 83.954,95.842 85.152,97.189 85.336 C 97.954 85.441,98.636 85.615,98.704 85.722 C 98.784 85.847,98.829 85.805,98.831 85.605 C 98.833 85.341,98.874 85.326,99.093 85.508 C 99.307 85.686,99.343 85.682,99.301 85.487 C 99.270 85.340,99.361 85.269,99.542 85.299 C 99.715 85.328,99.833 85.243,99.833 85.091 C 99.833 84.859,100.029 84.759,100.375 84.814 C 100.444 84.824,100.500 84.716,100.500 84.573 C 100.500 84.431,100.575 84.360,100.667 84.417 C 100.758 84.473,100.833 84.436,100.833 84.333 C 100.833 84.231,100.895 84.185,100.971 84.232 C 101.047 84.279,101.366 84.107,101.680 83.849 C 101.993 83.591,102.410 83.330,102.605 83.269 C 102.801 83.207,103.120 83.028,103.315 82.870 C 103.510 82.712,103.838 82.455,104.043 82.298 C 106.255 80.605,106.395 80.448,107.506 78.417 C 108.408 76.766,110.210 73.580,110.333 73.417 C 110.512 73.179,111.833 70.697,111.833 70.598 C 111.833 70.481,110.325 69.658,105.667 67.232 C 105.071 66.922,104.583 66.672,104.583 66.676 C 104.583 66.681,104.189 66.962,103.708 67.301 M241.225 92.755 C 241.162 92.919,241.012 92.973,240.805 92.908 C 240.330 92.757,239.360 93.488,238.300 94.796 C 238.117 95.022,238.122 95.044,238.333 94.936 C 238.527 94.837,238.524 94.858,238.319 95.029 C 238.173 95.151,238.086 95.344,238.124 95.458 C 238.163 95.573,238.120 95.667,238.029 95.667 C 237.939 95.667,237.907 95.828,237.959 96.026 C 238.020 96.261,237.990 96.347,237.871 96.273 C 237.771 96.212,237.643 96.237,237.585 96.331 C 237.527 96.424,237.560 96.500,237.657 96.500 C 237.754 96.500,237.833 96.612,237.833 96.750 C 237.833 96.888,237.777 97.001,237.708 97.001 C 237.054 97.008,237.087 98.877,237.750 99.375 C 237.855 99.454,237.825 99.559,237.671 99.658 C 237.462 99.792,237.470 99.832,237.723 99.929 C 237.886 99.992,237.980 100.146,237.931 100.272 C 237.883 100.397,237.924 100.500,238.023 100.500 C 238.122 100.500,238.159 100.612,238.106 100.750 C 238.054 100.888,238.088 101.000,238.182 101.000 C 238.276 101.000,238.309 101.071,238.255 101.159 C 238.069 101.459,239.262 102.730,239.605 102.598 C 239.740 102.546,239.807 102.575,239.753 102.661 C 239.634 102.854,240.576 103.368,240.742 103.202 C 240.807 103.137,240.967 103.229,241.097 103.407 C 241.227 103.585,241.333 103.641,241.333 103.532 C 241.333 103.402,241.652 103.333,242.250 103.333 C 242.754 103.333,243.167 103.408,243.167 103.500 C 243.167 103.592,243.242 103.667,243.333 103.667 C 243.425 103.667,243.500 103.546,243.500 103.399 C 243.500 103.234,243.592 103.166,243.741 103.224 C 244.315 103.444,245.856 102.333,246.191 101.458 C 246.287 101.206,246.438 101.000,246.526 101.000 C 246.614 101.000,246.640 100.925,246.583 100.833 C 246.527 100.742,246.564 100.667,246.667 100.667 C 246.769 100.667,246.804 100.587,246.743 100.489 C 246.683 100.391,246.772 100.210,246.942 100.086 C 247.613 99.595,247.321 96.020,246.542 95.196 C 246.427 95.075,246.333 94.907,246.333 94.821 C 246.333 94.479,246.277 94.393,245.653 93.781 C 245.296 93.431,244.928 93.192,244.835 93.249 C 244.743 93.306,244.667 93.261,244.667 93.149 C 244.667 93.036,244.618 92.993,244.558 93.053 C 244.498 93.113,244.351 93.031,244.230 92.872 C 244.095 92.695,244.009 92.664,244.005 92.792 C 244.002 92.906,243.921 93.000,243.823 93.000 C 243.726 93.000,243.688 92.933,243.739 92.851 C 243.882 92.619,243.398 92.500,242.314 92.500 C 241.578 92.500,241.298 92.566,241.225 92.755 M256.375 92.609 C 256.169 92.654,256.000 92.760,256.000 92.845 C 256.000 92.930,255.887 93.000,255.750 93.000 C 255.612 93.000,255.500 92.925,255.500 92.833 C 255.500 92.586,255.226 92.631,254.929 92.929 C 254.702 93.155,254.667 93.866,254.667 98.179 L 254.667 103.167 255.662 103.167 L 256.656 103.167 256.703 101.125 L 256.750 99.083 257.475 99.031 C 258.018 98.992,258.340 99.076,258.762 99.365 C 259.318 99.745,259.376 99.881,259.593 101.313 C 259.672 101.836,259.747 101.978,259.857 101.813 C 259.961 101.657,259.979 101.718,259.912 102.007 C 259.697 102.942,260.018 103.256,261.128 103.194 L 262.129 103.139 261.908 102.528 C 261.787 102.192,261.643 101.707,261.589 101.452 C 261.535 101.196,261.417 101.031,261.328 101.086 C 261.239 101.141,261.167 101.107,261.167 101.010 C 261.167 100.913,261.260 100.831,261.375 100.828 C 261.496 100.825,261.452 100.723,261.271 100.586 C 261.090 100.449,261.000 100.240,261.057 100.091 C 261.112 99.949,261.076 99.833,260.977 99.833 C 260.878 99.833,260.841 99.721,260.894 99.583 C 260.946 99.446,260.912 99.333,260.818 99.333 C 260.724 99.333,260.688 99.267,260.738 99.186 C 260.788 99.105,260.679 98.849,260.497 98.617 L 260.165 98.195 260.603 97.674 C 260.844 97.387,261.081 97.192,261.129 97.240 C 261.331 97.442,261.666 96.400,261.655 95.606 C 261.642 94.684,261.498 94.159,261.245 94.113 C 261.157 94.097,261.107 93.990,261.133 93.875 C 261.160 93.760,261.061 93.667,260.914 93.667 C 260.767 93.667,260.693 93.592,260.750 93.500 C 260.841 93.353,260.736 93.307,260.401 93.344 C 260.347 93.351,260.200 93.219,260.073 93.053 C 259.891 92.812,259.842 92.801,259.834 93.000 C 259.825 93.198,259.788 93.189,259.653 92.958 C 259.560 92.798,259.408 92.667,259.315 92.667 C 259.223 92.667,259.193 92.742,259.250 92.833 C 259.307 92.925,259.242 93.000,259.107 93.000 C 258.972 93.000,258.832 92.912,258.796 92.805 C 258.728 92.601,257.045 92.465,256.375 92.609 M272.511 92.792 C 272.361 93.046,272.318 93.051,272.172 92.833 C 272.031 92.622,272.005 92.631,272.003 92.893 C 272.001 93.099,271.917 93.170,271.750 93.106 C 271.612 93.054,271.500 93.083,271.500 93.172 C 271.500 93.261,271.435 93.315,271.355 93.292 C 271.276 93.269,271.070 93.404,270.897 93.591 C 270.725 93.779,270.652 93.816,270.736 93.675 C 270.820 93.533,270.648 93.660,270.354 93.957 C 269.743 94.574,268.983 96.096,269.115 96.439 C 269.164 96.566,269.083 96.854,268.935 97.079 C 268.588 97.608,268.581 98.888,268.923 99.172 C 269.064 99.289,269.158 99.505,269.133 99.654 C 269.060 100.087,269.533 101.333,269.771 101.333 C 269.891 101.333,269.950 101.437,269.901 101.563 C 269.853 101.690,270.014 101.951,270.262 102.147 C 270.509 102.341,270.646 102.500,270.567 102.500 C 270.487 102.500,270.683 102.641,271.003 102.814 C 271.322 102.987,271.640 103.095,271.708 103.054 C 271.777 103.014,271.833 103.053,271.833 103.141 C 271.833 103.230,271.983 103.263,272.167 103.215 C 272.410 103.151,272.504 103.212,272.513 103.439 C 272.521 103.614,272.563 103.659,272.610 103.542 C 272.723 103.262,274.667 103.252,274.667 103.532 C 274.667 103.641,274.778 103.585,274.913 103.407 C 275.127 103.127,275.183 103.117,275.328 103.333 C 275.474 103.553,275.495 103.551,275.497 103.319 C 275.499 103.174,275.608 103.056,275.741 103.056 C 276.076 103.056,277.019 102.384,277.403 101.872 C 277.606 101.602,277.636 101.491,277.487 101.570 C 277.357 101.639,277.416 101.558,277.618 101.389 C 278.094 100.994,278.597 99.834,278.294 99.831 C 278.164 99.829,278.147 99.781,278.250 99.706 C 278.672 99.396,278.773 98.882,278.648 97.667 C 278.578 96.979,278.516 96.318,278.510 96.198 C 278.505 96.077,278.415 96.033,278.308 96.099 C 278.182 96.177,278.161 96.144,278.247 96.005 C 278.389 95.775,277.684 94.174,277.439 94.169 C 277.360 94.168,277.054 93.904,276.760 93.582 C 276.465 93.261,276.174 93.048,276.112 93.110 C 276.050 93.172,276.000 93.143,276.000 93.047 C 276.000 92.951,275.850 92.833,275.666 92.785 C 275.483 92.737,275.375 92.766,275.426 92.849 C 275.478 92.932,275.448 93.000,275.361 93.000 C 275.274 93.000,275.159 92.888,275.106 92.750 C 274.957 92.360,272.745 92.396,272.511 92.792 M319.062 92.746 C 319.008 92.886,318.812 92.969,318.609 92.938 C 318.411 92.908,318.151 93.003,318.029 93.150 C 317.864 93.350,317.841 93.354,317.940 93.167 C 318.142 92.780,316.687 93.985,316.461 94.391 C 316.352 94.589,316.255 94.787,316.248 94.833 C 316.183 95.215,315.947 95.667,315.812 95.667 C 315.721 95.667,315.694 95.742,315.751 95.835 C 315.808 95.927,315.737 96.120,315.594 96.263 C 315.451 96.407,315.333 96.719,315.333 96.958 C 315.333 97.197,315.242 97.646,315.130 97.956 C 314.970 98.397,314.970 98.545,315.129 98.643 C 315.241 98.712,315.346 98.989,315.362 99.259 C 315.379 99.529,315.504 99.881,315.639 100.042 C 315.774 100.202,315.831 100.333,315.764 100.333 C 315.697 100.333,315.765 100.456,315.914 100.605 C 316.064 100.754,316.149 100.973,316.103 101.091 C 316.058 101.209,316.134 101.349,316.271 101.402 C 316.409 101.454,316.479 101.566,316.428 101.649 C 316.233 101.963,318.312 103.466,318.576 103.202 C 318.641 103.137,318.809 103.234,318.949 103.417 C 319.126 103.647,319.229 103.686,319.283 103.542 C 319.331 103.415,319.675 103.333,320.167 103.333 C 320.653 103.333,321.007 103.416,321.060 103.542 C 321.122 103.691,321.200 103.667,321.332 103.458 C 321.433 103.298,321.596 103.167,321.693 103.167 C 321.790 103.167,321.823 103.298,321.767 103.458 C 321.678 103.715,321.691 103.719,321.875 103.493 C 322.182 103.115,323.265 102.487,323.391 102.613 C 323.491 102.713,323.567 102.424,323.520 102.125 C 323.509 102.056,323.576 102.000,323.669 102.000 C 323.888 102.000,324.509 100.982,324.398 100.803 C 324.352 100.728,324.391 100.667,324.485 100.667 C 324.579 100.667,324.613 100.554,324.560 100.417 C 324.508 100.279,324.552 100.167,324.659 100.167 C 324.766 100.167,324.806 100.091,324.749 99.999 C 324.692 99.906,324.763 99.713,324.906 99.570 C 325.335 99.141,325.231 96.005,324.797 96.273 C 324.693 96.336,324.676 96.234,324.750 96.000 C 324.839 95.719,324.816 95.658,324.656 95.756 C 324.505 95.850,324.474 95.808,324.550 95.611 C 324.608 95.458,324.592 95.333,324.513 95.333 C 324.434 95.333,324.324 95.217,324.270 95.075 C 324.202 94.899,324.237 94.856,324.377 94.940 C 324.537 95.036,324.539 95.010,324.389 94.824 C 323.646 93.908,322.827 93.151,322.677 93.243 C 322.580 93.304,322.500 93.261,322.500 93.149 C 322.500 93.036,322.451 92.993,322.391 93.053 C 322.332 93.113,322.184 93.031,322.063 92.872 C 321.884 92.636,321.842 92.629,321.834 92.833 C 321.825 93.031,321.788 93.022,321.653 92.792 C 321.424 92.398,319.210 92.360,319.062 92.746 M223.107 92.782 C 223.048 92.841,223.000 93.214,223.000 93.611 L 223.000 94.333 224.500 94.333 C 225.586 94.333,226.001 94.391,226.005 94.542 C 226.008 94.656,226.006 96.662,226.000 99.000 L 225.990 103.250 226.909 103.193 L 227.828 103.136 227.872 98.776 L 227.917 94.417 229.500 94.333 L 231.083 94.250 231.134 93.553 L 231.185 92.856 227.318 92.839 C 225.192 92.831,223.398 92.790,223.333 92.750 C 223.267 92.709,223.165 92.724,223.107 92.782 M286.070 92.819 C 286.032 92.858,286.000 95.201,286.000 98.028 L 286.000 103.167 286.820 103.167 C 287.271 103.167,287.770 103.217,287.930 103.278 C 288.204 103.383,288.214 103.171,288.108 99.755 L 287.995 96.120 288.461 96.601 C 288.717 96.867,288.900 97.171,288.867 97.279 C 288.834 97.386,288.963 97.557,289.152 97.659 C 289.342 97.760,289.479 97.901,289.457 97.972 C 289.400 98.154,290.048 99.333,290.205 99.333 C 290.275 99.333,290.333 99.435,290.333 99.559 C 290.333 99.683,290.502 99.970,290.708 100.196 C 290.915 100.423,291.106 100.738,291.134 100.897 C 291.182 101.163,291.453 101.556,291.950 102.082 C 292.061 102.198,292.104 102.340,292.048 102.397 C 291.991 102.454,292.024 102.500,292.121 102.500 C 292.218 102.500,292.339 102.669,292.391 102.875 C 292.477 103.217,292.567 103.245,293.404 103.193 L 294.324 103.136 294.370 98.068 C 294.400 94.771,294.358 92.999,294.250 92.997 C 294.158 92.996,294.184 92.931,294.307 92.853 C 294.443 92.767,294.178 92.730,293.641 92.759 L 292.750 92.807 292.709 96.112 C 292.681 98.320,292.722 99.334,292.831 99.167 C 292.973 98.949,292.995 98.953,292.997 99.191 C 293.004 99.938,291.847 99.236,291.692 98.398 C 291.660 98.225,291.580 98.046,291.514 98.000 C 291.448 97.954,291.107 97.448,290.757 96.875 C 290.406 96.302,290.088 95.833,290.050 95.833 C 290.012 95.833,290.034 95.920,290.099 96.026 C 290.171 96.142,290.145 96.173,290.033 96.104 C 289.931 96.041,289.895 95.867,289.952 95.717 C 290.028 95.521,289.995 95.483,289.836 95.582 C 289.689 95.673,289.655 95.654,289.735 95.525 C 289.858 95.325,289.270 94.354,288.880 94.115 C 288.759 94.040,288.703 93.909,288.756 93.823 C 288.810 93.737,288.774 93.667,288.677 93.667 C 288.579 93.667,288.519 93.579,288.542 93.472 C 288.565 93.365,288.408 93.186,288.193 93.074 C 287.979 92.962,287.886 92.844,287.986 92.811 C 288.086 92.777,287.712 92.750,287.154 92.750 C 286.597 92.750,286.109 92.781,286.070 92.819 M304.792 92.795 L 300.833 92.839 300.833 93.580 L 300.833 94.321 302.375 94.369 L 303.917 94.417 303.961 98.776 L 304.005 103.136 304.920 103.193 L 305.834 103.250 305.834 98.792 L 305.833 94.333 307.236 94.333 C 309.005 94.333,309.167 94.271,309.167 93.586 C 309.167 92.766,309.057 92.747,304.792 92.795 M242.862 94.109 C 243.044 94.274,243.167 94.308,243.167 94.192 C 243.167 94.069,243.271 94.090,243.458 94.250 C 244.686 95.304,244.989 95.635,245.056 96.000 C 245.320 97.435,245.385 97.655,245.518 97.572 C 245.600 97.522,245.667 97.714,245.667 98.000 C 245.667 98.286,245.598 98.477,245.515 98.426 C 245.431 98.374,245.304 98.651,245.233 99.041 C 245.097 99.783,245.068 99.920,245.001 100.125 C 244.979 100.194,244.969 100.306,244.980 100.375 C 244.991 100.444,244.913 100.500,244.806 100.500 C 244.699 100.500,244.652 100.541,244.702 100.591 C 244.807 100.696,243.516 102.000,243.307 102.000 C 243.230 102.000,243.158 101.869,243.147 101.708 C 243.129 101.431,243.124 101.431,243.052 101.708 C 242.998 101.912,242.809 102.000,242.422 102.000 C 242.052 102.000,241.830 101.904,241.750 101.708 C 241.641 101.441,241.620 101.444,241.494 101.750 C 241.418 101.933,241.351 101.985,241.345 101.865 C 241.339 101.745,241.258 101.693,241.167 101.750 C 241.075 101.807,241.000 101.769,241.000 101.667 C 241.000 101.564,240.925 101.527,240.833 101.583 C 240.742 101.640,240.667 101.576,240.667 101.440 C 240.667 101.305,240.603 101.169,240.525 101.139 C 239.992 100.930,239.198 98.948,239.501 98.582 C 239.632 98.424,239.632 98.332,239.500 98.250 C 239.369 98.169,239.372 98.071,239.512 97.902 C 239.662 97.722,239.661 97.610,239.509 97.427 C 239.361 97.250,239.358 97.099,239.494 96.844 C 239.596 96.655,239.629 96.500,239.569 96.500 C 239.509 96.500,239.543 96.399,239.645 96.276 C 239.747 96.153,239.790 96.012,239.741 95.963 C 239.692 95.914,239.906 95.603,240.217 95.273 C 240.529 94.943,240.750 94.639,240.708 94.597 C 240.667 94.555,240.909 94.470,241.246 94.406 C 241.584 94.343,241.899 94.188,241.948 94.062 C 242.067 93.752,242.491 93.774,242.862 94.109 M274.227 94.083 C 274.280 94.221,274.470 94.333,274.650 94.333 C 274.829 94.333,275.243 94.585,275.568 94.892 C 275.894 95.199,276.212 95.405,276.274 95.350 C 276.336 95.295,276.326 95.355,276.251 95.484 C 276.163 95.635,276.223 95.796,276.421 95.940 C 276.588 96.063,276.676 96.213,276.614 96.275 C 276.553 96.336,276.591 96.492,276.699 96.622 C 276.851 96.805,276.846 96.889,276.680 96.992 C 276.528 97.086,276.519 97.159,276.649 97.239 C 276.879 97.381,276.893 98.610,276.667 98.750 C 276.575 98.807,276.500 98.928,276.500 99.020 C 276.500 99.111,276.575 99.140,276.667 99.083 C 276.758 99.027,276.833 99.097,276.833 99.240 C 276.833 99.383,276.761 99.500,276.672 99.500 C 276.583 99.500,276.550 99.603,276.598 99.728 C 276.646 99.854,276.569 100.002,276.426 100.057 C 276.283 100.111,276.167 100.258,276.167 100.382 C 276.167 100.507,275.981 100.783,275.755 100.995 C 275.529 101.208,275.390 101.457,275.448 101.550 C 275.507 101.646,275.468 101.667,275.359 101.599 C 275.253 101.534,275.167 101.564,275.167 101.667 C 275.167 101.769,275.098 101.811,275.014 101.759 C 274.930 101.707,274.824 101.759,274.777 101.874 C 274.713 102.032,274.649 102.022,274.515 101.833 C 274.395 101.664,274.338 101.650,274.336 101.792 C 274.334 101.918,274.104 102.000,273.750 102.000 C 273.396 102.000,273.166 101.918,273.164 101.792 C 273.162 101.650,273.105 101.664,272.985 101.833 C 272.851 102.022,272.787 102.032,272.723 101.874 C 272.676 101.759,272.570 101.707,272.486 101.759 C 272.402 101.811,272.333 101.736,272.333 101.593 C 272.333 101.450,272.269 101.333,272.191 101.333 C 272.113 101.333,271.846 101.146,271.599 100.917 C 271.352 100.688,271.188 100.500,271.235 100.500 C 271.283 100.500,271.171 100.150,270.988 99.722 C 270.749 99.163,270.708 98.911,270.845 98.826 C 270.987 98.738,270.987 98.679,270.846 98.591 C 270.635 98.461,270.693 97.028,270.925 96.653 C 271.052 96.447,271.109 96.216,271.196 95.549 C 271.210 95.438,271.277 95.382,271.343 95.423 C 271.409 95.464,271.588 95.308,271.739 95.077 C 271.891 94.845,272.078 94.696,272.157 94.744 C 272.235 94.792,272.337 94.730,272.385 94.606 C 272.432 94.482,272.708 94.333,272.997 94.276 C 273.290 94.217,273.476 94.096,273.418 94.002 C 273.358 93.906,273.489 93.833,273.722 93.833 C 273.947 93.833,274.174 93.946,274.227 94.083 M320.594 93.983 C 320.543 94.065,320.614 94.175,320.751 94.227 C 320.888 94.280,321.003 94.231,321.006 94.120 C 321.009 94.008,321.103 94.067,321.214 94.250 C 321.326 94.433,321.510 94.591,321.625 94.600 C 321.740 94.609,321.895 94.628,321.969 94.642 C 322.114 94.668,322.857 95.914,322.978 96.333 C 323.279 97.375,323.050 99.774,322.580 100.500 C 322.313 100.912,322.091 101.325,322.087 101.417 C 322.083 101.508,321.912 101.560,321.707 101.531 C 321.473 101.499,321.333 101.566,321.333 101.713 C 321.333 102.022,319.831 102.095,319.636 101.794 C 319.529 101.629,319.465 101.637,319.336 101.833 C 319.216 102.015,319.171 102.024,319.169 101.865 C 319.168 101.745,319.092 101.693,319.000 101.750 C 318.908 101.807,318.833 101.769,318.833 101.667 C 318.833 101.564,318.747 101.534,318.641 101.599 C 318.526 101.670,318.494 101.645,318.560 101.537 C 318.622 101.438,318.595 101.309,318.500 101.250 C 318.405 101.191,318.369 101.078,318.418 100.997 C 318.468 100.917,318.357 100.880,318.171 100.916 C 317.868 100.974,317.802 100.902,317.848 100.560 C 317.855 100.502,317.768 100.396,317.653 100.325 C 317.381 100.157,317.376 96.714,317.645 95.487 C 317.689 95.288,319.148 94.333,319.407 94.333 C 319.556 94.333,319.720 94.221,319.773 94.083 C 319.826 93.946,320.053 93.833,320.278 93.833 C 320.502 93.833,320.645 93.900,320.594 93.983 M259.280 94.588 C 259.493 94.727,259.667 94.956,259.667 95.097 C 259.667 95.238,259.723 95.319,259.792 95.276 C 259.860 95.234,259.920 95.491,259.925 95.847 C 259.929 96.203,259.883 96.414,259.823 96.316 C 259.723 96.154,259.441 96.746,259.480 97.036 C 259.489 97.101,259.384 97.112,259.248 97.060 C 259.112 97.007,259.000 97.045,259.000 97.144 C 259.000 97.242,258.887 97.280,258.750 97.227 C 258.612 97.174,258.500 97.218,258.500 97.324 C 258.500 97.453,258.206 97.501,257.625 97.467 L 256.750 97.417 256.701 96.014 C 256.634 94.089,256.628 94.098,257.867 94.227 C 258.432 94.286,259.068 94.448,259.280 94.588 M225.739 99.167 C 225.739 101.596,225.763 102.590,225.791 101.375 C 225.820 100.160,225.820 98.173,225.791 96.958 C 225.763 95.744,225.739 96.737,225.739 99.167 M162.199 98.210 L 162.250 98.917 188.125 98.959 L 214.000 99.001 214.000 98.250 L 214.000 97.498 188.074 97.501 L 162.148 97.504 162.199 98.210 M336.833 98.252 L 336.833 99.000 362.000 99.000 L 387.167 99.000 387.167 98.249 L 387.167 97.498 362.000 97.501 L 336.833 97.504 336.833 98.252 " stroke="none" fill="#84bd44" fill-rule="evenodd"></path><path id="path5" d="M42.000 0.329 C 41.404 0.494,40.354 0.829,39.667 1.074 C 38.979 1.320,37.967 1.672,37.417 1.857 C 35.863 2.381,30.430 4.984,30.167 5.331 C 30.041 5.497,29.439 5.725,29.250 5.679 C 29.158 5.657,29.139 5.694,29.207 5.762 C 29.275 5.830,29.254 5.978,29.160 6.091 C 28.927 6.372,30.646 7.351,31.144 7.221 C 31.338 7.170,31.463 7.075,31.423 7.010 C 31.382 6.944,31.664 6.752,32.050 6.584 C 32.435 6.415,33.125 6.037,33.583 5.745 C 36.294 4.016,36.859 3.668,37.917 3.078 C 38.558 2.720,40.171 1.885,41.500 1.222 C 43.954 -0.001,44.093 -0.249,42.000 0.329 M15.205 17.322 C 14.909 17.605,14.667 17.915,14.667 18.011 C 14.667 18.108,14.587 18.137,14.491 18.078 C 14.394 18.018,14.100 18.220,13.838 18.526 C 12.340 20.276,11.500 21.344,11.500 21.499 C 11.500 21.806,17.040 21.643,17.124 21.333 C 17.184 21.111,17.172 21.111,17.015 21.333 C 16.740 21.723,16.803 21.369,17.086 20.936 C 17.316 20.585,17.309 20.515,17.010 20.134 C 16.670 19.701,16.286 18.764,15.943 17.529 L 15.743 16.808 15.205 17.322 M5.226 36.125 C -0.165 42.153,0.610 46.493,7.331 47.914 C 8.376 48.135,8.973 48.027,8.745 47.658 C 8.698 47.582,8.790 47.447,8.950 47.358 C 9.226 47.203,9.227 47.126,8.953 45.806 C 8.252 42.426,9.634 37.496,11.471 36.819 C 11.617 36.765,11.364 36.675,10.910 36.619 C 9.650 36.463,8.518 36.073,7.438 35.423 C 6.900 35.098,6.442 34.833,6.420 34.833 C 6.399 34.833,5.861 35.415,5.226 36.125 M25.333 35.764 C 24.279 35.983,23.784 36.126,24.233 36.081 C 24.698 36.035,25.142 36.077,25.266 36.180 C 25.509 36.382,26.667 36.053,26.667 35.782 C 26.667 35.699,26.764 35.668,26.883 35.714 C 27.003 35.760,27.284 35.696,27.508 35.571 C 28.102 35.243,27.650 35.283,25.333 35.764 M12.460 36.951 C 12.668 36.991,12.968 36.990,13.127 36.948 C 13.286 36.906,13.117 36.874,12.750 36.875 C 12.383 36.877,12.253 36.911,12.460 36.951 M16.792 36.951 C 16.998 36.991,17.335 36.991,17.542 36.951 C 17.748 36.911,17.579 36.879,17.167 36.879 C 16.754 36.879,16.585 36.911,16.792 36.951 M2.323 65.189 C 2.099 65.666,1.932 66.080,1.952 66.109 C 1.971 66.138,1.877 66.473,1.743 66.852 C 0.468 70.467,3.299 73.610,8.687 74.561 C 11.821 75.114,12.109 75.011,10.585 73.880 C 8.868 72.607,7.572 70.006,7.376 67.439 L 7.250 65.795 6.083 65.497 C 5.086 65.243,4.105 64.906,2.990 64.432 C 2.794 64.349,2.627 64.539,2.323 65.189 M8.792 66.118 C 8.998 66.157,9.335 66.157,9.542 66.118 C 9.748 66.078,9.579 66.045,9.167 66.045 C 8.754 66.045,8.585 66.078,8.792 66.118 M16.377 66.120 C 16.631 66.158,17.006 66.157,17.211 66.117 C 17.416 66.078,17.208 66.046,16.750 66.048 C 16.292 66.049,16.124 66.081,16.377 66.120 M11.549 66.291 C 12.264 66.322,13.389 66.322,14.049 66.290 C 14.710 66.259,14.125 66.233,12.750 66.233 C 11.375 66.234,10.835 66.259,11.549 66.291 M12.333 89.042 C 12.104 90.768,12.716 93.333,13.355 93.333 C 13.446 93.333,13.466 93.420,13.401 93.526 C 13.333 93.635,13.354 93.673,13.449 93.615 C 13.542 93.558,13.872 93.702,14.183 93.935 C 15.904 95.224,19.684 96.330,22.375 96.333 C 23.253 96.333,23.271 96.315,22.919 95.777 C 21.956 94.308,21.544 89.534,22.375 89.472 C 22.581 89.457,21.250 89.391,19.417 89.326 C 17.047 89.243,15.594 89.106,14.390 88.854 C 12.278 88.412,12.418 88.399,12.333 89.042 M24.208 89.282 C 24.369 89.323,24.631 89.323,24.792 89.282 C 24.952 89.240,24.821 89.205,24.500 89.205 C 24.179 89.205,24.048 89.240,24.208 89.282 M273.542 92.448 C 273.702 92.490,273.965 92.490,274.125 92.448 C 274.285 92.406,274.154 92.372,273.833 92.372 C 273.512 92.372,273.381 92.406,273.542 92.448 M320.042 92.448 C 320.202 92.490,320.465 92.490,320.625 92.448 C 320.785 92.406,320.654 92.372,320.333 92.372 C 320.012 92.372,319.881 92.406,320.042 92.448 M24.208 96.456 C 24.735 96.490,25.598 96.490,26.125 96.456 C 26.652 96.423,26.221 96.396,25.167 96.396 C 24.113 96.396,23.681 96.423,24.208 96.456 M247.381 97.917 C 247.382 98.375,247.415 98.543,247.453 98.289 C 247.491 98.036,247.490 97.661,247.451 97.456 C 247.411 97.251,247.380 97.458,247.381 97.917 M256.898 101.250 C 256.898 102.442,256.925 102.907,256.957 102.285 C 256.989 101.662,256.989 100.687,256.957 100.118 C 256.924 99.549,256.898 100.058,256.898 101.250 M68.384 100.311 C 66.495 100.976,65.722 101.320,65.808 101.460 C 66.109 101.947,66.411 101.848,69.988 100.101 C 72.029 99.104,71.684 99.149,68.384 100.311 M242.042 103.782 C 242.202 103.823,242.465 103.823,242.625 103.782 C 242.785 103.740,242.654 103.705,242.333 103.705 C 242.012 103.705,241.881 103.740,242.042 103.782 M273.375 103.782 C 273.535 103.823,273.798 103.823,273.958 103.782 C 274.119 103.740,273.987 103.705,273.667 103.705 C 273.346 103.705,273.215 103.740,273.375 103.782 M319.875 103.782 C 320.035 103.823,320.298 103.823,320.458 103.782 C 320.619 103.740,320.487 103.705,320.167 103.705 C 319.846 103.705,319.715 103.740,319.875 103.782 M48.319 105.899 C 48.030 106.171,39.926 107.167,38.001 107.167 C 36.393 107.167,36.302 107.275,36.826 108.565 C 37.588 110.442,39.076 111.192,42.667 111.507 C 45.153 111.725,50.503 111.447,50.768 111.085 C 50.870 110.947,51.020 110.831,51.102 110.828 C 51.971 110.797,51.791 110.029,50.656 108.930 C 50.020 108.314,49.500 107.696,49.500 107.556 C 49.500 107.417,49.350 107.112,49.167 106.879 C 48.983 106.646,48.833 106.315,48.833 106.144 C 48.833 105.871,48.512 105.717,48.319 105.899 " stroke="none" fill="#507c24" fill-rule="evenodd"></path><path id="path6" d="M97.472 43.802 C 97.442 43.876,97.004 44.252,96.500 44.636 C 95.996 45.021,95.490 45.413,95.375 45.508 C 95.260 45.602,95.166 45.621,95.164 45.548 C 95.163 45.476,95.106 45.494,95.039 45.589 C 94.972 45.683,94.583 46.002,94.175 46.297 C 93.768 46.592,93.505 46.838,93.592 46.844 C 93.679 46.850,93.563 46.929,93.333 47.021 C 93.104 47.112,92.898 47.182,92.875 47.177 C 92.770 47.151,92.088 47.930,92.123 48.036 C 92.145 48.101,92.061 48.116,91.936 48.068 C 91.812 48.020,91.663 48.102,91.606 48.251 C 91.549 48.400,91.430 48.477,91.342 48.422 C 90.632 47.983,93.161 53.446,94.209 54.615 C 96.726 57.422,101.654 60.308,102.072 59.219 C 102.123 59.087,102.251 59.033,102.358 59.099 C 102.468 59.167,102.507 59.146,102.448 59.051 C 102.391 58.959,102.530 58.723,102.756 58.526 C 103.007 58.308,103.169 58.250,103.172 58.376 C 103.175 58.501,103.265 58.468,103.399 58.292 C 103.520 58.131,103.706 58.000,103.810 58.000 C 103.915 58.000,104.000 57.930,104.000 57.845 C 104.000 57.760,104.098 57.591,104.217 57.470 C 104.510 57.173,105.008 55.896,104.880 55.769 C 104.824 55.713,104.870 55.667,104.982 55.667 C 105.094 55.667,105.138 55.588,105.079 55.493 C 105.020 55.397,105.046 55.228,105.137 55.118 C 105.288 54.934,105.754 53.490,105.907 52.731 C 105.942 52.558,106.156 51.892,106.382 51.250 C 107.228 48.850,107.690 47.401,107.772 46.886 L 107.858 46.355 106.637 46.000 C 104.941 45.507,104.992 45.520,104.250 45.404 C 103.883 45.347,103.283 45.201,102.917 45.080 C 101.829 44.722,99.796 44.138,99.357 44.058 C 99.132 44.017,98.815 43.913,98.652 43.825 C 98.290 43.632,97.548 43.617,97.472 43.802 M294.333 98.158 L 294.333 103.149 293.458 103.210 L 292.583 103.272 293.542 103.303 L 294.500 103.333 294.500 98.250 C 294.500 95.454,294.462 93.167,294.417 93.167 C 294.371 93.167,294.333 95.413,294.333 98.158 M245.539 98.000 C 245.539 98.321,245.573 98.452,245.615 98.292 C 245.657 98.131,245.657 97.869,245.615 97.708 C 245.573 97.548,245.539 97.679,245.539 98.000 M260.317 103.218 C 260.392 103.292,260.857 103.328,261.351 103.299 L 262.250 103.245 261.216 103.164 C 260.647 103.120,260.243 103.144,260.317 103.218 M226.542 103.286 C 226.794 103.324,227.206 103.324,227.458 103.286 C 227.710 103.248,227.504 103.217,227.000 103.217 C 226.496 103.217,226.290 103.248,226.542 103.286 M255.125 103.287 C 255.423 103.324,255.910 103.324,256.208 103.287 C 256.506 103.250,256.262 103.220,255.667 103.220 C 255.071 103.220,254.827 103.250,255.125 103.287 M286.461 103.287 C 286.761 103.325,287.211 103.324,287.461 103.286 C 287.712 103.248,287.467 103.217,286.917 103.218 C 286.367 103.219,286.162 103.250,286.461 103.287 M304.375 103.286 C 304.627 103.324,305.040 103.324,305.292 103.286 C 305.544 103.248,305.337 103.217,304.833 103.217 C 304.329 103.217,304.123 103.248,304.375 103.286 M241.795 103.454 C 242.094 103.491,242.544 103.490,242.795 103.452 C 243.045 103.414,242.800 103.384,242.250 103.385 C 241.700 103.386,241.495 103.417,241.795 103.454 M273.125 103.454 C 273.423 103.491,273.910 103.491,274.208 103.454 C 274.506 103.417,274.262 103.387,273.667 103.387 C 273.071 103.387,272.827 103.417,273.125 103.454 M319.708 103.453 C 319.960 103.491,320.373 103.491,320.625 103.453 C 320.877 103.415,320.671 103.383,320.167 103.383 C 319.662 103.383,319.456 103.415,319.708 103.453 " stroke="none" fill="#8bc43c" fill-rule="evenodd"></path><path id="path7" d="M20.458 21.121 C 20.115 21.157,19.833 21.257,19.833 21.343 C 19.833 21.599,20.941 21.521,21.167 21.250 C 21.281 21.112,21.309 21.013,21.229 21.028 C 21.149 21.043,20.802 21.085,20.458 21.121 M17.583 21.511 C 17.125 21.584,15.521 21.642,14.019 21.640 L 11.288 21.636 10.435 22.835 C 9.967 23.494,9.508 24.157,9.417 24.307 C 9.325 24.457,8.987 24.986,8.667 25.481 C 6.043 29.532,5.161 32.022,5.747 33.716 C 6.671 36.385,12.580 37.580,19.917 36.580 C 21.539 36.359,21.548 36.356,20.250 36.449 C 16.030 36.751,15.000 36.758,15.000 36.487 C 15.000 35.921,15.524 32.447,16.004 29.833 C 16.735 25.852,16.788 25.605,17.356 23.542 L 17.871 21.667 18.561 21.647 C 18.940 21.636,19.351 21.641,19.475 21.658 C 19.599 21.675,19.651 21.609,19.590 21.511 C 19.467 21.312,18.826 21.312,17.583 21.511 M26.750 35.342 C 26.421 35.431,26.592 35.446,27.250 35.385 C 27.800 35.333,28.281 35.263,28.319 35.229 C 28.443 35.118,27.264 35.202,26.750 35.342 M1.274 43.629 C 0.266 47.853,0.128 49.166,0.052 55.298 L -0.018 61.013 0.381 61.882 C 2.124 65.671,9.685 67.045,21.037 65.636 C 23.719 65.304,22.725 65.274,19.680 65.596 C 16.455 65.938,16.674 65.998,16.506 64.719 C 16.436 64.186,16.144 62.512,15.858 61.000 C 15.091 56.949,14.829 54.757,14.719 51.484 L 14.620 48.552 15.852 48.430 C 16.529 48.362,17.213 48.308,17.372 48.310 C 17.530 48.311,17.703 48.242,17.756 48.157 C 17.815 48.062,17.153 48.050,16.051 48.126 C 6.511 48.783,1.745 47.059,1.764 42.958 C 1.770 41.522,1.780 41.509,1.274 43.629 M1.757 70.750 C 1.896 71.647,2.774 74.528,3.259 75.686 C 3.475 76.201,3.685 76.805,3.726 77.028 C 3.815 77.518,5.291 80.823,6.095 82.333 C 6.412 82.929,6.912 83.904,7.205 84.500 C 8.105 86.327,10.898 88.500,12.347 88.500 C 12.540 88.500,13.459 88.667,14.390 88.872 C 16.278 89.286,24.230 89.400,26.500 89.045 L 27.583 88.876 26.481 88.854 L 25.378 88.833 23.774 85.593 C 22.891 83.811,22.048 81.995,21.899 81.556 C 21.750 81.118,21.458 80.382,21.249 79.921 C 20.362 77.960,19.411 75.200,19.568 75.043 C 19.626 74.985,19.841 74.919,20.045 74.896 C 20.249 74.872,20.829 74.808,21.333 74.753 C 22.879 74.584,22.990 74.566,23.100 74.456 C 23.210 74.346,22.873 74.366,19.750 74.656 C 10.173 75.545,4.089 74.257,2.147 70.930 L 1.653 70.083 1.757 70.750 M35.167 87.583 C 34.662 87.700,34.400 87.801,34.583 87.807 C 34.767 87.814,35.367 87.717,35.917 87.593 C 36.467 87.469,36.729 87.368,36.500 87.369 C 36.271 87.370,35.671 87.466,35.167 87.583 M257.128 92.454 C 257.428 92.491,257.878 92.490,258.128 92.452 C 258.378 92.414,258.133 92.384,257.583 92.385 C 257.033 92.386,256.828 92.417,257.128 92.454 M225.051 92.625 C 226.225 92.653,228.100 92.653,229.218 92.624 C 230.336 92.596,229.375 92.572,227.083 92.572 C 224.792 92.572,223.877 92.596,225.051 92.625 M240.083 92.824 C 239.717 92.998,239.464 93.146,239.521 93.153 C 239.683 93.174,240.833 92.673,240.833 92.581 C 240.833 92.469,240.833 92.470,240.083 92.824 M254.792 92.680 C 254.522 92.837,254.503 93.253,254.539 98.133 L 254.578 103.417 254.625 98.183 C 254.667 93.444,254.699 92.929,254.961 92.730 C 255.304 92.470,255.204 92.440,254.792 92.680 M286.250 92.600 C 287.020 92.725,288.334 92.741,288.333 92.625 C 288.333 92.556,287.790 92.510,287.125 92.523 C 286.460 92.535,286.067 92.570,286.250 92.600 M293.128 92.621 C 293.428 92.658,293.878 92.657,294.128 92.619 C 294.378 92.581,294.133 92.551,293.583 92.552 C 293.033 92.553,292.828 92.584,293.128 92.621 M300.724 92.628 C 300.617 92.695,301.967 92.730,303.724 92.706 C 308.873 92.636,309.385 92.568,305.000 92.535 C 302.754 92.519,300.830 92.560,300.724 92.628 M292.402 95.500 C 292.402 97.104,292.427 97.760,292.457 96.958 C 292.488 96.156,292.488 94.844,292.457 94.042 C 292.427 93.240,292.402 93.896,292.402 95.500 M270.426 93.637 L 269.935 94.250 270.590 93.667 C 270.951 93.346,271.278 93.065,271.318 93.042 C 271.357 93.019,271.283 93.005,271.153 93.012 C 271.023 93.019,270.696 93.300,270.426 93.637 M300.545 93.667 C 300.545 94.079,300.578 94.248,300.618 94.042 C 300.657 93.835,300.657 93.498,300.618 93.292 C 300.578 93.085,300.545 93.254,300.545 93.667 M13.462 93.595 C 13.768 94.162,18.188 98.667,19.645 99.896 C 27.384 106.424,30.333 107.617,37.667 107.190 C 38.996 107.112,39.700 107.038,39.231 107.025 C 38.319 106.998,37.998 106.722,35.905 104.168 C 35.568 103.756,35.151 103.321,34.979 103.200 C 34.807 103.080,34.667 102.890,34.667 102.778 C 34.667 102.667,34.295 102.165,33.840 101.663 C 33.385 101.161,32.926 100.544,32.819 100.292 C 32.713 100.040,32.572 99.833,32.505 99.833 C 32.439 99.833,31.846 99.050,31.188 98.092 L 29.992 96.350 30.537 96.261 C 30.838 96.212,31.308 96.138,31.583 96.098 C 31.858 96.058,31.258 96.060,30.250 96.104 C 29.242 96.147,27.931 96.265,27.338 96.365 C 23.348 97.038,16.747 95.791,14.103 93.865 C 13.535 93.451,13.341 93.370,13.462 93.595 M257.102 94.303 C 257.056 94.378,257.239 94.407,257.509 94.368 C 257.779 94.328,258.000 94.267,258.000 94.231 C 258.000 94.104,257.185 94.170,257.102 94.303 M223.000 94.500 C 223.000 94.715,225.333 94.715,225.667 94.500 C 225.839 94.389,225.461 94.338,224.458 94.336 C 223.596 94.334,223.000 94.401,223.000 94.500 M228.075 94.545 C 228.031 94.661,228.016 96.667,228.042 99.003 L 228.089 103.250 228.128 98.917 L 228.166 94.583 229.408 94.638 C 230.091 94.668,230.785 94.614,230.950 94.518 C 231.175 94.387,230.862 94.342,229.703 94.338 C 228.604 94.335,228.133 94.395,228.075 94.545 M300.940 94.507 C 301.057 94.624,301.606 94.673,302.398 94.639 L 303.667 94.583 303.667 98.925 C 303.667 102.080,303.721 103.321,303.867 103.467 C 304.084 103.684,305.598 103.745,305.725 103.542 C 305.767 103.473,305.378 103.417,304.860 103.417 L 303.917 103.417 303.833 98.917 L 303.750 94.417 302.251 94.368 C 301.141 94.332,300.801 94.368,300.940 94.507 M306.000 94.477 C 306.000 94.681,308.697 94.705,309.000 94.504 C 309.175 94.388,308.761 94.338,307.625 94.336 C 306.731 94.334,306.000 94.398,306.000 94.477 M319.000 94.500 C 318.778 94.644,318.778 94.662,319.000 94.662 C 319.137 94.662,319.362 94.589,319.500 94.500 C 319.722 94.356,319.722 94.338,319.500 94.338 C 319.362 94.338,319.137 94.411,319.000 94.500 M275.000 94.634 C 275.000 94.709,275.225 94.937,275.500 95.140 C 275.775 95.344,276.000 95.483,276.000 95.449 C 276.000 95.416,275.775 95.188,275.500 94.943 C 275.225 94.698,275.000 94.559,275.000 94.634 M306.073 99.083 C 306.073 101.467,306.096 102.418,306.125 101.198 C 306.153 99.979,306.153 98.029,306.124 96.865 C 306.096 95.702,306.073 96.700,306.073 99.083 M261.722 95.667 C 261.722 95.934,261.785 96.113,261.861 96.066 C 261.938 96.019,262.000 95.839,262.000 95.667 C 262.000 95.494,261.938 95.314,261.861 95.267 C 261.785 95.220,261.722 95.400,261.722 95.667 M317.692 95.958 C 317.523 96.281,317.248 97.466,317.373 97.333 C 317.491 97.208,317.990 95.667,317.912 95.667 C 317.875 95.667,317.776 95.798,317.692 95.958 M288.101 96.529 C 288.168 96.637,288.219 97.181,288.216 97.737 L 288.209 98.750 288.315 97.750 C 288.429 96.670,288.387 96.333,288.139 96.333 C 288.052 96.333,288.035 96.421,288.101 96.529 M245.083 97.916 C 245.083 98.402,245.140 98.766,245.208 98.724 C 245.369 98.625,245.367 97.477,245.206 97.224 C 245.138 97.118,245.083 97.429,245.083 97.916 M260.874 97.675 C 260.370 98.249,260.353 98.307,260.624 98.513 C 260.873 98.701,260.886 98.699,260.708 98.500 C 260.537 98.309,260.596 98.167,261.030 97.719 C 261.322 97.418,261.528 97.146,261.489 97.115 C 261.449 97.083,261.173 97.335,260.874 97.675 M162.050 98.167 C 162.050 98.671,162.081 98.877,162.119 98.625 C 162.158 98.373,162.158 97.960,162.119 97.708 C 162.081 97.456,162.050 97.662,162.050 98.167 M276.519 98.111 C 276.509 98.218,276.451 98.443,276.392 98.611 C 276.308 98.848,276.331 98.874,276.491 98.726 C 276.605 98.621,276.662 98.396,276.618 98.226 C 276.575 98.056,276.530 98.004,276.519 98.111 M317.437 99.250 C 317.496 99.525,317.611 99.862,317.691 100.000 C 317.785 100.160,317.799 100.070,317.730 99.750 C 317.670 99.475,317.556 99.138,317.475 99.000 C 317.381 98.840,317.368 98.930,317.437 99.250 M71.333 99.167 C 71.002 99.381,71.418 99.381,71.917 99.167 L 72.250 99.023 71.917 99.014 C 71.733 99.009,71.471 99.078,71.333 99.167 M278.438 100.021 C 278.299 100.716,278.433 100.850,278.583 100.167 C 278.647 99.879,278.664 99.608,278.621 99.566 C 278.579 99.523,278.496 99.728,278.438 100.021 M275.667 100.789 C 275.667 100.887,275.423 101.123,275.125 101.314 C 274.827 101.505,274.658 101.662,274.750 101.663 C 275.031 101.666,275.925 100.871,275.792 100.737 C 275.723 100.668,275.667 100.691,275.667 100.789 M237.833 100.954 C 237.833 101.051,237.988 101.307,238.177 101.523 L 238.520 101.917 238.227 101.417 C 237.842 100.759,237.833 100.749,237.833 100.954 M241.833 101.654 C 241.833 101.858,242.447 102.052,242.665 101.918 C 242.758 101.860,242.832 101.724,242.831 101.615 C 242.829 101.496,242.764 101.517,242.669 101.667 C 242.538 101.873,242.452 101.880,242.172 101.707 C 241.986 101.592,241.833 101.568,241.833 101.654 M273.312 101.723 C 273.606 102.079,273.901 102.074,274.188 101.708 C 274.397 101.441,274.391 101.437,274.111 101.657 C 273.853 101.860,273.751 101.862,273.445 101.672 C 273.115 101.466,273.104 101.471,273.312 101.723 M319.667 101.635 C 319.667 101.904,320.341 102.059,320.558 101.840 C 320.703 101.694,320.678 101.674,320.456 101.759 C 320.295 101.820,320.051 101.778,319.915 101.665 C 319.760 101.536,319.667 101.525,319.667 101.635 M62.167 102.250 C 61.846 102.374,61.696 102.475,61.833 102.475 C 61.971 102.475,62.346 102.374,62.667 102.250 C 62.987 102.126,63.137 102.025,63.000 102.025 C 62.862 102.025,62.487 102.126,62.167 102.250 M259.762 102.749 C 259.919 103.547,260.116 103.667,261.270 103.667 C 262.160 103.667,262.333 103.620,262.333 103.383 C 262.333 103.163,262.289 103.144,262.133 103.300 C 261.583 103.850,260.148 103.503,259.857 102.750 L 259.665 102.250 259.762 102.749 M316.584 102.501 C 316.707 102.700,318.001 103.346,317.996 103.206 C 317.994 103.138,317.657 102.923,317.247 102.726 C 316.838 102.530,316.539 102.429,316.584 102.501 M239.432 102.858 C 239.556 103.058,240.514 103.542,240.606 103.450 C 240.647 103.409,240.379 103.226,240.011 103.044 C 239.643 102.862,239.382 102.778,239.432 102.858 M244.667 103.010 C 244.346 103.179,244.206 103.321,244.357 103.325 C 244.507 103.330,244.807 103.186,245.023 103.006 C 245.501 102.608,245.429 102.609,244.667 103.010 M322.500 103.020 C 322.179 103.192,322.040 103.333,322.190 103.333 C 322.340 103.333,322.640 103.186,322.857 103.006 C 323.333 102.608,323.263 102.611,322.500 103.020 M227.083 103.500 L 226.250 103.614 227.032 103.640 C 227.462 103.655,227.860 103.592,227.917 103.500 C 227.973 103.408,227.996 103.345,227.968 103.360 C 227.940 103.374,227.542 103.437,227.083 103.500 M255.833 103.500 L 254.917 103.612 255.782 103.640 C 256.258 103.654,256.693 103.592,256.750 103.500 C 256.807 103.408,256.830 103.346,256.802 103.360 C 256.773 103.375,256.337 103.438,255.833 103.500 M287.250 103.500 L 286.417 103.614 287.167 103.638 C 287.579 103.651,288.029 103.589,288.167 103.500 C 288.304 103.411,288.342 103.349,288.250 103.362 C 288.158 103.375,287.708 103.437,287.250 103.500 M292.686 103.515 C 292.902 103.652,294.304 103.738,294.153 103.606 C 294.115 103.572,293.717 103.505,293.269 103.457 C 292.771 103.403,292.545 103.426,292.686 103.515 M56.117 103.953 C 55.586 104.092,55.184 104.239,55.224 104.279 C 55.299 104.354,57.362 103.858,57.486 103.735 C 57.609 103.614,57.107 103.694,56.117 103.953 M48.250 105.748 C 47.242 105.959,46.604 106.135,46.833 106.141 C 47.063 106.146,48.075 105.975,49.083 105.759 C 50.092 105.543,50.729 105.367,50.500 105.366 C 50.271 105.366,49.258 105.538,48.250 105.748 M42.375 106.782 C 42.535 106.823,42.798 106.823,42.958 106.782 C 43.119 106.740,42.987 106.705,42.667 106.705 C 42.346 106.705,42.215 106.740,42.375 106.782 M40.875 106.948 C 41.035 106.990,41.298 106.990,41.458 106.948 C 41.619 106.906,41.487 106.872,41.167 106.872 C 40.846 106.872,40.715 106.906,40.875 106.948 M38.763 110.814 C 39.014 111.087,41.919 112.107,43.012 112.305 C 43.888 112.464,43.904 112.461,43.554 112.177 C 43.205 111.895,43.295 111.880,46.138 111.762 C 47.758 111.695,49.421 111.578,49.833 111.502 C 50.617 111.357,49.762 111.376,46.167 111.586 C 43.565 111.737,40.608 111.395,38.917 110.746 C 38.666 110.649,38.628 110.666,38.763 110.814 M44.083 112.459 C 44.275 112.646,45.157 112.872,47.459 113.324 C 49.382 113.702,50.574 113.852,50.418 113.696 C 50.356 113.634,50.256 113.577,50.194 113.570 C 50.133 113.562,49.896 113.506,49.667 113.444 C 49.438 113.383,48.987 113.296,48.667 113.251 C 48.346 113.207,47.746 113.101,47.333 113.016 C 46.921 112.931,46.553 112.893,46.515 112.930 C 46.478 112.967,46.349 112.916,46.230 112.817 C 46.110 112.717,45.693 112.605,45.304 112.568 C 44.914 112.530,44.442 112.454,44.256 112.398 C 44.034 112.331,43.974 112.352,44.083 112.459 M52.519 114.015 C 52.646 114.096,53.087 114.157,53.500 114.151 C 54.389 114.138,54.231 114.058,53.103 113.948 C 52.601 113.900,52.377 113.925,52.519 114.015 " stroke="none" fill="#64942c" fill-rule="evenodd"></path><path id="path8" d="" stroke="none" fill="#4c283c" fill-rule="evenodd"></path></g></svg>