<?xml version="1.0" encoding="utf-8"?>
<!-- Generator: Adobe Illustrator 23.0.1, SVG Export Plug-In . SVG Version: 6.00 Build 0)  -->
<svg version="1.1" xmlns="http://www.w3.org/2000/svg" xmlns:xlink="http://www.w3.org/1999/xlink" x="0px" y="0px"
	 viewBox="0 0 1125.1 800.9" style="enable-background:new 0 0 1125.1 800.9;" xml:space="preserve">
<style type="text/css">
	.st0{opacity:0.1;fill:#85BD3C;enable-background:new    ;}
	.st1{opacity:0.1;}
	.st2{fill:#006D86;stroke:#535461;stroke-width:2;stroke-miterlimit:10;}
	.st3{fill:#006D86;}
	.st4{opacity:0.25;fill:#006D86;enable-background:new    ;}
	.st5{fill:#DEA3A2;}
	.st6{opacity:0.1;enable-background:new    ;}
	.st7{fill:none;}
	.st8{opacity:0.2;fill:#4C7621;enable-background:new    ;}
	.st9{fill:#88C03D;}
	.st10{opacity:0.5;}
	.st11{fill:none;stroke:#000000;stroke-miterlimit:10;}
	.st12{fill:#FFD037;}
	.st13{fill:#4D7721;}
	.st14{fill:#A8A8A8;}
	.st15{opacity:0.2;enable-background:new    ;}
	.st16{fill:url(#SVGID_1_);}
	.st17{fill:url(#SVGID_2_);}
	.st18{fill:#575A88;}
	.st19{fill:#AAC9F5;}
	.st20{fill:#D5838E;}
	.st21{fill:#FFCCD0;}
	.st22{fill:#CD828D;}
	.st23{fill:#663D5C;}
	.st24{fill:#F26383;}
	.st25{fill:#FFC1C7;}
	.st26{fill:#FFD6DB;}
	.st27{fill:#85BD3C;}
	.st28{fill:#E4AAB4;}
	.st29{fill:#BDD2E8;}
	.st30{fill:#CF6F80;}
	.st31{fill:#512E4E;}
	.st32{fill:#FFCEB4;}
	.st33{fill:#F8BDA5;}
	.st34{fill:#E8EAF2;}
	.st35{opacity:5.000000e-02;enable-background:new    ;}
	.st36{fill:#F1CEC8;}
	.st37{fill:#F6E2DF;}
	.st38{fill:#FDF9F9;}
	.st39{opacity:0.3;fill:#42312E;enable-background:new    ;}
	.st40{fill:#FF748E;}
	.st41{fill:#FFEDBA;}
	.st42{fill:#FFFFFF;}
	.st43{fill:#B97482;}
	.st44{fill:#575988;}
	.st45{fill:#D3878A;}
	.st46{fill:#575A89;}
	.st47{opacity:0.1;fill:#1C3ED3;enable-background:new    ;}
	.st48{fill:#42312E;}
	.st49{opacity:0.2;fill:#FFFFFF;enable-background:new    ;}
	.st50{fill:#F2DCDC;}
	.st51{opacity:0.4;fill:#FFFFFF;}
</style>
<g id="Layer_1">
	<title>hang out</title>
	<path class="st0" d="M26.5,423.8C44,496,81.2,558.5,140,588.7c122.2,62.9,397.8,30.5,603.4-6.8c106.4-19.3,199.9-72.4,267.8-147.2
		L26.5,423.8z"/>
	<path class="st0" d="M1105,83.9H992.1c-5.2,0.2-9.5-3.9-9.7-9.1c-0.2-5.2,3.9-9.5,9.1-9.7c0.2,0,0.4,0,0.6,0h19.5
		c-5.2,0.2-9.5-3.9-9.7-9.1c-0.2-5.2,3.9-9.5,9.1-9.7c0.2,0,0.4,0,0.6,0h-13.9c-5.2,0.2-9.5-3.9-9.7-9.1c-0.2-5.2,3.9-9.5,9.1-9.7
		c0.2,0,0.4,0,0.6,0h58.9c-13.1-5.8-28.3-10-46-12.2C850-4.3,792.7,8.8,772.4,22.3c-25,16.6-52.8,28.9-82.5,34.8
		c-99,19.7-284.3,43.3-452.3-7.6C154.1,24.3,92.1,67,54.9,138.4h1069.7c-1.4-20.8-5.6-39.9-13.3-56.7
		C1109.5,83.1,1107.3,84,1105,83.9z"/>
	<path class="st0" d="M702.8,311.7l-1.5-0.1l-15.4-0.9l-147.2-8.3l-15.9-0.9l-234.3-13.2l-65.7-3.7l-10.4-0.6l-9.2-0.5L16.9,273.1
		c-4.3,42-2.9,84.4,4.4,126l156.8,5.5l12.4,0.5l2.2,0.1l74.4,2.6l4,0.1l8.6,0.3l75,2.6l10.3,0.4l35.9,1.3h0.7l5.3,0.2l18,0.6l0,0
		l15.8,0.5l30,1.1h0.6l2.7,0.1l2.8,0.1h0.6l47.8,1.7l13.4,0.5h0.6l6.5,0.2l0,0h1.2h0.5l5.7,0.2l17.3,0.6l0,0l6.5,0.2l8.3,0.3h0.3
		l11.5,0.4l33.2,1.3l9.1,0.3h1l44.2,1.6l25.7,0.9l32,1.2l5.1,0.2l8.3,0.3l30.1,1.1l226.7,8c27.5-30.3,50.6-64.3,68.8-100.9
		L702.8,311.7z M276.4,381.7c-2.4,0-4.7-0.8-6.5-2.4l0,0c-0.8-0.7-1.5-1.6-2.1-2.5c-0.8-1.4-1.2-2.9-1.2-4.5c0-1.8,0.6-3.6,1.6-5.1
		l0,0c0.3-0.5,0.7-0.9,1.1-1.3c1.9-1.9,4.4-2.9,7.1-2.9h19.5c-5.2,0.2-9.5-3.9-9.7-9.1s3.9-9.5,9.1-9.7c0.2,0,0.4,0,0.6,0H282
		c-0.3,0-0.6,0-0.9,0c-5.2-0.4-9-4.9-8.6-10.1c0.4-4.9,4.6-8.7,9.5-8.6h112.8c5.2-0.2,9.5,3.9,9.7,9.1s-3.9,9.5-9.1,9.7
		c-0.2,0-0.4,0-0.6,0h13.9c5.2-0.2,9.5,3.9,9.7,9.1s-3.9,9.5-9.1,9.7c-0.2,0-0.4,0-0.6,0h-19.5c5.2-0.2,9.5,3.9,9.7,9.1
		s-3.9,9.5-9.1,9.7c-0.2,0-0.4,0-0.6,0L276.4,381.7z"/>
	<path class="st0" d="M1124.6,139l-778.4,18.2l-85.5,2l-217.8,5.1C29.8,196.8,21.1,233.6,17,271.7h1088.6
		c7.1-22.3,12.3-45.2,15.7-68.4C1124.6,180.8,1125.9,159.2,1124.6,139z M236.6,221.9h-19.5c5.3-0.1,9.6,4.1,9.8,9.4
		c0,0.2,0,0.4,0,0.6c-0.2,3-1.8,5.6-4.3,7.2c-1.6,1-3.5,1.6-5.4,1.6H104.3c-5.2,0.2-9.5-3.9-9.7-9.1c-0.2-5.2,3.9-9.5,9.1-9.7
		c0.2,0,0.4,0,0.6,0h19.5c-5.2,0.2-9.5-3.9-9.7-9.1c-0.2-5.2,3.9-9.5,9.1-9.7c0.2,0,0.4,0,0.6,0h-13.9c-5.2,0.2-9.5-3.9-9.7-9.1
		c-0.2-5.2,3.9-9.5,9.1-9.7c0.2,0,0.4,0,0.6,0h112.8c5.2-0.2,9.5,3.9,9.7,9.1c0.2,5.2-3.9,9.5-9.1,9.7c-0.2,0-0.4,0-0.6,0h13.9
		c1.6,0,3.2,0.4,4.6,1.1c3.1,1.6,5.1,4.8,5.1,8.2C246.3,217.8,241.9,222,236.6,221.9L236.6,221.9z"/>
	<g class="st1">
		<path class="st2" d="M605,583.1c0,0,28.6-67.6,81.9-92.7c22.4-10.5,40.9-27.4,52.2-48.7c5.3-10.1,9.7-20.7,13.1-31.6"/>
		<path class="st3" d="M785.6,394c-5.5,6.7-34.3,16.5-34.3,16.5s3.5-29.1,9-35.9c5.7-6.7,15.7-7.8,22.7-2.5c6.7,5,8.1,14.5,3.1,21.2
			C786,393.6,785.8,393.8,785.6,394z"/>
		<path class="st3" d="M775.8,447.2c-8.5,2.7-38.1-4.1-38.1-4.1s19.4-22.7,27.8-25.4s17.6,1.6,20.5,9.8c2.7,8.1-1.6,16.8-9.7,19.5
			C776.1,447.1,775.9,447.2,775.8,447.2z"/>
		<path class="st3" d="M722.3,510.1c-8.7-1.8-30.8-22-30.8-22s28.6-10.2,37.4-8.4s14.3,10,12.5,18.4S731,511.8,722.3,510.1z"/>
		<path class="st3" d="M670.6,548.9c-8.9-0.3-34.2-16.7-34.2-16.7s26.4-14.7,35.4-14.3c8.9,0.3,15.9,7.5,15.6,16.1
			C687,542.5,679.6,549.2,670.6,548.9z"/>
		<path class="st3" d="M710,424.1c1.1,8.5,20.5,31.2,20.5,31.2s12.7-26.7,11.6-35.2s-9.2-14.5-18.1-13.4S708.8,415.6,710,424.1z"/>
		<path class="st3" d="M650.2,470.3c3.7,7.8,29.3,23.9,29.3,23.9s3.8-29.1,0.1-36.9c-4-7.9-13.4-11.2-21.4-7.6
			c-7.8,3.3-11.5,12.2-8.2,20C650,469.9,650.1,470.1,650.2,470.3z"/>
		<path class="st3" d="M598.5,522.8c2.3,8.3,24.6,28.3,24.6,28.3s8.9-28.1,6.6-36.3c-2.3-8.3-11.2-13.2-19.8-11
			c-8.3,1.9-13.5,10.3-11.5,18.6C598.4,522.5,598.5,522.6,598.5,522.8z"/>
		<path class="st4" d="M785.6,394c-5.5,6.7-34.3,16.5-34.3,16.5s3.5-29.1,9-35.9c5.7-6.7,15.7-7.8,22.7-2.5c6.7,5,8.1,14.5,3.1,21.2
			C786,393.6,785.8,393.8,785.6,394z"/>
		<path class="st4" d="M775.8,447.2c-8.5,2.7-38.1-4.1-38.1-4.1s19.4-22.7,27.8-25.4s17.6,1.6,20.5,9.8c2.7,8.1-1.6,16.8-9.7,19.5
			C776.1,447.1,775.9,447.2,775.8,447.2z"/>
		<path class="st4" d="M722.3,510.1c-8.7-1.8-30.8-22-30.8-22s28.6-10.2,37.4-8.4s14.3,10,12.5,18.4S731,511.8,722.3,510.1z"/>
		<path class="st4" d="M670.6,548.9c-8.9-0.3-34.2-16.7-34.2-16.7s26.4-14.7,35.4-14.3c8.9,0.3,15.9,7.5,15.6,16.1
			C687,542.5,679.6,549.2,670.6,548.9z"/>
		<path class="st4" d="M710,424.1c1.1,8.5,20.5,31.2,20.5,31.2s12.7-26.7,11.6-35.2s-9.2-14.5-18.1-13.4S708.8,415.6,710,424.1z"/>
		<path class="st4" d="M650.2,470.3c3.7,7.8,29.3,23.9,29.3,23.9s3.8-29.1,0.1-36.9c-4-7.9-13.4-11.2-21.4-7.6
			c-7.8,3.3-11.5,12.2-8.2,20C650,469.9,650.1,470.1,650.2,470.3z"/>
		<path class="st4" d="M598.5,522.8c2.3,8.3,24.6,28.3,24.6,28.3s8.9-28.1,6.6-36.3c-2.3-8.3-11.2-13.2-19.8-11
			c-8.3,1.9-13.5,10.3-11.5,18.6C598.4,522.5,598.5,522.6,598.5,522.8z"/>
	</g>
	<g class="st1">
		<path class="st2" d="M626.3,480.7c0,0,3.6-72.9,45.2-113.6c17.5-17.1,29.1-38.9,32.5-62.6c1.6-11.3,2-22.6,1.4-34"/>
		<path class="st3" d="M731.6,244.7c-2.9,8.1-26.7,26.5-26.7,26.5s-6.8-28.6-3.9-36.7s12.1-12.4,20.6-9.6
			c8.1,2.5,12.7,11.1,10.1,19.3C731.7,244.4,731.6,244.6,731.6,244.7z"/>
		<path class="st3" d="M740.6,298.1c-7,5.3-37.4,8.3-37.4,8.3s10.5-27.5,17.5-32.8c7.1-5.3,17-4.1,22.7,2.7c5.3,6.5,4.3,16-2.2,21.3
			C741,297.7,740.8,297.9,740.6,298.1z"/>
		<path class="st3" d="M711.8,374.5c-8.8,1.1-36.7-11-36.7-11s23.5-18.7,32.4-19.8s17,4.8,18.2,13.3S720.7,373.3,711.8,374.5z"/>
		<path class="st3" d="M676.5,427.5c-8.5,2.6-38-4.9-38-4.9s19.9-22.3,28.4-24.8s17.6,2,20.3,10.2c2.5,8.1-2,16.8-10.2,19.3
			C676.8,427.4,676.6,427.4,676.5,427.5z"/>
		<path class="st3" d="M670.6,297.3c4,7.7,30.1,22.9,30.1,22.9s2.8-29.2-1.2-36.9c-4.2-7.7-13.8-10.8-21.7-6.9
			c-7.7,3.5-11,12.6-7.5,20.2C670.4,296.9,670.5,297.1,670.6,297.3z"/>
		<path class="st3" d="M630.1,359.8c6.2,6.2,35.8,13.2,35.8,13.2s-6.4-28.7-12.6-34.8c-6.3-6.2-16.4-6.3-22.9-0.3
			c-6.2,5.6-6.6,15.2-1,21.3C629.7,359.4,629.9,359.6,630.1,359.8z"/>
		<path class="st3" d="M599.4,425.8c5,7.1,33,18.8,33,18.8s-1.3-29.3-6.3-36.4c-5.2-7.1-15.1-8.9-22.5-4c-7.1,4.5-9.2,13.9-4.7,20.9
			C599.1,425.4,599.3,425.6,599.4,425.8z"/>
	</g>
	<path class="st5" d="M668.9,125.1l-28.8,5.6c0,0,50.2-4.7,65.2-3.9s48.9,19.7,48.9,19.7s16,5.1,34.9,22.9
		c4.6,4.3,8.9,8.9,12.9,13.8c15.1,18.3,30.3,45.1,39.6,83.9c1,4,1.9,8.1,2.7,12.3c1.7,8.5,3.1,17.6,4.2,27.2c0.5,4.5,0.9,9,1.3,13.7
		c0.4,4.5,0.6,9.1,0.8,13.8c0.2,4.5,0.3,9.1,0.4,13.7c0.1,6.3,0,12.7-0.2,19.4c-0.1,4.4-0.3,8.9-0.5,13.5v0.5
		c-1.7,31.3-5.6,57.9-11,80.4c-0.6,2.3-1.1,4.6-1.7,6.9c-2.7,10.4-6.1,20.5-10,30.5c-0.7,1.8-1.4,3.5-2.1,5.1
		c-1.7,3.9-3.3,7.6-5.1,11.2c-1.4,2.9-2.9,5.7-4.4,8.4c-0.3,0.5-0.6,1.1-0.9,1.6c-0.7,1.3-1.5,2.5-2.2,3.8
		c-25.9,43.3-57.7,53.8-70.3,56.4c-1.8,0.3-3.1,0.6-4.1,0.7h-0.1c-0.9,0.1-1.5,0.1-1.5,0.1c-3,11.4,2.7,16,9.6,17.7
		c1.1,0.3,2.2,0.5,3.4,0.6l0,0c4.5,0.4,9,0.3,13.5-0.5c0,0,30.9,1.4,63.3,2.1l7.3,0.2l0,0l2.7,0.1c16.8,0.3,33.1,0.4,45.1,0.1l0,0
		c5.7-0.2,10.3-0.4,13.5-0.9c24.5-3.2,17.4-19,9.9-31.2c-6.5-10.5-3.3-29.3,7.3-60.2c1.7-5,3.6-10.4,5.7-16
		c11.6-31.5,10.9-78.5,8.2-118.3c-0.4-5.3-0.8-10.4-1.2-15.3c-0.5-6.1-1-11.9-1.5-17.3c-2.2-24.3-9.3-50.4-16.9-71.4
		c-1.1-3-2.2-6-3.3-8.8c-3.1-8.2-6.8-16.2-10.9-23.9c-0.9-1.6-1.7-3-2.5-4.2l-0.7-1.1c-1.3-2.1-2.7-4.6-4.2-7.3
		c-2.1-3.9-4.3-8.3-6.4-12.9c-5.5-11.6-10.8-24.4-14.3-33c-2.5-6.3-4.1-10.4-4.1-10.4c0.3-1.7,0.9-3.3,1.7-4.8
		c13.3-24.3,90.3-38.2,90.3-38.2l38.6,2.8l76.8,5.5l-83.8-12.7l-13-2c0,0,3.8-0.4,9.3-1.3l0,0c11.1-1.8,29.3-5.6,39.3-12.1
		c8-5.2,50.2-7.5,88.1-8.4v-9.6l-7.1,5l-81.4,1.2l39.5-50.6l-52.2,53.3c-8.2,1.6-24,5.4-42.1,9.8c-12.5,3.1-26.1,6.5-39.1,9.7
		c-32,8-60.6,15.3-60.6,15.3c2.8-40.7,23-78.1,55.5-102.7l44.7-33.8h-11.6c-33,19.7-82.7,59.1-82.7,59.1s0.8-21.8,7.8-59h-15.2
		c-0.2,1.9-0.4,3.8-0.7,5.7c-6,40.6-8.9,88.5-8.9,88.5c-5.1,34.8-19,5.1-19,5.1c1.2-39.5-14.7-76.4-27.4-99.4h-16.8
		c7.8,15.9,5.2,27.4,5.2,27.4C770,8.7,749.5,2.2,735.4,0.5c-5.2-0.7-10.4-0.7-15.6,0c-2,0.2-3.9,0.7-5.8,1.3
		c52.2,2.4,89.3,41.9,89.3,41.9c4.1,1,14.6,33.3,19,74.3c0.7,6,1.2,12.2,1.5,18.6c1.2,21.1-1.5,29.8-4.9,32.7
		c-2.5,2.2-5.4,1.3-7.6,0c-1.1-0.6-2.1-1.4-2.9-2.3c-8.1-13.6-39-29.1-67-40.9c-5.9-2.5-11.7-4.8-17.2-7
		c-18.9-7.5-33.2-23.5-38.4-43.1c-9.2-33.5-26.4-32.2-26.4-32.2c20.2,15.4,19,62,19,62l-66.8-14.1c31.7,8.5,83.8,28.3,83.8,28.3
		L668.9,125.1L668.9,125.1z"/>
	<path class="st5" d="M594.3,88l17.4,3.7C606,90,600.1,88.8,594.3,88z"/>
	<path class="st6" d="M794.3,564.8c0,0,14.7-8.7,34.8-4.3c20.1,4.4,51,2,53.8,1.6L794.3,564.8z"/>
	<path class="st6" d="M858.7,328.2c0,0,4.9,77.2-3.8,92.5L858.7,328.2z"/>
	<path class="st6" d="M876.8,420.7c0,0-6.3,72.3-10.6,86.5C861.8,521.3,876.8,420.7,876.8,420.7z"/>
	<path class="st6" d="M882.9,242.8c4.4,1.7,23.5,40.3,19.6,51.7S882.9,242.8,882.9,242.8z"/>
	<path class="st6" d="M834.7,202.7c2.1,0.9,10.9,23.2,9.2,29.8S834.7,202.7,834.7,202.7z"/>
	<path class="st6" d="M917.1,332.5c-2.2,22.4-3.4,37.1-2,55.1c1.2,13.9,1,28-0.6,41.9L917.1,332.5z"/>
	<path class="st6" d="M678.7,71.2c2.7,3.1,3.6,7.3,3.7,11.4s-0.4,8.1-0.1,12.2c0.3,4.3,2.3,9.3,6.5,9.9L678.7,71.2z"/>
	<path class="st7" d="M891.2,49.7c-3.2,1.7-6.2,3.7-8.9,6.1c-2.7,2.4-4.5,5.7-5.2,9.2c-0.2,1.5-0.1,3.1-0.4,4.6
		c-0.6,2-1.6,3.9-3,5.6c-2.3,2.9-4.8,5.7-7.5,8.3"/>
	<path class="st6" d="M865.4,152.9c2.2-1.9,4.6-3.5,7.2-5c2.3-1.4,4.8-2.5,7.3-3.2c3.9-1,8.1-0.9,12.1-1.3s8.3-1.6,11.1-4.6
		L865.4,152.9z"/>
	<path class="st6" d="M1026.1,103c-4.8,0.1-9.8,0.3-14.1,2.5c-2.2,1.1-4.1,2.7-6.2,3.9c-2.8,1.5-5.9,2.3-9.1,2.4L1026.1,103z"/>
	<path class="st6" d="M959.4,122.8c1-0.8,2.6-0.2,3.5,0.8s1.3,2.3,2.2,3.2c1.8,1.9,4.6,2.1,7.2,2.2L959.4,122.8z"/>
	<path class="st6" d="M931.9,20.7l-4.6,2.4c-4.7,2.5-9.5,5-13.6,8.3L931.9,20.7z"/>
	<path class="st6" d="M879.1,65.9c-3-0.7-5.7,2.5-6.2,5.6s0.1,6.3-0.8,9.3c-0.8,2.7-2.6,4.8-4.5,6.8L879.1,65.9z"/>
	<path class="st6" d="M827.7,71.5c-2.8,8.3,3.1,17.3,1.4,25.8c-0.5,2.6-1.7,5-2.3,7.6c-1.6,6.8,1.2,14,5.6,19.4L827.7,71.5z"/>
	<ellipse class="st8" cx="237.6" cy="719" rx="25.4" ry="3.5"/>
	<ellipse class="st8" cx="140.2" cy="728.9" rx="25.4" ry="3.5"/>
	<ellipse class="st8" cx="25.4" cy="715.5" rx="25.4" ry="3.5"/>
	<ellipse class="st8" cx="185" cy="754.6" rx="18.1" ry="2.5"/>
	<ellipse class="st8" cx="78.1" cy="754.6" rx="18.1" ry="2.5"/>
	<path class="st9" d="M139.7,728.1c0,0,35.7-117-5.6-163.8c-30.9-35-65.9-30.8-81.6-26.5c-8.2,2.2-15.1,7.9-18.7,15.6
		c-5.5,11.8-4.5,31.1,34.2,53.5c64.8,37.5,68.9,89,68.9,89L139.7,728.1z"/>
	<path class="st9" d="M141.1,729.1c0,0-41.8-85-53.3-83.1c-5.4,0.9-8,6.2-9.1,11.6c-1.4,7-0.6,14.2,2.3,20.7
		C86.9,691.8,102.9,717.7,141.1,729.1z"/>
	<path class="st9" d="M139.9,729.1c0,0,41.8-85,53.3-83.1c5.4,0.9,8,6.2,9.1,11.6c1.4,7,0.6,14.2-2.3,20.7
		C194,691.8,178.1,717.7,139.9,729.1z"/>
	<g class="st10">
		<path class="st11" d="M58.1,554.4c0,0,105.2,32.9,81.6,173.7"/>
		<path class="st11" d="M119.5,566.2c0,0-14.5,9.8-9.9,24.4"/>
		<path class="st11" d="M68.6,574.9c0,0,8.9-9,19.6-4"/>
		<path class="st11" d="M110.2,620.2c0,0,15.6-7.9,19.6,2"/>
		<path class="st11" d="M148.7,636.6c0,0-11.7-0.9-11.9,4.7"/>
		<path class="st11" d="M88.1,662.1c0,0,43.9,63.6,52.3,66.4"/>
		<line class="st11" x1="84.1" y1="672" x2="94.4" y2="672"/>
		<line class="st11" x1="96.4" y1="695.3" x2="112.4" y2="695.9"/>
		<line class="st11" x1="106.2" y1="676.6" x2="104.4" y2="685"/>
		<line class="st11" x1="123.2" y1="702.1" x2="122.9" y2="709.7"/>
		<path class="st11" d="M192.8,662.1c0,0-43.9,63.6-52.3,66.4"/>
		<line class="st11" x1="196.9" y1="672" x2="186.6" y2="672"/>
		<line class="st11" x1="184.6" y1="695.3" x2="168.5" y2="695.9"/>
		<line class="st11" x1="174.8" y1="676.6" x2="176.6" y2="685"/>
		<line class="st11" x1="157.8" y1="702.1" x2="158.1" y2="709.7"/>
	</g>
	<path class="st6" d="M23.8,679.7c-0.3,0.4-0.5,0.9-0.7,1.4c-6,7-9.1,13.6-3.4,13.7C25,695,31.4,704.5,33,707c0,0.2-0.1,0.4-0.2,0.6
		c0,0-7.5-12.5-13.6-12.7C13,694.7,17.1,687.2,23.8,679.7z"/>
	<path class="st12" d="M17.5,685.4c0,1.6,0.2,2.8,0.4,2.8s0.4-1.3,0.4-2.8c0-1.6-0.2-0.8-0.4-0.8S17.5,683.8,17.5,685.4z"/>
	<path class="st12" d="M15.3,687.3c1.4,0.8,2.6,1.2,2.7,1c0.1-0.2-0.9-1-2.3-1.7s-0.8-0.2-0.9,0C14.6,686.8,13.9,686.5,15.3,687.3z"
		/>
	<g>
		<path class="st13" d="M68.1,748.9c-1.1-0.9-2-2.2-2.4-3.6c-0.4-1.5,0.3-3,1.7-3.7c1.5-0.6,3.2,0.5,4.4,1.5
			c1.2,1.1,2.7,2.3,4.3,2.1c-1.7-1.5-2.4-3.8-2-6.1c0.1-0.5,0.3-0.9,0.6-1.2c0.8-0.9,2.4-0.5,3.4,0.2c3.2,2.3,4.1,6.7,4.1,10.6
			c0.2-1.5,0.2-2.9,0.1-4.4c-0.1-1.5,0.5-2.9,1.6-3.9c0.8-0.4,1.6-0.6,2.5-0.6c1.4,0,3.1,0.1,4,1.2c1.2,1.3,0.9,3.5-0.1,5
			c-1.2,1.4-2.6,2.5-4.2,3.4c-1.2,0.7-2.2,1.7-3,2.9c-0.1,0.2-0.2,0.3-0.2,0.5h-9.1C71.7,751.8,69.8,750.5,68.1,748.9z"/>
		<path class="st13" d="M227.3,714.7c-1.1-0.9-2-2.2-2.4-3.6c-0.4-1.5,0.3-3,1.7-3.7c1.5-0.6,3.2,0.5,4.4,1.5
			c1.2,1.1,2.7,2.3,4.3,2.1c-1.7-1.5-2.5-3.8-2-6.1c0.1-0.5,0.3-0.9,0.6-1.2c0.9-0.9,2.4-0.5,3.4,0.2c3.2,2.3,4.1,6.7,4.1,10.6
			c0.2-1.4,0.2-2.9,0-4.4c-0.1-1.5,0.5-2.9,1.6-3.9c0.8-0.4,1.6-0.6,2.5-0.6c1.5-0.1,3.1,0.1,4.1,1.2c1.2,1.3,0.9,3.5-0.2,5
			c-1.2,1.4-2.6,2.5-4.2,3.4c-1.2,0.7-2.2,1.7-3,2.9c-0.1,0.2-0.2,0.3-0.2,0.5H233C230.9,717.5,229,716.2,227.3,714.7z"/>
		<path class="st13" d="M174.3,748.9c-1.1-0.9-2-2.2-2.4-3.6c-0.4-1.5,0.3-3,1.7-3.7c1.5-0.6,3.1,0.5,4.4,1.5
			c1.2,1.1,2.6,2.3,4.3,2.1c-1.7-1.5-2.4-3.8-2-6.1c0.1-0.5,0.3-0.9,0.6-1.2c0.9-0.9,2.4-0.5,3.4,0.2c3.2,2.3,4.1,6.7,4.1,10.6
			c0.2-1.5,0.2-2.9,0.1-4.4c-0.1-1.5,0.5-2.9,1.6-3.9c0.8-0.4,1.6-0.6,2.5-0.6c1.4,0,3.1,0.1,4.1,1.2c1.2,1.3,0.9,3.5-0.2,5
			c-1.2,1.4-2.6,2.5-4.2,3.4c-1.2,0.7-2.2,1.7-3,2.9c-0.1,0.2-0.2,0.3-0.2,0.5h-9.1C177.9,751.8,176,750.5,174.3,748.9z"/>
		<path class="st13" d="M23.8,679.7c0,0-3.4,4.5,1.6,11.2s9.1,12.4,7.4,16.6c0,0-7.5-12.5-13.6-12.7C13,694.7,17.1,687.2,23.8,679.7
			z"/>
		<path class="st13" d="M41.8,679.7c0,0,3.4,4.5-1.6,11.2s-9.1,12.4-7.4,16.6c0,0,7.5-12.5,13.6-12.7
			C52.5,694.6,48.6,687.2,41.8,679.7z"/>
	</g>
	<path class="st6" d="M41.8,679.7c0.3,0.4,0.5,0.9,0.7,1.4c6,7,9.2,13.6,3.4,13.7c-5.3,0.2-11.8,9.7-13.3,12.1
		c0,0.2,0.1,0.4,0.2,0.6c0,0,7.5-12.5,13.6-12.7C52.5,694.7,48.6,687.2,41.8,679.7z"/>
	<path class="st12" d="M48.1,685.4c0,1.6-0.2,2.8-0.4,2.8s-0.4-1.3-0.4-2.8c0-1.6,0.2-0.8,0.4-0.8S48.1,683.8,48.1,685.4z"/>
	<path class="st12" d="M50.3,687.3c-1.4,0.8-2.6,1.2-2.7,1c-0.1-0.2,0.9-1,2.3-1.7s0.8-0.2,0.9,0C51,686.8,51.7,686.5,50.3,687.3z"
		/>
	<path class="st14" d="M47,706.9c0,0-9.5-0.3-12.4-2.3s-14.7-4.5-15.4-1.2c-0.7,3.3-14.3,16.3-3.6,16.4c10.8,0.1,25-1.7,27.9-3.4
		S47,706.9,47,706.9z"/>
	<path class="st15" d="M15.6,718.6c10.8,0.1,25-1.7,27.9-3.4c2.2-1.3,3.1-6.1,3.3-8.3h0.3c0,0-0.6,7.7-3.5,9.4s-17.1,3.5-27.9,3.4
		c-3.1,0-4.2-1.1-4.1-2.8C12,718,13.2,718.6,15.6,718.6z"/>
	
		<linearGradient id="SVGID_1_" gradientUnits="userSpaceOnUse" x1="652.5217" y1="-50.41" x2="652.5217" y2="534.5131" gradientTransform="matrix(1 0 0 -1 -37.44 750.47)">
		<stop  offset="0" style="stop-color:#808080;stop-opacity:0.25"/>
		<stop  offset="0.54" style="stop-color:#808080;stop-opacity:0.12"/>
		<stop  offset="1" style="stop-color:#808080;stop-opacity:0.1"/>
	</linearGradient>
	<path class="st16" d="M977.9,455.6c-4.1-3.5-16.2-24.7-19.7-30.8l-0.9-1.6l0,0c1.3-4.7-6.6-11.6-8.9-13.5
		c-4.8-5.7-11.8-12.8-17.5-14.5c-7.3-2.2-12.5,0.3-18-0.7c-1.4-0.2-2.7-0.6-3.9-1.3c-0.8-0.4-1.6-0.9-2.3-1.4c-2-1.4-3.7-3.1-5.3-5
		c1-0.1,2-0.4,3-0.8c5.7-2.1,11.3-4.5,16.8-7.1c1.2-0.6,2.5-1.3,3-2.5c0.2-0.5,0.2-1.1,0.5-1.6c0.5-1.1,1.9-1.5,3-1.9
		c4.2-1.3,8.8-3.8,9.5-8.1c0.1-0.6,0.1-1.1,0.1-1.7c-0.2,0.4-0.5,0.9-0.8,1.3c0.2-1.5-0.1-3,0.1-4.4c0.2-1.3,0.7-2.5,1.5-3.5
		c-0.1,0.5-0.1,1-0.1,1.5c1.6-3.5,5.6-6.1,6.9-10c0.3-1,0.5-2.1,0.5-3.1c-0.3,0.6-0.6,1.2-0.9,1.7c0.7-4.3-1.2-9.2,1.1-13
		c0.2-0.3,0.3-0.5,0.5-0.7c-0.1,0.5-0.1,1-0.1,1.5c0.1-0.3,0.2-0.5,0.4-0.8c1-1.8,2.9-3.1,3.5-5.1c0.2-0.7,0.2-1.5,0.1-2.2
		c-0.2,0.3-0.4,0.6-0.7,0.9c0-0.9-0.2-1.9-0.4-2.8c-1.6-6.9-3.9-14.6-10.3-17.5c-2-0.9-4.2-1.2-5.8-2.7c-3.6-3.3-1.6-10.4-5.8-13
		c-1.8-1.1-4.6-1.3-5.3-3.3c-0.4-1.1,0.1-2.5-0.3-3.6c-0.9-2.5-4.5-1.6-7.1-1.5c-3.6,0.1-7.4-3-6.8-6.6c-4.9-2.5-10.6-2.8-15.8-0.7
		c-2.6,1.1-5.2,2.8-8.1,2.5c-1.4-0.1-2.6-0.7-4-1c-5.6-1-10.4,3.8-15.7,5.8c-5.5,2.1-12.4,1.3-16.8,5.2c-3.9,3.5-4.6,9.7-8.7,12.9
		c-2.2,1.7-5,2.3-7.3,3.9s-3.9,4.9-2.1,7.1c2.2,2.7,7.9,1.3,9,4.6c0.9,2.7-2.5,4.7-3.8,7.2c-1.2,2.8,0,6.1,2.9,7.4
		c0.3,0.1,0.7,0.3,1,0.3l0,0v0.1c-5.7,16.8,1.6,35.2,17.3,43.6c0.5,0.9,1,1.9,1.6,3c3.1,6.2,6.7,14.8,7.8,23.3
		c-3.7-1.2-11.6,5.9-11.6,5.9c-4,1-8,1.8-12.1,2.2c-8.4,1.1-7.7,4.4-7.7,4.4l-0.5,0.5c-4.3,3.8-33.9,30.3-38.7,31.3l0.3,1l-1.2,0.9
		l-14.7,10.9l0,0c0,0-11.2,0.7-22.3,2s-26.7,4.6-15.3,17.9c0.3,0.4,0.6,0.7,1,1l-44.2-2.6c0.3-0.3,0.5-0.7,0.5-1.2
		c0-1-1.1-2-3.1-2.8l-0.1-0.3c5.6-0.2,12.5-0.4,17.1-0.8c1.2-0.1,2.2-0.2,3-0.4c6.9-1.1-0.5-6.4,2.8-10.5s0-19.6,0.3-22.9
		s-2.2-16.6-4.4-19.4s-2.5-14.6-2.5-14.6s-5.2-4.7-8.3-20.7s-15.2-24.3-19-25.1s-9.7-4.1-9.7-5s-6.6-1.1-9.4-2.2s-4.1-2.5-6.3-2.8
		l0,0c0.8-0.9,1.4-1.9,2-2.9c0.5-1.1,1.4-2,2.4-2.7c0.2-0.1,0.4-0.2,0.6-0.3c0.2-0.1,0.4-0.1,0.7-0.1c0.2,0,0.4,0,0.7,0.1
		c0.8,0.2,1.7,0.9,2.4,0.5c0.1-0.1,0.2-0.1,0.3-0.2c0.2-0.3,0.4-0.6,0.4-1l0,0c0.1-0.4,0.2-0.8,0.2-1.3c0,0,0-0.1,0-0.1
		c0-0.4,0.1-0.9,0.1-1.3l0,0c0.2-3.1-0.3-6.4,1.2-9.1l0.1-0.1l0,0c1.5-2.6,4.3-4,6.7-5.9c0.5-0.4,0.9-0.8,1.4-1.2
		c0.2-0.2,0.3-0.3,0.5-0.5s0.5-0.5,0.8-0.8s0.4-0.5,0.6-0.7s0.4-0.5,0.5-0.7s0.4-0.6,0.6-0.9s0.3-0.4,0.4-0.6s0.4-0.7,0.6-1.1
		c0.1-0.2,0.2-0.3,0.2-0.5c0.2-0.4,0.4-0.8,0.5-1.2c0-0.1,0.1-0.3,0.1-0.4c0.2-0.5,0.3-0.9,0.5-1.4c0-0.1,0-0.1,0-0.2
		c0.3-1,0.5-2,0.6-3c0.5-5.2-1.2-10.4-4.5-14.4c-2.5-3-6.2-5.6-6.4-9.5c0.1-1.8,0.5-3.7,1.2-5.4l0,0c0.3-0.7,0.5-1.5,0.6-2.3l0,0
		c0.1-0.4,0.1-0.7,0.1-1.1c0-2.9-1.8-5.5-4-7.5c-6.2-5.7-14.9-8-23.1-6.1c-2.1,0.5-4.3,1.3-6.5,1c-2.5-0.3-4.6-2-6.9-3.2
		c-7.5-3.8-17.6-1-22.1,6c-2.6,4.1-3.6,9.4-7.5,12.3c-2.3,1.7-5.5,2.4-7.1,4.6l0,0c-0.2,0.3-0.4,0.5-0.5,0.8
		c-0.4,0.9-0.6,1.8-0.6,2.7c0,1,0.1,1.9,0.2,2.9c0.4,3.1,1.9,5.9,4.2,8l0,0l0.6,0.6l0.1,0.1c0.4,0.4,0.8,0.9,1.1,1.3l0.1,0.1
		l0.3,0.4c-0.1,0.2-0.3,0.3-0.4,0.5c-11.3,14.2-9.1,34.9,4.9,46.4c0,0.4,0,0.7,0,1.1c-0.1,1.9-0.2,3.8-0.4,5.8c-1-1-2.4-1.4-3.8-1.3
		c-0.6-0.1-1.3,0-1.9,0.2c-0.4,0.1-0.7,0.2-1.1,0.2c-1.4-0.1-2.7-0.6-4.1-0.5c-1.4-0.2-2.9,0.3-3.9,1.4c-2.7,2.5-12.3,5.8-16.9,6.1
		c-0.3,0-0.7-0.1-1-0.3c-0.5-0.2-1-0.3-1.5-0.1c-2.9-0.6-11,5-12.8,8.4c-1.9,3.6-8.3,13.3-8.3,13.3s-5.5,6.6-4.7,10.2
		s-1.9,7.7-5.2,9.4s-9.9,18.2-9.9,18.2s-7.2,15.2-14.6,19.1c-2.9,1.5-3.8,5-3.9,8.8c-1.7,0.1-3,0.1-3,0.1s-23.2,5.9-30.5,1.5
		s-33.1-5.5-33.1-5.5l-26.3-28.1l-1.1-1.1c4.6-4-3.2-6.9-3.2-9.8s-2.9-4.1-2.9-4.1s-0.1,0.2-0.3,0.4c-0.2-0.2-0.5-0.3-0.8-0.4
		c-0.6,0.8-1.3,1.4-2.2,1.9c-0.5-0.4-0.9-1.4-0.8-3.7c0.2-4.5-2.7-9.2-5-12.3c3.3-10.8,9.5-22.9,14.2-31.3c0.3-0.5,0.5-1,0.8-1.5
		c16.3-7.3,23.6-26.5,16.2-42.8c-1.3-3-3.1-5.7-5.2-8.1c-0.3-0.4-0.7-0.8-1-1.1c0.3-0.1,0.5-0.2,0.8-0.2c0.3-0.1,0.7-0.1,1-0.1
		c2.4,0.1,5.1,1.1,7.3,1c0.7,0,1.4-0.1,2-0.4c2.4-1.2,1.9-4.4,0.4-6c-1.8-2-4.5-3.3-5.8-5.6c-0.6-1.4-1.1-2.8-1.3-4.3
		c-1.5-4.5-4.9-8-9.3-9.6c-4.7-1.8-10-1.7-14.7,0.3c-2.2,1-4.1,2.3-6.3,3.1c-4.6,1.7-10,0.8-14.8-0.6c-2.8-0.8-5.6-1.7-8.5-2.3
		c-0.7-4.3-2-8.4-3.9-12.3c-0.1-0.3-0.3-0.6-0.5-0.9c4.8-1.7,11.1-1.4,13.6-5.7c1.5,0.2,3.1,0,4.5-0.6c1.4-0.7,2.4-2.4,1.9-3.8
		c-0.1-0.3-0.4-0.7-0.6-0.9l0,0c-0.6-0.6-1.3-1.1-2-1.5c-3-2.1-4.9-5.4-5.1-9.1c0,0.1,0,0.2,0.1,0.3c0-0.4,0-0.8,0-1.3
		c0.1-1.9,0.6-3.8,0.5-5.7c-0.1-0.8-0.2-1.6-0.5-2.3c0,0,0,0.1,0,0.1c-1.3-3.3-4.4-5.4-7.9-5.4c-1.3,0.1-2.5,0.4-3.7,0.4
		c-6,0.2-11-6.6-16.8-5.2c-1.2,0.3-2.4,1-3.7,1c-2.9,0-4.7-3.4-7.5-4.2c-2.2-0.7-4.6,0.3-7,0s-4.1-1.6-6.1-2.6
		c-4.2-2.3-9.8-3.3-13.5-0.2c-0.8,0.8-1.7,1.5-2.6,2.1c-1.2,0.4-2.5,0.5-3.8,0.2c-3.8-0.4-7.6-0.1-11.4,0.8c-1,0.1-1.9,0.6-2.6,1.4
		c-0.4,0.8-0.7,1.7-0.8,2.6c-1.1,4.4-6.5,5.8-11,6.2c-1.2,0-2.3,0.3-3.3,0.9c-1.6,1.2-1.6,3.7-0.9,5.6s1.9,3.6,2.2,5.6
		c0.6,5-4.8,8.9-5.7,13.9c-1.3,6.9,6.4,13.7,3.8,20.3c-1.1,2.9-4.2,5.1-4.1,8.3s3.2,4.9,5,7.3s2.5,5.2,3.2,8
		c1.1,4.3,1.3,12.5,5.9,14.6l0,0c0.2,0.1,0.4,0.2,0.6,0.2c0.3,0.1,0.5,0.1,0.8,0.2c-0.2,0.3-0.4,0.6-0.6,1
		c-5.4,7.7-11.5,15.3-17.2,19.9c-0.2,0.2-0.4,0.3-0.6,0.5c-0.7-0.6-1.5-1-2.5-1.1c-3.3-0.4-11.8,5.5-11.8,8.5s-7.8,7.7-16.6,16.2
		s-8.8,49-5.9,56.8c1.2,3.1,2.8,11.1,4.3,19.6c-2,1.4-3.4,3.5-4,5.9c-3.3,14,1.5,25.1,5.5,26.2s3-4.8,3-4.8
		c-3.2-7-3.8-12.4-2.6-16.5c1.5,9.1,2.6,16.5,2.6,16.5s10.7,33.9,14.7,44.2c4,10.3,18.4,74.8,18.4,74.8s1.6,2,4.4,4.8l3.3,18.4
		l5.5,11.1h0.4l-0.8,7.9c0,0,0.7,33.2-1.1,38.1c-1.8,5-18.2,95.1-18.2,95.1s-5.1,31.7-4.8,39.4l12,2.6c0,0-2.4-6.8,1.1-19.5
		c3.5-12.7,10.3-36.5,10.3-36.5l7-31.7l0.5,22.7c0,0-6.3,28.2-5,29.7s10.8,2,10.8,2s0-15.1,2-23.4c1.8-7.2,21.3-82.1,26.2-101.2
		c6.8-2.8,14.2-4,21.6-3.5c24.8,1.4,38.6,10.4,46.4,19.7c-17.8,9.4-32.7,17.1-32.7,17.1l0.2,1l0,0l-0.2,0.1l-0.4,0.2l-0.2,0.1
		l-0.4,0.2l-0.3,0.2l-0.4,0.3l-0.3,0.2l-0.5,0.3l-0.2,0.1l-1.6,1l-0.2,0.1l-0.7,0.4l-0.2,0.1l-0.8,0.4l-0.2,0.1l-0.9,0.5l-0.1,0.1
		l-1,0.6l0,0l-1,0.6l-0.1,0.1l-0.9,0.5l-0.3,0.1l-0.7,0.4l-0.4,0.2l-0.7,0.4l-0.3,0.2l-0.8,0.4l-0.3,0.2l-1,0.5l0,0l-0.9,0.5
		l-0.3,0.1l-0.7,0.4l-0.3,0.2l-0.6,0.3l-0.3,0.2l-0.6,0.3l-0.3,0.1l-0.7,0.4l-0.1,0.1l-0.8,0.4l-0.2,0.1l-0.6,0.3l-0.2,0.1l-0.5,0.2
		l-0.2,0.1l-0.4,0.2l-0.2,0.1l-0.4,0.1l-0.2,0.1l-0.5,0.2c-4.7,1.4-8.1,13.4-3,21.1c5.1,7.7,4,21.1,1.4,26.3s0.7,14.3,1.4,16.6
		c0.5,1.7,6.7,3.6,16.5,3.2c5.3,0.2,10.5-0.2,15.7-1.2c15.5-2.9,9.8-9.1,8.1-13.7c-1.7-4.6-2-17.7,0.3-23.7c0.2-0.4,0.3-0.8,0.4-1.3
		c3.7-4.1,9.5-10.7,14.2-16.8c2.1-2.8,7.6-5.3,14.2-7.4c5.3,21.7,15.8,64.5,18.1,71.3c3.1,9.2,4.8,31.9,4.8,31.9l12.1-1.1l-4-60.3
		l-4.4-48c5.7-1,10.2-1.6,11.6-1.8c5.9,22.8,11.5,44.5,12.5,48.2c2,8.3,2,23.4,2,23.4s9.6-0.5,10.9-2c1.3-1.4-5-29.7-5-29.7
		l1.2-49.9c13.7-6.4,30.4-14.2,37.8-17.4c6.9-3,18.5-10.1,28.1-16.4l17,138.8l9.9,0.8l5.3-1.2l6.8-1.6l15.6-125.1
		c0.6,0.5,1.2,0.9,1.7,1.4c-0.3,3.1-0.7,8.4,0.6,12.3c1.9,5.8,1.7,18.5,0.3,22.9c-1.4,4.4-6.1,10.5,6.6,13.3s21.2,0.3,21.8-1.9
		c0.5-2.2,3.3-11.1,1.1-16c-2.2-4.9-3-18,1.1-25.4c4.1-7.4,1.4-19.1-2.5-20.5c-2.6-0.9-6.3-2.6-8.6-3.6l-0.7-0.9
		c1.6-2.1,3.7-3.9,6-5.2c6.6-3.3,5.2-10.8,5.2-10.8s6.9,0,11.9-8.3c3.5-5.8,7.5-11.6,9.6-15.8c0.4,2.7,0.9,6,1.2,8.8
		c0.5,5.9,7.3,63.2,10.5,68c3.1,4.8,0.5,22.8,0.5,22.8h10.1l-0.7-27.6c0,0-11.4-81.3-1.8-89.5c1.7-1.5,3.3-2.9,4.8-4.4l18.9,137.9
		c0,1-0.1,1.7-0.1,2.3s-0.1,1-0.1,1s-8.1,4.1-2.2,8.1c1.3,0.8,2.7,1.4,4.2,1.7l0.4,3c-2.1,0.2-4.3,0.2-6.4,0
		c-1.3-0.5-1.3,17.1-1.3,17.1s-7.2,14.4-8.1,17.9s-8.1,12.2-8.1,12.2s-10.3,7.5,4.8,10.5c15.1,2.9,31.6-0.9,31.6-0.9
		s11-19.2,12-18.1s0,10.1,0,10.1l6.4-1.7c0,0-1.1-12,1.5-18.4c2-5.1-2.4-21.3-4.3-27.7l1.2,0.1c0,0,1.1-2.2,2.2-8.8
		c0-0.2,0-0.4,0.1-0.6c0.8-4.8,2-9.5,3.6-14.1c1.8-5.9,0-5.2,0-8.8c0.2-6.3,0.9-12.7,2-18.9c0-0.2,0.1-0.4,0.1-0.6
		c0.8,0.5,1.7,0.9,2.7,1.2c1.1,3.1,2.3,6.6,3,9.5c-2,0.6-3.3,1.3-3.6,2.2c-1.1,4.1,0.4,12.7,0.4,12.7s1.7,19.5-1.5,22.5
		c-3.1,2.9-9.6,8.3-5.3,13.8c0.4,0.5,0.9,1,1.5,1.4c3,2.2,8.8,3.8,14.6,4l-2.4,36.1l12,1.1c0,0,1.7-22.7,4.8-31.9
		c0.7-2,2.1-7.3,3.9-14.3c4.5-6.8,7.1-11.7,7.1-11.7l3.1,12.9l10.8-2.8c0,0-5.9-11.4-5.2-15.5c0.7-4.1-3.1-9.8-6.2-14.4
		c-0.4-0.6-0.8-1.3-1.3-2.1c4.7-18.9,8.8-36,8.8-36s2.9-38.3,56.1-41.3c7.4-0.5,14.7,0.6,21.5,3.5c5,19,24.5,94,26.3,101.2
		c2,8.3,2,23.4,2,23.4s9.6-0.6,10.8-2c1.3-1.5-5-29.7-5-29.7l0.5-22.7l7,31.7c0,0,6.8,23.8,10.3,36.5s1.1,19.5,1.1,19.5l12-2.6
		c0.4-7.7-4.8-39.4-4.8-39.4s-16.4-90.1-18.2-95.1c-1.8-5-1.1-38.1-1.1-38.1l-0.8-7.7c13-9.2,20.3-58.1,20.3-58.1l13.6-75.8
		c2.1-3.9,3.9-8,5.4-12.2v-0.1l1.6,1.8l7.9,19.4c15.6,21.9,31.3,21.2,31.3,21.2c0-0.1,0.1-0.1,0.1-0.2c2.8,0.4,5.7-0.3,8-2.1
		l0.2-0.1C994.4,491.4,982.7,459.7,977.9,455.6z M702,501.5c-0.9-3.6-1.9-7.6-2.9-11.7l3.1-0.1L702,501.5z M654.9,348.5
		c-0.3,0.2-0.6,0.4-0.9,0.7c-0.3-0.7-0.6-1.5-0.8-2.3C653.6,347.5,654.2,348.1,654.9,348.5z M560.2,508.9c-4.7,6.1-5.2,10-5.2,10
		l1.2,0.3l-8.5,7.6l-4.3-36.9l20.8,0.9C563,499.9,561.6,507.1,560.2,508.9z M580.4,585.7c0,0,4.3-1,9.9-2.6l-1.8,13.3
		C583.5,589.9,580.4,585.7,580.4,585.7z M568.5,439.7l0.2-0.3v0.4L568.5,439.7z M462.3,531.2c-4.6-2.1-37.4-12.2-49.4-15.8
		c-0.3-0.6-0.5-1.2-0.3-1.9c1.1-3.7-7.4-13.6-10.7-16.2s-7.7-7.4-4-10.3c0.9-0.9,1.6-2.1,1.8-3.3l34.2,1.5c3.3,1.2,6.6,2.2,10,3
		c0,0,5.8-0.8,13.5-2L525,489l6.4,52.3c-4.2,3.9-7.1,6.6-7.1,6.8c0,0.5-4.5,8.2-5.1,18.4l-35.3-11c0.1-0.2,0.1-0.4,0.2-0.6
		C487.6,542.8,468,533.8,462.3,531.2z M400.5,475.1c-0.1-2.5-0.3-4.3-0.3-4.3l-0.8-8.2c6.7,4.1,13.9,8.6,19,12.1L400.5,475.1z
		 M559.8,630.8l0.7-0.5c2-0.6,3.7-1.8,5-3.5c3,2.6,5.7,4.9,8.1,7c-2.8,2.6-7.8,6.8-12.5,9.1L559.8,630.8z M700.7,573.2l-1.3,71.6
		l-9.9-66.4C692.3,577.1,696.6,575.1,700.7,573.2z M762.6,475.7c0,0,10.7,13.3,18.9,8.8l0,0c1.9,0.2,15.4-7.1,24.1-11.9
		c1.3,1.8,2.7,3.5,4.2,5.1l5.3-2.7l1-0.5c0.5,5.7,1.4,15.2,2.2,21.3c1.1,9.2-14.2,21.6-14.3,21.7l0,0c0,0,0.1,0.5,0.1,1.2
		c-0.8,0.7-1.2,1-1.2,1l1.2-0.2c0.1,2.9-0.1,8-2.7,9.1c-3.7,1.5-5.9,2.6-13.2,0.4c-8.9-2.4-18.1-3.9-27.3-4.5
		c-12.8-0.7-26.4,0.6-33,8.2c-0.2,0.3-0.5,0.6-0.7,0.9c-0.2,0.3-0.2,0.3-0.3,0.5c-0.2,0.1-0.5,0.2-0.7,0.3c0,0,0,0.2,0.1,0.6
		c-3.6,6.4-4.5,18.3-4.3,31.1l-1.1,0.5l-0.5,0.3l-0.4,0.2c-0.4,0.2-0.8,0.4-1.1,0.6l-0.7,0.3l-0.9,0.5l-1,0.6l-0.6,0.3
		c-0.4,0.2-0.8,0.5-1.3,0.8l-0.3,0.2c-0.5,0.3-1,0.6-1.4,1l-0.1,0.1c-0.2,0.1-0.3,0.3-0.5,0.4l1.2-82.1l54.4-1l-0.8-7.7l-8.4-0.5
		C760,478.9,761.4,477.4,762.6,475.7z M372.4,680.4l0.3-0.8c0-0.1,0-0.1,0.1-0.2l0.3-0.7l0,0l0.3,1.6c-0.4,0.2-0.8,0.5-1.2,0.7
		C372.2,680.8,372.3,680.6,372.4,680.4L372.4,680.4z M564.6,671.9c4.9-0.9,9.7-2.2,14.4-4l-7.9,59.4L564.6,671.9z M700,724.4
		c0.7,0.2,1.5,0.3,2.2,0.5v1.7l-2.3,0.1L700,724.4z"/>
	
		<linearGradient id="SVGID_2_" gradientUnits="userSpaceOnUse" x1="1069.1307" y1="48.77" x2="1069.1307" y2="113.4102" gradientTransform="matrix(1 0 0 -1 -37.44 750.47)">
		<stop  offset="0" style="stop-color:#808080;stop-opacity:0.25"/>
		<stop  offset="0.54" style="stop-color:#808080;stop-opacity:0.12"/>
		<stop  offset="1" style="stop-color:#808080;stop-opacity:0.1"/>
	</linearGradient>
	<path class="st17" d="M1073.1,694.9c0-2.1-8.7-4-21.5-5c-3.5-5.8-8.9-12.1-9.5-14.7c-0.8-3.5-9.2-3-16.3-1.3
		c4.4-5.7,10.8-12.3,16.4-12.5c5.9-0.2,5.9-4.5,2.7-10.6c1.2-0.4,2.4-0.9,3.6-1.6c2.2-1.2,1.1-0.8,0.9-1.1c-0.2-0.3,0.7-1.2-1.5,0
		c-1.1,0.6-2.2,1.3-3.2,2.1c0.2-1.3,0.3-2.7,0.3-4c0-2.5-0.2-1.3-0.6-1.3s-0.7-1.2-0.7,1.3c0,0.9,0,1.8,0.1,2.7
		c-2.7-4.2-5.7-8.2-9.1-11.8l0,0l0,0v0.1l0,0c0.1,0.1,0.2,0.2,0.3,0.4v0c0,0.1,0.1,0.2,0.1,0.3v0.1c0.1,0.3,0.3,0.5,0.4,0.8
		c0,0,0,0.1,0,0.1l0.2,0.4c1.1,2.9,1.8,8.6-3.6,15.9c-5.4,7.3-10.3,14.1-12,19.7c-1.7-5.6-6.5-12.3-12-19.7
		c-5.5-7.4-4.7-13-3.6-15.9l0.2-0.4v-0.1c0.1-0.3,0.3-0.6,0.4-0.8v-0.1c0-0.1,0.1-0.2,0.1-0.3v0c0.1-0.1,0.2-0.3,0.3-0.4l0,0V637
		l0,0l0,0c-3.4,3.7-6.4,7.6-9.1,11.8c0.1-0.8,0.1-1.7,0.1-2.7c0-2.5-0.3-1.3-0.7-1.3s-0.6-1.2-0.6,1.3c0,1.3,0.1,2.7,0.3,4
		c-1-0.8-2.1-1.5-3.2-2.1c-2.2-1.2-1.3-0.3-1.5,0c-0.2,0.3-1.3-0.1,0.9,1.1c1.1,0.6,2.3,1.2,3.6,1.6c-3.2,6.1-3.2,10.4,2.7,10.6
		c6.8,0.2,14.6,9.8,18.9,15.8c-4.2,2.9-16.7,3.6-19.4,3.7l0,0h-0.5l0,0c0.2,2.2,0.6,4.4,1.1,6.5c0.3,1.3,0.7,2.7,1.2,3.9
		c-5.3,0.9-8.4,2.1-8.4,3.4c0,2.7,13.8,5,32.3,5.5c8.1,0.9,16.2,1.3,24.4,1.3c0.5,0,1,0,1.4-0.1h0.2c0.4,0,0.8-0.1,1.1-0.2l0.2-0.1
		c0.3-0.1,0.6-0.1,0.9-0.3l0.1-0.1c0.3-0.1,0.5-0.2,0.7-0.3h0.1c0.2-0.1,0.4-0.3,0.6-0.4l0.1-0.1c0.2-0.1,0.3-0.3,0.4-0.5l0.1-0.1
		C1065.4,698.7,1073.1,696.9,1073.1,694.9z"/>
	<path class="st18" d="M385.3,702.9c0,0,2,9.4-0.3,15.3s-2,19-0.3,23.6s7.4,10.8-8.1,13.7c-15.5,2.9-26,0.3-26.6-2s-4-11.4-1.4-16.5
		s3.7-18.5-1.4-26.2c-5.1-7.7-1.7-19.6,3-21s25.1-13.5,25.1-13.5s-7.5,13.1,0.5,16C380.6,694,384.1,698,385.3,702.9z"/>
	<path class="st19" d="M555.8,630.2c0,0-31.2,21.7-44.8,27.5s-58.7,27.2-58.7,27.2s-45.5,5.9-52.8,15.4
		c-7.3,9.5-17.6,20.5-17.6,20.5l-8.1-44.8c0,0,89.5-46.2,90.2-49.5s26.4-13.2-48.4-12.8c-65.6,0.3-89.8,4.6-95.2-4.5
		c-0.8-1.4-1.2-3-1.3-4.7c-0.7-15,88.1-81.4,88.1-81.4s4.3,2.3,9.5,5.3c5.7,3.3,12.4,7.6,15.4,10.8c5.9,6.2,20.2,8.1,20.2,8.1
		l87.3,27.2c0,0,25.7,8.1,26.4,30.8S555.8,630.2,555.8,630.2z"/>
	<path class="st6" d="M566,605.3c-0.7-22.8-26.4-30.8-26.4-30.8l-87.3-27.2c0,0-14.3-1.8-20.2-8.1c-3.1-3.3-9.8-7.5-15.4-10.8
		c-5.2-3-9.5-5.3-9.5-5.3s-88.8,66.4-88,81.5c0,1.6,0.5,3.3,1.3,4.7c5.5,9.1,29.6,4.8,95.2,4.5c74.8-0.4,49.1,9.5,48.4,12.8
		s-90.2,49.5-90.2,49.5l0.2,1c-4.5,2.7-19.8,11.6-23.8,12.8c-4.7,1.4-8.1,13.4-3,21s4,21,1.4,26.2c-2.6,5.2,0.7,14.2,1.4,16.5
		c0.7,2.3,11.1,4.8,26.6,2c15.5-2.8,9.8-9.1,8.1-13.7s-2-17.6,0.3-23.6c0.2-0.4,0.3-0.8,0.4-1.3c3.6-4,9.5-10.7,14.1-16.7
		c7.3-9.5,52.8-15.4,52.8-15.4s45.1-21.3,58.7-27.2s44.8-27.5,44.8-27.5S566.8,628,566,605.3z M375.8,692.3
		c-6.1-2.1-3.4-10.1-1.6-13.9l2.6,14.3C376.5,692.6,376.2,692.4,375.8,692.3L375.8,692.3z"/>
	<path class="st20" d="M442.4,627.8c0,0,25.3,96.8,27.3,105.1s2,23.3,2,23.3s9.5-0.6,10.8-2c1.3-1.5-5-29.5-5-29.5l1.8-78.5
		l-26.8-22.6L442.4,627.8z"/>
	<rect x="376.4" y="680" class="st21" width="19.8" height="17.1"/>
	<path class="st3" d="M390.8,702.9c0,0,2,9.4-0.3,15.3s-2,19-0.3,23.6s7.4,10.8-8.1,13.7c-15.5,2.9-26,0.3-26.6-2s-4-11.4-1.4-16.5
		s3.7-18.5-1.4-26.2c-5.1-7.7-1.7-19.6,3-21s25.1-13.5,25.1-13.5s-7.5,13.1,0.5,16C386.1,694,389.6,698,390.8,702.9z"/>
	<path class="st3" d="M409.8,514.5c0,0,47.9,14.5,53.6,17.1c5.7,2.6,25.1,11.6,21.8,23.7s-30.3,13.4-30.3,13.4l-41.1-15.2
		l-16.1-32.7L409.8,514.5z"/>
	<path class="st22" d="M425.3,346.5c0,0-2.4,3.7-5.6,9.3c-0.3,0.5-0.5,0.9-0.8,1.4c-8.8,15.6-22.5,43.6-13.7,52.5
		c12.4,12.7-28.3-7.1-28.3-7.1l-1-1.8l-16.6-30.1c0,0,13.1-13.2,20.9-24.8c0.1-0.2,0.3-0.4,0.4-0.6c3.5-5.3,5.9-10.1,5.4-13.2
		s3.4-2.8,8.9-0.9C406.5,335.3,425.3,346.5,425.3,346.5z"/>
	<path class="st6" d="M425.3,346.5c0,0-2.4,3.7-5.6,9.3c-0.3,0.5-0.5,0.9-0.8,1.4c-5.7,2.4-12.1,3.1-18.2,1.9
		c-8.1-1.5-15.3-6-20.2-12.7c-0.1-0.2-0.3-0.4-0.4-0.5c0.1-0.2,0.3-0.4,0.4-0.6c3.5-5.3,5.9-10.1,5.4-13.2s3.4-2.8,8.9-0.9
		C406.5,335.3,425.3,346.5,425.3,346.5z"/>
	<path class="st22" d="M438.8,326.3c0,17.8-14.4,32.2-32.2,32.2l0,0c-2,0-3.9-0.2-5.9-0.5c-17.5-3.2-29-20-25.8-37.5
		c3.2-17.5,20-29,37.5-25.8C427.7,297.5,438.8,310.8,438.8,326.3L438.8,326.3z"/>
	<path class="st6" d="M430.7,305c-1.9,0.6-3.2,2-5,3c-3.1,1.8-7.2,1.7-10.2,3.4c-2.5,1.4-2.5,4.4-3.5,6.8c-2.8,6.2-12.7,7.8-17.2,13
		c-0.4,0.4-0.7,0.9-1,1.4c-2.4,4.1-1,9.1,0.9,13.4c1.8,4.1,3.8,8.1,6,12c0.4,0.7,0.8,1.4,1.2,2c2.4,4,5.3,8.4,3.8,12.7
		c-2.4,7-14.4,8.6-17.9,15.3c-1,2-1.2,4.2-2.3,6.2c-1.8,3.3-5.6,5-9.7,6.5l-16.6-30.1c0,0,13.5-13.6,21.3-25.3
		c-10.5-14.3-7.4-34.5,7-45C401,290.5,419.7,292.6,430.7,305L430.7,305z"/>
	<path class="st23" d="M441.3,298.2c-1.7-2-4.5-3.3-5.8-5.5c-0.6-1.4-1.1-2.8-1.3-4.3c-1.4-4.5-4.9-8-9.3-9.6
		c-4.7-1.8-10-1.7-14.6,0.3c-2.2,1-4.1,2.3-6.3,3.1c-4.6,1.7-10,0.8-14.8-0.6s-9.6-3.1-14.6-3.1s-10.5,2.5-11.5,6.7
		c-0.2,1.1-0.3,2.3-0.3,3.4c-0.6,5.1-5.3,9.2-10.3,12s-10.7,4.8-15.4,8s-8.3,8.3-7.1,13.3c0.8,3.1,3.3,5.6,5.3,8.3
		c5.1,6.8,7.1,14.9,9,22.7c0.7,2.7,1.4,5.6,0.7,8.3c-1.2,5-6.3,8.4-9.6,12.6c-4.1,5.2-5.5,11.7-5.3,18s2.2,12.4,4.1,18.5
		c0.6,2.3,1.6,4.4,2.8,6.4c2.4,3.5,6.6,5.8,10.6,7.9c1.8,1.1,3.8,1.8,5.9,1.9c4.4-0.1,7-4.3,8-7.9c0.8-3,1.1-6.2,0.9-9.3
		c-0.2-1.1-0.1-2.3,0.3-3.3c0.6-1,1.5-1.9,2.6-2.4c6.3-3.8,15.9-4.5,19.2-10.4c1.1-2,1.3-4.2,2.3-6.2c3.5-6.7,15.4-8.3,17.9-15.3
		c1.5-4.3-1.3-8.7-3.8-12.7c-2.8-4.5-5.2-9.2-7.3-14c-1.9-4.3-3.4-9.3-0.9-13.4c3.8-6.4,15.2-7.7,18.2-14.4c1-2.4,1-5.3,3.5-6.8
		c3-1.7,7.1-1.7,10.2-3.4c2-1.1,3.4-2.8,5.9-3.3c3.2-0.7,7.7,1.9,10.4,0.5C443.3,303,442.7,299.8,441.3,298.2z"/>
	<path class="st6" d="M441,298.2c-1.7-2-4.5-3.3-5.8-5.5c-0.6-1.4-1-2.8-1.3-4.3c-1.3-4.1-4.4-7.5-8.4-9.2c2.1,1.7,3.6,4,4.4,6.6
		c0.3,1.5,0.7,2.9,1.3,4.3c1.3,2.2,4,3.6,5.8,5.5c1.4,1.6,2,4.8-0.4,6c-2.7,1.4-7.2-1.2-10.4-0.5c-2.5,0.5-3.8,2.1-5.9,3.3
		c-3.1,1.8-7.2,1.7-10.2,3.4c-2.5,1.4-2.5,4.4-3.5,6.8c-3,6.7-14.4,8-18.2,14.4c-2.4,4.1-0.9,9.1,0.9,13.4c2.1,4.8,4.5,9.5,7.2,14
		c2.5,4,5.3,8.4,3.8,12.7c-2.5,7-14.4,8.6-17.9,15.3c-1,2-1.2,4.2-2.3,6.2c-3.3,6-12.9,6.6-19.2,10.4c-1.1,0.6-2,1.4-2.6,2.4
		c-0.4,1.1-0.5,2.2-0.3,3.3c0.2,3.1-0.1,6.3-0.9,9.3c-0.9,3.7-3.5,7.9-8,7.9c-2.1-0.1-4.1-0.8-5.9-1.9c-0.9-0.5-1.8-1-2.7-1.5
		c2.1,1.5,4.4,2.8,6.7,4c1.8,1.1,3.8,1.8,5.9,1.9c4.4-0.1,7-4.3,8-7.9c0.8-3,1.1-6.2,0.9-9.3c-0.2-1.1-0.1-2.3,0.3-3.3
		c0.6-1,1.5-1.9,2.5-2.4c6.3-3.8,15.9-4.5,19.2-10.4c1.1-2,1.2-4.2,2.3-6.2c3.5-6.7,15.4-8.3,17.9-15.3c1.5-4.3-1.3-8.7-3.8-12.7
		c-2.8-4.5-5.2-9.2-7.3-14c-1.9-4.3-3.4-9.3-0.9-13.4c3.8-6.4,15.2-7.7,18.2-14.4c1-2.4,1.1-5.3,3.5-6.8c3-1.7,7.1-1.7,10.2-3.4
		c2-1.1,3.4-2.8,5.9-3.3c3.2-0.7,7.7,1.9,10.4,0.5C442.9,303,442.4,299.8,441,298.2z"/>
	<path class="st24" d="M794,446.2c0,0,5,21,16,32.1l4.4-9.6l-5.5-17.5L794,446.2z"/>
	<path class="st6" d="M808.9,451.3l-14.9-5c0,0,5,21,16,32.1"/>
	<path class="st25" d="M988.7,496.3l-0.2,0.1c-4.4,3.4-10.6,2.8-14.3-1.3l-42-47.1l-1.1-1.2l22-25.3l4,2.6l0.9,1.6
		c3.4,6,15.6,27.2,19.6,30.7C982.4,460.3,994.2,491.9,988.7,496.3z"/>
	<path class="st26" d="M576.7,631.5c0,0-11.3,11.6-19,12.7s-14,25.9-3.3,27.8c10.7,1.9,31.4-5.8,34.4-9.1c3-3.3,14-22.8,14-22.8
		L576.7,631.5z"/>
	<path class="st25" d="M813.1,469.1l-5.5,3.1c-8.5,4.7-23.9,13.1-25.9,12.9c-2.8-0.4-3.3-26.2-3.3-26.2l14.6-10.8l1.5-1.1l4.4-1.6
		L813.1,469.1z"/>
	<path class="st6" d="M813.1,469.1l-5.5,3.1c-1.1-9.8-6.4-18.6-14.6-24.2l1.5-1.1l4.4-1.6L813.1,469.1z"/>
	<path class="st27" d="M844.1,439.1l-17.1,30.4l-11.8,6.1l-5.3,2.7c1.5-22.9-16-32.1-16-32.1c4.8-1,34.2-27.4,38.5-31.3l0.5-0.5
		l4-0.5L844.1,439.1z"/>
	<path class="st28" d="M897.9,603.2l-14.5-11l47.3-157l16.7,6.2l-12.7,24.9l-13.9,77.8C920.8,544.2,912.6,599.6,897.9,603.2z"/>
	<path class="st25" d="M954.2,418.1l-49.9-0.4c0,0-43.7,12.1-40-5.5c2.3-11-3.2-24.7-7.6-33.5c-0.5-1.1-1-2.1-1.5-3
		c-1.9-3.5-3.3-5.7-3.3-5.7s5.2-0.9,11.7-1.8c3-0.4,6.4-0.9,9.6-1.3l0,0c1.7-0.2,3.4-0.4,4.9-0.5c6.4-0.6,11.5-0.8,11.5,0.3
		s1,3.7,2.6,7c0.3,0.5,0.5,1.1,0.8,1.6c2.2,4.3,4.9,8.3,7.9,12.1c1.6,2,3.5,3.8,5.5,5.3c0.7,0.5,1.5,1,2.3,1.4
		c1.2,0.6,2.5,1,3.9,1.3c5.6,0.9,10.7-1.5,18,0.7C940.6,399.1,954.2,418.1,954.2,418.1z"/>
	<path class="st28" d="M690.6,541.1c0,0-42,23.1-44.6,32.3c-2.6,9.2,6.2,16.5,6.2,16.5s1.5,7.9,2,13.8s7.3,62.9,10.5,67.7
		s0.5,22.8,0.5,22.8h10.1l-0.7-27.5c0,0-11.4-80.9-1.8-89.2s17.4-17.6,20.2-16.9S690.6,541.1,690.6,541.1z"/>
	<path class="st29" d="M638.9,508.2c0,0-27.5,52.6-28.1,59.7s-23.9,37.4-23.9,37.4l29.2,36.9c0,0,3.8-9.3,10.5-12.7
		s5.2-10.7,5.2-10.7s6.9,0,11.8-8.3s11-16.5,11-20.1c0-3.6,36.3-41,36.3-41l-2.8-39.9l-7.4-12.7L638.9,508.2z"/>
	<path class="st6" d="M567.3,511.2l-0.2,0.2c-3.3,3-40.8,36.2-40.8,36.9c0,0.8-13.5,23.1,3.3,42.4s55.3,50.9,55.3,50.9
		s16.8,12.1,19,14.6c2.2,2.5,35.5,0,15.7-22.6c-19.8-22.6-38.5-47.9-38.5-47.9s33-8,35.2-13.5S572.8,498,572.8,498L567.3,511.2z"/>
	<path class="st29" d="M566.2,511.2l-0.2,0.2c-3.3,3-40.8,36.2-40.8,36.9c0,0.8-13.5,23.1,3.3,42.4c16.8,19.3,55.3,50.9,55.3,50.9
		s16.8,12.1,19,14.6c2.2,2.5,35.5,0,15.7-22.6c-19.8-22.6-38.5-47.9-38.5-47.9s33-8,35.2-13.5s45.7-72.9,45.7-72.9l-89.2-1.4
		L566.2,511.2z"/>
	<path class="st30" d="M661.4,363.2l-3.3,30c0,0-33.8,13.5-34.7,13.2s-22.6-19.8-19-32.7c1.8-6.5,2.6-15.5,3-22.8s0.3-13,0.3-13
		s49.3-17.6,44.8-5.5c-1.6,4.4-0.9,9.7,0.7,14.6C655.3,352.7,658,358.2,661.4,363.2z"/>
	<path class="st21" d="M360.4,300.8l-0.1,0.2c-3.8,8.2-6.9,16.8-9.3,25.6l-0.3,1.2c-1.6,5.9-2.2,11.9-2.1,18
		c0.7,13.1,7.3,16.1,7.3,16.1s-100.7-16.5-84.2-19.3c2.7-0.4,5.6-2.1,8.6-4.5c5.7-4.6,11.7-12.1,17.1-19.8c2-2.8,3.9-5.7,5.7-8.5
		c0.1-0.2,0.3-0.4,0.4-0.5c6.6-10.3,11.2-18.9,11.2-18.9S384.1,248.5,360.4,300.8z"/>
	<path class="st20" d="M859.3,622.5c0,0,25.3,96.8,27.3,105.1s2,23.3,2,23.3s9.5-0.6,10.8-2c1.3-1.5-5-29.5-5-29.5l1.8-78.5
		l-26.8-22.6L859.3,622.5z"/>
	<path class="st28" d="M874.2,591.7c0.6,0,25.3,0.5,25.3,0.5l1.8,17.4c0,0-0.7,33,1.1,38s18.2,94.7,18.2,94.7s5.1,31.5,4.8,39.3
		l-11.9,2.6c0,0,2.4-6.8-1.1-19.4s-10.3-36.3-10.3-36.3l-8.6-38.9c0,0-1.5-69-54.5-66s-56,41-56,41s-18,74.3-21.1,83.5
		c-3.1,9.2-4.8,31.7-4.8,31.7l-12.1-1.1l4-60l11.2-123.5l34.5-2.4L874.2,591.7z"/>
	<path class="st20" d="M339.8,638.5c0,0-25.3,96.9-27.3,105.1s-2,23.3-2,23.3s-9.5-0.6-10.8-2c-1.3-1.5,4.9-29.6,4.9-29.6l-1.8-78.5
		l26.8-22.6L339.8,638.5z"/>
	<path class="st28" d="M324.9,607.6c-0.5,0-25.3,0.5-25.3,0.5l-1.8,17.4c0,0,0.7,33-1.1,38s-18.1,94.6-18.1,94.6s-5.1,31.6-4.8,39.3
		l11.9,2.6c0,0-2.4-6.8,1.1-19.4s10.3-36.3,10.3-36.3l8.6-38.9c0,0,1.5-69,54.5-66s55.9,41.1,55.9,41.1s18,74.3,21.1,83.5
		s4.8,31.7,4.8,31.7l12.1-1.1l-4-60l-11.2-123.5l-34.5-2.4L324.9,607.6z"/>
	<path class="st6" d="M653.3,347c-0.3,0.4-0.6,0.7-0.9,1c-11.9,12.6-31.5,13.9-44.9,2.9c0.4-7.3,0.3-13,0.3-13s49.3-17.6,44.8-5.5
		C651,336.8,651.7,342.1,653.3,347z"/>
	<path class="st30" d="M661.4,324.2c0,18.2-14.8,33-33,33s-33-14.8-33-33s14.8-33,33-33l0,0c18.1-0.1,32.9,14.5,33,32.6
		C661.4,324,661.4,324.1,661.4,324.2z"/>
	<path class="st19" d="M561.3,630.2c0,0-31.2,21.7-44.8,27.5s-58.7,27.2-58.7,27.2s-45.5,5.9-52.8,15.4
		c-7.3,9.5-17.6,20.5-17.6,20.5l-8.1-44.8c0,0,89.5-46.2,90.3-49.5s26.4-13.2-48.4-12.8c-65.6,0.3-89.8,4.6-95.2-4.5
		c-0.8-1.4-1.2-3-1.3-4.7c-0.7-15,88.1-81.4,88.1-81.4s4.3,2.3,9.5,5.3c5.7,3.3,12.4,7.6,15.4,10.8c5.9,6.2,20.2,8.1,20.2,8.1
		l87.3,27.2c0,0,25.7,8,26.4,30.8C572.3,628,561.3,630.2,561.3,630.2z"/>
	<path class="st6" d="M620.7,394.4c0,0-12.9-28.7-17.3-28.7s-11.3,148.2-11.3,148.2l67.4,1.1l2.8-77.8l-13.8-69
		C648.5,368.2,636.1,395.4,620.7,394.4z"/>
	<path class="st6" d="M620.7,396.5c0,0-12.9-28.7-17.3-28.7s-11.3,148.3-11.3,148.3l76.5,1.2l-6.3-77.9l-13.8-69
		C648.5,370.4,636.1,397.6,620.7,396.5z"/>
	<path class="st26" d="M620.7,395.5c0,0-12.9-28.7-17.3-28.7s-11.3,148.2-11.3,148.2l76.5,1.1l-6.3-77.9l-13.8-69
		C648.5,369.3,636.1,396.5,620.7,395.5z"/>
	<path class="st6" d="M608.2,357.8c0,0-2.3-3.4-5.6-2.3s-5.8-1.9-9.1,1.1s-16.5,7.1-19,5.8s-11.3,4.7-13.2,8.3s-8.3,13.2-8.3,13.2
		s-5.5,6.6-4.7,10.2s-1.9,7.7-5.2,9.4s-9.9,18.2-9.9,18.2s-7.2,15.1-14.6,19s-1.9,20.6-1.9,20.6l44-1.4l9.9-22.6
		c0,0-3.8,66-8.5,72.1c-4.7,6.1-5.2,9.9-5.2,9.9s18.2,3.8,22,7.2c3.8,3.3,14-0.8,14-0.8l9.9-87.8c0,0,3.6-16.5,3.6-25
		S608.2,357.8,608.2,357.8z"/>
	<path class="st3" d="M607,357.8c0,0-2.3-3.4-5.6-2.3s-5.8-1.9-9.1,1.1s-16.5,7.1-19,5.8s-11.3,4.7-13.2,8.3s-8.3,13.2-8.3,13.2
		s-5.5,6.6-4.7,10.2s-1.9,7.7-5.2,9.4s-9.9,18.2-9.9,18.2s-7.2,15.1-14.6,19s-1.9,20.6-1.9,20.6l44-1.4l10-22.6c0,0-3.8,66-8.5,72.1
		c-4.7,6.1-5.2,9.9-5.2,9.9s18.2,3.8,22,7.2c3.8,3.3,14-0.8,14-0.8l9.9-87.8c0,0,3.6-16.5,3.6-25S607,357.8,607,357.8z"/>
	<path class="st6" d="M546.4,405.6c0,0,3.3,9.1,12.4,8.3S546.4,405.6,546.4,405.6z"/>
	<path class="st6" d="M555.2,391.8c0,0,6,1.1,8.3,6.3S555.2,391.8,555.2,391.8z"/>
	<path class="st6" d="M572.3,382.5c0,1.1,3.8,20.4,0,28.3s-3.3,17.3-3.3,17.3L572.3,382.5z"/>
	<path class="st6" d="M653.5,351.2c0,0,2.2-2.5,4.3-2.3s3.6,1.6,6.3,2.8s9.4,1.4,9.4,2.2s5.8,4.1,9.6,5s16,9.1,19,25
		s8.2,20.6,8.2,20.6l-29.2,14.3c0,0,22.6,95.8,25.3,102.7c2.8,6.9,3,47.6,3,47.6s-17.9,8-22.6,10.5c-4.7,2.5-2.8-23.7-12.4-38.8
		S654,503.6,654,503.6l-16.8-47.1c0,0-10.7-62.7-1.7-74.3S654.3,355.3,653.5,351.2z"/>
	<path class="st3" d="M654.6,351.2c0,0,2.2-2.5,4.3-2.3s3.6,1.6,6.3,2.8s9.4,1.4,9.4,2.2s5.8,4.1,9.6,5s16,9.1,19,25
		s8.3,20.6,8.3,20.6l-29.2,14.3c0,0,22.6,95.8,25.3,102.7c2.8,6.9,3,47.6,3,47.6s-17.9,8-22.6,10.5c-4.7,2.5-2.8-23.7-12.4-38.8
		s-20.6-37.1-20.6-37.1l-16.8-47.1c0,0-10.8-62.7-1.7-74.3S655.4,355.3,654.6,351.2z"/>
	<path class="st6" d="M714.3,471.6c-0.8,0.1-1.8,0.3-3,0.4c-8.8,0.8-26.1,1-26.1,1s-12.9-25.6-23.9-24.8c0,0,10.2-11.5,14.3-10.2
		c0.7,0.2,1.1-0.3,1.3-1.3c1.1-4.9-2.7-21.9-2.7-21.9l-5.2-22.8l30.3,7.4c2.8,0.5,11.3,5,11.3,5s0.3,11.8,2.5,14.6s4.7,16,4.4,19.3
		s3,18.7-0.3,22.8C713.7,465.3,721.1,470.5,714.3,471.6z"/>
	<path class="st3" d="M715.3,471.6c-0.8,0.1-1.8,0.3-3,0.4c-8.8,0.8-26.1,1-26.1,1s-12.9-25.6-23.9-24.8c0,0,10.2-11.5,14.3-10.2
		c0.7,0.2,1.1-0.3,1.3-1.3c1.1-4.9-2.7-21.9-2.7-21.9l-5.2-22.8l30.3,7.4c2.8,0.5,11.3,5,11.3,5s0.3,11.8,2.5,14.6s4.7,16,4.4,19.3
		s3,18.7-0.3,22.8C714.9,465.3,722.2,470.5,715.3,471.6z"/>
	<path class="st6" d="M684.3,411.6c0,0,25.3,2.8,26.4,9.1S684.3,411.6,684.3,411.6z"/>
	<path class="st26" d="M601.2,651.8c0,0-1.7,9.1,0.3,14.8c1.9,5.8,1.7,18.4,0.3,22.8s-6,10.5,6.6,13.2s21.2,0.3,21.7-1.9
		c0.5-2.2,3.3-11,1.1-16s-3-17.9,1.1-25.3c4.1-7.4,1.4-19-2.5-20.4s-10.5-4.4-10.5-4.4s7.2,12.9,0.5,15.7S601.2,651.8,601.2,651.8z"
		/>
	<path class="st6" d="M661.4,324.2c0,8.4-3.2,16.5-9,22.7c0,0-0.1-0.1-0.1-0.2c-1-2.1-1.9-4.3-1.8-6.6c0.1-2.8,1.7-5.3,2.2-8
		c0.7-3.5-0.5-7-1.6-10.3c-0.8-2.4-2.4-5.4-5-5.1c-0.5,0.1-1,0.2-1.5,0.2c-1.4-0.2-1.6-2-1.8-3.4c-0.8-6.6-5.9-11.9-12.4-13
		c-0.7-0.2-1.5-0.1-2.2,0.1c-1,0.4-1.5,1.5-2.3,2.1c-2.8,1.9-6.3-1.8-9.7-1.5c-2.9,0.3-4.6,3.2-5.8,5.8s-2.7,5.6-5.5,6.3
		c-0.4,0.1-0.9,0.1-1.3-0.1c-0.9-0.6-0.3-2,0.2-3c1.2-2.6,0.4-4.7-1-6.6c11.4-14.3,32.1-16.6,46.4-5.2
		C656.9,304.7,661.5,314.2,661.4,324.2L661.4,324.2z"/>
	<path class="st31" d="M603.6,309.1c-0.4,1-1,2.4-0.2,3c0.4,0.2,0.9,0.3,1.3,0.1c2.8-0.6,4.3-3.6,5.5-6.3s3-5.6,5.8-5.8
		c3.4-0.3,7,3.4,9.7,1.5c0.9-0.6,1.4-1.6,2.3-2.1c0.7-0.3,1.4-0.3,2.2-0.1c6.6,1.2,11.6,6.4,12.4,13.1c0.1,1.4,0.4,3.1,1.8,3.4
		c0.5,0,1-0.1,1.5-0.2c2.6-0.3,4.1,2.7,4.9,5.1c1.1,3.3,2.3,6.9,1.6,10.3c-0.5,2.7-2.1,5.2-2.2,8c-0.1,2.3,0.9,4.5,1.8,6.5
		s2.5,4.5,4.8,4.2c1.9-0.2,2.9-2.2,3.8-3.9s2.5-3.4,4.3-2.9c0.8,0.2,1.7,0.9,2.4,0.5c0.4-0.3,0.6-0.7,0.7-1.2
		c0.9-3.9-0.4-8.2,1.5-11.6c1.4-2.7,4.4-4.1,6.7-6c8.3-6.6,9.7-18.8,3-27.1c-0.1-0.2-0.3-0.3-0.4-0.5c-2.5-3-6.2-5.6-6.4-9.5
		c-0.2-3,1.8-5.7,1.9-8.7s-1.8-5.5-4-7.5c-6.2-5.7-14.8-7.9-23-6c-2.1,0.5-4.3,1.3-6.5,1c-2.5-0.3-4.6-2-6.9-3.1
		c-7.8-3.6-17.1-1.1-22,6c-2.6,4-3.6,9.4-7.5,12.2c-2.6,1.9-6.2,2.6-7.6,5.4c-0.8,1.7-0.6,3.7-0.3,5.6c0.4,3.1,1.9,5.9,4.2,8
		C603.2,302.9,605.2,305.5,603.6,309.1z"/>
	<polygon class="st32" points="571.7,726.7 571.5,780.3 561.5,779.5 525.5,486.5 536.1,486.2 543.7,485.9 	"/>
	<polygon class="st33" points="571.5,780.3 561.5,779.5 525.5,486.5 536.1,486.2 535.7,487.9 	"/>
	<polygon class="st32" points="619.9,487 583.5,777.6 576.8,779.1 571.5,780.3 571.7,726.7 603.6,488.1 604.3,488.1 	"/>
	<polygon class="st33" points="576.7,779 576.8,779.1 571.5,780.3 571.7,726.7 603.6,488.1 604.3,488.1 610.8,489.5 	"/>
	<polygon class="st33" points="703,665.9 702.1,684.9 699.9,735.8 665.8,486.8 673.6,485.9 676,485.6 	"/>
	<polygon class="st32" points="703,665.9 702.1,684.9 674.1,488.1 673.6,485.9 676,485.6 	"/>
	<polygon class="st33" points="712.3,576.5 713.2,697.8 708.5,697.6 698.8,697.2 702.7,484.8 710.1,485.8 713.7,486.2 	"/>
	<polygon class="st32" points="712.3,576.5 713.2,697.8 708.5,697.6 710.1,485.8 713.7,486.2 	"/>
	<polygon class="st33" points="397.3,484 397.8,475.8 445.1,476 587.4,473.8 697.2,479.9 767.1,481.3 767.9,489 588.2,492.3 	"/>
	<polygon class="st32" points="397.8,475.8 538.2,481.8 767.1,481.3 595.9,470.8 	"/>
	<path class="st6" d="M360.4,300.8l-0.1,0.2c-3.8,8.2-6.9,16.8-9.3,25.6l-0.3,1.2c-3.8,1.1-7.8,1.7-11.8,1.7
		c-10.6,0-15.4-11.1-22.8-17.6c-2.9-2.5-10.4,1.8-12.5-1.5c-0.1-0.2-0.3-0.4-0.4-0.5c0.1-0.2,0.3-0.4,0.4-0.5
		c6.6-10.3,11.2-18.9,11.2-18.9S384.1,248.5,360.4,300.8z"/>
	<path class="st21" d="M381.3,285.9c0,23.4-19,42.4-42.4,42.4c-23.4,0-42.4-19-42.4-42.4c0-23.4,19-42.4,42.4-42.4
		c16.1,0,30.8,9.1,38,23.5C379.8,272.9,381.3,279.4,381.3,285.9z"/>
	<path class="st6" d="M356,361.8c0,0-100.7-16.5-84.2-19.3c2.7-0.4,5.6-2.1,8.6-4.5c0.6,0.7,1,1.5,1.3,2.3l18.7-2.2
		c0,0,23.9-5.1,33.4,0.7c4.7,2.8,9.7,5.1,14.9,6.8C349.3,358.8,356,361.8,356,361.8z"/>
	<path class="st6" d="M422.2,528.4c-0.5,0.4-1.2,0.7-1.8,0.9c-4.8,1.5-10.6,23.5-10.6,23.5s-61.1,58.7-83.9,56.4
		c-0.8-1.4-1.2-3-1.3-4.7c-0.7-15,88.1-81.5,88.1-81.5S417,525.3,422.2,528.4z"/>
	<path class="st34" d="M583,466.6c0,5.6-9.7,11.1-21.8,11.1s-21.7-5.6-21.7-11.1s9.7-9,21.8-9S583,461,583,466.6z"/>
	<path class="st6" d="M583,466.6c0,5.6-9.7,11.1-21.8,11.1s-21.7-5.6-21.7-11.1s9.7-9,21.8-9S583,461,583,466.6z"/>
	<ellipse class="st34" cx="561.3" cy="466.6" rx="21.8" ry="10.1"/>
	<ellipse class="st35" cx="561.3" cy="467" rx="13" ry="5.2"/>
	<path class="st36" d="M591.4,454.9c-0.4-2.7-4-4.5-8.7-4.6c-1.2,0-2.5,0.1-3.7,0.3c-6.3,1-10.9,4.6-10.3,8c0.4,2.7,4,4.5,8.5,4.6
		c1.3,0,2.6,0,3.8-0.3C587.3,461.9,592,458.3,591.4,454.9z M580.8,461.1c-0.7,0.1-1.3,0.2-2,0.2c-3.6,0.1-6.5-1.2-6.9-3.3
		c-0.4-2.5,2.9-5,7.4-5.8c1.1-0.2,2.2-0.2,3.2-0.2c3,0.2,5.3,1.5,5.6,3.3C588.6,457.8,585.3,460.4,580.8,461.1z"/>
	<path class="st36" d="M571.7,466.1c0,0.5-0.2,1-0.5,1.4c-1.4,1.8-5.2,3.1-9.7,3.1c-4.2,0-7.8-1.1-9.4-2.7c-0.5-0.5-0.8-1.1-0.8-1.8
		c0-2.5,4.6-4.5,10.2-4.5S571.7,463.6,571.7,466.1z"/>
	<path class="st6" d="M571.7,466.1c0,0.5-0.2,1-0.5,1.4c-2.7,1.3-5.7,2-8.7,2h-2.4c-2.7,0-5.4-0.6-7.9-1.7c-0.5-0.5-0.8-1.1-0.8-1.8
		c0-2.5,4.6-4.5,10.2-4.5S571.7,463.6,571.7,466.1z"/>
	<path class="st6" d="M582.7,450.2c0,0.6-0.1,1.2-0.2,1.9c-1.1-0.1-2.2,0-3.2,0.2c-4.5,0.7-7.8,3.3-7.4,5.8c0.3,2.1,3.3,3.4,6.9,3.3
		c-0.5,0.6-1,1.3-1.5,1.8c-4.6-0.1-8.1-1.9-8.5-4.6c-0.5-3.4,4.1-7,10.3-8C580.3,450.3,581.5,450.2,582.7,450.2z"/>
	<path class="st36" d="M540.3,446.6v2.8c0,10.9,8.8,19.8,19.8,19.8l0,0h2.5c10.9,0,19.7-8.9,19.7-19.8v-2.8H540.3z"/>
	<ellipse class="st37" cx="561.2" cy="446" rx="21.1" ry="6"/>
	<ellipse class="st6" cx="561.3" cy="445.6" rx="20" ry="5.4"/>
	<ellipse class="st38" cx="561.3" cy="445.5" rx="19.5" ry="5.4"/>
	<path class="st39" d="M547.1,446.9c-0.3,0-0.5-0.2-0.5-0.6c0-0.3,0.2-0.5,0.6-0.5c0.3,0,0.5,0.2,0.5,0.6c0,0,0,0,0,0
		C547.6,446.6,547.4,446.9,547.1,446.9z M547.1,446c-0.2,0-0.3,0.2-0.3,0.4s0.2,0.4,0.3,0.4c0.2,0,0.4-0.2,0.4-0.4
		S547.3,446,547.1,446C547.1,446,547.1,446,547.1,446z"/>
	<path class="st39" d="M547.7,445.7c-0.3,0-0.6-0.2-0.6-0.5s0.2-0.6,0.5-0.6c0.3,0,0.6,0.2,0.6,0.5c0,0,0,0,0,0
		C548.3,445.5,548,445.7,547.7,445.7z M547.7,444.8c-0.2,0-0.4,0.1-0.4,0.3c0,0.2,0.1,0.4,0.3,0.4c0.2,0,0.4-0.1,0.4-0.3
		c0,0,0,0,0,0C548.1,445,547.9,444.8,547.7,444.8z"/>
	<path class="st39" d="M547.1,444c-0.3,0-0.5-0.2-0.5-0.5c0-0.3,0.2-0.6,0.5-0.6c0.3,0,0.5,0.2,0.5,0.5v0
		C547.6,443.7,547.4,444,547.1,444z M547.1,443.1c-0.2,0-0.4,0.2-0.4,0.3s0.2,0.4,0.3,0.4c0.2,0,0.4-0.2,0.4-0.3c0,0,0,0,0,0
		C547.4,443.2,547.3,443.1,547.1,443.1z"/>
	<path class="st39" d="M551.1,448.1c-0.3,0-0.6-0.2-0.6-0.5s0.2-0.6,0.5-0.6c0.3,0,0.6,0.2,0.6,0.5c0,0,0,0,0,0
		C551.7,447.8,551.4,448.1,551.1,448.1z M551.1,447.2c-0.2,0-0.3,0.1-0.3,0.3c0,0,0,0,0,0c0,0.2,0.1,0.4,0.3,0.4
		c0.2,0,0.4-0.1,0.4-0.3c0,0,0-0.1,0-0.1C551.5,447.3,551.3,447.2,551.1,447.2C551.1,447.2,551.1,447.2,551.1,447.2z"/>
	<path class="st39" d="M567.3,447c-0.3,0-0.5-0.2-0.5-0.6c0-0.3,0.2-0.5,0.5-0.5s0.5,0.2,0.5,0.5C567.8,446.7,567.6,447,567.3,447z
		 M567.3,446.1c-0.2,0-0.4,0.2-0.4,0.4s0.2,0.4,0.4,0.4l0,0c0.2,0,0.3-0.2,0.3-0.4S567.5,446.1,567.3,446.1z"/>
	<path class="st39" d="M570.9,448.4c-0.3,0-0.5-0.2-0.5-0.5c0-0.3,0.2-0.6,0.5-0.6c0.3,0,0.5,0.2,0.5,0.5v0
		C571.5,448.2,571.2,448.4,570.9,448.4z M570.9,447.5c-0.2,0-0.3,0.2-0.3,0.4s0.2,0.4,0.4,0.4c0.2,0,0.3-0.2,0.3-0.4
		C571.3,447.7,571.1,447.5,570.9,447.5C570.9,447.5,570.9,447.5,570.9,447.5L570.9,447.5z"/>
	<path class="st39" d="M571,446.1c-0.3,0-0.5-0.2-0.5-0.5c0-0.3,0.2-0.6,0.5-0.6c0.3,0,0.5,0.2,0.5,0.5v0
		C571.6,445.8,571.3,446.1,571,446.1z M571,445.2c-0.2,0-0.4,0.2-0.4,0.3s0.2,0.4,0.3,0.4c0.2,0,0.4-0.2,0.4-0.3c0,0,0,0,0,0
		C571.4,445.3,571.2,445.2,571,445.2z"/>
	<path class="st39" d="M572.7,442.4c-0.3,0-0.5-0.2-0.5-0.5c0-0.3,0.2-0.6,0.5-0.6c0.3,0,0.5,0.2,0.5,0.5v0
		C573.3,442.1,573,442.4,572.7,442.4C572.7,442.4,572.7,442.4,572.7,442.4z M572.7,441.5c-0.2,0-0.3,0.2-0.3,0.4
		c0,0.2,0.1,0.4,0.3,0.4c0.2,0,0.4-0.1,0.4-0.3c0,0,0-0.1,0-0.1C573.1,441.6,572.9,441.5,572.7,441.5
		C572.7,441.5,572.7,441.5,572.7,441.5L572.7,441.5z"/>
	<path class="st39" d="M571.9,447.5c-0.3,0-0.5-0.2-0.5-0.6c0-0.3,0.2-0.5,0.6-0.5c0.3,0,0.5,0.2,0.5,0.6c0,0,0,0,0,0
		C572.4,447.2,572.2,447.5,571.9,447.5z M571.9,446.6c-0.2,0-0.4,0.2-0.4,0.3s0.2,0.4,0.3,0.4c0.2,0,0.4-0.2,0.4-0.3c0,0,0,0,0,0
		C572.3,446.7,572.1,446.6,571.9,446.6C571.9,446.6,571.9,446.5,571.9,446.6L571.9,446.6z"/>
	<path class="st39" d="M573.9,446.4c-0.3,0-0.6-0.2-0.6-0.5s0.2-0.6,0.5-0.6c0.3,0,0.6,0.2,0.6,0.5c0,0,0,0,0,0
		C574.4,446.1,574.2,446.3,573.9,446.4z M573.9,445.5c-0.2,0-0.4,0.1-0.4,0.3c0,0.2,0.1,0.4,0.3,0.4c0.2,0,0.4-0.1,0.4-0.3
		c0,0,0,0,0,0C574.2,445.6,574.1,445.5,573.9,445.5L573.9,445.5z"/>
	<path class="st39" d="M573.7,447.6c-0.3,0-0.6-0.2-0.6-0.5s0.2-0.6,0.5-0.6c0.3,0,0.6,0.2,0.6,0.5c0,0,0,0,0,0
		C574.2,447.4,574,447.6,573.7,447.6C573.7,447.6,573.7,447.6,573.7,447.6z M573.7,446.8c-0.2,0-0.4,0.1-0.4,0.3
		c0,0.2,0.1,0.4,0.3,0.4c0,0,0.1,0,0.1,0c0.2,0,0.4-0.1,0.4-0.3c0-0.2-0.1-0.4-0.3-0.4C573.8,446.7,573.7,446.7,573.7,446.8z"/>
	<path class="st39" d="M573.1,444.3c-0.3,0-0.5-0.2-0.5-0.5c0-0.3,0.2-0.6,0.5-0.6c0.3,0,0.5,0.2,0.5,0.5v0
		C573.6,444.1,573.4,444.3,573.1,444.3z M573.1,443.4c-0.2,0-0.4,0.2-0.4,0.3s0.2,0.4,0.3,0.4c0.2,0,0.4-0.2,0.4-0.3c0,0,0,0,0,0
		C573.4,443.6,573.3,443.5,573.1,443.4L573.1,443.4z"/>
	<path class="st39" d="M576.1,443.6c-0.3,0-0.5-0.2-0.5-0.5c0-0.3,0.2-0.6,0.5-0.6c0.3,0,0.5,0.2,0.5,0.5v0
		C576.6,443.4,576.4,443.6,576.1,443.6z M576.1,442.7c-0.2,0-0.4,0.2-0.4,0.3s0.2,0.4,0.3,0.4c0.2,0,0.4-0.2,0.4-0.3c0,0,0,0,0,0
		C576.4,442.9,576.3,442.7,576.1,442.7L576.1,442.7L576.1,442.7z"/>
	<path class="st39" d="M567.3,442.3c-0.3,0-0.5-0.2-0.5-0.5c0-0.3,0.2-0.6,0.5-0.6s0.5,0.2,0.5,0.6
		C567.8,442.1,567.6,442.3,567.3,442.3z M567.3,441.4c-0.2,0-0.4,0.2-0.4,0.4s0.2,0.4,0.4,0.4l0,0c0.2,0,0.3-0.2,0.3-0.4
		S567.5,441.4,567.3,441.4z"/>
	<path class="st39" d="M565.2,441.5c-0.3,0-0.5-0.2-0.5-0.5c0-0.3,0.2-0.6,0.5-0.6c0.3,0,0.5,0.2,0.5,0.5v0
		C565.8,441.2,565.5,441.5,565.2,441.5z M565.2,440.6c-0.2,0-0.3,0.2-0.3,0.4c0,0.2,0.2,0.3,0.4,0.3c0.2,0,0.3-0.2,0.3-0.4
		c0,0,0,0,0,0C565.6,440.7,565.5,440.6,565.2,440.6C565.2,440.5,565.2,440.5,565.2,440.6L565.2,440.6z"/>
	<path class="st39" d="M560.6,441.8c-0.3,0-0.6-0.2-0.6-0.5s0.2-0.6,0.5-0.6c0.3,0,0.6,0.2,0.6,0.5c0,0,0,0,0,0
		C561.2,441.5,560.9,441.8,560.6,441.8z M560.6,440.9c-0.2,0-0.4,0.1-0.4,0.3c0,0.2,0.1,0.4,0.3,0.4c0.2,0,0.4-0.1,0.4-0.3
		c0,0,0,0,0,0C561,441,560.8,440.9,560.6,440.9z"/>
	<path class="st39" d="M564.6,447.2c-0.3,0-0.6-0.2-0.6-0.5s0.2-0.6,0.5-0.6c0.3,0,0.6,0.2,0.6,0.5c0,0,0,0,0,0
		C565.1,446.9,564.9,447.2,564.6,447.2z M564.6,446.3c-0.2,0-0.3,0.2-0.3,0.4s0.2,0.4,0.3,0.4s0.3-0.2,0.3-0.4
		S564.8,446.3,564.6,446.3z"/>
	<path class="st39" d="M549.7,447.7c-0.3,0-0.5-0.2-0.5-0.5c0-0.3,0.2-0.6,0.5-0.6c0.3,0,0.5,0.2,0.5,0.5v0
		C550.2,447.5,550,447.7,549.7,447.7z M549.7,446.8c-0.2,0-0.4,0.2-0.4,0.3s0.2,0.4,0.3,0.4c0.2,0,0.4-0.2,0.4-0.3c0,0,0,0,0,0
		C550,447,549.9,446.8,549.7,446.8z"/>
	<path class="st39" d="M552,446.5c-0.3,0-0.5-0.2-0.5-0.5c0-0.3,0.2-0.6,0.5-0.6c0.3,0,0.5,0.2,0.5,0.5v0
		C552.5,446.2,552.3,446.5,552,446.5z M552,445.6c-0.2,0-0.4,0.2-0.4,0.3s0.2,0.4,0.3,0.4c0.2,0,0.4-0.2,0.4-0.3c0,0,0,0,0,0
		C552.4,445.7,552.2,445.6,552,445.6C552,445.5,552,445.5,552,445.6L552,445.6z"/>
	<path class="st39" d="M554,447.1c-0.3,0-0.5-0.2-0.5-0.6c0-0.3,0.2-0.5,0.6-0.5c0.3,0,0.5,0.2,0.5,0.6c0,0,0,0,0,0
		C554.5,446.8,554.3,447.1,554,447.1z M554,446.2c-0.2,0-0.3,0.2-0.3,0.4s0.2,0.4,0.4,0.4c0.2,0,0.3-0.2,0.3-0.4
		S554.2,446.2,554,446.2L554,446.2L554,446.2z"/>
	<path class="st39" d="M554.3,445.7c-0.3,0-0.5-0.2-0.5-0.6c0-0.3,0.2-0.5,0.6-0.5c0.3,0,0.5,0.2,0.5,0.6c0,0,0,0,0,0
		C554.9,445.5,554.6,445.7,554.3,445.7z M554.3,444.8c-0.2,0-0.3,0.2-0.3,0.4s0.2,0.4,0.3,0.4c0.2,0,0.4-0.2,0.4-0.4
		S554.5,444.8,554.3,444.8C554.3,444.8,554.3,444.8,554.3,444.8z"/>
	<path class="st39" d="M554.3,444.5c-0.3,0-0.5-0.2-0.5-0.6c0-0.3,0.2-0.5,0.6-0.5c0.3,0,0.5,0.2,0.5,0.6c0,0,0,0,0,0
		C554.9,444.2,554.6,444.5,554.3,444.5z M554.3,443.6c-0.2,0-0.4,0.2-0.4,0.3s0.2,0.4,0.3,0.4c0.2,0,0.4-0.2,0.4-0.3c0,0,0,0,0,0
		C554.7,443.7,554.5,443.6,554.3,443.6L554.3,443.6z"/>
	<path class="st39" d="M554.9,448.9c-0.3,0-0.5-0.2-0.5-0.5c0-0.3,0.2-0.6,0.5-0.6c0.3,0,0.5,0.2,0.5,0.5v0
		C555.4,448.6,555.2,448.9,554.9,448.9z M554.9,448c-0.2,0-0.4,0.2-0.4,0.3s0.2,0.4,0.3,0.4c0.2,0,0.4-0.2,0.4-0.3c0,0,0,0,0,0
		C555.2,448.1,555.1,448,554.9,448z"/>
	<path class="st39" d="M560.3,449c-0.3,0-0.6-0.2-0.6-0.5s0.2-0.6,0.5-0.6c0.3,0,0.6,0.2,0.6,0.5c0,0,0,0,0,0
		C560.9,448.7,560.6,449,560.3,449z M560.3,448.1c-0.2,0-0.4,0.1-0.4,0.3c0,0.2,0.1,0.4,0.3,0.4c0.2,0,0.4-0.1,0.4-0.3c0,0,0,0,0,0
		C560.7,448.2,560.5,448.1,560.3,448.1L560.3,448.1z"/>
	<path class="st39" d="M559.7,447.6c-0.3,0-0.5-0.2-0.5-0.5c0-0.3,0.2-0.6,0.5-0.6c0.3,0,0.5,0.2,0.5,0.5v0
		C560.2,447.4,560,447.6,559.7,447.6z M559.7,446.8c-0.2,0-0.3,0.2-0.3,0.4c0,0.2,0.2,0.3,0.4,0.3c0.2,0,0.3-0.2,0.3-0.4
		c0,0,0,0,0,0C560,446.9,559.8,446.7,559.7,446.8z"/>
	<path class="st39" d="M556.9,447c-0.3,0-0.6-0.2-0.6-0.5s0.2-0.6,0.5-0.6c0.3,0,0.6,0.2,0.6,0.5c0,0,0,0,0,0
		C557.5,446.7,557.2,447,556.9,447z M556.9,446.1c-0.2,0-0.3,0.2-0.3,0.4s0.2,0.4,0.3,0.4s0.3-0.2,0.3-0.4S557.1,446.1,556.9,446.1z
		"/>
	<path class="st39" d="M562.8,444.8c-0.3,0-0.5-0.2-0.5-0.5c0-0.3,0.2-0.6,0.5-0.6c0.3,0,0.5,0.2,0.5,0.5v0
		C563.3,444.6,563.1,444.8,562.8,444.8z M562.8,443.9c-0.2,0-0.4,0.2-0.4,0.3s0.2,0.4,0.3,0.4c0.2,0,0.4-0.2,0.4-0.3c0,0,0,0,0,0
		C563.1,444.1,563,443.9,562.8,443.9z"/>
	<path class="st39" d="M560.3,446.4c-0.3,0-0.5-0.2-0.5-0.5c0-0.3,0.2-0.6,0.5-0.6c0.3,0,0.5,0.2,0.5,0.5v0
		C560.8,446.1,560.6,446.4,560.3,446.4z M560.3,445.5c-0.2,0-0.4,0.2-0.4,0.3s0.2,0.4,0.3,0.4c0.2,0,0.4-0.2,0.4-0.3c0,0,0,0,0,0
		C560.6,445.6,560.5,445.5,560.3,445.5L560.3,445.5z"/>
	<path class="st39" d="M563.2,443.3c-0.3,0-0.5-0.2-0.5-0.5c0-0.3,0.2-0.6,0.5-0.6c0.3,0,0.5,0.2,0.5,0.5v0
		C563.7,443,563.5,443.3,563.2,443.3z M563.2,442.4c-0.2,0-0.4,0.2-0.4,0.3s0.2,0.4,0.3,0.4c0.2,0,0.4-0.2,0.4-0.3c0,0,0,0,0,0
		C563.5,442.5,563.4,442.4,563.2,442.4z"/>
	<path class="st39" d="M563,441.8c-0.3,0-0.5-0.2-0.5-0.5c0-0.3,0.2-0.6,0.5-0.6c0.3,0,0.5,0.2,0.5,0.5v0
		C563.5,441.5,563.3,441.8,563,441.8z M563,440.9c-0.2,0-0.4,0.2-0.4,0.3s0.2,0.4,0.3,0.4c0.2,0,0.4-0.2,0.4-0.3c0,0,0,0,0,0
		C563.3,441,563.2,440.9,563,440.9z"/>
	<path class="st39" d="M561.8,443.3c-0.3,0-0.5-0.2-0.5-0.5c0-0.3,0.2-0.6,0.5-0.6c0.3,0,0.5,0.2,0.5,0.5v0
		C562.4,443,562.1,443.3,561.8,443.3z M561.8,442.4c-0.2,0-0.4,0.2-0.4,0.3s0.2,0.4,0.3,0.4c0.2,0,0.4-0.2,0.4-0.3c0,0,0,0,0,0
		C562.2,442.5,562,442.4,561.8,442.4z"/>
	<path class="st39" d="M559,445.9c-0.3,0-0.5-0.2-0.5-0.6c0-0.3,0.2-0.5,0.6-0.5c0.3,0,0.5,0.2,0.5,0.6c0,0,0,0,0,0
		C559.6,445.6,559.3,445.9,559,445.9C559,445.9,559,445.9,559,445.9z M559,445c-0.2,0-0.4,0.1-0.4,0.3c0,0.2,0.1,0.4,0.3,0.4
		c0,0,0.1,0,0.1,0c0.2,0,0.4-0.1,0.4-0.3c0-0.2-0.1-0.4-0.3-0.4C559.1,445,559,445,559,445z"/>
	<path class="st39" d="M556.9,445.5c-0.3,0-0.6-0.2-0.6-0.5s0.2-0.6,0.5-0.6c0.3,0,0.6,0.2,0.6,0.5c0,0,0,0,0,0
		C557.5,445.2,557.2,445.5,556.9,445.5C556.9,445.5,556.9,445.5,556.9,445.5z M556.9,444.6c-0.2,0-0.4,0.1-0.4,0.3
		c0,0.2,0.1,0.4,0.3,0.4c0,0,0.1,0,0.1,0c0.2,0,0.4-0.1,0.4-0.3c0-0.2-0.1-0.4-0.3-0.4C557,444.6,556.9,444.6,556.9,444.6z"/>
	<path class="st39" d="M559.7,442.9c-0.3,0-0.5-0.2-0.5-0.5c0-0.3,0.2-0.6,0.5-0.6c0.3,0,0.5,0.2,0.5,0.5v0
		C560.2,442.7,560,442.9,559.7,442.9z M559.7,442c-0.2,0-0.4,0.2-0.4,0.3s0.2,0.4,0.3,0.4c0.2,0,0.4-0.2,0.4-0.3c0,0,0,0,0,0
		C560,442.2,559.9,442,559.7,442z"/>
	<path class="st39" d="M555.6,443.5c-0.2,0-0.4-0.2-0.4-0.3s0.2-0.4,0.3-0.4c0.2,0,0.4,0.2,0.4,0.3c0,0,0,0,0,0
		C556,443.3,555.8,443.5,555.6,443.5z M555.6,442.9c-0.1,0-0.2,0.1-0.2,0.2s0.1,0.2,0.2,0.2s0.2-0.1,0.2-0.2
		S555.7,442.9,555.6,442.9z"/>
	<path class="st39" d="M556.7,444.1c-0.2,0-0.4-0.2-0.4-0.3s0.2-0.4,0.3-0.4c0.2,0,0.4,0.2,0.4,0.3c0,0,0,0,0,0
		C557,444,556.9,444.1,556.7,444.1z M556.7,443.6c-0.1,0-0.2,0.1-0.2,0.2s0.1,0.2,0.2,0.2s0.2-0.1,0.2-0.2S556.8,443.6,556.7,443.6
		L556.7,443.6z"/>
	<path class="st39" d="M561.9,441.3c-0.2,0-0.4-0.2-0.4-0.3s0.2-0.4,0.3-0.4c0.2,0,0.4,0.2,0.4,0.3c0,0,0,0,0,0
		C562.2,441.2,562.1,441.3,561.9,441.3z M561.9,440.8c-0.1,0-0.2,0.1-0.2,0.2s0.1,0.2,0.2,0.2c0.1,0,0.2-0.1,0.2-0.2v0
		C562.1,440.9,562,440.8,561.9,440.8z"/>
	<path class="st39" d="M562.6,447.2c-0.2,0-0.4-0.2-0.4-0.3s0.2-0.4,0.3-0.4c0.2,0,0.4,0.2,0.4,0.3c0,0,0,0,0,0
		C563,447,562.8,447.2,562.6,447.2z M562.6,446.6c-0.1,0-0.2,0.1-0.2,0.2s0.1,0.2,0.2,0.2s0.2-0.1,0.2-0.2S562.8,446.6,562.6,446.6z
		"/>
	<path class="st39" d="M563.6,447.6c-0.2,0-0.4-0.2-0.4-0.3s0.2-0.4,0.3-0.4c0.2,0,0.4,0.2,0.4,0.3c0,0,0,0,0,0
		C563.9,447.4,563.8,447.6,563.6,447.6z M563.6,447c-0.1,0-0.2,0.1-0.2,0.2s0.1,0.2,0.2,0.2c0.1,0,0.2-0.1,0.2-0.2l0,0
		C563.8,447.1,563.7,447,563.6,447C563.6,447,563.6,447,563.6,447z"/>
	<path class="st39" d="M562.4,446.2c-0.2,0-0.3-0.2-0.3-0.4s0.2-0.4,0.3-0.4c0.2,0,0.4,0.2,0.4,0.4l0,0
		C562.8,446.1,562.6,446.2,562.4,446.2C562.4,446.2,562.4,446.2,562.4,446.2z M562.4,445.6c-0.1,0-0.2,0.1-0.2,0.2s0.1,0.2,0.2,0.2
		c0.1,0,0.2-0.1,0.2-0.2S562.6,445.6,562.4,445.6C562.4,445.6,562.4,445.6,562.4,445.6z"/>
	<path class="st39" d="M569.3,443c-0.2,0-0.3-0.2-0.3-0.4c0-0.2,0.2-0.3,0.4-0.3c0.2,0,0.3,0.2,0.3,0.4c0,0,0,0,0,0
		C569.6,442.8,569.5,443,569.3,443z M569.3,442.4c-0.1,0-0.2,0.1-0.2,0.2c0,0,0,0,0,0c0,0.1,0.1,0.2,0.2,0.2c0.1,0,0.2-0.1,0.2-0.2
		l0,0C569.5,442.5,569.4,442.4,569.3,442.4C569.3,442.4,569.3,442.4,569.3,442.4z"/>
	<path class="st39" d="M569.7,443.9c-0.2,0-0.4-0.1-0.4-0.3c0-0.2,0.1-0.4,0.3-0.4c0.2,0,0.4,0.1,0.4,0.3c0,0,0,0,0,0
		C570,443.7,569.9,443.9,569.7,443.9z M569.7,443.3c-0.1,0-0.2,0.1-0.2,0.2s0.1,0.2,0.2,0.2s0.2-0.1,0.2-0.2
		S569.8,443.3,569.7,443.3L569.7,443.3z"/>
	<path class="st39" d="M569.3,444.7c-0.2,0-0.3-0.2-0.3-0.4c0-0.2,0.1-0.3,0.3-0.4c0,0,0,0,0,0c0.2,0,0.3,0.2,0.3,0.4
		S569.5,444.7,569.3,444.7z M569.3,444.1c-0.1,0-0.2,0.1-0.2,0.2c0,0,0,0,0,0c0,0.1,0.1,0.2,0.2,0.2c0.1,0,0.2-0.1,0.2-0.2
		S569.5,444.1,569.3,444.1z"/>
	<path class="st39" d="M568.4,447.2c-0.2,0-0.3-0.2-0.3-0.4c0-0.2,0.2-0.3,0.4-0.3c0.2,0,0.3,0.2,0.3,0.4c0,0,0,0,0,0
		C568.8,447.1,568.6,447.2,568.4,447.2z M568.4,446.7c-0.1,0-0.2,0.1-0.2,0.2c0,0,0,0,0,0c0,0.1,0.1,0.2,0.2,0.2
		c0.1,0,0.2-0.1,0.2-0.2l0,0C568.7,446.8,568.6,446.7,568.4,446.7C568.4,446.7,568.4,446.7,568.4,446.7L568.4,446.7z"/>
	<path class="st39" d="M574,444.9c-0.2,0-0.3-0.2-0.3-0.4s0.2-0.4,0.4-0.4c0.2,0,0.3,0.2,0.3,0.4S574.2,444.9,574,444.9
		C574,444.9,574,444.9,574,444.9z M574,444.3c-0.1,0-0.2,0.1-0.2,0.2s0.1,0.2,0.2,0.2c0.1,0,0.2-0.1,0.2-0.2l0,0
		C574.2,444.4,574.1,444.3,574,444.3C574,444.3,574,444.3,574,444.3z"/>
	<path class="st39" d="M565.8,447c-0.2,0-0.4-0.2-0.4-0.3s0.2-0.4,0.3-0.4c0.2,0,0.4,0.2,0.4,0.3c0,0,0,0,0,0
		C566.1,446.8,566,447,565.8,447z M565.8,446.4c-0.1,0-0.2,0.1-0.2,0.2s0.1,0.2,0.2,0.2c0.1,0,0.2-0.1,0.2-0.2v0
		C566,446.5,565.9,446.4,565.8,446.4z"/>
	<path class="st39" d="M568.7,445.5c-0.2,0-0.4-0.2-0.4-0.3s0.2-0.4,0.3-0.4c0.2,0,0.4,0.2,0.4,0.3c0,0,0,0,0,0
		C569,445.4,568.9,445.5,568.7,445.5z M568.7,445c-0.1,0-0.2,0.1-0.2,0.2s0.1,0.2,0.2,0.2s0.2-0.1,0.2-0.2S568.8,445,568.7,445z"/>
	<path class="st39" d="M567.5,448c-0.2,0-0.3-0.2-0.3-0.4s0.2-0.4,0.4-0.4c0.2,0,0.3,0.2,0.3,0.4l0,0
		C567.9,447.8,567.7,448,567.5,448C567.5,448,567.5,448,567.5,448z M567.5,447.4c-0.1,0-0.2,0.1-0.2,0.2s0.1,0.2,0.2,0.2
		c0.1,0,0.2-0.1,0.2-0.2S567.6,447.4,567.5,447.4C567.5,447.4,567.5,447.4,567.5,447.4z"/>
	<path class="st39" d="M575.1,445.5c-0.2,0-0.3-0.2-0.3-0.4c0-0.2,0.1-0.4,0.3-0.4c0.2,0,0.4,0.1,0.4,0.3c0,0,0,0.1,0,0.1
		C575.5,445.4,575.3,445.5,575.1,445.5z M575.1,445c-0.1,0-0.2,0.1-0.3,0.2c0,0.1,0.1,0.2,0.2,0.3c0,0,0.1,0,0.1,0
		c0.1,0,0.2-0.1,0.2-0.2C575.3,445.1,575.3,445,575.1,445C575.1,445,575.1,445,575.1,445z"/>
	<path class="st39" d="M570.7,441.8c-0.2,0-0.4-0.1-0.4-0.3c0-0.2,0.1-0.4,0.3-0.4c0.2,0,0.4,0.1,0.4,0.3c0,0,0,0,0,0
		C571,441.6,570.9,441.8,570.7,441.8z M570.7,441.2c-0.1,0-0.2,0.1-0.2,0.2s0.1,0.2,0.2,0.2s0.2-0.1,0.2-0.2
		S570.8,441.2,570.7,441.2z"/>
	<path class="st39" d="M558.9,441.3c-0.2,0-0.4-0.2-0.4-0.3s0.2-0.4,0.3-0.4c0.2,0,0.4,0.2,0.4,0.3c0,0,0,0,0,0
		C559.2,441.2,559.1,441.3,558.9,441.3z M558.9,440.8c-0.1,0-0.2,0.1-0.2,0.2s0.1,0.2,0.2,0.2c0.1,0,0.2-0.1,0.2-0.2v0
		C559.1,440.9,559,440.8,558.9,440.8z"/>
	<path class="st39" d="M548.9,444.3c-0.2,0-0.3-0.2-0.3-0.4s0.2-0.4,0.3-0.4c0.2,0,0.4,0.2,0.4,0.4l0,0
		C549.3,444.1,549.1,444.3,548.9,444.3C548.9,444.3,548.9,444.3,548.9,444.3z M548.9,443.7c-0.1,0-0.2,0.1-0.2,0.2s0.1,0.2,0.2,0.2
		c0.1,0,0.2-0.1,0.2-0.2l0,0C549.2,443.8,549.1,443.7,548.9,443.7C548.9,443.7,548.9,443.7,548.9,443.7z"/>
	<path class="st39" d="M557.6,441.8c-0.2,0-0.4-0.2-0.4-0.3s0.2-0.4,0.3-0.4c0.2,0,0.4,0.2,0.4,0.3c0,0,0,0,0,0
		C558,441.6,557.8,441.8,557.6,441.8z M557.6,441.2c-0.1,0-0.2,0.1-0.2,0.2s0.1,0.2,0.2,0.2s0.2-0.1,0.2-0.2
		S557.7,441.2,557.6,441.2z"/>
	<path class="st39" d="M549.8,445.9c-0.2,0-0.4-0.2-0.4-0.3s0.2-0.4,0.3-0.4c0.2,0,0.4,0.2,0.4,0.3c0,0,0,0,0,0
		C550.2,445.7,550,445.9,549.8,445.9z M549.8,445.3c-0.1,0-0.2,0.1-0.2,0.2s0.1,0.2,0.2,0.2l0,0c0.1,0,0.2-0.1,0.2-0.2
		S550,445.3,549.8,445.3z"/>
	<path class="st39" d="M551.1,443.8c-0.2,0-0.4-0.1-0.4-0.3c0-0.2,0.1-0.4,0.3-0.4c0.2,0,0.4,0.1,0.4,0.3c0,0,0,0,0,0
		C551.5,443.6,551.3,443.8,551.1,443.8z M551.1,443.2c-0.1,0-0.2,0.1-0.2,0.2s0.1,0.2,0.2,0.2s0.2-0.1,0.2-0.2
		S551.2,443.2,551.1,443.2z"/>
	<path class="st39" d="M544.8,445.2c-0.2,0-0.4-0.2-0.4-0.3s0.2-0.4,0.3-0.4c0.2,0,0.4,0.2,0.4,0.3c0,0,0,0,0,0
		C545.1,445.1,545,445.2,544.8,445.2z M544.8,444.7c-0.1,0-0.2,0.1-0.2,0.2s0.1,0.2,0.2,0.2c0.1,0,0.2-0.1,0.2-0.2l0,0
		C545,444.8,544.9,444.7,544.8,444.7C544.8,444.7,544.8,444.7,544.8,444.7z"/>
	<path class="st39" d="M553.6,448.3c-0.2,0-0.4-0.2-0.4-0.4s0.2-0.4,0.4-0.4s0.4,0.2,0.4,0.4S553.8,448.3,553.6,448.3z M553.6,447.7
		c-0.1,0-0.2,0.1-0.2,0.2s0.1,0.2,0.2,0.2s0.2-0.1,0.2-0.2S553.7,447.7,553.6,447.7z"/>
	<path class="st39" d="M556.1,448.5c-0.2,0-0.4-0.2-0.4-0.4s0.2-0.4,0.4-0.4s0.4,0.2,0.4,0.4S556.3,448.5,556.1,448.5z M556.1,447.9
		c-0.1,0-0.2,0.1-0.2,0.2s0.1,0.2,0.2,0.2s0.2-0.1,0.2-0.2S556.3,447.9,556.1,447.9z"/>
	<circle class="st39" cx="545.9" cy="446.3" r="0.3"/>
	<circle class="st39" cx="547.9" cy="442.4" r="0.3"/>
	<circle class="st39" cx="550.7" cy="444.1" r="0.3"/>
	<circle class="st39" cx="548.9" cy="441.6" r="0.3"/>
	<circle class="st39" cx="559" cy="443.5" r="0.3"/>
	<circle class="st39" cx="550.2" cy="443.1" r="0.3"/>
	<circle class="st39" cx="549.2" cy="443" r="0.3"/>
	<circle class="st39" cx="551.2" cy="445" r="0.3"/>
	<circle class="st39" cx="566.4" cy="443.4" r="0.3"/>
	<circle class="st39" cx="570.5" cy="444.2" r="0.3"/>
	<circle class="st39" cx="569.3" cy="447.7" r="0.3"/>
	<circle class="st39" cx="570.9" cy="446.5" r="0.3"/>
	<circle class="st39" cx="566.3" cy="448" r="0.3"/>
	<circle class="st39" cx="565.3" cy="443.4" r="0.3"/>
	<circle class="st39" cx="561.9" cy="447.4" r="0.3"/>
	<circle class="st39" cx="568" cy="444.3" r="0.3"/>
	<circle class="st39" cx="565.1" cy="448.3" r="0.3"/>
	<circle class="st39" cx="552.8" cy="447.7" r="0.3"/>
	<circle class="st39" cx="569.7" cy="445.3" r="0.3"/>
	<circle class="st39" cx="576.1" cy="444.8" r="0.3"/>
	<circle class="st39" cx="574.2" cy="443.2" r="0.2"/>
	<circle class="st39" cx="567.8" cy="442.7" r="0.2"/>
	<circle class="st39" cx="555.6" cy="445.3" r="0.2"/>
	<circle class="st39" cx="572.4" cy="444.7" r="0.2"/>
	<circle class="st39" cx="566.5" cy="442.4" r="0.2"/>
	<circle class="st39" cx="571.6" cy="443.4" r="0.2"/>
	<circle class="st39" cx="568.5" cy="441.3" r="0.2"/>
	<circle class="st39" cx="566.3" cy="441" r="0.2"/>
	<circle class="st39" cx="556.3" cy="442" r="0.2"/>
	<circle class="st39" cx="558.5" cy="442.2" r="0.2"/>
	<circle class="st39" cx="553" cy="444.2" r="0.2"/>
	<circle class="st39" cx="564.2" cy="444.3" r="0.2"/>
	<circle class="st39" cx="565.5" cy="444.6" r="0.2"/>
	<circle class="st39" cx="558.1" cy="445" r="0.2"/>
	<circle class="st39" cx="561.3" cy="445.3" r="0.2"/>
	<circle class="st39" cx="557.8" cy="442.9" r="0.2"/>
	<circle class="st39" cx="565.2" cy="445.3" r="0.2"/>
	<circle class="st39" cx="564.1" cy="445.5" r="0.2"/>
	<circle class="st39" cx="547.1" cy="442.4" r="0.2"/>
	<circle class="st39" cx="553.8" cy="443.2" r="0.2"/>
	<circle class="st39" cx="551.5" cy="441.6" r="0.2"/>
	<circle class="st39" cx="550.6" cy="445.3" r="0.2"/>
	<circle class="st39" cx="551.7" cy="442.9" r="0.2"/>
	<circle class="st39" cx="545.3" cy="443.7" r="0.2"/>
	<circle class="st39" cx="573" cy="442.9" r="0.2"/>
	<circle class="st39" cx="575.3" cy="442.5" r="0.3"/>
	<circle class="st39" cx="577.2" cy="445.5" r="0.3"/>
	<circle class="st39" cx="575.8" cy="444" r="0.3"/>
	<circle class="st39" cx="576.4" cy="445.9" r="0.3"/>
	<circle class="st39" cx="577.2" cy="444.4" r="0.3"/>
	<circle class="st39" cx="575" cy="444.1" r="0.3"/>
	<circle class="st39" cx="578.1" cy="444.1" r="0.3"/>
	<circle class="st39" cx="552.3" cy="443.6" r="0.3"/>
	<circle class="st39" cx="556.2" cy="440.9" r="0.3"/>
	<circle class="st39" cx="561" cy="446.7" r="0.3"/>
	<circle class="st39" cx="555" cy="440.9" r="0.3"/>
	<circle class="st39" cx="553.3" cy="441.1" r="0.3"/>
	<circle class="st39" cx="560.7" cy="442.6" r="0.3"/>
	<circle class="st39" cx="546" cy="444.5" r="0.3"/>
	<circle class="st39" cx="548.4" cy="447" r="0.3"/>
	<circle class="st39" cx="557.6" cy="448.2" r="0.3"/>
	<circle class="st39" cx="555.5" cy="447" r="0.3"/>
	<circle class="st39" cx="561.9" cy="448.5" r="0.3"/>
	<path class="st6" d="M554.6,441.7c0,0-10.9,0.5-5.8,4s19.9,1.5,19.9,1.5s8.2-2.1,2.9-4.5s-13.2-0.9-13.2-0.9s-9.1,1.7-2.1,3.1
		c0,0,8.4,0.8,8.8-0.9s-4.7-0.5-4.7-0.5s2.7,0.6,0.8,0.9s-4-0.2-4-0.7s2.8-0.9,3.6-0.9s5-0.7,6.6,1.2c0.3,0.3,0.2,0.7-0.1,1
		c-0.1,0-0.1,0.1-0.2,0.1c-1.5,0.6-5.3,1.8-11.4,0.9C547.6,444.8,554.6,441.7,554.6,441.7z"/>
	<path class="st40" d="M300.4,339.3c0,0,23.9-5.1,33.4,0.7c6.4,3.8,13.3,6.6,20.5,8.5c0,0,17.6,4.4,23.5,10.6s11.4,2.2,13.9,10.3
		s10.3,15.8,10.3,15.8l-3.7,54.7l2.9,31.6c0,0,1.5,13.2-2.2,16.1s0.7,7.7,4,10.3s11.7,12.5,10.6,16.1c-1.1,3.7,8.8,7.7,8.8,7.7
		s0.4,6.2-4.4,7.7c-4.8,1.5-10.6,23.4-10.6,23.4s-64.2,61.7-85.5,56.1c-21.3-5.6-37.1-25.3-37.1-25.3s-14.3-64.2-18.3-74.5
		c-4-10.3-14.7-44-14.7-44s-5.9-38.9-8.8-46.6s-2.9-48.1,5.9-56.5s16.5-13.2,16.5-16.2s8.4-8.8,11.7-8.4s4.4,4,4.4,4L300.4,339.3z"
		/>
	<path class="st21" d="M564.2,462.5c-10.3,18-49.2,14.3-49.2,14.3s-13.6-2.9-22,1.8s-48.1,9.9-48.1,9.9s-15-3.3-18.7-8.1
		c-3.2-4.2-33.6-22.2-41.5-26.8l-1.6-0.9l0,0c-0.1,0-0.2-0.1-0.3-0.1l0.1-0.1l32.6-41l5.3,5.7l26.2,28c0,0,25.7,1.1,33,5.5
		s30.5-1.5,30.5-1.5s11.4,0,12.1-2.6S574.5,444.6,564.2,462.5z"/>
	<path class="st6" d="M376.9,267.1c-2,0.5-3.7,1.6-5,3.2c-1.9,2.6-1.7,6.2-2.4,9.4c-1.2,5.2-5.3,9.9-4.5,15.1c0.3,1.9,1.1,3.9,0,5.4
		c-1,1.4-3.1,1.4-4.6,0.8c0,0-0.1,0-0.1,0c-4.1-1.6-6.3-5.9-9.2-9.2s-8.1-5.7-11.5-2.9c-2.8,2.4-2.3,6.7-2,10.4s-0.8,8.4-4.4,9
		c-1.5,0.3-3-0.3-4.4,0.1c-4.5,1.1-4.2,8.9-8.6,10.4c-1.5,0.5-3.2,0-4.8-0.4c-1.3-0.3-2.7-0.4-4.1-0.4c-4.7,0.1-9.5,1.5-13.7,0.3
		c2.1-3,4.2-6.1,6-9c-12.8-19.6-7.4-45.8,12.2-58.7c19.6-12.8,45.8-7.4,58.7,12.2C375.4,264.2,376.2,265.6,376.9,267.1L376.9,267.1z
		"/>
	<path class="st41" d="M315.3,317.1c1.6,0.4,3.3,0.9,4.8,0.4c4.4-1.4,4.1-9.3,8.6-10.4c1.4-0.3,3,0.2,4.4-0.1c3.6-0.6,4.6-5.4,4.4-9
		s-0.8-8,2-10.4c3.4-2.8,8.6-0.4,11.5,2.9s5.1,7.5,9.2,9.2c1.6,0.6,3.7,0.7,4.8-0.7s0.3-3.6,0-5.4c-0.8-5.3,3.3-9.9,4.5-15.1
		c0.7-3.2,0.5-6.7,2.4-9.4c4.1-5.5,14.6-2.7,18-8.7c1.5,0.2,3.1,0,4.5-0.6c1.4-0.7,2.4-2.3,1.9-3.8c-0.4-1.1-1.6-1.7-2.6-2.4
		c-3.3-2.3-5.2-6.1-5.1-10.1c0.1-1.9,0.6-3.8,0.5-5.7c-0.4-4.3-4.1-7.6-8.4-7.5c-1.3,0-2.5,0.4-3.7,0.4c-6,0.2-10.9-6.5-16.7-5.2
		c-1.2,0.3-2.4,1-3.7,1c-2.9,0-4.7-3.4-7.5-4.2c-2.2-0.7-4.6,0.3-6.9,0s-4.1-1.6-6.1-2.6c-4.2-2.3-9.8-3.3-13.4-0.2
		c-0.8,0.8-1.6,1.5-2.6,2.1c-1.2,0.4-2.5,0.5-3.8,0.2c-3.8-0.4-7.6-0.1-11.3,0.8c-1,0.1-1.9,0.6-2.6,1.4c-0.4,0.8-0.7,1.7-0.8,2.6
		c-1.1,4.3-6.5,5.8-10.9,6.2c-1.2,0-2.3,0.3-3.3,0.9c-1.6,1.2-1.6,3.7-0.9,5.6s1.9,3.6,2.2,5.6c0.6,5-4.8,8.8-5.7,13.8
		c-1.2,6.9,6.4,13.7,3.8,20.2c-1.1,2.9-4.2,5.1-4.1,8.2s3.1,4.9,5,7.3s2.5,5.1,3.2,7.9c1.1,4.5,1.3,13.2,6.5,14.8
		C302.8,318.7,309.4,315.8,315.3,317.1z"/>
	<path class="st6" d="M316.9,464.7c6.2,8.1,28.3,27.2,42.9,31.9S316.9,464.7,316.9,464.7z"/>
	<path class="st6" d="M320.2,505.1c2.6,1.8,14.3,23.8,26.8,25.7S320.2,505.1,320.2,505.1z"/>
	<path class="st6" d="M323.2,486c0.7,1.1,29.7,26.4,40.4,28.6c10.6,2.2,1.5-8.8-11.7-14S323.2,486,323.2,486z"/>
	<path class="st6" d="M323.2,539.9c0,0,19.4,7,32.6,5.1S323.2,539.9,323.2,539.9z"/>
	<path class="st6" d="M345.9,582.1c0,0,19.1-13.9,28.6-14.7S345.9,582.1,345.9,582.1z"/>
	<path class="st6" d="M260.1,357.3c0,0,46.2,5.1,33.4,7.3S260.1,357.3,260.1,357.3z"/>
	<path class="st6" d="M259.7,381.1c0,0,22,0,30.1-3.7S259.7,381.1,259.7,381.1z"/>
	<path class="st6" d="M252.7,427.3c4-1.1,20.9-36.3,27.5-26.8S252.7,427.3,252.7,427.3z"/>
	<path class="st6" d="M319.5,418.1c0,0,5.9,5.5,24.2,10.6S319.5,418.1,319.5,418.1z"/>
	<path class="st6" d="M428.1,543.3c0,0,10.3,5.5,2.6,17.2S428.1,543.3,428.1,543.3z"/>
	<path class="st28" d="M320.6,590.2l-0.1-1.6C320.9,583.5,320.6,590.2,320.6,590.2z"/>
	<path class="st28" d="M327.6,620.7l-29.4-2.9l-5.5-11l-30.5-167.4l-0.7-3.9l46.6,0.4l0.4,5.3l11.9,147.6c-0.1,0.8-0.1,1.7-0.2,3
		C319.5,601.9,327.6,620.7,327.6,620.7z"/>
	<path class="st6" d="M893,375.4l-0.8,0.6c-3.1,2.1-7.3-5.5-11-4.4c-3.2,0.9-5.8,10.6-9.2,10.6c-5.3,0-10.5-1.2-15.3-3.4
		c-0.5-1.1-1-2.1-1.5-3c-1.9-3.5-3.3-5.7-3.3-5.7s5.2-0.9,11.7-1.8c3-0.4,6.4-0.9,9.6-1.3l0,0c1.7-0.2,3.4-0.4,4.9-0.5
		c6.4-0.6,11.5-0.8,11.5,0.3s1,3.7,2.6,7C892.5,374.3,892.8,374.8,893,375.4z"/>
	<path class="st25" d="M908,344c0,19.9-16.1,36-35.9,36c-19.9,0-36-16.1-36-35.9s16.1-36,36-36c0,0,0,0,0,0c19.8,0,36,16,36,35.8
		C908,344,908,344,908,344z"/>
	<path class="st42" d="M901.3,412.7l-10.7,1.1c0,0,1.1-9.6,5.8-12.7c3.1-2,8.9-5.1,12.4-7c1.2,0.6,2.5,1,3.9,1.3
		C896.2,406,901.3,412.7,901.3,412.7z"/>
	<path class="st25" d="M781,459.2l-2.6-0.4c0,0-11.2,0.7-22.2,2s-26.6,4.6-15.2,17.8s21.8-2.4,21.8-2.4s10.6,13.2,18.9,8.8
		S781,459.2,781,459.2z"/>
	<path class="st25" d="M735.7,669.6c0,0,7,16.9,6.4,21.6s23.3-4.6,23.3-4.6s-5.5-12.8-2.6-15.6S735.7,669.6,735.7,669.6z"/>
	<rect x="702.7" y="715.1" class="st25" width="19" height="24.2"/>
	<path class="st3" d="M739.9,662.8c-1.9,3-3.3,8.2-4.2,13.4c-1.1,6.2-1.8,12.5-2,18.8c0,3.7,1.8,2.9,0,8.8
		c-1.6,4.6-2.8,9.3-3.6,14.1c0,0.2-0.1,0.4-0.1,0.6c-1.1,6.6-2.2,8.8-2.2,8.8s-27.9-1.8-33.7-5.9c-5.9-4,2.2-8.1,2.2-8.1s0-0.3,0-1
		c0.6-11.2,6.3-119.3,8.8-130.8c0.6-2.5,1.8-4.8,3.6-6.6c3.4-3.8,8.4-6.6,12.6-8.5c2.5-1.1,5.1-2.1,7.7-2.8c0,0,1.5,8.5,3.4,20.5
		C736.6,611.7,743.3,657.5,739.9,662.8z"/>
	<path class="st25" d="M732.3,584.3c-2.2,3.9-4.3,6.4-5.9,4.5c-2.7-3.3-11.5-9.4-17.7-13.6c6.8-7.6,20.3-11.3,20.3-11.3
		S730.4,572.3,732.3,584.3z"/>
	<path class="st3" d="M896.4,554.7c-0.3,4.1-0.8,9-1.6,15c-2.1,15-11.4,28.1-25,34.9c0,0-67.5,0-79.3-3.3
		c-5.9-1.7-11.1,0.3-14.8,2.7c-0.4,0.3-0.8,0.5-1.2,0.8c-1.7,1.2-3.2,2.6-4.5,4.2c0,0-7.3-29.7-7.3-31.2c0-1.5,4-14.7,11.4-23.8
		c7.4-9.2,50.6-10.6,53.2-11c1.7-0.2,17.5-7.1,27.9-11.7c5.3-2.3,9.2-4.1,9.2-4.1l17,5.4l0.6,0.2l13.6,4.3
		C895.5,537.1,897.2,541.1,896.4,554.7z"/>
	<path class="st6" d="M881.9,532.7c-3.2,1.3-8.4,3.4-14.3,5.6c-12.9,4.7-29.8,9.8-39.6,9c-17.6-1.5-37.8,2.6-37.8,2.6
		c-6.4,2.8-12.4,6.7-17.6,11.4c-9.2,8.1-1.1,10.6,2.9,20.2c1.7,3.9,1.3,13.1,0.2,22.5c-0.4,0.3-0.8,0.5-1.2,0.8
		c-1.7,1.2-3.2,2.6-4.5,4.2c0,0-7.3-29.7-7.3-31.2c0-1.5,4-14.7,11.4-23.8c7.4-9.2,50.6-10.6,53.2-11c1.7-0.2,17.5-7.1,27.9-11.7
		c5.3-2.3,9.2-4.1,9.2-4.1l17,5.4L881.9,532.7z"/>
	<path class="st6" d="M739.9,662.8c-1.9,3-3.3,8.2-4.2,13.4c-0.7-0.4-1.4-0.8-2-1.3c-3.4-2.8-3.1-8.3-2.6-11.7
		c0.2-1.4,0.4-2.5,0.4-3c0-1.5,1.5-14.7-1.5-19.5s-3.7-23.5-3.7-23.5s-4.7-26.8-5.1-50.7c2.5-1.1,5.1-2.1,7.7-2.8
		c0,0,1.5,8.5,3.4,20.5C736.6,611.7,743.3,657.5,739.9,662.8z"/>
	<path class="st3" d="M884.5,531.1c0,0-1.2,0.5-3.2,1.4c-3.2,1.3-8.5,3.5-14.8,5.8c-12.9,4.7-29.8,9.8-39.6,9
		c-17.6-1.5-37.8,2.6-37.8,2.6c-6.4,2.8-12.4,6.7-17.6,11.4c-9.2,8.1-1.1,10.6,2.9,20.2c1.7,4,1.2,13.6,0.2,23.3
		c-1.5,13.3-4.2,26.9-4.2,26.9s-1.1,3.7-0.4,5.9c0.7,2.2,0.7,19.1,0.7,19.1c-0.9,1.4-1.5,3.1-1.6,4.8c-0.1,1.4,0.4,2.8,1.2,4
		c2.9,4,0.7,14.7,0.7,14.7s-6.2,1.1-16.9-1.5s-14.7,0.4-19.4-3.7c-3.4-2.8-3.1-8.3-2.6-11.7c0.2-1.4,0.4-2.5,0.4-3
		c0-1.5,1.5-14.7-1.5-19.4s-3.7-23.5-3.7-23.5s-11.7-67.2,0.1-83.5c0.2-0.3,0.4-0.6,0.7-0.8c6.5-7.5,20.2-8.9,32.9-8.1
		c9.2,0.6,18.3,2.1,27.2,4.5c7.3,2.2,9.5,1.1,13.2-0.4c2.6-1,2.8-6.2,2.7-9c0-0.3,0-0.6,0-0.8c0-0.7-0.1-1.2-0.1-1.2l3.3-1.8
		l13.6-7.4L884.5,531.1z"/>
	<path class="st6" d="M892.2,373.8c2.4,4.9,5.3,9.5,8.7,13.7c-1.1,0.4-2.4,0.4-3.5,0.1c-1.2-0.5-2.1-1.5-3.2-2.1
		c-3-1.4-6.3,0.6-9.3-1.3c-2.3-1.5-2.8-3.3-2.9-5.6c0-0.3,0-0.6,0-1c0-3.2-0.3-9.6-3.7-11.2c-1.3-0.5-2.8-0.5-4.1,0.1
		c-0.3,0.1-0.5,0.2-0.8,0.4l0,0c-2.3,1.3-3.9,4.2-6.5,4c-1.5-0.2-2.7-1.3-3.1-2.7c-0.5-1.4-0.9-3-1.1-4.5c-0.8-5.9-3-11.4-5.2-16.9
		c-0.4-1-1-2.3-2.2-2.4c-1.8-0.1-2.3,2.7-1.3,4.2s2.7,2.7,3,4.5c0.4,3-4.1,4.8-6.5,3s-2.9-5.3-2.4-8.3s1.8-5.8,2-8.9
		s-1.2-6.5-4.1-7.4c-2.5-0.8-5.2,0.8-7.9,0.8c6.3-18.8,26.7-29,45.6-22.7c18.8,6.3,29,26.7,22.7,45.6
		C903.8,362.9,898.9,369.3,892.2,373.8L892.2,373.8z"/>
	<path class="st43" d="M875.1,366.6c-2.7,1-4.4,4.6-7.3,4.4s-3.8-4.2-4.2-7.2c-0.8-5.9-3-11.4-5.2-16.9c-0.4-1-1-2.3-2.2-2.4
		c-1.8-0.1-2.3,2.7-1.3,4.2s2.7,2.7,3,4.5c0.4,3-4.1,4.8-6.5,3s-2.9-5.3-2.4-8.3s1.8-5.9,2-8.9s-1.2-6.5-4.1-7.4s-6,1.2-9,0.7
		c-3-0.7-4.9-3.7-4.2-6.7c0.1-0.3,0.2-0.7,0.3-1c1.3-2.5,4.6-4.5,3.8-7.2c-1.1-3.3-6.8-1.9-9-4.6c-1.8-2.1-0.2-5.5,2.1-7
		s5.1-2.2,7.3-3.9c4.1-3.2,4.8-9.3,8.7-12.8c4.4-4,11.2-3.1,16.8-5.2c5.3-2,10.1-6.8,15.7-5.8c1.3,0.2,2.6,0.8,4,0.9
		c2.8,0.3,5.4-1.4,8-2.5c5.1-2,10.8-1.8,15.7,0.7c-0.5,3.6,3.2,6.8,6.8,6.6c2.6-0.1,6.2-1,7.1,1.5c0.4,1.1-0.1,2.5,0.3,3.6
		c0.7,2,3.5,2.1,5.3,3.3c4.1,2.6,2.2,9.7,5.7,13c1.6,1.5,3.8,1.8,5.8,2.7c6.4,2.8,8.7,10.6,10.3,17.4c0.4,1.3,0.5,2.7,0.3,4.1
		c-0.5,2-2.4,3.3-3.4,5.1c-2.5,4.2,0.2,9.8-1.4,14.4s-6.8,7.3-7.5,12c-0.3,1.6,0.1,3.3-0.2,4.9c-0.7,4.3-5.3,6.8-9.5,8.1
		c-1.2,0.4-2.5,0.8-3,1.9c-0.2,0.5-0.3,1.1-0.5,1.6c-0.5,1.2-1.8,1.9-3,2.5c-5.5,2.6-11.1,4.9-16.8,7.1c-1.6,0.6-3.3,1.2-4.9,0.6
		c-1.2-0.5-2.1-1.5-3.2-2.1c-3-1.4-6.3,0.6-9.3-1.3c-2.7-1.7-3-3.8-3-6.6C883,373.5,882.4,363.8,875.1,366.6z"/>
	<path class="st44" d="M730.1,718c0,0.2-0.1,0.4-0.1,0.6c-1.1,6.6-2.2,8.8-2.2,8.8s-27.9-1.8-33.7-5.9c-5.9-4,2.2-8.1,2.2-8.1
		s0-0.3,0-1C705.9,714.9,722.6,718.6,730.1,718z"/>
	<path class="st6" d="M730.1,718c0,0.2-0.1,0.4-0.1,0.6c-1.1,6.6-2.2,8.8-2.2,8.8s-27.9-1.8-33.7-5.9c-5.9-4,2.2-8.1,2.2-8.1
		s0-0.3,0-1C705.9,714.9,722.6,718.6,730.1,718z"/>
	<path class="st45" d="M725.8,724.7c0,0-32.3,2.2-33.6,1.7c-1.3-0.6-1.3,17.1-1.3,17.1s-7.2,14.3-8.1,17.8s-8.1,12.1-8.1,12.1
		s-10.3,7.5,4.8,10.4c15,2.9,31.5-0.9,31.5-0.9s11-19.1,11.9-18c0.9,1.1,0,10.1,0,10.1l6.4-1.7c0,0-1.1-11.9,1.5-18.3
		S725.8,724.7,725.8,724.7z"/>
	<path class="st6" d="M771.1,679c0,0-6.2,1.1-16.9-1.5s-14.7,0.4-19.4-3.7c-3.4-2.8-3.1-8.3-2.6-11.7c4.7-1,11.9-2.5,17.5-3.3
		c5.6-0.8,13.6,0.3,19.5,1.5c-0.1,1.4,0.4,2.8,1.2,4C773.3,668.3,771.1,679,771.1,679z"/>
	<path class="st44" d="M771.1,680.1c0,0-6.2,1.1-16.9-1.5s-14.7,0.4-19.4-3.7c-3.4-2.8-3.1-8.3-2.6-11.7c4.7-1,11.9-2.5,17.5-3.3
		c5.6-0.8,13.6,0.3,19.5,1.5c-0.1,1.4,0.4,2.8,1.2,4C773.3,669.5,771.1,680.1,771.1,680.1z"/>
	<path class="st6" d="M771.1,680.1c0,0-6.2,1.1-16.9-1.5s-14.7,0.4-19.4-3.7c-3.4-2.8-3.1-8.3-2.6-11.7c4.7-1,11.9-2.5,17.5-3.3
		c5.6-0.8,13.6,0.3,19.5,1.5c-0.1,1.4,0.4,2.8,1.2,4C773.3,669.5,771.1,680.1,771.1,680.1z"/>
	<path class="st45" d="M786.9,732.2l-10.8,2.8l-3.1-12.8c0,0-2.7,5.2-7.5,12.3c-0.6,0.9-1.3,1.9-2,2.9c-5.5,7.9-24.1,5.9-30.5,1.4
		c-0.6-0.4-1-0.8-1.5-1.4c-4.2-5.5,2.2-10.8,5.3-13.8c3.1-2.9,1.5-22.4,1.5-22.4s-1.5-8.6-0.4-12.7c1.1-4,28.8-5.5,28.8-5.5
		s5.7,14.8,8.8,19.4c3.1,4.6,7,10.3,6.2,14.3C781,720.8,786.9,732.2,786.9,732.2z"/>
	<path class="st25" d="M772.6,541.6c-4.7,6-35.5,1.5-45-7.8c0.2-0.3,0.4-0.6,0.7-0.8c6.5-7.5,20.2-8.9,32.9-8.1
		C767,529.1,776.3,536.8,772.6,541.6z"/>
	<path class="st6" d="M742.9,546c0,0-5.3-7.5-10.1-3.8c-4.8,3.7-6.2-6.4-6.2-6.4s2.6-1.8,8.1,0.9s11.7,7.5,11,8.4
		C744.9,546,742.9,546,742.9,546z"/>
	<path class="st44" d="M742.9,544.9c0,0-5.3-7.5-10.1-3.8s-6.2-6.4-6.2-6.4s2.6-1.8,8.1,0.9s11.7,7.5,11,8.4
		C744.9,544.9,742.9,544.9,742.9,544.9z"/>
	<path class="st6" d="M842.3,546c0,0,27.2,12.5,21.1,17.5S842.3,546,842.3,546z"/>
	<path class="st6" d="M732.8,631.8c0,0,17.2,2,21.1,4.6c2.9,2,6.4,3.2,9.9,3.5C766,639.9,740.5,625.6,732.8,631.8z"/>
	<path class="st6" d="M753.5,621.8c0,0-6.6,4.6,0.9,6.4S753.5,621.8,753.5,621.8z"/>
	<path class="st6" d="M716.6,682.8c0,0,9.7,12.1,13.2,8.8C733.3,688.3,716.6,682.8,716.6,682.8z"/>
	<path class="st6" d="M710.4,706.7c0.7,0,3.1-0.4,7.9,2.9c4.8,3.3,5.1-2.6,3.3-5C719.8,702.2,710.4,706.7,710.4,706.7z"/>
	<path class="st6" d="M699.4,436.4c1.7,0.5,11.3,3,13.2,8.8S699.4,436.4,699.4,436.4z"/>
	<path class="st6" d="M308.6,441.1l-0.8-0.2c0,0-28.1-6.3-45.5-1.6l-0.7-3.9l46.6,0.4L308.6,441.1z"/>
	<path class="st28" d="M283.6,428.8c0,0,70.4,0.4,95,48.8s30.1,140.9,30.1,140.9s4,13.2-1.8,13.6s-8.4-12.1-8.4-12.1
		s2.2-9.2,0.4-13.2s-24.2-116.3-24.2-116.3s-2.6-35.2-66.8-50.6c0,0-75.2-16.9-55.8,25.3c0,0,1.1,5.9-2.9,4.8s-8.8-12.1-5.5-26
		S283.6,428.8,283.6,428.8z"/>
	<path class="st6" d="M421,417.3l-0.2,0.2c-5,4-23.5,35.4-36,36.3c-0.2,0-0.5,0-0.7,0c0,0-0.3-0.4-0.8-1l0,0
		c-0.1-0.1-0.1-0.2-0.2-0.2l32.6-41L421,417.3z"/>
	<path class="st6" d="M384.4,378.2l16.5,7c0,0,8.1,8.1,7.7,15.4s4,1.8,4,1.8s2.9,1.1,2.9,4s8.1,5.9,2.9,9.9s-24.2,36.7-36.7,36.3
		c-7.4-8.5-15.4-16.4-23.9-23.8C345.2,417.8,333.4,361.3,384.4,378.2z"/>
	<path class="st40" d="M385.6,378.2l16.5,7c0,0,8.1,8.1,7.7,15.4s4,1.8,4,1.8s2.9,1.1,2.9,4s8.1,5.9,2.9,9.9S395.4,453,383,452.6
		c-7.4-8.5-15.4-16.4-23.9-23.8C346.3,417.8,334.6,361.3,385.6,378.2z"/>
	<path class="st6" d="M844.1,439.1l-17.1,30.4l-11.8,6.1c-0.3-3.2-0.5-5.4-0.5-5.4s-7.7-18,12.1-31.5c17.4-11.9,8.2-21.6,5.7-23.7
		l0.5-0.5l4-0.5L844.1,439.1z"/>
	<path class="st6" d="M958,425.6c-2.7,6-25.8,22.2-25.8,22.2c0,0,0,0.1,0,0.1l-1.1-1.2l22-25.3l4,2.6L958,425.6z"/>
	<path class="st6" d="M896.4,554.7c-3.2,0.4-6.5,0.5-9.7,0.3c-6.2-6.2-13-11.8-20.2-16.7c-3.5-2.4-7.3-4.8-11.4-7.1
		c-14.5-8-32.5-14.3-50.9-11.3c-0.4,0.1-0.8,0.1-1.2,0.2c0,0,0.5-0.4,1.2-1s1.9-1.7,3.2-3l13.6-7.4l63.5,22.4c0,0-1.2,0.5-3.2,1.4
		l14.2,4.5C895.5,537,897.2,541.1,896.4,554.7z"/>
	<path class="st27" d="M876,407.9c0,0,49.2,4.8,71.5,2.2c0,0,11,8.4,9.5,13.9s-26,22.7-26,22.7s-1.8,42.9-11.7,53.2
		s-18.8,36.7-14.4,45.5c4.4,8.8-17.2,7.3-17.2,7.3s-41.1-42.9-83.7-34.8c0,0,15.4-12.5,14.3-21.7s-2.6-26-2.6-26s-7.7-18,12.1-31.5
		s5.1-24.2,5.1-24.2s-0.7-3.3,7.7-4.4c4.1-0.4,8.1-1.2,12.1-2.2c0,0,8.1-7.3,11.7-5.9S876,407.9,876,407.9z"/>
	<path class="st6" d="M932.2,441.5c0,0,5.9,11.5-0.5,17.6c-2.5,2.6-4.8,5.4-6.9,8.4c-11.9,15.9-21.8,33.2-29.6,51.4
		c-13.5,31.6-36.9,85.3-40.4,88.1c-5,4-5.3,12.3-0.4,12.5c5,0.2,7.9-6.6,7.9-6.6s5-14.1,8.1-19.8c3.1-5.7,35.6-80.2,35.6-80.2
		s12.1-31.9,25.7-39.2c0,0,11.7-19.5,9.7-28.1S932.2,441.5,932.2,441.5z"/>
	<path class="st28" d="M932.2,440.3c0,0,5.9,11.6-0.5,17.6c-2.5,2.6-4.8,5.4-6.9,8.3c-11.9,15.9-21.8,33.2-29.6,51.4
		c-13.5,31.6-36.9,85.3-40.4,88.1c-5,4-5.3,12.3-0.4,12.5c5,0.2,7.9-6.6,7.9-6.6s5-14.1,8.1-19.8c3.1-5.7,35.6-80.2,35.6-80.2
		s12.1-31.9,25.7-39.3c0,0,11.7-19.5,9.7-28.1S932.2,440.3,932.2,440.3z"/>
	<path class="st25" d="M982.1,479.1c1.2,6.6,1.1,13.6-1.7,19.6c0,0-15.6,0.7-31.2-21.1l-9.4-22.9c0,0-10.5-17.8-16.7-16.9
		s-11,32.1-25.9,29.2s-7-40.4,12.7-44.2l7.6-1.9c5.5-1.4,11.4-0.2,15.9,3.4c3.6,2.9,8.6,6.7,14.5,11c4.9,3.6,9.5,7.1,13.3,10.1
		C972.2,453.5,979.6,465.6,982.1,479.1z"/>
	<path class="st6" d="M819.6,477.4c0,0,7.4,9.1,19.5,11s19-1.9,29.2,2.2S819.6,477.4,819.6,477.4z"/>
	<path class="st6" d="M920.9,460.3c0,0-22.8,19.5-22,24.8S920.9,460.3,920.9,460.3z"/>
	<g class="st1">
		<path d="M858.3,352.2c-1.5,1.3-3.7,1.4-5.4,0.4c-2.1-1.6-2.8-4.4-2.5-7.1c-0.2,0.8-0.4,1.7-0.6,2.5c-0.5,3-0.1,6.5,2.4,8.3
			s6.9,0,6.5-3C858.6,352.8,858.5,352.5,858.3,352.2z"/>
		<path d="M851.7,339.5c0.4-1.4,0.7-2.8,0.8-4.2c0.2-3-1.2-6.5-4.1-7.4s-6,1.2-9,0.7c-2.2-0.5-3.9-2.3-4.3-4.5
			c-0.1,0.2-0.2,0.4-0.3,0.5c-1.2,2.8,0,6.1,2.8,7.3c0.3,0.1,0.7,0.3,1,0.3c3,0.5,6.1-1.6,9-0.7s4.3,4.3,4.1,7.4
			C851.8,339.2,851.7,339.4,851.7,339.5z"/>
		<path d="M838.4,317.3c0.8-0.9,1.2-2.2,0.9-3.4c-1.1-3.3-6.8-1.9-9-4.6c-0.3-0.4-0.5-0.8-0.6-1.2c-1,1.6-1.3,3.5-0.1,4.9
			C831.7,315.6,837.1,314.3,838.4,317.3z"/>
		<path d="M928.1,370.3c-1.2,0.4-2.5,0.8-3,1.9c-0.2,0.5-0.3,1.1-0.5,1.6c-0.5,1.2-1.8,1.9-2.9,2.5c-5.5,2.6-11.1,5-16.8,7.1
			c-1.6,0.6-3.3,1.2-4.9,0.6c-1.2-0.5-2.1-1.5-3.2-2.1c-3-1.4-6.3,0.6-9.3-1.3c-2.7-1.7-3-3.8-3-6.6c0-4.2-0.6-13.8-7.9-11
			c-2.7,1-4.4,4.6-7.3,4.4s-3.8-4.2-4.2-7.2c-0.8-5.9-3-11.4-5.2-16.9c-0.4-1-1-2.3-2.2-2.4c-1.7-0.1-2.2,2.2-1.5,3.8
			c0.2-0.1,0.5-0.2,0.8-0.1c1.1,0.1,1.8,1.3,2.2,2.4c2.2,5.5,4.4,11.1,5.2,16.9c0.4,3,1.2,6.9,4.2,7.2s4.6-3.3,7.3-4.4
			c7.3-2.8,7.9,6.8,7.9,11c0,2.8,0.3,4.9,3,6.6c3,1.9,6.3-0.1,9.3,1.3c1.2,0.5,2,1.6,3.2,2.1c1.6,0.6,3.3,0,4.9-0.6
			c5.7-2.1,11.3-4.5,16.8-7.1c1.2-0.6,2.5-1.2,3-2.5c0.2-0.5,0.2-1.1,0.5-1.6c0.5-1.1,1.9-1.5,3-1.9c4.2-1.3,8.8-3.8,9.5-8.1
			c0.1-0.6,0.1-1.1,0.1-1.7C935.4,367.3,931.7,369.3,928.1,370.3z"/>
		<path d="M946.7,331c-0.7,1.4-1.1,2.9-1.1,4.4c0.1-0.3,0.2-0.5,0.4-0.8c1-1.8,2.9-3.1,3.4-5.1c0.2-0.7,0.2-1.5,0.1-2.2
			C948.7,328.6,947.5,329.7,946.7,331z"/>
		<path d="M937.8,357.4c-0.1,0.5-0.1,1.1-0.1,1.6c1.6-3.5,5.6-6.1,6.9-9.9c0.3-1,0.5-2.1,0.5-3.1
			C943.3,350.1,938.5,352.8,937.8,357.4z"/>
	</g>
	<path class="st6" d="M777.3,712.8c-4.1,2.7-8,5.7-11.7,9c-4.8,4.4-16.7,8.1-16.7,8.1L777.3,712.8z"/>
	<path class="st6" d="M718.7,759.2c0,0-22.6,20.2-26.2,19.8S718.7,759.2,718.7,759.2z"/>
	<path class="st6" d="M765.4,734.4c-0.6,0.9-1.3,1.9-2,2.9c-5.5,7.9-24.1,6-30.5,1.4C738.7,736.8,756.2,731.4,765.4,734.4z"/>
	<g class="st1">
		<path d="M673.9,282.3c0.3-0.7,0.5-1.5,0.6-2.3C674.2,280.8,674,281.5,673.9,282.3z"/>
		<path d="M604.2,306.7c0.1-0.5,0.3-1,0.5-1.5c1.6-3.6-0.5-6.1-2.8-8.6c-2.3-2.1-3.8-4.9-4.2-8c-0.1-0.8-0.2-1.7-0.2-2.5
			c-0.2,0.3-0.4,0.5-0.5,0.8c-0.8,1.7-0.6,3.7-0.3,5.6c0.4,3.1,1.9,5.9,4.2,8C602.6,302.4,604.3,304.3,604.2,306.7z"/>
		<path d="M666.3,339.2c-1.8-0.5-3.4,1.3-4.3,2.9s-1.9,3.6-3.8,3.9c-2.3,0.3-3.8-2.1-4.8-4.2s-1.9-4.3-1.9-6.5c0-0.3,0-0.5,0.1-0.8
			c-0.6,1.5-1,3.1-1.2,4.7c-0.1,2.3,0.9,4.5,1.8,6.5s2.5,4.5,4.8,4.2c1.9-0.2,2.9-2.2,3.8-3.9s2.5-3.4,4.3-2.9
			c0.8,0.2,1.7,0.9,2.4,0.5c0.4-0.3,0.6-0.7,0.7-1.2c0.2-0.9,0.3-1.7,0.3-2.6C667.8,340.1,667,339.5,666.3,339.2z"/>
		<path d="M677.6,320.9c-2.4,1.9-5.3,3.3-6.7,6c-0.6,1.2-0.9,2.4-1,3.7c1.5-2.6,4.3-4,6.7-5.9c3.7-3,6.1-7.1,6.9-11.8
			C682.2,316.1,680.2,318.8,677.6,320.9z"/>
		<path d="M652.7,330.6c0.4-1.1,0.8-2.2,1-3.4c0.7-3.5-0.5-7-1.6-10.3c-0.8-2.4-2.4-5.4-5-5.1c-0.5,0.1-1,0.2-1.5,0.2
			c-1.3-0.2-1.6-2-1.8-3.4c-0.9-6.6-5.9-11.8-12.4-13c-0.7-0.2-1.5-0.1-2.2,0.1c-1,0.4-1.5,1.5-2.3,2.1c-2.8,1.9-6.3-1.8-9.7-1.5
			c-2.9,0.2-4.6,3.2-5.8,5.8s-2.7,5.6-5.5,6.3c-0.4,0.1-0.9,0.1-1.3-0.2c-0.3-0.2-0.4-0.5-0.4-0.8c-0.1,0.6-0.3,1.1-0.5,1.7
			c-0.4,1-1,2.4-0.2,3c0.4,0.2,0.9,0.3,1.3,0.1c2.8-0.6,4.3-3.6,5.5-6.3s3-5.6,5.8-5.8c3.4-0.3,7,3.4,9.7,1.5
			c0.9-0.6,1.4-1.6,2.3-2.1c0.7-0.3,1.4-0.3,2.2-0.1c6.6,1.1,11.7,6.4,12.5,13c0.1,1.4,0.4,3.1,1.8,3.4c0.5,0,1-0.1,1.5-0.2
			c2.6-0.3,4.1,2.7,4.9,5.1C652.2,323.9,653.2,327.3,652.7,330.6z"/>
	</g>
	<path class="st30" d="M671,446c0,0-14,4.3-20.4,4.3s-31.1-0.1-31.1-0.1s-64.7-21.6-45.3,8c19.4,29.6,50.1,13.1,50.1,13.1l5.5,1.2
		c3,0.7,61.5,0.1,63.4-2.2S671,446,671,446z"/>
	<path class="st6" d="M711.2,472c-8.8,0.8-26.1,1-26.1,1s-12.9-25.6-23.9-24.8c0,0,10.2-11.5,14.3-10.2c0.7,0.2,1.1-0.3,1.3-1.3
		c10.8,3.3,31.3,11.3,33.3,25.5C710.7,466.1,711,469.3,711.2,472z"/>
	<path class="st46" d="M712.3,472c-8.8,0.8-26.1,1-26.1,1s-12.9-25.6-23.9-24.8c0,0,10.2-11.5,14.3-10.2c0.7,0.2,1.1-0.3,1.3-1.3
		c10.8,3.3,31.3,11.3,33.3,25.5C711.8,466.1,712.1,469.3,712.3,472z"/>
	<path class="st6" d="M712.3,472c-8.8,0.8-26.1,1-26.1,1s-12.9-25.6-23.9-24.8c0,0,10.2-11.5,14.3-10.2c0.7,0.2,1.1-0.3,1.3-1.3
		c10.8,3.3,31.3,11.3,33.3,25.5C711.8,466.1,712.1,469.3,712.3,472z"/>
	<path class="st6" d="M635,545.6c0,0,24.8-6.1,28.6-2.8C667.5,546.2,635,545.6,635,545.6z"/>
	<path class="st6" d="M564,569.3c0,0,10.5,6,11.5,11S564,569.3,564,569.3z"/>
	<g class="st1">
		<path d="M388.1,240.9c0,1.4,0.1,2.7,0.6,4c0-0.4,0-0.8,0-1.3c0.1-1.9,0.6-3.8,0.5-5.7c-0.1-0.8-0.2-1.6-0.5-2.3
			C388.6,237.5,388.2,239.2,388.1,240.9z"/>
		<path d="M286.5,239.3c0.5,1.3,1.2,2.5,1.7,3.8c0-0.3,0-0.6,0-0.9c-0.2-1.9-1.4-3.6-2.1-5.4C286,237.6,286.2,238.5,286.5,239.3z"/>
		<path d="M396.4,256.1c-0.1-0.3-0.3-0.7-0.6-0.9c-0.3,0.8-1,1.5-1.8,1.9c-1.4,0.6-3,0.8-4.5,0.6c-3.4,5.9-13.9,3.2-18,8.7
			c-1.9,2.6-1.7,6.2-2.4,9.4c-1.2,5.2-5.3,9.9-4.5,15.1c0.3,1.8,1.1,3.9,0,5.4s-3.1,1.4-4.8,0.7c-4.1-1.6-6.3-5.9-9.2-9.2
			s-8.1-5.8-11.5-2.9c-2.8,2.4-2.3,6.7-2,10.4s-0.8,8.4-4.4,9c-1.5,0.3-3-0.3-4.4,0.1c-4.5,1.1-4.2,8.9-8.6,10.4
			c-1.6,0.5-3.2,0-4.8-0.4c-5.8-1.4-12.5,1.5-17.9-0.1c-3-0.9-4.3-4.1-5.1-7.6c0.8,4.3,1.9,9.2,5.7,10.3c5.4,1.6,12.1-1.3,17.9,0.1
			c1.6,0.4,3.3,0.9,4.8,0.4c4.4-1.4,4.1-9.3,8.6-10.4c1.4-0.3,3,0.2,4.4-0.1c3.6-0.6,4.7-5.4,4.4-9s-0.8-8,2-10.4
			c3.4-2.8,8.6-0.4,11.5,2.9s5.1,7.5,9.2,9.2c1.6,0.6,3.7,0.7,4.8-0.7s0.3-3.6,0-5.4c-0.8-5.3,3.3-10,4.5-15.1
			c0.8-3.2,0.5-6.7,2.4-9.4c4.1-5.5,14.6-2.7,18-8.7c1.5,0.2,3.1,0,4.5-0.6C395.9,259.2,396.9,257.5,396.4,256.1z"/>
		<path d="M290.4,299.6c-0.7-2.8-1.4-5.7-3.2-7.9c-1.4-1.8-3.4-3.3-4.4-5.2c0,0.2,0,0.5,0,0.7c0.1,3,3.1,4.9,5,7.3s2.5,5.1,3.2,7.9
			C290.7,301.3,290.6,300.4,290.4,299.6z"/>
		<path d="M286.8,272.5c-0.3-3.7-2.7-7.5-3.9-11.3C283.2,265,285.6,268.8,286.8,272.5z"/>
	</g>
	<path class="st6" d="M479.3,615.3c0,0,30.8-0.9,23.4,2.4c-7.3,3.3-28.1,3-28.1,3L479.3,615.3z"/>
	<path class="st6" d="M605.8,680.8c0,0,14.3-2.2,18,0.2S605.8,680.8,605.8,680.8z"/>
	<ellipse class="st47" cx="1031.8" cy="694.5" rx="40.9" ry="5.6"/>
	<path class="st27" d="M1034.5,636.9c0,0,5.5,7.2-2.5,18c-8,10.8-14.6,19.9-11.9,26.7c0,0,12.1-20.1,21.9-20.3
		C1051.8,660.9,1045.3,649,1034.5,636.9z"/>
	<path class="st6" d="M1034.5,636.9c0.5,0.7,0.9,1.4,1.1,2.2c9.6,11.3,14.7,21.8,5.5,22c-8.6,0.2-18.9,15.6-21.4,19.5
		c0.1,0.3,0.2,0.6,0.3,0.9c0,0,12.1-20.1,21.9-20.3C1051.8,660.9,1045.3,649,1034.5,636.9z"/>
	<path class="st12" d="M1044.7,646c0,2.5-0.3,4.6-0.6,4.6s-0.6-2-0.6-4.6c0-2.6,0.3-1.3,0.7-1.3S1044.7,643.5,1044.7,646z"/>
	<path class="st12" d="M1048.2,649c-2.2,1.2-4.1,1.9-4.3,1.6c-0.2-0.3,1.5-1.5,3.7-2.7s1.3-0.3,1.5,0
		C1049.2,648.3,1050.4,647.8,1048.2,649z"/>
	<path class="st27" d="M1005.6,636.9c0,0-5.5,7.2,2.5,18c8,10.8,14.6,19.9,11.9,26.7c0,0-12.1-20.1-21.9-20.3
		C988.3,660.9,994.7,649,1005.6,636.9z"/>
	<path class="st6" d="M1005.6,636.9c-0.5,0.7-0.9,1.4-1.1,2.2c-9.6,11.3-14.7,21.8-5.5,22c8.6,0.2,18.9,15.6,21.3,19.5
		c-0.1,0.3-0.2,0.6-0.3,0.9c0,0-12.1-20.1-21.9-20.3C988.3,660.9,994.7,649,1005.6,636.9z"/>
	<path class="st12" d="M995.4,646c0,2.5,0.3,4.6,0.6,4.6s0.6-2,0.6-4.6c0-2.6-0.4-1.3-0.7-1.3S995.4,643.5,995.4,646z"/>
	<path class="st12" d="M991.9,649c2.2,1.2,4.1,1.9,4.3,1.6c0.2-0.3-1.5-1.5-3.7-2.7s-1.3-0.3-1.5,0
		C990.8,648.3,989.7,647.8,991.9,649z"/>
	<path class="st14" d="M997.1,680.6c0,0,15.3-0.5,19.9-3.8s23.6-7.2,24.7-1.9s23,26.2,5.7,26.3c-17.3,0.1-40.2-2.7-44.8-5.5
		C998.1,693,997.1,680.6,997.1,680.6z"/>
	<path class="st15" d="M1047.8,699.5c-17.3,0.1-40.2-2.7-44.8-5.5c-3.5-2.1-4.9-9.8-5.4-13.3h-0.5c0,0,1,12.3,5.6,15.2
		c4.6,2.8,27.5,5.6,44.8,5.5c5,0,6.7-1.8,6.6-4.5C1053.4,698.4,1051.5,699.4,1047.8,699.5z"/>
	<path class="st34" d="M698.4,475.9c0,2.8-8.8,6.1-19.7,6.1s-19.7-3.3-19.7-6.1s8.8-4.1,19.7-4.1S698.4,473,698.4,475.9z"/>
	<path class="st6" d="M698.4,475.9c0,2.8-8.8,6.1-19.7,6.1s-19.7-3.3-19.7-6.1s8.8-4.1,19.7-4.1S698.4,473,698.4,475.9z"/>
	<ellipse class="st34" cx="678.7" cy="475.9" rx="19.7" ry="5.1"/>
	<ellipse class="st6" cx="678.7" cy="475.9" rx="11.2" ry="2.9"/>
	<path class="st36" d="M694.8,469.8c-1.4,2.6-4.1,4.3-7.1,4.5c-1.2,0.1-2.3,0-3.4-0.2l1.4-2c0.9,0.2,1.8,0.2,2.6,0
		c1.5-0.3,2.7-1.2,3.5-2.6c1.4-2.5-0.4-2.9-1.6-2.9c-0.3,0-0.5,0-0.8,0l1.1-1.6c0,0,0.4-0.1,1.1-0.1
		C693.6,464.8,697.6,465,694.8,469.8z"/>
	<path class="st36" d="M686.1,476.7c-5,1.6-10.3,1.6-15.2,0l0.1-0.8l0.1-0.6l14.8-0.2l0.1,0.9L686.1,476.7z"/>
	<path class="st6" d="M688.3,472c-0.1,0.8-0.3,1.5-0.5,2.3c-1.2,0.1-2.3,0-3.4-0.2l1.4-2C686.5,472.2,687.4,472.2,688.3,472z"/>
	<path class="st6" d="M691.5,464.9c-0.1,0.2-0.3,0.4-0.4,0.6l-0.1,0.1c-0.3,0.3-0.6,0.6-0.9,1c-0.3,0-0.5,0-0.8,0l1.1-1.6
		C690.4,465,690.8,464.9,691.5,464.9z"/>
	<path class="st6" d="M686,476.1c-2.6,1-12.5,1.2-15-0.2l0.1-0.6l14.8-0.2L686,476.1z"/>
	<path class="st36" d="M690.8,465.5l-0.1,0.1c-1.4,1.3-2.3,3.1-2.5,5c-0.5,4.4-1.4,4.8-1.5,5c-0.8,1.3-14,1.8-16,0
		c-1.6-1.5-3.2-4.8-2.5-6.7c0.4-1-0.4-2.1-1.3-2.9c-1.1-1-0.7-2.5,0.9-3.2c3.8-1.7,10.4-1.7,10.4-1.7c5.7-0.3,9.3,0.5,11.5,1.3
		l0.3,0.1c0.6,0.2,1,0.7,1.3,1.3C691.5,464.3,691.3,465,690.8,465.5z"/>
	<ellipse class="st6" cx="678.5" cy="465" rx="10" ry="1.6"/>
	<ellipse class="st48" cx="678.5" cy="465.2" rx="10" ry="1.6"/>
	<path class="st49" d="M680.6,464.2c0,0-7.2,0.2-7,1.9C675.8,465.1,678.1,464.5,680.6,464.2z"/>
	<path class="st49" d="M682.6,464.7c0,0-4.3,0-3.6,1.5c0,0,1-0.1,0.9-0.5s2.8-0.8,2.8-0.8V464.7z"/>
	<path class="st37" d="M667.3,464.2c0,0-0.3,3,11,2.9s11.2-2.2,11.3-2.9H689c0,0-0.1,2.5-10.5,2.4s-10.7-2.4-10.7-2.4H667.3z"/>
	<path class="st6" d="M691.3,463.7l-6.8,2.5c-0.3,0.1-0.6,0.1-0.8-0.1l-0.1-0.1c-0.3-0.3-0.2-0.7,0.2-0.8l6.2-2.7
		C690.6,462.7,691,463.1,691.3,463.7z"/>
	<path class="st34" d="M683.8,465l17.6-7.7c0.4-0.2,0.9-0.3,1.3-0.3c0.9,0,2.2,0.1,1.7,1.1c-0.3,0.5-0.7,0.9-1.3,1.1l-18.7,6.8
		c-0.3,0.1-0.6,0.1-0.8-0.1l-0.1-0.1C683.2,465.6,683.3,465.2,683.8,465z"/>
	<path class="st6" d="M683.8,465l17.6-7.7c0.4-0.2,0.9-0.3,1.3-0.3c0.9,0,2.2,0.1,1.7,1.1c-0.3,0.5-0.7,0.9-1.3,1.1l-18.7,6.8
		c-0.3,0.1-0.6,0.1-0.8-0.1l-0.1-0.1C683.2,465.6,683.3,465.2,683.8,465z"/>
	<path class="st34" d="M683.8,464.9l17.6-7.7c0.4-0.2,0.9-0.3,1.3-0.3c0.9,0,2.2,0.1,1.7,1.1c-0.3,0.5-0.7,0.9-1.3,1.1l-18.7,6.8
		c-0.3,0.1-0.6,0.1-0.8-0.1l-0.1-0.1C683.2,465.5,683.3,465.1,683.8,464.9z"/>
	<path class="st6" d="M682.8,465.1c0,0,1.9-0.3,1.6,0.1s0.8,0.8,0.8,0.8c-0.7,0.1-1.5,0.2-2.2,0.1
		C682.7,465.9,682.8,465.1,682.8,465.1z"/>
	<path class="st48" d="M682.6,465.2c0,0,1.9-0.3,1.6,0.1s0.8,0.8,0.8,0.8c-0.7,0.1-1.5,0.2-2.2,0.1
		C682.6,465.9,682.6,465.2,682.6,465.2z"/>
	<path class="st50" d="M679.7,451.7c-0.8,0.5-1.4,1.3-1.7,2.2c-0.1,0.7-0.1,1.5,0.1,2.2c0.1,0.5,0.2,1,0.4,1.5
		c0.1,0.3,0.4,0.6,0.6,0.4c0-0.7-0.2-1.4-0.2-2.1c0.1-0.8,0.4-1.5,0.9-2.1c0.5-0.6,0.9-1.2,1.3-1.8c0.1-0.3,0.7-3-0.1-2.6
		c-0.2,0.1-0.3,1-0.5,1.2C680.3,451.1,680,451.5,679.7,451.7z"/>
	<path class="st50" d="M680,456.3c0.1,0.3,0.4,0.5,0.5,0.7c0.1,0.1,0.1,0.3,0.1,0.5c0.2,0.8,0,1.6-0.5,2.3c0.6-0.2,1.1-0.6,1.3-1.2
		c0.1-0.3,0.1-0.5,0.2-0.8c0-0.3,0-0.5,0-0.8c0-0.4,0.2-1.4-0.5-1.6c-0.5-0.1-0.9,0.1-1,0.6C680,456.1,680,456.2,680,456.3z"/>
	<path class="st6" d="M668.3,468.3c0,0,0.8,0.9,3.2,1c-1.1,0.1-2.3,0-3.4-0.3L668.3,468.3z"/>
	<polygon class="st28" points="438.9,614.1 475.9,614 463.7,633.3 439.9,645.4 	"/>
</g>
<g id="Layer_2">
	<rect x="-4.1" y="-6" class="st51" width="1129.3" height="806.9"/>
</g>
</svg>
