<?xml version="1.0" encoding="utf-8"?>
<!-- Generator: Adobe Illustrator 23.0.1, SVG Export Plug-In . SVG Version: 6.00 Build 0)  -->
<svg version="1.1" xmlns="http://www.w3.org/2000/svg" xmlns:xlink="http://www.w3.org/1999/xlink" x="0px" y="0px"
	 viewBox="0 0 746.7 798.4" style="enable-background:new 0 0 746.7 798.4;" xml:space="preserve">
<style type="text/css">
	.st0{opacity:0.1;enable-background:new    ;}
	.st1{fill:#F2F2F2;}
	.st2{fill:#3F3D56;}
	.st3{fill:#4DA9A8;}
	.st4{fill:none;stroke:#4DA9A8;stroke-width:2;stroke-miterlimit:10;}
	.st5{fill:#FF6584;}
	.st6{fill:#2F2E41;}
	.st7{fill:#FFFFFF;}
	.st8{fill:#83B93B;}
	.st9{fill:none;stroke:#83B93B;stroke-width:2;stroke-miterlimit:10;}
	.st10{fill:#FFB9B9;}
	.st11{fill:none;stroke:#FFB9B9;stroke-miterlimit:10;}
	.st12{opacity:0.4;fill:#FFFFFF;enable-background:new    ;}
</style>
<g id="b553d18a-ef41-49ec-add9-245f590c86f0">
	<title>different love</title>
	<path class="st0" d="M746.4,656.9c0,7.1-161.7,45.7-361.2,45.7S24,664,24,656.9c0-7.1,161.7,4.7,361.2,4.7S746.4,649.7,746.4,656.9
		z"/>
	<circle class="st1" cx="399.3" cy="347" r="347"/>
	<path class="st2" d="M746.4,656.9c0,7.1-161.7,45.7-361.2,45.7S24,664,24,656.9c0-7.1,161.7,4.7,361.2,4.7S746.4,649.7,746.4,656.9
		z"/>
	<ellipse class="st3" cx="385.2" cy="656.9" rx="361.2" ry="12.9"/>
	<line class="st4" x1="730.3" y1="653.3" x2="730.3" y2="537.3"/>
	<circle class="st3" cx="730.3" cy="537.3" r="16.4"/>
	<path class="st3" d="M730.3,608.8c0,0-2.3-50.4-50.4-44.6"/>
	<line class="st4" x1="66.8" y1="662" x2="66.8" y2="280"/>
	<circle class="st3" cx="66.8" cy="279.8" r="16.4"/>
	<circle class="st3" cx="16.4" cy="560" r="16.4"/>
	<path class="st3" d="M66.8,363.7c0,0-2.3-50.4-50.4-44.6"/>
	<path class="st3" d="M66.8,506.7c0,0-2.3-50.4-50.4-44.6"/>
	<path class="st4" d="M66.8,657.5c0,0,10.6-92.8-50.4-97.5"/>
	<circle class="st3" cx="117.3" cy="560" r="16.4"/>
	<path class="st4" d="M66.8,657.5c0,0-10.6-92.8,50.4-97.5"/>
	<path class="st4" d="M67.8,503.5c0,0-10.6-92.8,50.4-97.5"/>
	<circle class="st3" cx="118.3" cy="406" r="16.4"/>
	<line class="st4" x1="604" y1="651" x2="604" y2="418.8"/>
	<circle class="st3" cx="604" cy="418.8" r="16.4"/>
	<path class="st3" d="M604,485.7c0,0,2.3-50.4,50.4-44.6"/>
	<path class="st4" d="M604,646.5c0,0-10.6-92.8,50.4-97.5"/>
	<circle class="st3" cx="654.4" cy="549" r="16.4"/>
	<circle class="st5" cx="584.3" cy="178" r="64"/>
	<circle class="st6" cx="478.7" cy="543.9" r="79"/>
	<rect x="490.7" y="605.9" class="st6" width="24" height="43"/>
	<rect x="442.7" y="605.9" class="st6" width="24" height="43"/>
	<ellipse transform="matrix(0.866 -0.5 0.5 0.866 -266.4642 312.4148)" class="st6" cx="449.7" cy="653.4" rx="20" ry="7.5"/>
	<ellipse transform="matrix(0.866 -0.5 0.5 0.866 -260.1674 335.9148)" class="st6" cx="496.7" cy="653.4" rx="20" ry="7.5"/>
	<circle class="st7" cx="476.7" cy="523.9" r="27"/>
	<circle class="st2" cx="467.5" cy="512.4" r="9"/>
	<path class="st8" d="M555.4,470.5c6.4-28.6-14-57.4-45.5-64.5s-62.3,10.4-68.6,39s14.5,39.1,46.1,46.1S549,499,555.4,470.5z"/>
	
		<ellipse transform="matrix(0.3935 -0.9193 0.9193 0.3935 -226.7067 689.9295)" class="st6" cx="409.5" cy="516.8" rx="12.4" ry="39.5"/>
	
		<ellipse transform="matrix(0.3935 -0.9193 0.9193 0.3935 -185.6663 858.1365)" class="st6" cx="557.5" cy="569.8" rx="12.4" ry="39.5"/>
	<path class="st7" d="M494.5,578.4c0,9.9-8.1,18-18,18s-18-8.1-18-18c0-9.9,8.1-12,18-12S494.5,568.5,494.5,578.4z"/>
	<line class="st9" x1="384.6" y1="520.3" x2="384.6" y2="404.3"/>
	<circle class="st8" cx="384.6" cy="404.3" r="16.4"/>
	<path class="st8" d="M384.6,475.8c0,0-2.3-50.4-50.4-44.6"/>
	<path class="st6" d="M230.2,440.9l6.4,15h5.6l-8-38c0-24.4-11.8-45-36.2-45h0c-17,0-30.8,13.8-30.8,30.8V441
		c0,8.2,6.7,14.9,14.9,14.9h43.7L230.2,440.9z"/>
	<path class="st6" d="M256.8,591.7c0,0,83-10,93,8s3,33-10,42s-85,50-85,50l-6,10l-13-2l-13-12l6-11c0,0,50-30,51-38
		c0,0-46,21-51,17s-61-23-52-34s32-27,32-27L256.8,591.7z"/>
	<path class="st0" d="M256.8,591.7c0,0,83-10,93,8s3,33-10,42s-85,50-85,50l-6,10l-13-2l-13-12l6-11c0,0,50-30,51-38
		c0,0-46,21-51,17s-61-23-52-34s32-27,32-27L256.8,591.7z"/>
	<path class="st6" d="M245.8,692.7c0,0,15-3,12,7s-5,30,0,35s21,27,5,29s-33-18-33-18s-11-32-19-35s-16-15-12-18s28-22,30-21
		s1,12,1,12S237.8,696.7,245.8,692.7z"/>
	<path class="st10" d="M247.3,479.2l37,26c0,0,28-29,28-46s15-49,22-36s-8,44-8,44l-28,66c0,0-16,3-25-4s-34-21-34-21L247.3,479.2z"
		/>
	<circle class="st10" cx="210.8" cy="407.7" r="28"/>
	<path class="st10" d="M225.3,427.2c0,0-10,26-6,32s9,6,13,8c2,1,23,9,23,15c-0.1,3.9-1.1,7.6-3,11l-3,17l-25,16l-33-4l-25-14
		c0,0-4-37,7-43s24-20,23-25s-2-17-2-17L225.3,427.2z"/>
	<path class="st8" d="M267.3,489.2c0,0-15,15-15,17s10,11,3,23s-7,42-7,42l-24,5l-45-4l-7-69c0,0,18,3,22,6c4,3,15-4,23-4s31-4,31-4
		l-2-8l8-14L267.3,489.2z"/>
	<path class="st11" d="M270.8,595.7"/>
	<path class="st6" d="M210.8,595.7c0,0,101-45,109-16s9,99,9,99s5,48,11,53s0,20,0,20l-15,5l-14-6l-6-16c0,0-2-36-10-54s-8-60-7-62
		c0,0-39,48-77,45s-43.5-11.5-43.5-11.5S185.8,595.7,210.8,595.7z"/>
	<path class="st6" d="M333.8,736.7c0,0,4-14,13-3s50,28,51,30s19,13-2,28s-49,0-49,0s-24-8-30-7s-18-5-19-10s1.4-49,6.7-44.5
		s11.3,16.5,11.3,16.5S335.8,751.7,333.8,736.7z"/>
	<path class="st6" d="M244.8,568.7c0,0,5.5-0.5,4.5,12.5c0,0-34.5,10.5-40.5,19.5s-32,36-36,55c0,0-29-7-13-57l18.8-40.8
		C178.7,557.9,189.8,580.7,244.8,568.7z"/>
	<path class="st10" d="M221.3,593l-34-14.8c0,0-16-33-16-49c-0.2-9.2-0.9-18.4-2.1-27.5c-1.5-11.7,2.8-23.3,11.6-31.1
		c3.5-3.1,7.5-5.3,11.6-5.3c0,0,12,22,10,42c-2,20,3,50,3,50l45.2,24.2"/>
	<path class="st0" d="M221.3,593l-34-14.8c0,0-16-33-16-49c0-8.3,35-33,33-13c-2,20,1,41,1,41l45.2,24.2"/>
	<path class="st8" d="M205.3,514.2l-3.2,13.5l-17.8,8.5h-15l-7-32c0,0,12.4-2.6,18.7,0.7s21.2,4.1,21.2,4.1L205.3,514.2z"/>
	<path class="st6" d="M221.9,374.2c-5.4-1.4-18.3-1.3-20.2-1.3c-19.1,0-34.5,15.5-34.5,34.5c0,0,0,0,0,0l-13,48.5h25.3l4.7-18
		l6.7,18h12.7l1.1-10.8l4.3,10.8h14.2c-10.6-24-16.3-46-2.3-59.5c9.4,1.3,17.4-1.2,18.7-6.4C241.1,384.1,233.2,377,221.9,374.2z"/>
</g>
<g id="Layer_2">
	<g>
		<rect class="st12" width="751" height="803"/>
	</g>
</g>
</svg>
