<?xml version="1.0" encoding="utf-8"?>
<!-- Generator: Adobe Illustrator 23.0.1, SVG Export Plug-In . SVG Version: 6.00 Build 0)  -->
<svg version="1.1" xmlns="http://www.w3.org/2000/svg" xmlns:xlink="http://www.w3.org/1999/xlink" x="0px" y="0px"
	 viewBox="0 0 1046.3 851.8" style="enable-background:new 0 0 1046.3 851.8;" xml:space="preserve">
<style type="text/css">
	.st0{opacity:0.1;fill:#83B93B;enable-background:new    ;}
	.st1{opacity:0.1;fill:#6A9A30;enable-background:new    ;}
	.st2{opacity:0.35;}
	.st3{opacity:0.2;fill:#1C3ED3;enable-background:new    ;}
	.st4{fill:none;stroke:#535461;stroke-width:2;stroke-miterlimit:10;}
	.st5{fill:#47701D;}
	.st6{fill:#1C3ED3;}
	.st7{opacity:0.25;fill:#00B6DF;enable-background:new    ;}
	.st8{opacity:0.25;enable-background:new    ;}
	.st9{fill:#8BC43E;}
	.st10{fill:#6A9A30;}
	.st11{opacity:0.1;enable-background:new    ;}
	.st12{fill:#FFD037;}
	.st13{fill:#83B93B;}
	.st14{fill:#687C4A;}
	.st15{fill:url(#SVGID_1_);}
	.st16{fill:#F6F7F9;}
	.st17{fill:#E8F6D0;}
	.st18{fill:url(#SVGID_2_);}
	.st19{fill:url(#SVGID_3_);}
	.st20{fill:url(#SVGID_4_);}
	.st21{fill:url(#SVGID_5_);}
	.st22{fill:url(#SVGID_6_);}
	.st23{fill:url(#SVGID_7_);}
	.st24{fill:#2D293D;}
	.st25{fill:#005163;}
	.st26{opacity:5.000000e-02;enable-background:new    ;}
	.st27{opacity:5.000000e-02;}
	.st28{fill:#FFCDD3;}
	.st29{fill:#DCE6F2;}
	.st30{fill:#575988;}
	.st31{opacity:0.1;}
	.st32{opacity:0.4;fill:#FFFFFF;}
</style>
<g id="Layer_1">
	<title>taking notes</title>
	<ellipse class="st0" cx="632.9" cy="833.9" rx="106.9" ry="17.9"/>
	<path class="st1" d="M628.4,105.3c-43.8,37.1-100.6,34.7-150.3,15.4s-95.5-53.7-144-78.2c-39.7-20.2-82.4-33.7-126.5-40
		c-61.8-8.5-130.8,2-173.8,62c-48,66.9-44.3,187.4,7.6,248.9c26.4,31.2,60.9,46.5,91,70.9s58,64.8,55.4,111.9
		c-2.4,43.6-30,77-58.6,98c-22.1,16.2-49.3,33.9-52,67.5c-2.6,32.5,20.3,57.9,42.1,72.4c71.2,47.2,159,46.8,230-1.2
		c25.3-17.1,48.6-39.9,75.2-53.2c69.7-35,146.6,0.2,220.4,13.1c62.5,10.9,126.6,5.3,187.5-16.5c36.6-13.1,73.3-33.1,99-70.3
		c18.5-26.9,30.1-60.9,40.9-94.5c11.6-35.8,22.7-71.9,33.3-108.2c6.4-21.8,12.7-44,14.3-67.3c3-42.3-9.6-84-26.8-119.7
		C952.4,131.5,883.7,71.9,809.4,56.8s-153.1,14.4-210.8,79.1"/>
	<g class="st2">
		<path class="st3" d="M501,204v-6.6H396.2c-4.8,0-1.9,6.7-1.9,6.7h-56.9v149.1h250V204H501z"/>
	</g>
	<path class="st4" d="M833.4,315.3c0,0,31.5-55.8,79-71.9c19.9-6.6,37.2-19.5,49.2-36.8c5.6-8.2,10.5-17,14.5-26.1"/>
	<g>
		<path class="st5" d="M1005.9,170.2c-5.4,5.3-30.6,10.7-30.6,10.7s6.2-25,11.6-30.3c5.4-5.2,14-5.1,19.3,0.3
			C1011.4,156.3,1011.3,164.9,1005.9,170.2L1005.9,170.2z"/>
		<path class="st5" d="M991.7,215.4c-7.4,1.5-31.5-7.7-31.5-7.7s18.8-17.6,26.2-19.1s14.6,3.3,16,10.7
			C1003.9,206.7,999.1,213.9,991.7,215.4L991.7,215.4L991.7,215.4z"/>
		<path class="st5" d="M939.8,264.4c-7.1-2.5-23.3-22.5-23.3-22.5s25.1-5.8,32.2-3.3c7.1,2.5,10.9,10.2,8.4,17.4
			C954.7,263.1,946.9,266.9,939.8,264.4L939.8,264.4z"/>
		<path class="st5" d="M892.2,292.6c-7.4-1.2-26.8-18.2-26.8-18.2s23.8-9.9,31.2-8.7c7.4,1.2,12.5,8.3,11.2,15.7
			C906.7,288.8,899.6,293.9,892.2,292.6L892.2,292.6z"/>
		<path class="st5" d="M939.2,188.2c0,7.5,13.6,29.4,13.6,29.4s13.7-21.8,13.7-29.4c0.2-7.5-5.7-13.8-13.3-14
			c-7.5-0.2-13.8,5.7-14,13.3C939.2,187.7,939.2,188,939.2,188.2L939.2,188.2z"/>
		<path class="st5" d="M884,221.9c2.3,7.2,21.8,24,21.8,24s6.5-24.9,4.2-32.1c-1.9-7.3-9.3-11.7-16.6-9.8s-11.7,9.3-9.8,16.6
			C883.7,221.1,883.8,221.5,884,221.9L884,221.9z"/>
	</g>
	<path class="st6" d="M834.8,262c1,7.5,17.4,27.3,17.4,27.3s10.6-23.5,9.6-30.9c-0.5-7.5-7-13.2-14.6-12.7
		c-7.5,0.5-13.2,7-12.7,14.6C834.6,260.9,834.7,261.5,834.8,262L834.8,262z"/>
	<g>
		<path class="st7" d="M1005.4,170.2c-5.4,5.3-30.6,10.7-30.6,10.7s6.2-25,11.6-30.3c5.4-5.2,14-5.1,19.3,0.3
			C1010.9,156.3,1010.8,164.9,1005.4,170.2L1005.4,170.2z"/>
		<path class="st7" d="M991.1,215.4c-7.4,1.5-31.5-7.7-31.5-7.7s18.8-17.6,26.2-19.1s14.6,3.3,16,10.7
			C1003.3,206.7,998.5,213.9,991.1,215.4L991.1,215.4L991.1,215.4z"/>
		<path class="st7" d="M939.3,264.4c-7.1-2.5-23.3-22.5-23.3-22.5s25.1-5.8,32.2-3.3c7.1,2.5,10.9,10.2,8.4,17.4
			C954.1,263.1,946.4,266.9,939.3,264.4L939.3,264.4z"/>
		<path class="st7" d="M891.7,292.6c-7.4-1.2-26.8-18.2-26.8-18.2s23.8-9.9,31.2-8.7c7.4,1.2,12.5,8.3,11.2,15.7
			C906.1,288.8,899.1,293.9,891.7,292.6L891.7,292.6z"/>
		<path class="st7" d="M938.6,188.2c0,7.5,13.6,29.4,13.6,29.4s13.7-21.8,13.7-29.4c0.2-7.5-5.7-13.8-13.3-14
			c-7.5-0.2-13.8,5.7-14,13.3C938.6,187.7,938.6,188,938.6,188.2L938.6,188.2z"/>
		<path class="st7" d="M883.4,221.9c2.3,7.2,21.8,24,21.8,24s6.5-24.9,4.2-32.1c-1.9-7.3-9.3-11.7-16.6-9.8s-11.7,9.3-9.8,16.6
			C883.2,221.1,883.3,221.5,883.4,221.9L883.4,221.9z"/>
	</g>
	<path class="st8" d="M834.8,262c1,7.5,17.4,27.3,17.4,27.3s10.6-23.5,9.6-30.9c-0.5-7.5-7-13.2-14.6-12.7
		c-7.5,0.5-13.2,7-12.7,14.6C834.6,260.9,834.7,261.5,834.8,262L834.8,262z"/>
	<path class="st4" d="M835.2,314.2c0,0,6.2-63.8,43-97.7c15.6-14.1,26.1-32.9,30-53.6c1.8-9.8,2.7-19.8,2.7-29.8"/>
	<g>
		<path class="st9" d="M934.1,111.6c-2.8,7-23.6,22.2-23.6,22.2s-4.5-25.4-1.7-32.4s10.8-10.4,17.8-7.6
			C933.6,96.7,936.9,104.6,934.1,111.6L934.1,111.6z"/>
		<path class="st9" d="M939.4,158.8c-6.2,4.3-31.9,5.8-31.9,5.8s10-23.7,16.2-28.1c6.2-4.3,14.7-2.9,19,3.3S945.6,154.4,939.4,158.8
			z"/>
		<path class="st9" d="M911.9,224.5c-7.5,0.6-30.4-11.1-30.4-11.1s20.6-15.4,28.1-16.1c7.5-0.6,14.1,4.9,14.7,12.5
			C924.9,217.3,919.4,223.9,911.9,224.5L911.9,224.5z"/>
		<path class="st9" d="M879.8,269.6c-7.3,1.9-31.9-5.8-31.9-5.8s17.7-18.7,25-20.6c7.3-1.9,14.7,2.5,16.6,9.8
			C891.4,260.3,887.1,267.7,879.8,269.6L879.8,269.6z"/>
		<path class="st9" d="M880.4,155.1c3,6.9,24.4,21.3,24.4,21.3s3.6-25.5,0.6-32.4c-3-6.9-11.1-10-18-7S877.4,148.2,880.4,155.1
			L880.4,155.1z"/>
		<path class="st9" d="M843.6,208.4c5,5.7,29.6,13.1,29.6,13.1s-4.2-25.4-9.1-31.1c-5-5.7-13.6-6.2-19.3-1.3
			C839.2,194.1,838.6,202.7,843.6,208.4L843.6,208.4z"/>
	</g>
	<path class="st6" d="M814.9,265c4,6.4,27,17.9,27,17.9s0.3-25.8-3.8-32.2c-4.1-6.3-12.5-8.2-18.9-4.1
		C813.1,250.5,811.2,258.6,814.9,265L814.9,265z"/>
	<path class="st4" d="M153.5,572.3c0,0-39-48.3-36.5-96.8c1.2-20.3-4.3-40.5-15.6-57.5c-5.4-8-11.5-15.5-18.3-22.4"/>
	<path class="st6" d="M154.1,511.2c-3.8,6.3-26,17.6-26,17.6s-0.4-25,3.3-31.2c3.8-6.2,12-8.1,18.2-4.3
		C155.7,497,157.7,505,154.1,511.2z"/>
	<g>
		<path class="st10" d="M84.4,365c2.8,6.8-1.3,31.4-1.3,31.4S62.8,381.9,60,375.1c-2.8-6.7,0.4-14.5,7.2-17.3S81.6,358.3,84.4,365
			L84.4,365z"/>
		<path class="st10" d="M120.1,394c-1.3,7.2-18.1,25.6-18.1,25.6s-9.2-23.2-7.9-30.4c1.2-7.2,8.1-12,15.3-10.8
			c7.2,1.2,12,8.1,10.8,15.3C120.2,393.8,120.2,393.9,120.1,394z"/>
		<path class="st10" d="M145.7,458.2c-4.8,5.5-28.6,13-28.6,13s3.8-24.7,8.6-30.2c5-5.3,13.4-5.6,18.7-0.6
			C149.3,445.1,149.9,452.8,145.7,458.2L145.7,458.2z"/>
		<path class="st10" d="M76.8,431.6c6.8,2.7,31.4-1.8,31.4-1.8S93.4,409.7,86.6,407c-6.9-2.5-14.5,1-17,7.9
			C67.2,421.5,70.4,428.8,76.8,431.6z"/>
		<path class="st10" d="M87.5,493.4c7.3,0.5,29.4-11.1,29.4-11.1S96.7,467.6,89.4,467c-7.3-0.6-13.6,4.9-14.2,12.2
			S80.1,492.8,87.5,493.4L87.5,493.4z"/>
		<path class="st10" d="M106,552c7.1,1.8,30.8-6,30.8-6s-17.4-17.9-24.4-19.6c-7.1-1.8-14.3,2.5-16,9.6
			C94.6,543.1,98.9,550.3,106,552L106,552z"/>
	</g>
	<path class="st11" d="M986.6,653.4c0.7,1,1.2,2,1.6,3.1c13.4,15.7,20.5,30.3,7.6,30.7c-12,0.3-26.3,21.7-29.8,27.1
		c0.1,0.4,0.3,0.8,0.4,1.2c0,0,16.8-28,30.5-28.4S1001.7,670.2,986.6,653.4z"/>
	<path class="st12" d="M1000.8,666.1c0,3.5-0.4,6.4-0.9,6.4s-0.9-2.8-0.9-6.4s0.5-1.8,1-1.8S1000.8,662.6,1000.8,666.1z"/>
	<path class="st12" d="M1005.7,670.3c-3.1,1.7-5.8,2.7-6,2.3s2.1-2.1,5.2-3.8s1.9-0.5,2.1,0S1008.8,668.6,1005.7,670.3z"/>
	<g>
		<path class="st13" d="M986.6,653.4c0,0,7.6,10-3.5,25s-20.3,27.8-16.6,37.2c0,0,16.8-28,30.5-28.4S1001.7,670.2,986.6,653.4z"/>
		<path class="st13" d="M946.3,653.4c0,0-7.6,10,3.5,25s20.3,27.8,16.6,37.2c0,0-16.8-28-30.5-28.4S931.3,670.2,946.3,653.4z"/>
	</g>
	<path class="st11" d="M946.3,653.4c-0.7,1-1.2,2-1.6,3.1c-13.4,15.7-20.5,30.3-7.6,30.7c12,0.3,26.3,21.7,29.8,27.1
		c-0.1,0.4-0.3,0.8-0.4,1.2c0,0-16.8-28-30.5-28.4S931.3,670.2,946.3,653.4z"/>
	<path class="st12" d="M932.1,666.1c0,3.5,0.4,6.4,0.9,6.4s0.9-2.8,0.9-6.4s-0.5-1.8-1-1.8S932.1,662.6,932.1,666.1z"/>
	<path class="st12" d="M927.3,670.3c3.1,1.7,5.8,2.7,6,2.3s-2.1-2.1-5.2-3.8s-1.9-0.5-2.1,0S924.2,668.6,927.3,670.3z"/>
	<ellipse class="st0" cx="966.5" cy="779.7" rx="79.8" ry="12.2"/>
	<path class="st14" d="M1007.5,702.2l-0.4,3.1l-0.5,4.4l-0.2,1.8l-0.5,4.4l-0.2,1.8l-0.5,4.4l-6.1,50c-0.5,4.5-7.8,8-16.7,8h-31.7
		c-8.8,0-16.1-3.5-16.7-8l-6.1-50l-0.5-4.4l-0.2-1.8l-0.5-4.4l-0.2-1.8l-0.5-4.4l-0.4-3.1c-0.3-2.5,3.7-4.7,8.6-4.7h64.9
		C1003.9,697.5,1007.8,699.6,1007.5,702.2z"/>
	<polygon class="st13" points="1007.2,705.3 1006.6,709.7 926.3,709.7 925.8,705.3 	"/>
	<polygon class="st13" points="1006.4,711.5 1005.9,715.9 927.1,715.9 926.5,711.5 	"/>
	<polygon class="st13" points="1005.6,717.8 1005.1,722.1 927.9,722.1 927.3,717.8 	"/>
	
		<linearGradient id="SVGID_1_" gradientUnits="userSpaceOnUse" x1="847.47" y1="-274.4901" x2="847.47" y2="-483.89" gradientTransform="matrix(1 0 0 1 -76.87 646.39)">
		<stop  offset="0" style="stop-color:#808080;stop-opacity:0.25"/>
		<stop  offset="0.54" style="stop-color:#808080;stop-opacity:0.12"/>
		<stop  offset="1" style="stop-color:#808080;stop-opacity:0.1"/>
	</linearGradient>
	<path class="st15" d="M803.7,186h-0.8c1.3-1.5,2-3,1.9-4.3l-7.6-7.6l2.9-6.5h-9.8l1.8-5.1h-5.8l-64.1,21.3c0,0-0.1,0.9,0,2.2H681
		v185.9h179.2V186H803.7z"/>
	<rect x="682.3" y="186.6" class="st16" width="176.5" height="183.2"/>
	<path class="st11" d="M803.2,186.6c-8.4,12.3-64.2,28.5-64.2,28.5l0.3-12.8H729c0.6-2.5-0.6-5.2-2.9-6.4c-3-1.6-3.3-7-3.3-9.3
		H803.2z"/>
	<path class="st17" d="M786,163.4l-63.1,21c0,0-0.7,8.2,3.2,10.3c2.3,1.3,3.4,3.9,2.9,6.4h10.3L739,214c0,0,66.3-19.3,65.2-31.7
		l-7.5-7.5l2.8-6.4H790l1.8-5L786,163.4z"/>
	<g class="st2">
		<rect x="714.9" y="246" class="st3" width="111.2" height="3.1"/>
	</g>
	<g class="st2">
		<rect x="714.9" y="262.5" class="st3" width="111.2" height="3.1"/>
	</g>
	<g class="st2">
		<rect x="714.9" y="278.9" class="st3" width="111.2" height="3.1"/>
	</g>
	<g class="st2">
		<rect x="714.9" y="295.3" class="st3" width="111.2" height="3.1"/>
	</g>
	<g class="st2">
		<rect x="714.9" y="311.8" class="st3" width="111.2" height="3.1"/>
	</g>
	<g class="st2">
		<rect x="714.9" y="328.2" class="st3" width="111.2" height="3.1"/>
	</g>
	
		<linearGradient id="SVGID_2_" gradientUnits="userSpaceOnUse" x1="271.57" y1="-276.9901" x2="271.57" y2="-498.89" gradientTransform="matrix(1 0 0 1 -76.87 646.39)">
		<stop  offset="0" style="stop-color:#808080;stop-opacity:0.25"/>
		<stop  offset="0.54" style="stop-color:#808080;stop-opacity:0.12"/>
		<stop  offset="1" style="stop-color:#808080;stop-opacity:0.1"/>
	</linearGradient>
	<path class="st18" d="M205.8,170.9h-0.4c3.2-8.1,6.1-16,6-17.5c-0.3-3-6.3,3.5-6.6,1.9s0-7.8-2.7-7.8s-4.4,3.2-6,3.2
		s-8.2-1.1-8.2-1.1l-8.4,21.3h-63.2v198.5h156.8V170.9H205.8z"/>
	<rect x="118" y="172" class="st16" width="153.3" height="196.1"/>
	<path class="st11" d="M205.6,172c-3.2,8.4-6.9,17.2-7.7,19.3c-1.6,4-2.7,1.9-4.5,1.3s-4.3,0.5-5.3,0s-7.4,0-7.4,0
		c0.1-1,0.1-2,0-2.9c-0.1-1.1-7.4,0-7.4,0l6.9-17.7L205.6,172L205.6,172z"/>
	<path class="st17" d="M188,151l-14.7,37.7c0,0,7.2-1.1,7.4,0c0.1,1,0.1,2,0,2.9c0,0,6.3-0.5,7.4,0s3.5-0.5,5.3,0s2.9,2.7,4.5-1.3
		s13.4-32.6,13.1-35.6s-6.1,3.5-6.4,1.9s0-7.7-2.7-7.7s-4.3,3.2-5.9,3.2S188,151,188,151z"/>
	<g class="st2">
		<rect x="139" y="224" class="st3" width="111.2" height="3.1"/>
	</g>
	<g class="st2">
		<rect x="139" y="235.8" class="st3" width="111.2" height="3.1"/>
	</g>
	<g class="st2">
		<rect x="139" y="247.6" class="st3" width="111.2" height="3.1"/>
	</g>
	<g class="st2">
		<rect x="139" y="259.3" class="st3" width="111.2" height="3.1"/>
	</g>
	<g class="st2">
		<rect x="139" y="271.1" class="st3" width="111.2" height="3.1"/>
	</g>
	<g class="st2">
		<rect x="139" y="282.9" class="st3" width="111.2" height="3.1"/>
	</g>
	
		<linearGradient id="SVGID_3_" gradientUnits="userSpaceOnUse" x1="847.47" y1="62.91" x2="847.47" y2="-210.89" gradientTransform="matrix(1 0 0 1 -76.87 646.39)">
		<stop  offset="0" style="stop-color:#808080;stop-opacity:0.25"/>
		<stop  offset="0.54" style="stop-color:#808080;stop-opacity:0.12"/>
		<stop  offset="1" style="stop-color:#808080;stop-opacity:0.1"/>
	</linearGradient>
	<path class="st19" d="M784.3,464.4h-0.4c3.9-10,7.5-19.8,7.3-21.6c-0.3-3.7-7.7,4.3-8,2.3s0-9.6-3.3-9.6s-5.4,4-7.4,4
		s-10.1-1.3-10.1-1.3L752,464.4h-77.5v244.9h192.2V464.4H784.3z"/>
	<rect x="676.1" y="466.1" class="st16" width="188.9" height="241.6"/>
	<path class="st11" d="M783.9,466.1c-3.9,10.3-8.4,21-9.4,23.6c-2,4.9-3.3,2.3-5.6,1.7s-5.3,0.7-6.6,0s-9.1,0-9.1,0
		c0.1-1.2,0.1-2.4,0-3.6c-0.2-1.3-9.1,0-9.1,0l8.4-21.6h31.4V466.1z"/>
	<path class="st17" d="M762.3,440.2l-18.1,46.5c0,0,8.9-1.3,9.1,0c0.1,1.2,0.1,2.4,0,3.6c0,0,7.7-0.7,9.1,0s4.3-0.7,6.6,0
		s3.6,3.3,5.6-1.6s16.5-40.2,16.1-43.8s-7.6,4.3-7.9,2.3c-0.3-2,0-9.5-3.3-9.5s-5.3,3.9-7.3,3.9S762.3,440.2,762.3,440.2z"/>
	<g class="st2">
		<rect x="714.9" y="533.6" class="st3" width="111.2" height="7.9"/>
	</g>
	<g class="st2">
		<rect x="714.9" y="585.1" class="st3" width="111.2" height="7.9"/>
	</g>
	<g class="st2">
		<rect x="714.9" y="636.6" class="st3" width="111.2" height="7.9"/>
	</g>
	
		<linearGradient id="SVGID_4_" gradientUnits="userSpaceOnUse" x1="211.6" y1="33.7" x2="211.6" y2="-228.8" gradientTransform="matrix(1 0 0 1 0 672)">
		<stop  offset="0" style="stop-color:#808080;stop-opacity:0.25"/>
		<stop  offset="0.54" style="stop-color:#808080;stop-opacity:0.12"/>
		<stop  offset="1" style="stop-color:#808080;stop-opacity:0.1"/>
	</linearGradient>
	<polygon class="st20" points="238,472.8 238,443.2 196.5,443.2 196.5,472.8 109.8,472.8 109.8,705.7 313.4,705.7 313.4,472.8 	"/>
	<rect x="111.9" y="473.9" class="st16" width="199.3" height="230.3"/>
	<rect x="196.8" y="473.9" class="st11" width="40.6" height="31.4"/>
	<rect x="196.8" y="444.7" class="st17" width="40.6" height="59.5"/>
	<g class="st2">
		<rect x="156" y="529.6" class="st3" width="111.2" height="7.9"/>
	</g>
	<g class="st2">
		<rect x="156" y="545.4" class="st3" width="111.2" height="7.9"/>
	</g>
	<g class="st2">
		<rect x="156" y="561.2" class="st3" width="111.2" height="7.9"/>
	</g>
	<g class="st2">
		<rect x="156" y="577" class="st3" width="111.2" height="7.9"/>
	</g>
	<g class="st2">
		<rect x="237.4" y="594.5" class="st3" width="29.8" height="24.1"/>
	</g>
	<g class="st2">
		<rect x="156" y="624.3" class="st3" width="29.8" height="24.1"/>
	</g>
	
		<linearGradient id="SVGID_5_" gradientUnits="userSpaceOnUse" x1="570.67" y1="59.41" x2="570.67" y2="-201.3407" gradientTransform="matrix(1 0 0 1 -76.87 646.39)">
		<stop  offset="0" style="stop-color:#808080;stop-opacity:0.25"/>
		<stop  offset="0.54" style="stop-color:#808080;stop-opacity:0.12"/>
		<stop  offset="1" style="stop-color:#808080;stop-opacity:0.1"/>
	</linearGradient>
	<path class="st21" d="M523.9,472.4h-0.3c3.2-12.7,5.7-22.8,5.7-22.8l-13.8,6.5c0,0-9.8-13-13.4-10.8s-11.6,7.6-11.6,7.6l-10.6-5.4
		l-4,24.9h-83.6v179.9l5.4,3.2c4.4-1.6,11.7-4.3,11.7-4.3l-3.4,9.3l2.3,1.3l3.8-3.5l1.4,6.6l4.5,2.7l7.1-4.5l-2,7.7l6.7,4l19.5-7.3
		l-5.9,15.5l3.9,2.3l8.8-1.5c0,0-0.4,3.1-0.7,6.4l8.9,5.3c3.6-1.4,7-2.8,7-2.8s-0.3,3.4-0.5,6.7l5.9,3.6c4.7-2.7,10.7-6.5,10.7-6.5
		l-5,9.3h112.9V472.4H523.9z"/>
	<path class="st16" d="M593.2,473.9v230.3H482.5l4.9-9.2c0,0-5.8,3.7-10.5,6.4l-5.8-3.5c0.2-3.3,0.5-6.6,0.5-6.6s-3.4,1.4-6.9,2.8
		l-8.7-5.2c0.3-3.3,0.6-6.3,0.6-6.3L448,684l-3.8-2.3l5.8-15.3l-19.1,7.2l-6.6-4l1.9-7.6l-7,4.5l-4.4-2.7l-1.4-6.5l-3.7,3.4
		l-2.2-1.3l3.3-9.2c0,0-7.1,2.7-11.5,4.2l-5.3-3.2V473.9H593.2z"/>
	<g class="st2">
		<rect x="437.9" y="545.4" class="st3" width="111.2" height="7.9"/>
	</g>
	<g class="st2">
		<rect x="437.9" y="569.1" class="st3" width="111.2" height="7.9"/>
	</g>
	<g class="st2">
		<rect x="437.9" y="592.8" class="st3" width="111.2" height="7.9"/>
	</g>
	<g class="st2">
		<rect x="437.9" y="616.5" class="st3" width="22.3" height="7.9"/>
	</g>
	<path class="st11" d="M523,473.9c-5.4,21.4-13.3,51-15.4,50.5c-3.2-0.9-8.2-7-8.2-7s-11.8,11-17.5,5.3s-13.5-1.8-13.5-1.8l7.6-47
		L523,473.9z"/>
	<path class="st17" d="M479.8,449.4L468.4,520c0,0,7.8-3.9,13.5,1.8s17.5-5.4,17.5-5.4s5,6.1,8.2,7s20.7-71.9,20.7-71.9l-13.5,6.4
		c0,0-9.6-12.8-13.2-10.7c-3.6,2.1-11.4,7.5-11.4,7.5L479.8,449.4z"/>
	
		<linearGradient id="SVGID_6_" gradientUnits="userSpaceOnUse" x1="610.72" y1="-354.09" x2="610.72" y2="-511.79" gradientTransform="matrix(1 0 0 1 -76.87 646.39)">
		<stop  offset="0" style="stop-color:#808080;stop-opacity:0.25"/>
		<stop  offset="0.54" style="stop-color:#808080;stop-opacity:0.12"/>
		<stop  offset="1" style="stop-color:#808080;stop-opacity:0.1"/>
	</linearGradient>
	<path class="st22" d="M573,141.4v-6.8H466.9c-4.9,0-1.9,6.8-1.9,6.8h-57.7v150.9h253.1v-151L573,141.4z"/>
	<rect x="409" y="142.2" class="st16" width="250" height="149.2"/>
	<path class="st11" d="M572.6,166.5h-99.2c0,0-1.1-11.5,2.4-13.6s-9.9-9.6-9.9-9.6c-0.1-0.3-0.3-0.7-0.4-1.1h107.1v3.5
		C572.6,145.6,586.2,157.7,572.6,166.5z"/>
	<path class="st17" d="M467.8,135.5h104.8v9.1c0,0,13.6,12,0,20.9h-99.2c0,0-1.1-11.5,2.4-13.6s-9.9-9.6-9.9-9.6
		S463,135.5,467.8,135.5z"/>
	<g class="st2">
		<rect x="439.7" y="189" class="st3" width="188.6" height="3.1"/>
	</g>
	<g class="st2">
		<rect x="439.7" y="200.7" class="st3" width="112.6" height="3.1"/>
	</g>
	<g class="st2">
		<rect x="439.7" y="212.5" class="st3" width="188.6" height="3.1"/>
	</g>
	<g class="st2">
		<rect x="439.7" y="224.3" class="st3" width="188.6" height="3.1"/>
	</g>
	<g class="st2">
		<rect x="439.7" y="236" class="st3" width="188.6" height="3.1"/>
	</g>
	
		<linearGradient id="SVGID_7_" gradientUnits="userSpaceOnUse" x1="625.5839" y1="197.9768" x2="625.5839" y2="-469.9953" gradientTransform="matrix(1 0 0 1 -76.87 646.39)">
		<stop  offset="0" style="stop-color:#808080;stop-opacity:0.25"/>
		<stop  offset="0.54" style="stop-color:#808080;stop-opacity:0.12"/>
		<stop  offset="1" style="stop-color:#808080;stop-opacity:0.1"/>
	</linearGradient>
	<path class="st23" d="M705.8,830.7c-1.8-7.6-2.9-14.3-2.9-14.3s0.4-8.3-3.3-14.5v-2.1l0,0v-15.3c1.1-2.8,2.3-5.4,3.9-8
		c2.8-4.8,0-22.5,0-22.5s-10.2-24.9-7.7-40.6s-21-70-21-70c0.1-5.2,0.9-10.4,2.2-15.5c0.2-1.1,0.3-2.2,0.3-3.3c0-0.1,0-0.3,0-0.4
		v0.1c-0.3-10.4-8.6-29.9-8.6-29.9l1.1-37.2c0,0,5.3-21.9-3.3-51.3c-3-10.3-4.9-18.5-6.1-24.8c-0.1-0.7-0.3-1.4-0.4-2.1
		c17.6-2.7,31.1-4.9,31.1-4.9s-10.2-42.8-17.1-50.3c-6.9-7.5-12.4-31-12.4-31s-3.6-30.2,2.2-39s6.6-24.1,6.6-24.1
		s13.3-9.6,14.9-13.9c1.7-4.3,4.4-13.9,4.4-19s-1.7-9.6-1.1-12.3s-3.9-12.8-1.7-17.7c0.6-1.5,0.9-3.1,0.9-4.6v-0.1l0,0
		c0-4.2-0.4-8.4-1.2-12.5c0,0-6-5.3-13.1-7l-0.3-1.1l-0.8-3c-0.4-0.3-0.9-0.5-1.3-0.8v-1.1l-0.1-4.3l2.1-9.8
		c4.1-17-18.6-19.5-18.6-19.5c-1.4-2.6-3.6-4.6-6.4-5.7c-4.6-1.6-0.8,25.5,1.4,27.3c1.6,1.3,6.6,9.8,8.9,14l0,0l0.4,0.7
		c-0.4,0.3-0.7,0.7-1,1.1l0.9,5.9l0.1,0.9c-1.5,1.9-2.7,3.9-3.6,6.2c0,0,4.2,4.5,3.3,9.6c-0.8,5.1,1.3,11.4,1.4,11.8
		c-0.3-0.3-3.2-3.4-6.1-2.7c-2.9,0.8-11,3.2-11,3.2s-6.1,1.1-5.5,2.4s-4.2,7.2-4.2,7.2l-16.3-15.5c-0.2-0.5-0.3-0.9-0.5-1.4
		c-0.7-2.2-1.2-4.5-1.4-6.8c1.8-0.4,3.5-1,5.2-1.7c1.7-0.6,3.3-1.6,4.5-2.9c1.6-2,2-4.6,2.6-7c1.3-4.8,4.1-9,6.1-13.5
		c3.4-7.6,4.5-16,3.3-24.3c-0.3-2.5-1.1-5-2.5-7.1c-2.7-3.7-7.5-5.2-11-8.1s-5.8-7.4-9.9-9.6c-3.7-2-8.2-1.8-12.4-1.1
		c-8.2,1.3-16,4.2-23.2,8.4c-2.4,1.4-5,3-7.7,2.5c-2.3-0.4-4.1-2.3-5.6-4.1c0-0.1,0-0.2,0.1-0.2l-0.2-0.2c-1.7,3.8-2.6,8-2.5,12.2
		c0,0.6,0,1.3,0.1,2c0,0.2,0,0.5,0,0.7s0,0.4,0,0.6l0,0c0,0.3,0,0.6-0.1,0.9c-0.3,0.8-0.9,1.6-1.5,2.2c-0.5,0.6-0.9,1.2-1.3,1.8
		c0.1-0.2,0.1-0.4,0.2-0.7c-1,1.5-1.6,3.3-1.7,5.1c-0.1,1.3,0.4,2.7,1.2,3.7c0.8,0.8,1.7,1.5,2.7,2.1c-2.3,12.8,3.6,25.8,14.9,32.4
		c0.2,0.5,0.4,0.9,0.6,1.4c2.1,5.5,3.7,11.9,3,17.8c-0.1,0.4-0.1,0.9-0.2,1.3c-0.2,0.2-0.4,0.5-0.6,0.7l0,0c0,0-27,0.3-33.3-5.5
		s-16,14-16,14s-9.7,1.9-11.6,0s-13.3-0.3-13.3-0.3s-6.9-6.7-16.8-6.2c-3.8-2.9-7.9-5.2-12.4-6.9l0,0l-0.3-0.1l0,0
		c-1.9-0.7-4-1-6.1-0.8c0,0-13.3-11-17.1-16.8c-3.9-5.8-22.3-27.7-22.4-27.8l-0.1-1l-0.2-3.2c-0.5,0.1-1.1,0.1-1.6,0.1l-0.4-1.1
		c-1.1-3.1-2.4-6.1-3.9-9c0,0,0-4,1.2-5s-0.5-15.7-0.5-15.7s-12-27.9-22.6-7.1c0,0-20.2,13.5-3.3,29.2c0,0,6.8,3.3,7.7,5.9
		c0.6,1.7,2.9,6.4,4.5,9.5c0.3,0.5,0.5,1,0.7,1.4l-0.2,0.2l0.3,2.6l0.1,1c-3.2,1.8-5.4,3.6-4.8,5c0.9,2.3,1.6,4.7,1.9,7.2
		c0,0,23.5,29.4,26.5,42c0,0,63,37.4,83.7,40.1l-3.6,18.7c0,0-1.1,11.2-0.8,15.2s-2.5,22.2-2.5,22.2s-3.6,26.7-6.6,30.5
		s-2.5,19.8-2.5,19.8c-0.7,7.7-2.1,15.3-4.2,22.7c-3,10.2-0.8,22.7-0.8,22.7s-10.5,24.1,14.6,7.8c0,0,12.3-0.8,26.5-1.3
		c0,0.5,0,0.9,0,1.4c0,1.8-0.1,3.8-0.1,5.9c-0.2,13.8-0.3,32.8,0.3,47.1c1.1,25.4,8.8,75.7,8.8,75.7v25.3c-0.5,2.4-0.7,4.8-0.7,7.2
		c-0.2,8.9,2.2,17.7,6.8,25.3l1.7,16.7c0,0,4.5,11.1,4.6,17.7c0,0.5-0.1,1.1-0.2,1.6c-0.2,0.8-0.2,1.7-0.2,2.6
		c-0.3,7.7,4.3,25.9,4.3,25.9s0.3,18.5,3,19.5c2.4,0.9-3.2,10.6-4.8,13.4c0-0.2-0.1-0.3-0.1-0.5c-0.2,0.4-0.3,0.6-0.3,0.6
		c-0.6,1.5-0.9,3.1-0.9,4.7c-0.3,2.6,0.9,5.1,3.1,6.5c5.3,3.2,8.1,5.9,3.6,7c-1.6,0.3-3.3,0.6-4.9,1c-0.1-0.2-0.2-0.4-0.2-0.6
		c-1.3,0.5-2,1.9-1.8,3.2c-0.1,1.3,0.3,3.3,1.7,6.3c4.4,9.9,7.5,13.6,7.5,13.6l2.1-0.2c-0.3,0.8-0.7,1.6-1.2,2.3
		c-0.8,1.2-1.9,2.1-3.1,2.8c-1.2,0.7-2.4,1.1-3.8,1.3c-3,0.1-5.9,1.5-7.8,3.8c-2.8,3.6-4.5,8.4,1,12.7l19.8,6.8c0,0,34,4.4,32.2-3.2
		s-2.9-14.3-2.9-14.3s0.4-7.4-2.8-13.5c-0.4-0.7-0.8-1.4-1.2-2l1.2-0.1c0,0,2.5-16.8,5.8-20c0.8-0.7,0.9-1.3,0.8-1.7
		c0.3-0.9-0.5-1.5-1.6-1.8l-0.2,0.7c-1.1-0.2-2.2-0.4-3.3-0.4c0,0-1.1-8.8,2.5-12c0.6-0.7,0.8-1.7,0.7-2.6c0-1.2-0.1-2.4-0.4-3.6
		c0,0.1-0.1,0.1-0.1,0.2c-1.8-8-7.9-20.7-7.9-20.7s-0.3-8,1.9-11.2s-0.3-43.6-0.3-43.6s0.8-19.5-1.7-28.6s3-19.8,3-19.8
		s0-0.2-0.1-0.6l0.1-0.1c0,0-0.1-1.2-0.3-3.1c0,0.1-0.1,0.1-0.1,0.2c-0.5-5.2-1.6-14.5-2.4-18.8c-1.1-6.2,0.3-35.6,0.3-35.6l5-12.6
		L614,596l9.4,28.9c0,0,4.7,6.1,4.8,12.3c0,0.3,0,0.6-0.1,0.9c-0.1,0.6-0.1,1.3-0.1,1.9c-0.2,3.6,0.8,7.3,2.9,10.3
		c0,0,2.5,13.6,6.4,17.1s3.9,10.2,3.9,10.2s4.7,19.8,6.9,23.3c1.9,2.9,2,11,1.9,13.5l0,0c0,0.5,0,0.7,0,0.7s0.7,7.1,0.6,13
		c0,0.7,0,1.4-0.1,2.1V730c0,1.6-0.2,3.2-0.6,4.8c0,0.1-0.1,0.2-0.1,0.3c0-0.3,0-0.7,0.1-1c-1,4-1.4,8.2-1.4,12.3
		c-0.1,7.1,1,15.5,5.3,20.5c7.5,8.6,12.2,7.5,12.2,7.5s-3.6,10.7-8,12.8c-0.2,0.1-0.3,0.2-0.5,0.3c0-0.2-0.1-0.4-0.1-0.6
		c-0.9,0.8-1.3,2.2-1.3,4c-0.3,4.7,2.6,12.3,5.5,15.8c1,1,2.3,1.8,3.7,2.2c-0.2,0.2-0.5,0.3-0.7,0.4c-0.5,0.3-1,0.5-1.5,0.7
		c-0.7,0.3-1.5,0.5-2.3,0.6c-3,0.1-5.9,1.4-7.8,3.8c-2.8,3.5-4.5,8.4,1,12.7l19.8,6.8C673.7,833.9,707.6,838.3,705.8,830.7z"/>
	<path class="st24" d="M576.1,843.3l-19.1-6.8c-5.3-4.3-3.6-9.1-0.9-12.7c1.9-2.3,4.6-3.7,7.6-3.8c1.3-0.2,2.5-0.6,3.7-1.3
		s2.2-1.6,3-2.8c1.4-2.2,2.2-4.8,2.2-7.4c0,0,21-6.2,26.7,0c1,1.1,1.9,2.4,2.5,3.7c3,6.1,2.7,13.5,2.7,13.5s1.1,6.7,2.8,14.3
		S576.1,843.3,576.1,843.3z"/>
	<path class="st24" d="M669.6,833.9l-19.1-6.8c-5.3-4.3-3.6-9.1-0.9-12.7c1.8-2.3,4.6-3.7,7.6-3.8c0.8-0.1,1.5-0.3,2.2-0.6
		c0.5-0.2,1-0.4,1.5-0.7c5.3-2.9,5.2-10.2,5.2-10.2s21-6.2,26.7,0c0.8,0.8,1.4,1.7,2,2.7c3.6,6.2,3.2,14.5,3.2,14.5
		s1.1,6.7,2.8,14.3S669.6,833.9,669.6,833.9z"/>
	<path class="st11" d="M599.2,808.5c1,1.1,1.9,2.4,2.5,3.7l0,0l-31.5,3.7c1.4-2.2,2.2-4.8,2.2-7.4
		C572.4,808.5,593.4,802.4,599.2,808.5z"/>
	<path class="st11" d="M694.8,801.8v5.9c-4.9,8.1-28.6,6.3-35.4,2.3c0.5-0.2,1-0.4,1.5-0.7c5.3-2.9,5.2-10.2,5.2-10.2s21-6.2,26.7,0
		C693.5,799.9,694.2,800.9,694.8,801.8z"/>
	<path class="st25" d="M698.5,776.5c-1.5,2.6-2.7,5.2-3.7,8v21.1c-5.3,8.8-33.2,5.9-36.9,1.1s-7.8-17.4-3.5-19.5s7.7-12.8,7.7-12.8
		s-4.5,1.1-11.8-7.5s-5.1-27.5-3.7-32.1s0-19.8,0-19.8s0.3-10.7-1.9-14.2s-6.6-23.3-6.6-23.3s0-6.7-3.8-10.2s-6.2-17.1-6.2-17.1
		c-2.2-3.4-3.1-7.5-2.7-11.5c0.8-6.7-4.5-13.9-4.5-13.9l-9.1-28.9l-8.5-21.7l-4.8,12.6c0,0-1.3,29.4-0.3,35.6s2.7,22.5,2.7,22.5
		s-5.3,10.7-2.9,19.8s1.6,28.6,1.6,28.6s2.4,40.4,0.3,43.6s-1.9,11.2-1.9,11.2s11,23.5,7.5,26.7s-2.4,12-2.4,12s7.5,0,4.3,3.2
		s-5.6,20-5.6,20l-32.3,3.8c0,0-3-3.8-7.2-13.6s0.8-8.8,5.1-9.9s1.6-3.7-3.5-7s-2.1-10.4-2.1-10.4s7.8-13.1,5.1-14.2
		s-2.9-19.5-2.9-19.5s-5.3-21.9-4-27.8s-4.3-20-4.3-20l-1.9-16.8c-9.6-16.6-5.9-31.8-5.9-31.8v-25.9c0,0-7.5-50.3-8.6-75.7
		c-0.7-16.3-0.5-38.5-0.3-52.3c0.1-7.8,0.3-12.9,0.3-12.9l115.5-12c0,0-0.1,5.3,2.1,17.2c1.2,6.3,3,14.5,5.9,24.8
		c8.3,29.4,3.2,51.3,3.2,51.3l-1.1,37.1c0,0,10.2,24.9,8,33.4c-1.3,5.1-2,10.3-2.1,15.5c0,0,22.8,54.3,20.3,70.1s7.5,40.6,7.5,40.6
		S701.2,771.6,698.5,776.5z"/>
	<path class="st26" d="M632.5,637.2l35.2-4.7C667.6,632.5,647.7,652.8,632.5,637.2z"/>
	<path class="st11" d="M662.5,598.1c0,0,1.2,12.4-6.4,17.1C656.1,615.2,669.8,613.1,662.5,598.1z"/>
	<path class="st11" d="M660.4,558.5c0,0-29.4,24.2-40.1,22.2S660.4,558.5,660.4,558.5z"/>
	<path class="st11" d="M588.9,648.5c0,0-22.3,5.1-23,14S588.9,648.5,588.9,648.5z"/>
	<path class="st26" d="M593.8,760c0,0-31.5,5.9-22.6,9.9s23.7,7.2,23.7,7.2S605,777.7,593.8,760z"/>
	<g class="st27">
		<path d="M564.8,776.3c-1.6-1-2.7-2.7-2.9-4.6l-0.3,0.6c0,0-2.9,7.2,2.1,10.4l1.7,1.1c0.9-0.2,1.9-0.3,2.9-0.5
			C572.6,782.1,569.9,779.5,564.8,776.3z"/>
		<path d="M605.5,774.1c0.9-0.8,0.8-2.8,0.3-5.5c-1.4,2.1-1.8,5.3-1.8,7.7C604.3,775.5,604.8,774.8,605.5,774.1z"/>
		<path d="M600.6,641.1c-1.2,3.2-1.9,6.5-2.1,9.8c0.6-2.3,1.4-4.6,2.4-6.8C600.9,644.2,600.8,643,600.6,641.1z"/>
		<path d="M672.8,627.1c0.2-1,0.3-1.9,0.3-2.9c-0.4,2-0.7,3.8-0.9,5.5C672.4,628.8,672.6,627.9,672.8,627.1z"/>
		<path d="M599.9,736.2c0.4-0.7,0.7-2.9,0.8-5.9c-1,2-1.4,5.1-1.5,7.5C599.3,737.2,599.6,736.6,599.9,736.2z"/>
		<path d="M606.5,786.6c-2.2,6-3.7,16.4-3.7,16.4l-32.3,3.7c0,0-3-3.7-7.2-13.6c-0.4-0.9-0.7-1.7-0.9-2.4c-1.9,0.9-2.7,2.9-0.2,8.8
			c4.3,9.9,7.2,13.6,7.2,13.6l32.3-3.8c0,0,2.4-16.8,5.6-20C608.9,787.8,607.9,787,606.5,786.6z"/>
		<path d="M563.8,738.6c0,0,0.3,18.5,2.9,19.5l0,0c1.3-3,2.3-6,1-6.4c-2.7-1.1-2.9-19.5-2.9-19.5s-5.3-21.9-4-27.8s-4.3-20-4.3-20
			l-1.9-16.8c-9.6-16.6-5.9-31.8-5.9-31.8v-25.9c0,0-7.5-50.3-8.6-75.7c-0.7-16.3-0.5-38.5-0.3-52.3c0-2.5,0.1-4.7,0.1-6.6l-0.9,0.1
			c0,0-0.1,5.1-0.3,12.9c-0.2,13.8-0.4,36,0.3,52.3c1.1,25.4,8.6,75.7,8.6,75.7V642c0,0-3.8,15.2,5.9,31.8l1.9,16.8
			c0,0,5.6,14.2,4.3,20S563.8,738.6,563.8,738.6z"/>
		<path d="M659,799.5c-2.6-3.8-4.4-8.1-5.1-12.7c-3.3,3,0.5,14.5,4,19.1c3.7,4.8,31.5,7.8,36.9-1.1v-5.1
			C687.5,807,662.5,804.1,659,799.5z"/>
		<path d="M699.6,769.3c-1.5,2.6-2.7,5.2-3.8,8v3.8c0.6-1.4,1.5-3.2,2.7-5.3c0.8-1.4,1.1-3.8,1.2-6.6L699.6,769.3z"/>
		<path d="M660.6,773.5c1-2.1,1.9-4.2,2.6-6.3c0,0-4.5,1.1-11.8-7.5c-5.3-6.2-5.5-18-4.8-25.7c-1.3,4.5-3.5,23.5,3.7,32.1
			C655.1,771.7,658.7,773.2,660.6,773.5z"/>
		<path d="M646.7,714.2c0.5,5.3,0.6,10.6,0.5,15.8c0.1-0.8,0.3-1.7,0.5-2.5c1.3-4.5,0-19.8,0-19.8s0.3-10.7-1.9-14.2
			s-6.7-23.3-6.7-23.3s0-6.7-3.7-10.2s-6.2-17.1-6.2-17.1c-2.2-3.4-3.1-7.5-2.7-11.5c0.8-6.7-4.5-13.9-4.5-13.9l-9.1-28.9l-8.5-21.7
			l-4.8,12.6c0,0-0.1,1.6-0.2,4.1l3.9-10.2l8.5,21.7l9.1,28.9c0,0,5.3,7.2,4.5,13.9c-0.5,4,0.5,8.1,2.7,11.5c0,0,2.4,13.6,6.2,17.1
			s3.8,10.2,3.8,10.2s4.5,19.8,6.7,23.3S646.7,714.2,646.7,714.2z"/>
	</g>
	<path class="st28" d="M669.1,222.4l-2,9.8l0.1,4.3l0.1,3.2l-11.2,1.1l-1.3-2.3l0,0c-2.3-4.2-7.1-12.7-8.7-14
		c-2.1-1.7-5.7-28.9-1.3-27.3c2.7,1,4.9,3,6.2,5.6C651.1,202.8,673,205.4,669.1,222.4z"/>
	<path class="st11" d="M667.3,239.7l-11.2,1.1l-1.3-2.3l0,0c1.6-1.6,6.2-5.4,12.3-2L667.3,239.7z"/>
	<path class="st29" d="M670.1,244.9l-14.7,3.5l-0.3-2.2l-0.8-5.9c0,0,5.8-7.8,14.2-2l0.7,3L670.1,244.9z"/>
	<path class="st28" d="M431.8,223.4l-15.7,8.4c0,0-0.6-1.2-1.4-3c-1.5-3.1-3.7-7.9-4.3-9.5c-0.9-2.6-7.5-5.9-7.5-5.9
		c-16.4-15.7,3.1-29.2,3.1-29.2c10.4-20.9,21.9,7.1,21.9,7.1s1.6,14.7,0.5,15.7s-1.1,5-1.1,5c1.5,2.9,2.8,5.9,3.8,9
		C431.6,222.5,431.8,223.4,431.8,223.4z"/>
	<path class="st11" d="M431.8,223.4l-15.7,8.4c0,0-0.6-1.2-1.4-3c2.2-1.9,10.1-8.2,12.6-7.9c1.2,0.2,2.5,0.2,3.7,0.1
		C431.6,222.5,431.8,223.4,431.8,223.4z"/>
	<path class="st29" d="M433.4,228.1l-17.6,8.7l-0.4-3.8l-0.3-2.7c0,0,10.2-8.8,13.2-8.4c1.5,0.2,3.1,0.2,4.6,0l0.2,3.2L433.4,228.1z
		"/>
	<path class="st28" d="M626.3,287.2c0,0-76.9,8.7-62.6,4c10-3.3,14-9.6,14.8-16.7c0.7-5.9-0.8-12.3-2.9-17.8
		c-1.8-4.9-4.1-9.5-6.9-13.9c0,0,58.8-32.4,47-3c-1.8,4.5-2.9,9.2-3.3,13.9c-0.4,4.8,0.2,9.5,1.5,14.1
		C616.2,275.3,620.5,282,626.3,287.2z"/>
	<path class="st11" d="M615.9,239.8c-1.8,4.5-2.9,9.2-3.3,13.9c-5.5,4.7-11.6,4.4-19.4,4.4c-6,0-12.6,1.5-17.4-1.4
		c-1.8-4.9-4.1-9.5-6.9-13.9C568.8,242.8,627.7,210.4,615.9,239.8z"/>
	<circle class="st28" cx="592.1" cy="228.4" r="31.8"/>
	<path class="st11" d="M626.3,287.2c0,0-76.9,8.7-62.6,4c10-3.3,14-9.6,14.8-16.7c3.8-4.1,11.5-7.1,16.5-8.7c4.5-1.5,9.4-1.6,14-0.2
		c1.8,0.5,3.5,1.3,5.1,2.4C616.3,275.3,620.6,282,626.3,287.2z"/>
	<path class="st11" d="M670.1,244.9l-14.7,3.5l-0.3-2.2c4.2-5.3,9.4-5.9,14.1-4.8L670.1,244.9z"/>
	<path class="st11" d="M433.4,228.1l-17.6,8.7l-0.4-3.8c6.3-3.7,16.9-7.6,17.8-7.9L433.4,228.1z"/>
	<path class="st11" d="M656.8,481.1c-29.8,4.7-72.2,10.8-78.9,8.8c-5.6-1.7-23.4-1.5-38.9-1c0.1-7.8,0.3-12.9,0.3-12.9l115.5-12
		C654.7,463.9,654.5,469.2,656.8,481.1z"/>
	<path class="st25" d="M686.5,474.1c0,0-98.1,16.9-108.7,13.6s-64.6,0.3-64.6,0.3c-24.3,16.3-14.2-7.8-14.2-7.8s-2.1-12.6,0.8-22.7
		c2-7.5,3.3-15.1,4-22.7c0,0-0.5-16,2.4-19.8s6.4-30.5,6.4-30.5s2.7-18.2,2.4-22.2s0.8-15.2,0.8-15.2l3.5-18.7
		c-20-2.7-81-40.1-81-40.1c-2.9-12.6-25.7-42-25.7-42c-0.3-2.5-1-4.9-1.9-7.2c-1.6-4.3,22.5-12.8,22.5-12.8s17.9,21.9,21.7,27.8
		c3.7,5.9,16.6,16.9,16.6,16.9c2-0.2,4,0.1,5.9,0.8c0.1,0,0.2,0.1,0.3,0.1c0.1,0,0,0,0,0c6,2.1,12,6.9,12,6.9
		c9.6-0.5,16.3,6.1,16.3,6.1s11-1.6,12.8,0.3s11.2,0,11.2,0s9.4-19.8,15.5-14c6.2,5.8,32.2,5.5,32.2,5.5c3.5-4.6,11.9-7.9,17.2-9.6
		c4.5-1.5,9.4-1.6,14-0.2c2,0.6,3.8,1.5,5.5,2.7l15.8,15.5c0,0,4.5-5.9,4-7.2c-0.5-1.3,5.3-2.4,5.3-2.4s7.8-2.4,10.7-3.2
		s5.6,2.4,5.9,2.7c-0.1-0.3-2.1-6.8-1.3-11.8s-3.2-9.6-3.2-9.6c9.4-23,30.5-3.7,30.5-3.7s2.4,12.6,0.3,17.4s2.1,15,1.6,17.6
		s1.1,7.2,1.1,12.3c0,5.1-2.7,14.7-4.3,19s-14.5,13.9-14.5,13.9s-0.8,15.2-6.4,24.1s-2.1,39-2.1,39s5.3,23.5,12,31
		C676.5,431.2,686.5,474.1,686.5,474.1z"/>
	<path class="st11" d="M543.4,298.1c0,0-2.9-8.8-5.6-9.6c-2.7-1-5.3-2.1-7.8-3.5l1.7-3.3c0,0,10,2.8,11.7,5.7
		S543.4,298.1,543.4,298.1z"/>
	<path class="st11" d="M489.7,278.6c-0.5,2.7-24.3,5.1-24.3,5.1l12-12.1l0,0l0.3,0.1l0,0C483.8,273.8,489.7,278.6,489.7,278.6z"/>
	<circle class="st30" cx="420.9" cy="241.9" r="2.1"/>
	<circle class="st30" cx="423.6" cy="246.2" r="2.1"/>
	<circle class="st30" cx="426.3" cy="250.1" r="2.1"/>
	<circle class="st30" cx="429.1" cy="254.4" r="2.1"/>
	<circle class="st30" cx="681.1" cy="254.2" r="1.7"/>
	<circle class="st30" cx="681.4" cy="258.1" r="1.7"/>
	<circle class="st30" cx="681.6" cy="262.1" r="1.7"/>
	<path class="st11" d="M543.6,370.6c-0.2-0.3,60,75.8,106.8,31.8C650.4,402.4,576.5,412.4,543.6,370.6z"/>
	<path class="st11" d="M509,410.2c0,0,36.1,1,39.8,11.4v10.8c-2.1,1.2-4.6,1.2-6.7,0c-3.6-2-25.4-13-33.1-7.7L509,410.2L509,410.2z"
		/>
	<path class="st11" d="M528.6,331.8c0,0,4.1,10.6,14,24c6.1,8.2,13.5,15.3,21.9,21.1C564.5,377,529.2,336.8,528.6,331.8z"/>
	<path class="st11" d="M516.8,289.9c0,0,6,26,21.5,34.8L516.8,289.9z"/>
	<path class="st11" d="M507.6,292.6c-0.2-0.5-5.3,20.5,20,32.2C527.6,324.7,516.8,321.1,507.6,292.6z"/>
	<path class="st11" d="M665.1,275.2c-0.4,0,12.5,8.2,16,12C681.1,287.2,672.7,274.6,665.1,275.2z"/>
	<path class="st24" d="M583.5,257.2c0.5,1.6,1,3.4,2.5,4.3c0.9,0.4,2,0.7,3,0.7c9.7,0.6,19.8,1,28.8-2.7c1.7-0.6,3.2-1.6,4.4-2.9
		c1.6-1.9,1.9-4.6,2.5-7c1.3-4.8,3.9-9,5.9-13.5c3.3-7.6,4.3-16,3.2-24.3c-0.2-2.5-1.1-5-2.4-7.1c-2.6-3.7-7.3-5.2-10.7-8.1
		s-5.6-7.4-9.6-9.6c-3.6-2-8-1.8-12-1.1c-7.9,1.4-15.5,4.2-22.4,8.4c-2.3,1.4-4.8,3.1-7.5,2.6c-2.3-0.4-4-2.4-5.5-4.2
		c-1.9,4.4-2.7,9.1-2.4,13.9c0.1,0.7,0.1,1.4-0.1,2.1c-0.3,0.8-0.8,1.6-1.5,2.2c-2.4,2.8-3.9,7.2-1.5,10c1,1.2,2.6,1.9,3.6,3.1
		c1.8,2.2,1.2,5.4,1.2,8.3c-0.1,1,0.1,2,0.7,2.8c0.9,1.1,2.5,1.2,3.9,0.9s2.8-0.7,4.2-0.4c1.5,0.5,2.8,1.5,3.6,2.8
		C579.9,244.1,581.6,250.4,583.5,257.2z"/>
	<g class="st31">
		<path d="M623.2,254.1c-1.2,1.3-2.7,2.3-4.4,2.9c-9,3.7-19.1,3.3-28.8,2.7c-1,0-2.1-0.2-3-0.7c-1.5-0.9-2-2.7-2.5-4.3
			c-1.9-6.9-3.6-13.1-8.1-18.8c-0.9-1.3-2.1-2.3-3.6-2.8c-1.4-0.3-2.8,0.2-4.2,0.4s-3,0.1-3.9-0.9c-0.6-0.8-0.8-1.8-0.7-2.8
			c0-2.9,0.6-6.1-1.2-8.3c-1-1.3-2.6-1.9-3.6-3.1c-1.5-1.8-1.4-4.2-0.6-6.4c-1.7,2.7-2.4,6.2-0.5,8.5c1,1.2,2.6,1.9,3.6,3.1
			c1.8,2.2,1.2,5.4,1.2,8.3c-0.1,1,0.1,2,0.7,2.8c0.9,1.1,2.5,1.2,3.9,0.9s2.8-0.7,4.2-0.4c1.5,0.5,2.8,1.5,3.6,2.8
			c4.5,5.7,6.2,12,8.1,18.8c0.5,1.6,1,3.4,2.5,4.3c0.9,0.5,2,0.7,3,0.7c9.7,0.6,19.8,1,28.8-2.7c1.7-0.6,3.2-1.6,4.4-2.9
			c0.6-0.8,1.1-1.6,1.4-2.6C623.4,253.8,623.3,254,623.2,254.1z"/>
		<path d="M561.3,207.8c0.4-0.5,0.8-1,1-1.6c0.1-0.7,0.2-1.4,0.1-2.1c-0.3-3.9,0.2-7.8,1.5-11.5l-0.2-0.2c-1.9,4.4-2.7,9.1-2.4,13.9
			C561.3,206.7,561.3,207.2,561.3,207.8z"/>
	</g>
	<path class="st11" d="M577.8,276.5c0,0,39.8,5.3,43.3-0.7"/>
	<path class="st11" d="M655.1,260c0,0,22.1,0,26.9,8.3"/>
</g>
<g id="Layer_2">
	<rect x="-4.4" y="-2.2" class="st32" width="1050.7" height="858.2"/>
</g>
</svg>
