<?xml version="1.0" encoding="utf-8"?>
<!-- Generator: Adobe Illustrator 23.0.1, SVG Export Plug-In . SVG Version: 6.00 Build 0)  -->
<svg version="1.1" xmlns="http://www.w3.org/2000/svg" xmlns:xlink="http://www.w3.org/1999/xlink" x="0px" y="0px"
	 viewBox="0 0 1036.6 758" style="enable-background:new 0 0 1036.6 758;" xml:space="preserve">
<style type="text/css">
	.st0{fill:#F2F2F2;}
	.st1{fill:#FF6584;}
	.st2{fill:#1CD218;}
	.st3{fill:#3F3D56;}
	.st4{opacity:0.1;fill:#3D718D;enable-background:new    ;}
	.st5{fill:#3D718D;}
	.st6{opacity:0.1;enable-background:new    ;}
	.st7{fill:#2F2E41;}
	.st8{fill:#FFB9B9;}
	.st9{fill:#575A89;}
	.st10{fill:#A0616A;}
	.st11{fill:#D0CDE1;}
	.st12{fill:#A8A8A8;}
	.st13{opacity:0.2;enable-background:new    ;}
	.st14{opacity:0.5;fill:#FFFFFF;}
</style>
<g id="abb9925b-5072-4c18-b5df-2f889316df63">
	<title>team work</title>
	<circle class="st0" cx="578.6" cy="373" r="373"/>
	<circle class="st1" cx="692.6" cy="136" r="97"/>
	<path class="st2" d="M286,72.5l2.7,55.3c11,14.7,22.8,31.4,34.5,49.7l1.7-84.3l0.9,0.6C312.2,84.1,298.5,76.7,285,72L286,72.5z"/>
	<path class="st2" d="M286.7,125.2l-2.6-53.5c-15.1-5.1-29.7-6.8-43.1-4.5c-0.7,0.1-1.4,0.3-2.1,0.4
		C242.4,71.2,262.2,92.8,286.7,125.2z"/>
	<path class="st2" d="M408.4,191.1l0.9,0.8c-3.7-6.9-7.5-13.5-11.6-20L372.7,270l-0.4-0.4c1.8,4.3,3.5,8.6,5.1,12.8L408.4,191.1z"/>
	<path class="st2" d="M370.4,135.4l0.9,0.7c-13.2-15.6-28.2-29.6-44.6-41.7l-1.7,85.9c10.9,17.2,20.6,34.1,29.2,50.8L370.4,135.4z"
		/>
	<path class="st2" d="M189.6,162.2c1.4,14.5,4.3,28.8,8.5,42.7l148.6,15.3c-7.8-14.3-15.8-27.7-23.5-40L190,163.4L189.6,162.2z"/>
	<path class="st2" d="M203.5,221l-0.4-1.2l150.4,13.4c-1.8-3.6-3.7-7.1-5.5-10.5l-149.2-15.4l-0.4-1.2
		C200,211,201.7,215.9,203.5,221z"/>
	<path class="st2" d="M396,169.9l0.9,0.8c-7.5-11.7-15.7-22.9-24.7-33.6l-16.4,97c5.7,11.1,10.8,22.1,15.4,33L396,169.9z"/>
	<path class="st2" d="M392.8,332c6,25.9,8.2,50.3,6.7,73.1c8.4-17.9,40.4-92.2,28.4-161.4L392.8,332z"/>
	<path class="st2" d="M231.1,273.3c8,10.7,16.6,20.9,25.9,30.5l-0.4-1.3l133.8,27.5c-3.5-14.4-7.8-28.7-13-42.6L231.1,273.3z"/>
	<path class="st2" d="M285.5,126.1C259,91,238.1,68.8,237.8,68.5l0.3-0.7C218,72.4,203.8,86,196,105.9L285.5,126.1z"/>
	<path class="st2" d="M378.7,285.8c0.5,1.3,1,2.6,1.5,4c4.6,12.6,8.5,25.4,11.7,38.4l34.9-87.4l0.9,0.9c-2.2-12.2-5.9-24-11.1-35.2
		c-2.1-4.4-4.2-8.7-6.5-13L378.7,285.8z"/>
	<path class="st2" d="M321.7,177.8c-11.6-18.1-23.3-34.6-34.2-49.1L195.9,108l-0.3-1.2c-5.7,15.1-7.8,33.6-6.1,54.2L321.7,177.8z"/>
	<path class="st2" d="M391.1,332.2l-132.8-27.3c55.9,57.4,134,101.3,139,104.1C399.6,383.8,397,357.8,391.1,332.2z"/>
	<path class="st2" d="M376.6,285L376.6,285c-6.4-16.9-13.6-33.4-21.8-49.5L204,222.1c2.6,6.8,5.5,13.6,8.7,20.6
		c4.7,9.9,10.3,19.3,16.7,28.1L376.6,285z"/>
	<path class="st2" d="M568.4,258.7l-33.2,44.3c-0.9,18.3-2.5,38.8-5.1,60.3l55.1-63.9l0.3,1c-4.3-16.1-10.1-30.6-17.5-42.7
		L568.4,258.7z"/>
	<path class="st2" d="M535.3,299.7l32.2-42.9c-8.3-13.6-18.5-24.2-30.3-30.9c-0.6-0.3-1.2-0.7-1.8-1
		C535.6,229.9,537.2,259.1,535.3,299.7z"/>
	<path class="st2" d="M587,428.1l0.1,1.2c1.6-7.6,2.8-15.2,3.8-22.8l-81.7,59.6l-0.1-0.6c-1.4,4.5-2.8,8.8-4.2,13.2L587,428.1z"/>
	<path class="st2" d="M593.3,361l0.2,1.2c-0.2-20.4-2.8-40.8-7.8-60.6l-56.1,65.1c-2.6,20.2-5.9,39.4-9.9,57.8L593.3,361z"/>
	<path class="st2" d="M437,266.3c-8.2,12-15.1,24.9-20.7,38.3L521,411.3c3.2-16,5.5-31.4,7.4-45.8l-91.8-98L437,266.3z"/>
	<path class="st2" d="M410.2,320.5l0.4-1.2L518,425.5c0.9-3.9,1.7-7.8,2.5-11.6l-105.1-107l0.4-1.1
		C413.9,310.5,412,315.4,410.2,320.5z"/>
	<path class="st2" d="M591,403.9l0.2,1.2c1.7-13.8,2.5-27.7,2.4-41.6l-74.5,64.3c-2.7,12.2-5.8,24-9.1,35.2L591,403.9z"/>
	<path class="st2" d="M485.1,526.7c-11.9,23.7-25.8,44-41.4,60.6c17.9-8.4,89.9-45.2,124.8-106.2L485.1,526.7z"/>
	<path class="st2" d="M398.1,378.3c-0.7,13.3-0.5,26.7,0.6,40l0.5-1.2l85.5,106.5c6.5-13.3,12.3-27.1,17.1-41.1L398.1,378.3z"/>
	<path class="st2" d="M533.9,299.7c2-43.9,0-74.4-0.1-74.8l0.7-0.3c-18.4-9.3-38.1-7.8-56.7,2.4L533.9,299.7z"/>
	<path class="st2" d="M503.8,482.1c-0.5,1.3-0.9,2.7-1.4,4c-4.5,12.6-9.7,25-15.5,37.1l82.6-45.1l0.1,1.2
		c6.1-10.8,10.7-22.3,13.9-34.2c1.2-4.7,2.3-9.4,3.3-14.1L503.8,482.1z"/>
	<path class="st2" d="M528.7,362.6c2.6-21.3,4.1-41.5,5-59.6l-57.3-74.4l0.5-1.1c-14,8-27.4,20.9-39.3,37.9L528.7,362.6z"/>
	<path class="st2" d="M483.7,525.8L398.8,420c6.5,79.8,38.6,163.5,40.7,168.9C457.4,570.9,471.9,549.2,483.7,525.8z"/>
	<path class="st2" d="M502.7,480.1L502.7,480.1c5.9-17.1,10.8-34.4,14.8-52L409.8,321.6c-2.4,6.9-4.5,14-6.4,21.4
		c-2.7,10.6-4.4,21.4-5.1,32.3L502.7,480.1z"/>
	<path class="st2" d="M237.2,317.8l19.6,51.8c15,10.5,31.4,22.8,48.2,36.6l-24.5-80.7l1.1,0.3c-15.9-5-31.2-7.8-45.4-8.1
		L237.2,317.8z"/>
	<path class="st2" d="M254.2,367.7l-19-50.1c-15.9-0.2-30.4,2.7-42.3,9.1c-0.6,0.3-1.2,0.7-1.8,1
		C195.4,330.1,220.9,344.4,254.2,367.7z"/>
	<path class="st2" d="M390.3,392.8l1.1,0.5c-5.6-5.4-11.3-10.6-17.2-15.5l6.6,101l-0.5-0.2c3,3.5,6,7.1,8.9,10.6L390.3,392.8z"/>
	<path class="st2" d="M337,351.5l1.1,0.4c-17.4-10.8-35.9-19.5-55.3-25.9l24.9,82.3c15.7,13,30.2,26.1,43.5,39.3L337,351.5z"/>
	<path class="st2" d="M173.3,432.9c5.8,13.3,13,26.1,21.3,38l146.1-31.4c-11.8-11.2-23.6-21.5-34.7-30.7l-131.9,25.1L173.3,432.9z"
		/>
	<path class="st2" d="M204.7,484.4l-0.7-1l147.2-33.8c-2.8-2.8-5.7-5.6-8.5-8.3l-146.6,31.5l-0.7-1
		C198.3,476.1,201.4,480.3,204.7,484.4z"/>
	<path class="st2" d="M372,376.4l1.1,0.5c-10.7-8.9-22-17-33.8-24.3l14.4,97.4c8.8,8.8,17.1,17.7,24.9,26.6L372,376.4z"/>
	<path class="st2" d="M419,531.6c13.7,22.8,23.4,45.3,29,67.4c2.5-19.6,9.9-100.2-22.8-162.3L419,531.6z"/>
	<path class="st2" d="M247.2,525.7c10.9,7.7,22.3,14.7,34.1,20.9l-0.7-1.1l135.8-15.2c-7.8-12.7-16.3-24.8-25.5-36.5L247.2,525.7z"
		/>
	<path class="st2" d="M253.4,368.9c-36.1-25.2-62.8-39.8-63.2-40l0.1-0.8c-17.7,10.6-27,28-28.3,49.2L253.4,368.9z"/>
	<path class="st2" d="M391.3,491.9c0.9,1.1,1.8,2.2,2.6,3.3c8.3,10.6,15.9,21.5,23,32.9l6.1-93.9l1.1,0.5
		c-5.9-10.9-13.1-21-21.5-30.1c-3.3-3.6-6.7-7-10.2-10.4L391.3,491.9z"/>
	<path class="st2" d="M303.8,406.9c-16.6-13.6-32.9-25.7-47.7-36.2l-93.5,8.6l-0.7-1c-0.8,16.1,2.9,34.3,11,53.4L303.8,406.9z"/>
	<path class="st2" d="M417.5,532.3l-134.8,15.1c70.9,37.3,158.8,54.9,164.4,56C441.5,578.7,431,554.8,417.5,532.3z"/>
	<path class="st2" d="M389.1,491.9L389.1,491.9c-11.3-14.1-23.3-27.6-36-40.3l-147.6,33.9c4.5,5.7,9.4,11.3,14.6,16.9
		c7.5,7.9,15.7,15.2,24.6,21.6L389.1,491.9z"/>
	<path class="st3" d="M1036.6,634c0,44.7-230.1,124-514,124s-514-79.3-514-124s230.1-38,514-38S1036.6,589.3,1036.6,634z"/>
	<path class="st4" d="M1036.6,634c0,44.7-230.1,124-514,124s-514-79.3-514-124s230.1-38,514-38S1036.6,589.3,1036.6,634z"/>
	<ellipse class="st5" cx="522.6" cy="634" rx="514" ry="81"/>
	<path class="st6" d="M611.7,549.3c0,48.7-67.9,33.7-151.1,33.7s-150.1,15.1-150.1-33.7S378.4,490,461.6,490
		S611.7,500.6,611.7,549.3z"/>
	<path class="st5" d="M611.7,537.3c0,48.7-67.9,33.7-151.1,33.7s-150.1,15.1-150.1-33.7S378.4,478,461.6,478
		S611.7,488.6,611.7,537.3z"/>
	<path class="st7" d="M344.1,403.2c1.8-1.3,3.8-2.3,6-3c13.6-5,27.8-8.1,42.2-9.2c12.5-0.9,26.1,0.2,35.9,8c1.5,1.1,2.8,2.6,3.6,4.2
		c1.2,2.7,0.9,5.8,0.5,8.7c-0.1,1.1-0.4,2.2-0.8,3.3c-1.3,2.5-4.6,3.4-7.4,3.1c-2.8-0.3-5.5-1.5-8.2-2c-1.7-0.3-3.5-0.5-5.2-0.5
		l-17.4-0.9c-10.8-0.6-21.8-1.2-32.5,1c-3.3,0.6-6.4,1.7-9.4,3.2c-2.4,1.4-4.1,3.3-6.3,0.8C341.1,415.5,338.9,407.3,344.1,403.2z"/>
	<path class="st0" d="M371.2,410.9c0,0,23.5-10.5,32.4,1.6c8.9,12.1-4.9,7.3-4.9,7.3l-15.4,4.9l-17-3.2L371.2,410.9z"/>
	<path class="st8" d="M372.4,403.3c0,0,3.2,15.4,0.8,19.4c-2.4,4,13.8,9.7,13.8,9.7l15.4-6.5c0,0-4-25.1,0-29.9L372.4,403.3z"/>
	<path class="st6" d="M372.4,403.3c0,0,3.2,15.4,0.8,19.4c-2.4,4,13.8,9.7,13.8,9.7l15.4-6.5c0,0-4-25.1,0-29.9L372.4,403.3z"/>
	<path class="st9" d="M357.2,588.1c2.2,4.5,4,9.2,5.3,14c0.1,0.6,0.7,1.1,1.3,1c0,0,0.1,0,0.1,0l14.4,0c1.8,0,4.2-0.6,4.1-2.3
		c0-1.2-1.3-2-2.2-2.8c-2.6-2.2-3.3-6-4.4-9.2c-2.1-6.3-6.2-11.8-11.7-15.7c-0.7-0.6-1.6-1-2.5-1.2c-0.9-0.1-1.8-0.1-2.7,0.1
		c-2.5,0.5-12,2.3-10.2,5.9c0.8,1.6,3.6,3.2,4.8,4.7C355,584.2,356.2,586.1,357.2,588.1z"/>
	<path class="st9" d="M407.3,571.4c-0.5,1.1-1.1,2.1-1.7,3.1c-2.1,3.4-4.5,6.6-6.5,10.2c-1.3,2.2-2.1,4.6-2.4,7.1
		c-0.2,2.5,0.8,5,2.7,6.7c2.1,1.6,5,1.7,7.5,1.3c2.6-0.4,5.2-1.1,7.8-0.9c-0.9-5,3.3-9.4,4.4-14.3c0.3-1.4,0.3-2.8,0.7-4.2
		c0.4-1.2,1-2.5,1.6-3.6c2.1-4.1,3.6-8.4,4.4-13c0.1-0.5-12.8-0.6-14-0.4C408.2,564.1,408.7,568.2,407.3,571.4z"/>
	<path class="st7" d="M307.9,493c-3.7,5.8-2.8,13.4-0.2,19.7s6.7,11.9,9.5,18.1c1.8,4,3.1,8.2,5.1,12c2.5,4.8,6.2,9,7.8,14.1
		c1.1,3.3,1.3,6.8,3,9.8c1,1.6,2.2,3.1,3.6,4.4c3.7,4.3,6.5,9.3,8.2,14.7c1.6-4.7,6.3-7.8,11.2-8.8s9.9-0.3,14.9,0.4
		c-2.8-4.3-5.5-8.6-7.2-13.4c-1.6-4.6-2.1-9.6-3.1-14.4c-2.2-9.8-6.9-18.9-11.5-27.8l23.8-1.9c3.9-0.4,7.8-0.5,11.7-0.4
		c6.1,0.3,12.2,1.8,18.3,2.5s12.6,0.5,18-2.3c-10.4,14.9-15.8,32.8-15.5,51c8.6-6.7,21-5.1,27.7,3.5c0.9,1.1,1.6,2.3,2.2,3.5
		c9.3-12.8,8.2-30.5,15.6-44.5c1.5-2.9,3.4-5.5,5-8.4c3.1-5.6,5.8-11.5,7.9-17.5c2.1-5.3,4.2-11.2,2.2-16.5c-0.8-2-2-3.9-3.5-5.4
		c-4.3-4.7-10.2-8.2-16.6-8.3c-9.7-0.2-17.8,7-26.3,11.7c-10.2,5.4-21.7,7.8-33.3,6.9c-11.7-0.8-23-4.7-34.1-8.1
		c-5.6-1.8-11.3-3.2-17-4.4c-4.8-0.9-9.4,0.1-14.1,1.3C316,486,310.9,488.4,307.9,493z"/>
	<path class="st8" d="M409.6,387.9c0,13.4-10.9,24.3-24.3,24.3c-1.4,0-2.9-0.1-4.3-0.4c-13.2-2.4-21.9-15-19.6-28.2
		c2.4-13.2,15-21.9,28.2-19.6C401.2,366.1,409.6,376.2,409.6,387.9L409.6,387.9z"/>
	<path class="st0" d="M371.2,410.9c0,0,4.4,2,6.1,3.6c1.6,1.6,6.5,10.5,14.6,4.9s8.9-8.9,11.3-8.9c2.4,0,5.7,4.9,5.7,4.9l22.2,66.7
		c-6,6.8-12.9,12.6-20.6,17.4c-12.9,8.1-28.3,12.1-35.6,8.9c-7.3-3.2-21-5.7-23.5-12.1c-2.4-6.5-6.5-25.9-6.5-25.9l11.3-49.3
		L371.2,410.9z"/>
	<path class="st7" d="M368,478.4c1.8-3.8,2-8.1,2.2-12.3c0.2-4.2,0.1-8.3-0.3-12.5c-0.7-5.4-2.5-10.6-3.6-16
		c-1-4.7-1.4-9.5-1.4-14.2c0-2.2,0.2-4.5,1.4-6.3c0.8-1.3,2.1-2.3,2.6-3.7c1-2.8-1.5-5.8-4.3-6.9c-3.4-1.3-7-1.4-10.5-0.4
		c-3.4,1-6.7,2.3-9.8,4c-2.4,1-4.5,2.4-6.4,4.2c-2.5,2.6-3.6,6.2-4.5,9.7c-0.7,2.8-1.3,5.7-0.8,8.6c0.9,4.6,4.6,8.1,6.6,12.3
		c2.3,4.9,2.2,10.7,1.2,16.1c-0.9,5.4-2.6,10.6-3.1,16.1c-0.5,5.4,0.3,11.3,3.7,15.5c1.4,1.7,5.1,5.9,7.7,5.4c2-0.4,4.9-4.8,6.5-6.1
		C359.9,487.8,365.4,484.2,368,478.4z"/>
	<path class="st7" d="M410.4,408.3c0.1,4.5-1.9,8.8-4.3,12.7c-2.3,3.9-5.1,7.5-6.8,11.7c-2.1,5.2-2.6,11-1.2,16.5
		c0.5,1.9,1.1,3.7,1.8,5.5l4.4,12.2c0.6,1.9,1.5,3.7,2.6,5.4c1,1.3,2.2,2.4,3.5,3.4c3.4,2.7,7.2,4.7,11.4,5.9
		c4.2,1.2,8.7,0.9,12.7-0.7c0.4-16.5,3.1-32.8,7.9-48.6c0.9-2.9,1.9-6,1.2-8.9c-0.8-3.3-3.4-5.8-6-8.1c-7.8-7-16.3-14.3-26.7-15.2
		C404.8,399.4,410.4,405,410.4,408.3z"/>
	<path class="st8" d="M357.3,502.3c0.6,1.2,1,2.5,1.6,3.7c0.9,1.6,2,3.1,3.3,4.4c5.4,6,12,12,20.1,12.3c0.8,0.1,1.6,0,2.4-0.3
		c1.4-0.7,2.3-2.1,2.5-3.6c0.6-3.1-0.8-6.3-2.2-9.1c-3-6.2-6.4-12.6-12-16.6c-5.7-3.9-12.8-5-19.4-2.9c-2.9,0.9-7.8,2.5-3.9,5.1
		C352.6,497.5,355.6,499,357.3,502.3z"/>
	<path class="st8" d="M392.2,423.2c-0.8-2.3-2.1-4.4-3.8-6.1c-1.7-1.4-3.7-2.4-5.8-2.9c-2.8-0.8-5.6-1.2-8.5-1.2
		c-3.4,0-7.4,0.9-8.9,4c-1.2,2.5-0.3,5.4,0.9,7.8c0.5,1.3,1.3,2.4,2.4,3.2c1.5,1,3.4,1,5.1,1.3c2.7,0.7,5.3,1.9,7.6,3.4l6,3.6
		l10.3,6.2c-0.3-0.2-0.2-7.2-0.5-8.4C396.1,430.5,393.8,426.8,392.2,423.2z"/>
	<path class="st7" d="M362.2,600.2c-2.4,3.3-1.9,8-4.1,11.4c-1.9,3-5.3,4.6-7.7,7.2c-0.7,0.9-1.4,1.8-2,2.8
		c-2.1,3.6-3.9,8.2-1.8,11.8c1.7,2.9,5.3,4,8.6,4.8c4.1,1,8.5,1.8,12.7,1c4.2-0.7,8.3-3.3,9.8-7.3c0.3-1,0.6-2,1-3
		c2.3-4.5,9.4-4.5,11.7-9c1.6-3.1,0.1-6.9-1.4-10.1l-4.6-9.7c-1.5-3.2-7.7-1.4-10.9-2.1C369.5,597.2,365.2,596.1,362.2,600.2z"/>
	<path class="st7" d="M397.5,591.9c-1.9,1.5-3.3,3.4-4.1,5.7c-2.3,5.2-3,10.9-3.8,16.6c-0.4,2.2-0.5,4.5-0.1,6.8
		c1,4.6,5.1,8,9.6,9.4c4.5,1.4,9.3,1.2,14,1c1.5,0,3-0.3,4.4-0.9c2.4-1.3,3.3-4.4,2.9-7c-0.4-2.7-1.9-5-3.3-7.3s-2.9-4.7-3.3-7.3
		c-0.7-4.5,1.3-11.1-1.5-15.1C409.6,589.5,401.2,589.3,397.5,591.9z"/>
	<path class="st7" d="M409,375.2c-0.4-1.5-1.4-2.7-2.7-3.5c0.1-1.6-0.1-3.1-0.6-4.6c-1.5-4.3-5-4.1-8.2-6c-1.4-0.8-1.3-1.6-2.1-2.9
		c-1-1.8-2.4-3.3-4.2-4.3c-2.1-1.3-4.3-2.7-6.8-2.9c-5.2-0.4-9.3,4.6-14.3,6.2c-2.2,0.7-4.6,0.7-6.8,1.4c-2.2,0.7-4.4,2.2-4.8,4.5
		c-0.2,1.1,0.1,2.1,0,3.2c-0.3,2.1-2.2,3.6-3.4,5.3c-2.7,3.8-2.4,9.2-0.2,13.4c0.5,0.9,1,1.7,1.6,2.5c0.2,2,0.7,3.9,1.7,5.6
		c2.2,4.2,5.9,7.3,9.9,9.8c-0.3-1.4-0.5-2.8-0.6-4.2c-0.1-0.5,0-0.9,0.2-1.4c0.4-0.9,1.6-1.2,2.5-1.7c1.8-1,2.5-3.3,2.6-5.4
		s-0.4-4.2-0.2-6.3c0-1,0.4-1.9,1.2-2.5c0.7-0.4,1.4-0.6,2.2-0.5c3.7-0.2,7.6-0.2,10.9-2c1.1-0.7,2.2-1.3,3.4-1.7
		c2.8-0.7,5.7,1.2,7.3,3.6c1.6,2.4,2.4,5.3,3.9,7.7s4.1,4.7,6.9,4.4c0.3,0,0.6-0.1,0.9-0.4c0.1-0.2,0.2-0.5,0.2-0.7l0.2-11
		C409.7,379,409.5,377.1,409,375.2z"/>
	<path class="st7" d="M332.2,432.8c-2.3,3.4-5,6.7-6.3,10.6c-0.7,2.3-1,4.7-1.5,7.1c-1.8,7.9-7,14.9-7.5,22.9
		c-0.2,1.8,0.1,3.6,0.8,5.3c1.5,3.3,5.1,5,8.5,6c3.4,1.1,7.1,1.9,9.8,4.2c1.4,1.3,2.6,2.8,3.7,4.3c4.4,5.5,10.4,9.6,17.2,11.8
		c-0.5-3.7-0.8-8.1,2.2-10.4c1.6-1.2,3.7-1.5,5.7-1.6l9.5-0.8c-6.3-6.1-13.3-11.6-20.8-16.2c-2.6-1.6-5.5-3.3-6.7-6.2
		c-0.6-1.8-0.9-3.8-0.8-5.7c-0.1-7-0.7-14.1-1.8-21c-0.8-4.8-1.8-9.6-3-14.4c-0.3-1.3-2.3-7.3-4.7-5.9c-0.6,0.3-1.1,4.1-1.4,4.9
		C334.3,429.5,333.3,431.2,332.2,432.8z"/>
	<path class="st7" d="M441.3,419.9l3.9,8c1.9,3.3,2.7,7.1,2.4,10.9l0.2,24.1c0.2,3.2-0.1,6.5-0.8,9.6c-0.2,1-0.7,2-1.3,2.9
		c-0.7,0.7-1.4,1.4-2.3,1.8c-7.3,4.6-16.8,7.2-24.6,3.3c-1.8-0.9-3.5-2-5-3.3c-3.1-2.3-6.2-4.6-8.5-7.7c-2.4-3.2-3.8-7.1-5.4-10.7
		c-2.9-6.6-6.7-12.8-11.2-18.4c-0.7-0.7-1.2-1.7-1.4-2.8c0-2.1,2.5-3.2,4.4-4c3.3-1.4,6.5-4,7.1-7.6c7.1,9.3,15,19.2,26.2,22.6
		c0.5,0.3,1.3,0.2,1.6-0.4c0.1-0.2,0.2-0.4,0.2-0.6c0.6-2.7,0.9-5.4,1.3-8.1c0.9-4.9,2.5-9.7,4.9-14.1
		C434.3,423.2,438.6,414.2,441.3,419.9z"/>
	<path class="st6" d="M345.3,443.2c0.1,5.7-1.1,11.4-3.5,16.5c-0.6,1.1-1.1,2.4-1.4,3.6c-0.4,2.7,1.1,5.4,2.9,7.5
		c3.5,4.1,8,7.3,13.1,9.1"/>
	<path class="st6" d="M429.3,438.4c-0.6,1.5-0.1,3.2,0.4,4.8c1.3,4.6,1.9,9.3,1.8,14c0.1,0.3-0.1,0.5-0.4,0.6c-0.1,0-0.1,0-0.2,0
		c-1.9,0.1-4,0.1-5.3-1.2"/>
	<ellipse class="st6" cx="746.6" cy="640" rx="126" ry="27"/>
	<polygon class="st10" points="809.6,399 800.6,408 809.6,417 818.6,399 	"/>
	<path class="st11" d="M811.6,321c2.5,1,3.7,3.9,4.7,6.4l11.7,31.4l2.3,6.1c1.1,3,2.2,6,3.2,9c0.6,1.9,1.1,3.9,1.6,5.9
		c0.5,1.7,0.7,3.4,0.5,5.2c-0.3,1.9-1,3.8-2.1,5.4c-4.1,7.1-9.8,13-16.8,17.2c-0.8-5.3-4.3-9.8-9.1-11.9l6-3.3
		c1.3-0.6,2.4-1.4,3.4-2.5c1.2-1.6,1.6-3.7,1.3-5.7c-0.4-2-1-3.9-1.8-5.7c-2-5.1-3.8-10.2-5.3-15.5c-0.9-3.1-1.7-6.3-3.4-9
		c-1.6-2.5-3.9-4.4-5.3-7c-2.2-3.9-2.1-8.7-1.2-13c0.8-3.7,2.2-7.2,3.3-10.8C805.6,320.5,808.9,319.9,811.6,321z"/>
	<path class="st7" d="M756,237.1c-4.6,1.6-8.8,5.2-9.8,10c-0.4,2.2-0.2,4.5-0.5,6.8c-0.9,5.2-4.9,9.2-8.7,12.9s-7.6,8-7.9,13.2
		c-0.3,5.8,3.9,11.2,3.2,16.9c-0.8,6.6-7.9,11-9.6,17.4c-1.2,4.3,0.3,9,2.6,12.8c4.5,7.3,12.1,12.2,20.2,14.9s16.7,3.2,25.3,3.3
		c10.4,0.1,21.7-0.8,29.5-7.6c4.5-3.9,7.3-9.4,7.8-15.4c0.7-7.9-2.6-16.1-0.3-23.8c1.4-4.8,5-9.2,4.5-14.2
		c-0.5-4.9-4.8-8.3-7.7-12.3c-2.7-3.7-4.4-8-6-12.3l-5.6-14.7c-1.1-2.9-2.3-5.9-4.7-7.8c-4.6-3.5-11.9-2.8-17.2-2.1
		C766,235.9,760.7,235.5,756,237.1z"/>
	<path class="st10" d="M760.3,285.4c0,0,0.5,16.3-1.1,17.9s6.5,12.5,6.5,12.5l14.7-0.5l7.6-6l-6.5-8.7c0,0-2.7-14.1-0.5-17.4
		S760.3,285.4,760.3,285.4z"/>
	<path class="st6" d="M760.3,285.4c0,0,0.5,16.3-1.1,17.9s6.5,12.5,6.5,12.5l14.7-0.5l7.6-6l-6.5-8.7c0,0-2.7-14.1-0.5-17.4
		S760.3,285.4,760.3,285.4z"/>
	<polygon class="st10" points="726.3,411.2 735.5,431.9 742.6,423.2 728.5,404.7 	"/>
	<polygon class="st10" points="701.6,618 697.8,639.2 691.3,648.4 695.1,650.6 701.6,649.5 709.2,646.8 712.4,634.3 718.4,618 	"/>
	<polygon class="st10" points="771.1,605 769,635.4 774.4,639.7 783.1,632.1 783.1,609.9 	"/>
	<circle class="st10" cx="769.2" cy="272.1" r="19.6"/>
	<path class="st11" d="M784.3,298.4c-1.2-0.6-2.6-0.6-3.8-0.1c-1.2,0.5-2.3,1.1-3.4,1.8c-2.9,1.5-6.1,2.1-9.3,1.7
		c-0.4,0-0.7-0.1-1.1-0.3c-0.4-0.2-0.7-0.5-1-0.8c-2.4-2-5.9-1.7-8,0.7c-0.6,0.7-1,1.6-1.6,2.2c-1.6,1.7-4.3,1.8-6.7,1.8
		c-4.9-0.1-9.9,0.3-14.7,1.3c-4.8,1-9.3,3.4-12.9,6.8c-1,0.9-1.8,2-2.3,3.3c-0.7,1.7-0.6,3.6-1.2,5.3c-0.7,1.9-2.1,3.5-2.7,5.4
		c-0.4,1.5-0.4,3.1-1.1,4.4c3.2,2.7,5.9,6.4,9,9.2c2.1,1.8,4.3,3.8,5.1,6.5c0.4,1.6,0.5,3.3,0.5,5c0.4,8,4.8,15.3,9.6,21.7
		c1.3,1.9,2.9,3.6,4.8,5c2.5,1.7,5.3,2.8,8.2,3.3c5.6,1.1,11.3,1.1,16.9,1.1c5.9-0.1,11.8-0.2,17.4-2c2.8-0.8,5.4-2.4,7.3-4.6
		c2.3-2.8,3.2-6.9,6.3-8.7c0.8-0.3,1.5-0.8,2.1-1.3c0.6-0.7,1.1-1.5,1.3-2.4c1.1-3.4,1.7-7,1.8-10.5c-0.1-2.1,0.1-4.3,0.4-6.4
		c0.5-1.9,1.3-3.7,2.3-5.3l6.5-11.7c0.5-1,0.4-2.4,0.4-3.4c0-1.6-0.5-3.1-1.4-4.4c-4.2-7.4-10.8-13.2-18.7-16.4
		c-0.6-0.2-1.2-0.5-1.8-0.9c-0.6-0.5-1.2-1.2-1.6-1.9C789.5,301.2,787.4,298.3,784.3,298.4z"/>
	<path class="st11" d="M703.7,362.4c-1.3,3.1-2.2,6.3-2.8,9.6c-0.6,4.6,0.1,9.2,2.1,13.4c3.5,7.2,10.4,12.1,15.2,18.4
		c4.5,5.9,7.2,13,11.1,19.3c-0.7-1.6,0.1-3.5,1.3-4.8s2.5-2.5,3.4-4c0.6-1.2,0.9-2.5,1-3.8c0.6-3.9,0.9-8.2-1.1-11.6
		c-1.5-2.6-4.1-4.3-6.1-6.4c-4.2-4.4-6-10.6-4.9-16.6c0.4-2,1.1-4,1.7-6c0.7-2.7,1.2-5.4,1.5-8.2l2.4-16.8c0.7-4.5,1.2-9.4-1.3-13.2
		c-0.5-0.8-1.2-1.4-2-1.9c-0.7-0.3-1.4-0.5-2.1-0.6c-2.7-0.4-6.3-1.6-7.6,1.3c-1.6,3.4-2.7,7.2-4,10.8L703.7,362.4z"/>
	<path class="st7" d="M796.9,371.6c0,0-32.3,6.2-39.9,6.2h-13.6c0,0-4.9,8.7-4.9,17.4s-32.1,130.4-32.1,130.4s-30.4,100,3.3,100.5
		s54.9,2.2,55.4-9.2s3.8-158.7,3.8-158.7L774,534c1.4,18.7-0.1,37.6-4.3,55.9c-2.4,10.3-2.1,21.5,10.1,23.8
		c23.4,4.3,52.7,0.5,52.7-7.6s-15.2-189.1-15.2-189.1s-7.6-26.6-12-28.8S796.9,371.6,796.9,371.6z"/>
	<path class="st7" d="M695.6,647.4l12-4.3l8.2-20.6l8.7-1.1c0,0-4.9,10.3-7.6,12s-7.1,15.2-7.1,15.2s2.2,5.4-8.2,7.6
		s-17.9,3.8-17.9,3.8s-1.1-2.2,3.8-7.6s10.6-14.6,10.6-14.6L695.6,647.4z"/>
	<path class="st7" d="M769,622.4l-2.2,16.3c0,0,6,8.7,7.6,8.7s10.3-7.6,10.3-7.6s-0.5-8.2,0-10.3s1.6-12.5,0-13s-1.6,12.1-1.6,12.1
		l-7.1,7.5l-6.8-4.1L769,622.4z"/>
	<ellipse class="st7" cx="770.9" cy="260.7" rx="21.2" ry="11.4"/>
	<path class="st5" d="M0,484.7c0,64,40.2,115.8,89.8,115.8"/>
	<path class="st2" d="M89.8,600.5c0-64.7,44.8-117.1,100.2-117.1"/>
	<path class="st2" d="M32.5,490.5c0,60.8,25.6,110,57.3,110"/>
	<path class="st5" d="M89.8,600.5c0-82.7,51.8-149.7,115.8-149.7"/>
	<path class="st12" d="M70.9,601.3c0,0,12.7-0.4,16.6-3.1s19.6-6,20.5-1.6s19.1,21.8,4.8,21.9s-33.4-2.2-37.2-4.6
		S70.9,601.3,70.9,601.3z"/>
	<path class="st13" d="M113,616.9c-14.4,0.1-33.4-2.2-37.2-4.6c-2.9-1.8-4.1-8.2-4.5-11.1c-0.3,0-0.4,0-0.4,0s0.8,10.3,4.6,12.6
		s22.9,4.7,37.2,4.6c4.1,0,5.6-1.5,5.5-3.7C117.7,616.1,116.1,616.9,113,616.9z"/>
</g>
<g id="Layer_2">
	<rect x="-3.1" y="-1.2" class="st14" width="1041" height="764.8"/>
</g>
</svg>
