<?xml version="1.0" encoding="utf-8"?>
<!-- Generator: Adobe Illustrator 23.0.1, SVG Export Plug-In . SVG Version: 6.00 Build 0)  -->
<svg version="1.1" xmlns="http://www.w3.org/2000/svg" xmlns:xlink="http://www.w3.org/1999/xlink" x="0px" y="0px"
	 viewBox="0 0 1084.2 758.6" style="enable-background:new 0 0 1084.2 758.6;" xml:space="preserve">
<style type="text/css">
	.st0{opacity:0.1;fill:#83B93B;enable-background:new    ;}
	.st1{fill:#AAABB0;}
	.st2{fill:#33323D;}
	.st3{fill:#444053;}
	.st4{fill:#083400;}
	.st5{fill:#FFB9B9;}
	.st6{fill:#504F60;}
	.st7{opacity:0.1;enable-background:new    ;}
	.st8{fill:#006D86;}
	.st9{fill:#AE6E79;}
	.st10{fill:#FFFFFF;}
	.st11{fill:#83B93B;}
	.st12{fill:#B96B6B;}
	.st13{opacity:0.1;}
	.st14{fill:#464A5F;}
	.st15{fill:#9C9CA1;}
	.st16{fill:#939498;}
	.st17{opacity:0.4;fill:#FFFFFF;}
</style>
<g id="Layer_1">
	<title>interview</title>
	<path class="st0" d="M461.2,29.2c-44.1-16.8-90.6-30.8-138.2-29c-69.9,2.6-137,41.9-169.9,99.7c-27.9,48.9-31.3,106.3-43.3,160.6
		c-14.8,66.9-43.1,130.5-73.4,192.7C20.2,486.5,3,520.6,0.4,557.2c-3.7,50.8,22.3,101.5,63,135.3s94.8,51.7,149.1,55.5
		c28.9,2.1,59.1,0.2,84.7-12.4c27.1-13.3,46.9-37.4,74.2-50.5c25.3-12.2,54.8-13.9,83.2-12.3c37,2.1,73.6,9.3,108.6,21.6
		c39.6,13.9,76.5,34.1,116,48.2s83.7,22,124.2,10.2c38-11.1,68-38,95-65.2c44.2-44.4,84.8-92.4,121.2-143.4
		c24.4-34.2,47.1-70.3,57.9-110.2c20.6-76.2-7.8-162.2-70.7-214.3C954.6,176.7,884.5,158,816,146.6c-62.5-10.4-134.8-11-192.4-38
		C568.7,82.8,518.8,51.1,461.2,29.2z"/>
	<polygon class="st1" points="632.6,619 632.6,655.3 642.9,655.3 640.9,616.3 	"/>
	<polygon class="st1" points="477.4,611.7 477.4,648 487.8,648 485.8,609 	"/>
	<path class="st1" d="M651.2,551.7L651.2,551.7c3.7,0,6.7,3,6.7,6.7v51.3c0,3.7-3,6.7-6.7,6.7h0c-3.7,0-6.7-3-6.7-6.7v-51.3
		C644.6,554.7,647.6,551.7,651.2,551.7z"/>
	<path class="st1" d="M480.2,537.3L480.2,537.3c3.7,0,6.7,3,6.7,6.7v65.7c0,3.7-3,6.7-6.7,6.7h0c-3.7,0-6.7-3-6.7-6.7V544
		C473.6,540.3,476.6,537.3,480.2,537.3z"/>
	<path class="st1" d="M674.9,164.7c0,0,13.3-5.7,15.3,0c2,5.7,3,54.7,3,54.7h-12.7L674.9,164.7z"/>
	<path class="st1" d="M528.9,164.7c0,0-13.3-5.7-15.3,0c-2,5.7-3,54.7-3,54.7h12.7L528.9,164.7z"/>
	<polygon class="st1" points="530.9,116 528.9,156.7 537.9,156.7 537.9,115 	"/>
	<path class="st2" d="M523.3,219.3l2.7-58.7c0,0-1-13,30.7-9s124.3,12,124.3,12v55.7H523.3z"/>
	<path class="st2" d="M649.9,528.3l-5,89.7c0,0-73.3,40.7-162.3,2l8-94.3L649.9,528.3z"/>
	<polygon class="st3" points="580.3,175.3 581.9,233.3 685.3,233.3 679.3,156.7 	"/>
	<rect x="493.4" y="490" class="st4" width="97.3" height="123.3"/>
	<path class="st5" d="M554.9,540.3c0,0,14-11,16.3-7.7s-8.3,17.7-12.7,16S554.9,540.3,554.9,540.3z"/>
	<rect x="304.5" y="216" class="st6" width="639" height="320"/>
	<path class="st2" d="M523.6,113.7c0,0-5-46.7,0-52.3S612.6,2,690.3,65c0,0,7.3,0.3,6,17c-0.8,10.5-0.7,21.1,0.2,31.7
		C696.4,113.7,529.3,125.7,523.6,113.7z"/>
	<path class="st7" d="M523.6,113.7c0,0-5-46.7,0-52.3S612.6,2,690.3,65c0,0,7.3,0.3,6,17c-0.8,10.5-0.7,21.1,0.2,31.7
		C696.4,113.7,529.3,125.7,523.6,113.7z"/>
	<path class="st2" d="M523.6,119.7c0,0-5-46.7,0-52.3S612.6,8,690.3,71c0,0,7.3,0.3,6,17c-0.8,10.5-0.7,21.1,0.2,31.7
		C696.4,119.7,529.3,131.7,523.6,119.7z"/>
	<path class="st8" d="M699.3,98.3c0,0,5.3,20,3.7,23.3s-1.4,12.7-1.4,12.7s0.4,6-2.3,6.7s-5,1-2.8,3s0,5,0,5s-1.2,4.7,0,7.7
		s-6.8,4.3-6.2,8s2.9,14.3,0,14.7s1,13.3-1.6,13.3s-4.5,23.3-4.5,23.3s-18.5-15.7-30.8-11.3c0,0,1-13,5-17.7s2.8-16.7,2.8-16.7
		l19.8-59.7L699.3,98.3z"/>
	<path class="st9" d="M600.3,374.1c-4.3,4.8-9-20.8-9-20.8s-12.3,17-20.3,5.7c-5.5-7.9-1.2-30.1,2-43c1.4-5.7,2.6-9.6,2.6-9.6l18-3
		c0,0,0.1,3.9,0.5,8.7c0.5,6.4,1.7,14.4,4.2,16.3C602.6,331.7,604.6,369.3,600.3,374.1z"/>
	<path class="st7" d="M590.9,74.7c0,0-31.3-0.3-39,16.3s-8,22.3-11,25s32.7,16.7,32.7,16.7l1.7,57.3c0,0,7-7.1,18.3-3.9
		s25.7,0,25.7,0s-0.7-1.2,8.7,0s39-14.5,39-14.5s0.5-25.1-0.2-30.4s21.2-44.6,21.2-44.6s17-16.3-0.7-22c0,0-6.3-9.4-22.3-9.3
		S590.9,74.7,590.9,74.7z"/>
	<path class="st8" d="M590.9,73.7c0,0-31.3-0.3-39,16.3s-8,22.3-11,25s32.7,16.7,32.7,16.7l1.7,57.3c0,0,7-7.1,18.3-3.9
		s25.7,0,25.7,0s-0.7-1.2,8.7,0s39-14.5,39-14.5s11.7-19,11-24.3c-0.7-5.3,23.3-45.7,23.3-45.7s3.7-21.3-14-27c0,0-6.3-9.4-22.3-9.3
		S590.9,73.7,590.9,73.7z"/>
	<path class="st7" d="M594.1,312c-6.9-2.1-17.7,2.6-21.1,4c1.4-5.7,2.6-9.6,2.6-9.6l18-3C593.6,303.4,593.7,307.3,594.1,312z"/>
	<path class="st8" d="M550.6,115h-9.7c0,0-2,20.3,0,26.3s3,5.1,2.3,9.6c-0.7,4.4,4.7,11.2,4.7,11.2s0.7,16.8,4,23
		c3.3,6.2-3.7,34.2-3.7,34.2c1.9,4.8,4.7,9.2,8.3,13c5.7,5.7,8.7,26.7,7,34.7s4.7,11,4.7,11s2.7,37.3,3.7,37.3s20.3-10,26.3-1.3
		l-4.7-34.3l0.3-66.3c0,0-6.3-8.3-3-15.7s-2.7-24.7-2.7-24.7l-8.7-38.7L550.6,115z"/>
	<path class="st2" d="M490.6,642c0,0-14-3-14.3,0s-16.7,33.7,3.7,42.7s74.7,28.3,163,3.3c0,0,5.7,2,4.3-10.3s-1.3-26-1.3-26
		s-13.3-3.7-23.3-2.3S525.6,668.3,490.6,642z"/>
	<path class="st7" d="M490.6,642c0,0-14-3-14.3,0s-16.7,33.7,3.7,42.7s74.7,28.3,163,3.3c0,0,5.7,2,4.3-10.3s-1.3-26-1.3-26
		s-13.3-3.7-23.3-2.3S525.6,668.3,490.6,642z"/>
	<path class="st2" d="M490.6,638c0,0-14-3-14.3,0s-16.7,33.7,3.7,42.7s74.7,28.3,163,3.3c0,0,5.7,2,4.3-10.3s-1.3-26-1.3-26
		s-13.3-3.7-23.3-2.3S525.6,664.3,490.6,638z"/>
	<path class="st3" d="M572.2,127c-0.9,4.9-2.8,9.6-3.1,14.5c-0.3,5,1.6,10.6,6.2,12.5c1.3,0.4,2.5,0.9,3.7,1.5
		c1.8,1.2,2.5,3.4,2.8,5.5c0.5,2.7,0.6,5.5,0.3,8.2c-0.3,2.8-0.8,5.7,0.5,8.1c2.4,4.3,8.6,3.6,13.4,2.4l-1.6,12.6
		c-0.1,1-0.2,2.1,0.5,2.8c0.7,0.5,1.6,0.7,2.4,0.5c4.1-0.3,8.4-0.8,11.9-3s6.2-6.2,5.5-10.3c-0.8-4.7-5.7-8.5-5-13.2
		c0.5-3.7,4.1-6,6.5-8.8c4.3-5.2,4.5-13,1.2-18.8s-9.8-9.5-16.5-10.1c-3.7-0.4-7.5,0.1-11-1.2c-2.4-0.9-4.3-2.9-5.1-5.4"/>
	<path class="st4" d="M455.9,571.7l3.5-7.6c0,0,18.8-17.6,23.2-18.8s22-6.6,24.7-6.6s51.3-2.7,51.3-2.7l5.7,13.3l-61.1,13.4
		l-20.6,15L455.9,571.7z"/>
	<path class="st5" d="M602.7,367l-3.2,24.5l-1.2,9.5l-14.3,2c0,0-1.5-3.3-3.7-8.4c-6.7-15.5-19.2-47.4-11.9-52.9
		c9.7-7.3,12,17,12,17l11-5.3L602.7,367z"/>
	<rect x="527.9" y="412.7" class="st10" width="72.4" height="109.3"/>
	<rect x="527.9" y="412.7" class="st7" width="72.4" height="109.3"/>
	
		<rect x="534.4" y="431.2" transform="matrix(0.1463 -0.9892 0.9892 0.1463 40.52 981.7003)" class="st10" width="109.3" height="72.4"/>
	
		<rect x="554.1" y="430.3" transform="matrix(0.1463 -0.9892 0.9892 0.1463 53.0552 959.2284)" class="st11" width="56.3" height="37.3"/>
	
		<rect x="571.1" y="476.6" transform="matrix(0.1463 -0.9892 0.9892 0.1463 -1.0193 997.1596)" class="st11" width="12.2" height="45.1"/>
	<circle class="st7" cx="619.3" cy="95" r="41.8"/>
	<circle class="st9" cx="619.3" cy="94" r="41.8"/>
	<path class="st3" d="M584.8,125c-0.3-1.1-0.2-2.2,0.3-3.2c1.6-3.3,6.1-3.6,9.8-3.4c8.6,0.4,18.1,0.4,24.8-5c2.8-2.2,5.9-7.9,10-6.8
		c3.6,0.9,5.1,5.9,8.9,6.9c2.7,0.8,5.6-0.5,8.3-1c4-0.8,8.1-0.1,12.2-0.1s8.5-0.7,11.2-3.7c3.7-4,3.1-10.3,2.8-15.7
		c-0.4-7.1,0.1-14.2,1.4-21.1c1.4-6.9,3.5-14.7-0.4-20.6c-3.6-5.7-11.2-7.2-16.3-11.5c-4.8-4-7.4-10.4-12.5-14.1
		c-6.4-4.7-15.1-4-23-3.2l-17.1,1.8c-4.4,0.5-9,1-12.6,3.6c-6.5,4.7-7.5,14.6-13.7,19.8c-2.8,2.3-6.3,3.4-9.4,5.2s-6.2,4.4-6.5,8
		c-0.3,3,1.3,5.8,2.1,8.7c1.9,6.9-1,14-2.9,20.9s-2.2,15.4,3.2,20c1.1,0.9,2.4,1.7,3.5,2.6c3.7,3.4,4.2,9,3.3,13.9"/>
	<ellipse class="st3" cx="622.7" cy="143.8" rx="1" ry="2.5"/>
	<ellipse class="st3" cx="622.7" cy="154.2" rx="1" ry="2.5"/>
	<path class="st9" d="M600.5,374.1c1.1-1.2,1.8-4.4,2.2-8.6l-11.9-14.9C590.8,350.6,595.8,379.4,600.5,374.1z"/>
	<path class="st7" d="M613.9,619.7c0,0-19.6,30.2-80.7,27c-57.6-3-85.7-31.3-84.3-41.3s-3.7-34.3,8.7-41.3c7.2-4,16.6-1.7,23.2,1.1
		c4.7,1.9,10,0.9,13.8-2.5c6.1-5.5,17.4-11.6,35.3-6.8c2.3,0.6,4.7,0.6,7-0.1c7.4-2.3,25.2-6.2,38,2.5c4.1,2.9,9.6,3.1,13.9,0.5
		l0.2-0.1c6-3.7,34,31,34,31S624.3,616.3,613.9,619.7z"/>
	<path class="st4" d="M613.9,620.7c0,0-19.6,30.2-80.7,27c-57.6-3-85.7-31.3-84.3-41.3s-3.7-34.3,8.7-41.3c7.2-4,16.6-1.7,23.2,1.1
		c4.7,1.9,10,0.9,13.8-2.5c6.1-5.5,17.4-11.6,35.3-6.8c2.3,0.6,4.7,0.6,7-0.1c7.4-2.3,25.2-6.2,38,2.5c4.1,2.9,9.6,3.1,13.9,0.5
		l0.2-0.1c6-3.7,34,31,34,31S624.3,617.3,613.9,620.7z"/>
	
		<ellipse transform="matrix(0.9239 -0.3827 0.3827 0.9239 -186.2137 249.1802)" class="st7" cx="533.3" cy="592.7" rx="39.8" ry="39.8"/>
	
		<ellipse transform="matrix(0.9239 -0.3827 0.3827 0.9239 -186.5964 249.2563)" class="st5" cx="533.3" cy="593.7" rx="39.8" ry="39.8"/>
	<path class="st12" d="M521.8,559.2c-4.2,1.1-8.3,3.3-10.3,6.8c-1.2,2.1-1.7,4.7-3.4,6.5c-2.5,2.5-6.8,2.6-10.2,4s-5.7,6.4-2.3,8
		c-3.5,0.2-6.1,3.4-6.5,6.6s0.8,6.4,2,9.4c3.8,9.8,7.9,20.1,16.3,27.1c13.7,11.4,34.4,10.9,52.8,9.7c1.5,0,3-0.3,4.3-1
		c2-1.3,2.3-3.8,2.6-6.1c1.4-9.5,6.5-18.1,9.9-27.1s4.7-19.7-0.9-27.7C567.7,563.6,535.9,555.4,521.8,559.2z"/>
	<path class="st7" d="M599.5,391.6l-1.2,9.5l-14.3,2c0,0-1.5-3.3-3.7-8.4l19.1-3.6L599.5,391.6z"/>
	<path class="st4" d="M614.6,600.3l8.3-9.7l-1.7-53.3c0.8-3.8,1.4-7.7,1.7-11.7c0.3-5.7-4.2-18.3-4.2-18.3c0.7-2.5,1.6-5,2.8-7.3
		c2-4-2.8-13-2.8-13s-7.2-23.3-4.2-35s-0.7-18.3-0.7-18.3s-2.9-13-2.6-18.3s-6.7-10.3-6.7-10.3l-5.3-13l-21.3,4v45
		c0,0,1.3,43,0,51.3s2.7,16.3,2.7,16.3s-2.3,12.3-0.3,17s6,16,6,16c-0.7,4-0.5,8.2,0.7,12.2c2,5.8,0,9.2,0,9.2L614.6,600.3z"/>
	<g class="st13">
		<path d="M674.6,68.5c-1.1,5.9-1.6,11.8-1.5,17.8c0.1-5,0.6-9.9,1.5-14.8c0.9-4.4,2-9.2,1.8-13.6C676,61.5,675.4,65,674.6,68.5z"/>
		<path d="M568.9,109.8c-1.1-1-2.3-1.7-3.5-2.6c-2.9-2.5-4.2-6.1-4.4-10c-0.3,5,0.7,9.8,4.4,13c1.1,0.9,2.4,1.7,3.5,2.6
			c2.2,2.2,3.5,5.2,3.6,8.4C572.8,117,572,112.6,568.9,109.8z"/>
		<path d="M565.7,72.5c0.2-2.1,0-4.2-0.5-6.3c-0.6-2.1-1.6-4.2-2-6.4c0,0.2-0.1,0.5-0.1,0.7c-0.3,3,1.3,5.8,2.1,8.7
			C565.5,70.2,565.6,71.3,565.7,72.5z"/>
		<path d="M670.4,105.4c-2.8,3-7.2,3.7-11.2,3.7s-8.2-0.7-12.2,0.1c-2.8,0.6-5.6,1.8-8.3,1c-3.8-1.1-5.3-6-8.9-6.9
			c-4.1-1.1-7.2,4.6-10,6.8c-6.8,5.4-16.2,5.4-24.8,5c-3.7-0.2-8.2,0.1-9.8,3.4c-0.5,1-0.6,2.2-0.3,3.2l-12.2,1.9c0,1-0.2,2-0.3,3
			l12.5-2c-0.3-1.1-0.2-2.2,0.3-3.2c1.6-3.3,6.1-3.6,9.8-3.4c8.6,0.4,18.1,0.4,24.8-5c2.8-2.2,5.9-7.9,10-6.8
			c3.6,0.9,5.1,5.9,8.9,6.9c2.7,0.8,5.6-0.5,8.3-1c4-0.8,8.1-0.1,12.2-0.1s8.5-0.7,11.2-3.7s3.2-7.4,3-11.7
			C673.2,99.9,672.5,103,670.4,105.4z"/>
	</g>
	<g class="st13">
		<path d="M577.8,153.4c-1.2-0.6-2.4-1.1-3.7-1.5c-2.2-1-3.9-2.7-4.8-4.9c0.8,3.4,2.7,6.6,5.8,7.9c1.3,0.4,2.5,0.9,3.7,1.5
			c0.8,0.5,1.4,1.2,1.8,2.1C580.2,156.5,579.4,154.5,577.8,153.4z"/>
		<path d="M594.9,177.8c-4.6,1.2-10.6,1.8-13.2-2.1c0.1,0.9,0.4,1.9,0.8,2.7c2.2,3.9,7.4,3.7,11.9,2.8L594.9,177.8z"/>
		<path d="M613.5,180.5c0.6,4.1-2,8.1-5.5,10.2s-7.8,2.7-11.9,3c-0.7,0.1-1.3,0-1.9-0.2c-0.5,1.2,0,2.6,1.2,3.1
			c0.5,0.2,1.2,0.3,1.7,0.1c4.1-0.3,8.4-0.8,11.9-3s6.2-6.2,5.5-10.3C614.3,182.4,614,181.4,613.5,180.5z"/>
		<path d="M618,144.3c1.2,4.9,0.1,10.1-3,14.1c-2.4,2.9-6,5.1-6.5,8.8c-0.2,1.7,0.2,3.4,1,4.9c-0.1-0.6-0.1-1.2,0-1.9
			c0.5-3.7,4.1-6,6.5-8.8C619.9,156.8,620.4,149.8,618,144.3z"/>
	</g>
	<g class="st13">
		<path d="M497.9,578.1c3.4-1.4,7.7-1.5,10.2-4c1.8-1.8,2.2-4.3,3.4-6.5c2-3.6,6.2-5.7,10.3-6.8c14-3.8,45.9,4.3,54.2,16.1
			c2.4,3.6,3.8,7.8,3.8,12.1c0.3-5-1-9.9-3.8-14.1c-8.3-11.8-40.2-19.9-54.2-16.1c-4.2,1.1-8.3,3.3-10.3,6.8
			c-1.2,2.1-1.7,4.7-3.4,6.5c-2.5,2.5-6.8,2.6-10.2,4c-2.6,1.1-4.5,4.2-3.8,6.3C494.6,580.5,496,578.9,497.9,578.1z"/>
		<path d="M489.1,592.6c0.4-3.2,3-6.4,6.5-6.6c-0.7-0.3-1.3-0.9-1.5-1.7c-2.7,1-4.6,3.4-5,6.3c-0.1,0.8-0.1,1.6,0,2.5
			C489.1,592.9,489.1,592.8,489.1,592.6z"/>
	</g>
	<rect x="609.9" y="230.2" class="st10" width="91" height="118.7"/>
	<rect x="609.9" y="230.2" class="st7" width="91" height="118.7"/>
	
		<rect x="655.4" y="244.1" transform="matrix(0.9855 -0.1695 0.1695 0.9855 -41.287 123.208)" class="st10" width="91" height="118.7"/>
	
		<rect x="669.9" y="330.3" transform="matrix(0.9855 -0.1695 0.1695 0.9855 -48.5119 120.3644)" class="st11" width="21.4" height="27.9"/>
	
		<rect x="699.1" y="325.3" transform="matrix(0.9855 -0.1695 0.1695 0.9855 -47.2388 125.2344)" class="st11" width="21.4" height="27.9"/>
	
		<rect x="666.5" y="289.6" transform="matrix(0.9856 -0.1692 0.1692 0.9856 -41.2261 123.5222)" class="st11" width="75" height="28"/>
	
		<rect x="658.5" y="256.8" transform="matrix(0.9856 -0.1692 0.1692 0.9856 -33.9518 121.5383)" class="st11" width="75" height="6.2"/>
	
		<rect x="660.9" y="268.1" transform="matrix(0.9856 -0.1692 0.1692 0.9856 -35.8339 122.1119)" class="st11" width="75" height="6.2"/>
	<path class="st9" d="M661.1,198c0,0-41.8,42-20.8,52.7s34.7-35.5,34.7-35.5l3.3-10.5L661.1,198z"/>
	<path class="st7" d="M657.4,194.3l-5.2,11.4c0,0,25.5,3.6,30.8,11.3l-3.2-20.1l-3.8-8.6L657.4,194.3z"/>
	<path class="st8" d="M658.4,193.3l-5.2,11.4c0,0,25.5,3.6,30.8,11.3l-3.2-20.1l-3.8-8.6L658.4,193.3z"/>
	<polygon class="st14" points="812.8,403.3 812.2,403.6 813,404 813.8,403.9 813.9,403.3 	"/>
	<polygon class="st7" points="812.8,403.3 812.2,403.6 813,404 813.8,403.9 813.9,403.3 	"/>
	<polygon class="st15" points="812.8,403.3 812.2,403.6 811.8,403.1 812,402.6 812.3,402.6 	"/>
	<polygon class="st7" points="812.8,403.3 812.2,403.6 811.8,403.1 812,402.6 812.3,402.6 	"/>
	<path class="st15" d="M911.2,334.1L870.3,275c-1.5-2.2-4.6-2.8-6.8-1.3c0,0,0,0,0,0l-91.3,62.6c-2.2,1.5-2.8,4.6-1.3,6.8l40.8,59.9
		L911.2,334.1z"/>
	<path class="st7" d="M911.2,334.1L870.3,275c-1.5-2.2-4.6-2.8-6.8-1.3c0,0,0,0,0,0l-91.3,62.6c-2.2,1.5-2.8,4.6-1.3,6.8l40.8,59.9
		L911.2,334.1z"/>
	<path class="st15" d="M912.2,334.3l-40.9-59.1c-1.5-2.2-4.6-2.8-6.8-1.3c0,0,0,0,0,0l-91.3,62.7c-2.2,1.5-2.8,4.6-1.3,6.8
		l40.8,59.9L912.2,334.3z"/>
	<path class="st14" d="M946.4,346l-34-10.9L813,404l34.5,11.3c1.6,0.5,3.3,0.2,4.6-0.7l94.5-66.8c0.5-0.3,0.7-0.9,0.4-1.4
		C947,346.2,946.7,346,946.4,346z"/>
	<path class="st7" d="M946.4,346l-34-10.9L813,404l34.5,11.3c1.6,0.5,3.3,0.2,4.6-0.7l94.5-66.8c0.5-0.3,0.7-0.9,0.4-1.4
		C947,346.2,946.7,346,946.4,346z"/>
	<path class="st14" d="M946.2,345.3l-34-10.9l-99.4,68.9l34.5,11.3c1.6,0.5,3.3,0.3,4.6-0.7l94.5-66.8c0.5-0.3,0.6-0.9,0.3-1.4
		C946.7,345.5,946.5,345.4,946.2,345.3z"/>
	<g class="st13">
		<path d="M896.2,331.6l-2.5-3.6c-0.3-0.4-0.9-0.5-1.4-0.3l-3.7,2.5c-0.4,0.3-0.6,0.9-0.3,1.4l2.3,3.5c0.3,0.4,0.9,0.6,1.3,0.3
			l3.9-2.5C896.3,332.7,896.4,332.1,896.2,331.6z"/>
		<path d="M889.5,336.3l-2.5-3.6c-0.3-0.4-0.9-0.5-1.4-0.3l-3.7,2.5c-0.4,0.3-0.6,0.9-0.3,1.4l2.3,3.5c0.3,0.4,0.9,0.6,1.3,0.3
			l3.9-2.5C889.6,337.4,889.8,336.8,889.5,336.3C889.5,336.3,889.5,336.3,889.5,336.3z"/>
		<path d="M882.4,341.2l-2.5-3.6c-0.3-0.4-0.9-0.5-1.4-0.3l-3.7,2.5c-0.4,0.3-0.6,0.9-0.3,1.4l2.3,3.5c0.3,0.4,0.9,0.6,1.3,0.3
			l3.9-2.5C882.6,342.3,882.7,341.6,882.4,341.2C882.4,341.2,882.4,341.2,882.4,341.2z"/>
		<path d="M875.3,346.1l-2.5-3.6c-0.3-0.4-0.9-0.5-1.3-0.3l-3.7,2.5c-0.4,0.3-0.6,0.9-0.3,1.4l2.3,3.5c0.3,0.4,0.9,0.6,1.3,0.3
			l3.9-2.5C875.5,347.2,875.6,346.6,875.3,346.1C875.3,346.1,875.3,346.1,875.3,346.1z"/>
		<path d="M868.2,351l-2.5-3.6c-0.3-0.4-0.9-0.5-1.4-0.3l-3.7,2.5c-0.4,0.3-0.6,0.9-0.3,1.4l2.3,3.5c0.3,0.4,0.9,0.6,1.3,0.3
			l3.9-2.5C868.3,352.1,868.5,351.5,868.2,351C868.2,351,868.2,351,868.2,351z"/>
		<path d="M861.4,356.4l-3.1-4.5c-0.1-0.2-0.4-0.3-0.6-0.1c0,0,0,0,0,0l-4.6,3.1c-0.2,0.1-0.3,0.4-0.1,0.6c0,0,0,0,0,0l2.9,4.4
			c0.1,0.2,0.4,0.3,0.6,0.1l4.8-3C861.4,357,861.5,356.7,861.4,356.4C861.4,356.5,861.4,356.4,861.4,356.4z"/>
		<path d="M854.2,361.3l-3.2-4.5c-0.1-0.2-0.4-0.3-0.6-0.1c0,0,0,0,0,0l-4.6,3.1c-0.2,0.1-0.3,0.4-0.1,0.6l2.9,4.4
			c0.1,0.2,0.4,0.3,0.6,0.2c0,0,0,0,0,0l4.8-3C854.3,361.9,854.4,361.7,854.2,361.3C854.3,361.4,854.3,361.4,854.2,361.3z"/>
		<path d="M847.9,365.7l-3.1-4.4c-0.1-0.2-0.4-0.2-0.6-0.1l-4.6,3.1c-0.2,0.1-0.3,0.4-0.1,0.6l2.9,4.4c0.1,0.2,0.4,0.3,0.6,0.1
			l4.8-3c0.2-0.1,0.3-0.4,0.2-0.6C848,365.8,848,365.7,847.9,365.7z"/>
		<path d="M840.9,370.6l-3.1-4.5c-0.1-0.2-0.4-0.2-0.6-0.1l-4.6,3.1c-0.2,0.1-0.3,0.4-0.1,0.6c0,0,0,0,0,0l2.9,4.4
			c0.1,0.2,0.4,0.3,0.6,0.1l4.8-3C841,371.2,841,370.9,840.9,370.6C840.9,370.6,840.9,370.6,840.9,370.6z"/>
		<path d="M834,375.3l-3.1-4.5c-0.1-0.2-0.4-0.3-0.6-0.1c0,0,0,0,0,0l-4.6,3.1c-0.2,0.1-0.3,0.4-0.1,0.6c0,0,0,0,0,0l2.9,4.4
			c0.1,0.2,0.4,0.3,0.6,0.1l4.8-3C834.1,375.9,834.2,375.6,834,375.3C834.1,375.3,834,375.3,834,375.3z"/>
		<path d="M827.2,380.1l-3.1-4.5c-0.1-0.2-0.4-0.2-0.6-0.1l-4.6,3.1c-0.2,0.1-0.3,0.4-0.1,0.6c0,0,0,0,0,0l2.9,4.4
			c0.1,0.2,0.4,0.3,0.6,0.1l4.8-3C827.3,380.6,827.4,380.3,827.2,380.1C827.2,380.1,827.2,380.1,827.2,380.1z"/>
		<path d="M820.3,384.8l-3.1-4.5c-0.1-0.2-0.4-0.3-0.6-0.1c0,0,0,0,0,0l-4.6,3.1c-0.2,0.1-0.3,0.4-0.1,0.6c0,0,0,0,0,0l2.9,4.4
			c0.1,0.2,0.4,0.3,0.6,0.1l4.8-3C820.4,385.3,820.5,385.1,820.3,384.8C820.4,384.8,820.3,384.8,820.3,384.8z"/>
		<path d="M891.7,325.1l-2.5-3.6c-0.3-0.4-0.9-0.5-1.4-0.3l-3.7,2.5c-0.4,0.3-0.6,0.9-0.3,1.4l2.3,3.5c0.3,0.4,0.9,0.6,1.3,0.3
			l3.9-2.5C891.9,326.2,892,325.6,891.7,325.1z"/>
		<path d="M881.8,310.9l-2.5-3.6c-0.3-0.4-0.9-0.5-1.3-0.3l-3.7,2.5c-0.4,0.3-0.6,0.9-0.3,1.4l2.3,3.5c0.3,0.4,0.9,0.6,1.3,0.3
			l3.9-2.5C882,312,882.1,311.4,881.8,310.9z"/>
		<path d="M884.9,329.8l-2.5-3.6c-0.3-0.4-0.9-0.5-1.3-0.3l-3.7,2.5c-0.4,0.3-0.6,0.9-0.3,1.4l2.3,3.5c0.3,0.4,0.9,0.6,1.3,0.3
			l3.9-2.5C885.1,330.9,885.3,330.3,884.9,329.8C884.9,329.8,884.9,329.8,884.9,329.8z"/>
		<path d="M877.9,334.6l-2.5-3.6c-0.3-0.4-0.9-0.5-1.4-0.3l-3.7,2.5c-0.4,0.3-0.6,0.9-0.3,1.4l2.3,3.5c0.3,0.4,0.9,0.6,1.3,0.3
			l3.9-2.5C878.1,335.7,878.2,335.1,877.9,334.6z"/>
		<path d="M870.8,339.6l-2.5-3.6c-0.3-0.4-0.9-0.5-1.4-0.3l-3.7,2.6c-0.4,0.3-0.6,0.9-0.3,1.4l2.3,3.5c0.3,0.4,0.9,0.6,1.3,0.3
			l3.9-2.5C871,340.7,871.1,340.1,870.8,339.6C870.8,339.6,870.8,339.6,870.8,339.6z"/>
		<path d="M875.3,315.8l-2.5-3.6c-0.3-0.4-0.9-0.5-1.3-0.3l-3.7,2.5c-0.4,0.3-0.6,0.9-0.3,1.4l2.3,3.5c0.3,0.4,0.9,0.6,1.3,0.3
			l3.9-2.5C875.4,316.9,875.6,316.3,875.3,315.8C875.3,315.8,875.3,315.8,875.3,315.8z"/>
		<path d="M868.2,320.7l-2.5-3.6c-0.3-0.4-0.9-0.5-1.4-0.3l-3.7,2.5c-0.4,0.3-0.6,0.9-0.3,1.4l2.3,3.5c0.3,0.4,0.9,0.6,1.3,0.3
			l3.9-2.5C868.4,321.7,868.5,321.1,868.2,320.7z"/>
		<path d="M861.1,325.6l-2.5-3.6c-0.3-0.4-0.9-0.5-1.3-0.3l-3.7,2.6c-0.4,0.3-0.6,0.9-0.3,1.4l2.3,3.5c0.3,0.4,0.9,0.6,1.3,0.3
			l3.9-2.5C861.3,326.7,861.4,326.1,861.1,325.6C861.1,325.6,861.1,325.6,861.1,325.6z"/>
		<path d="M863.7,344.5l-2.5-3.6c-0.3-0.4-0.9-0.5-1.3-0.3l-3.7,2.5c-0.4,0.3-0.6,0.9-0.3,1.4l2.3,3.5c0.3,0.4,0.9,0.6,1.3,0.3
			l3.9-2.5C863.8,345.6,864,345,863.7,344.5C863.7,344.5,863.7,344.5,863.7,344.5z"/>
		<path d="M856.5,349.5l-2.5-3.6c-0.3-0.4-0.9-0.5-1.4-0.3l-3.7,2.5c-0.4,0.3-0.6,0.9-0.3,1.4l2.3,3.5c0.3,0.4,0.9,0.6,1.3,0.3
			l3.9-2.5C856.7,350.5,856.8,349.9,856.5,349.5C856.5,349.5,856.5,349.5,856.5,349.5z"/>
		<path d="M849.7,354.8l-3.1-4.5c-0.1-0.2-0.4-0.3-0.6-0.1c0,0,0,0,0,0l-4.6,3.1c-0.2,0.1-0.3,0.4-0.1,0.6c0,0,0,0,0,0l2.9,4.4
			c0.1,0.2,0.4,0.3,0.6,0.1c0,0,0,0,0,0l4.8-3C849.8,355.4,849.9,355.1,849.7,354.8C849.8,354.9,849.7,354.8,849.7,354.8z"/>
		<path d="M843.4,359.2l-3.1-4.5c-0.1-0.2-0.4-0.2-0.6-0.1l-4.6,3.1c-0.2,0.1-0.3,0.4-0.1,0.6l2.9,4.4c0.1,0.2,0.4,0.3,0.6,0.1
			l4.8-3C843.5,359.8,843.6,359.5,843.4,359.2C843.5,359.3,843.4,359.2,843.4,359.2z"/>
		<path d="M836.4,364.1l-3.1-4.5c-0.1-0.2-0.4-0.2-0.6-0.1l-4.6,3.1c-0.2,0.1-0.3,0.4-0.1,0.6c0,0,0,0,0,0l2.9,4.4
			c0.1,0.2,0.4,0.3,0.6,0.1l4.8-3C836.4,364.6,836.5,364.4,836.4,364.1C836.4,364.1,836.4,364.1,836.4,364.1z"/>
		<path d="M829.5,368.8l-3.1-4.5c-0.1-0.2-0.4-0.3-0.6-0.1c0,0,0,0,0,0l-4.6,3c-0.2,0.1-0.3,0.4-0.1,0.6c0,0,0,0,0,0l2.9,4.4
			c0.1,0.2,0.4,0.3,0.6,0.1l4.8-3C829.6,369.3,829.7,369,829.5,368.8C829.5,368.8,829.5,368.8,829.5,368.8z"/>
		<path d="M873.2,327.9l-2.5-3.6c-0.3-0.4-0.9-0.5-1.3-0.3l-3.7,2.5c-0.4,0.3-0.6,0.9-0.3,1.4l2.3,3.5c0.3,0.4,0.9,0.6,1.3,0.3
			l3.9-2.5C873.4,329,873.5,328.4,873.2,327.9C873.2,327.9,873.2,327.9,873.2,327.9z"/>
		<path d="M866.1,332.8l-2.5-3.6c-0.3-0.4-0.9-0.5-1.4-0.3l-3.7,2.5c-0.4,0.3-0.6,0.9-0.3,1.4l2.3,3.5c0.3,0.4,0.9,0.6,1.3,0.3
			l3.9-2.5C866.3,333.9,866.4,333.3,866.1,332.8C866.1,332.8,866.1,332.8,866.1,332.8z"/>
		<path d="M859,337.8l-2.5-3.6c-0.3-0.4-0.9-0.5-1.4-0.3l-3.7,2.5c-0.4,0.3-0.6,0.9-0.3,1.4l2.3,3.5c0.3,0.4,0.9,0.6,1.3,0.3
			l3.9-2.5C859.1,338.8,859.3,338.2,859,337.8C859,337.8,859,337.8,859,337.8z"/>
		<path d="M851.8,342.7l-2.5-3.6c-0.3-0.4-0.9-0.5-1.3-0.3l-3.7,2.5c-0.4,0.3-0.6,0.9-0.3,1.4l2.3,3.6c0.3,0.4,0.9,0.6,1.3,0.3
			l3.9-2.5C852,343.8,852.2,343.2,851.8,342.7C851.9,342.7,851.9,342.7,851.8,342.7z"/>
		<path d="M845.1,348.1l-3.1-4.5c-0.1-0.2-0.4-0.3-0.6-0.1c0,0,0,0,0,0l-4.6,3.1c-0.2,0.1-0.3,0.4-0.1,0.6l2.9,4.4
			c0.1,0.2,0.4,0.3,0.6,0.1c0,0,0,0,0,0l4.8-3C845.2,348.6,845.2,348.3,845.1,348.1C845.1,348.1,845.1,348.1,845.1,348.1z"/>
		<path d="M838.7,352.4l-3.1-4.5c-0.1-0.2-0.4-0.3-0.6-0.1l-4.6,3.1c-0.2,0.1-0.3,0.4-0.1,0.6l2.9,4.4c0.1,0.2,0.4,0.3,0.6,0.1
			l4.8-3C838.8,353,838.9,352.7,838.7,352.4C838.8,352.5,838.7,352.4,838.7,352.4z"/>
		<path d="M831.7,357.3l-3.1-4.5c-0.1-0.2-0.4-0.3-0.6-0.1l-4.6,3.1c-0.2,0.1-0.3,0.4-0.1,0.6l2.9,4.4c0.1,0.2,0.4,0.3,0.6,0.1
			l4.8-3C831.8,357.9,831.8,357.6,831.7,357.3C831.7,357.3,831.7,357.3,831.7,357.3z"/>
		<path d="M824.8,362.1l-3.1-4.5c-0.1-0.2-0.4-0.3-0.6-0.1c0,0,0,0,0,0l-4.6,3.1c-0.2,0.1-0.3,0.4-0.1,0.6l2.9,4.4
			c0.1,0.2,0.4,0.3,0.6,0.2c0,0,0,0,0,0l4.8-3C824.9,362.6,825,362.4,824.8,362.1C824.9,362.1,824.9,362.1,824.8,362.1z"/>
		<path d="M822.7,373.6l-3.1-4.5c-0.1-0.2-0.4-0.2-0.6-0.1l-4.6,3.1c-0.2,0.1-0.3,0.4-0.1,0.6c0,0,0,0,0,0l2.9,4.4
			c0.1,0.2,0.4,0.3,0.6,0.1l4.8-3C822.8,374.1,822.8,373.8,822.7,373.6C822.7,373.6,822.7,373.6,822.7,373.6z"/>
		<path d="M815.8,378.3l-3.1-4.5c-0.1-0.2-0.4-0.3-0.6-0.1c0,0,0,0,0,0l-4.6,3.1c-0.2,0.1-0.3,0.4-0.1,0.6c0,0,0,0,0,0l2.9,4.4
			c0.1,0.2,0.4,0.3,0.6,0.1l4.8-3C815.9,378.9,816,378.6,815.8,378.3C815.9,378.3,815.8,378.3,815.8,378.3z"/>
		<path d="M826.6,350l-3-4.2c-0.2-0.3-0.6-0.3-0.8-0.1l-4.3,2.9c-0.3,0.2-0.4,0.6-0.2,0.8c0,0,0,0,0,0l2.7,4.1
			c0.2,0.3,0.5,0.4,0.8,0.2c0,0,0,0,0,0l4.6-2.9C826.6,350.7,826.8,350.3,826.6,350C826.6,350,826.6,350,826.6,350z"/>
		<path d="M819.7,354.7l-3-4.2c-0.2-0.3-0.6-0.4-0.8-0.2c0,0,0,0,0,0l-4.3,3c-0.3,0.2-0.4,0.6-0.2,0.8c0,0,0,0,0,0l2.7,4.2
			c0.2,0.3,0.6,0.4,0.8,0.2l4.6-2.9C819.8,355.4,819.9,355.1,819.7,354.7C819.8,354.7,819.7,354.7,819.7,354.7z"/>
		<path d="M812.9,359.4l-3-4.2c-0.2-0.3-0.6-0.3-0.8-0.1l-4.3,2.9c-0.3,0.2-0.4,0.6-0.2,0.8c0,0,0,0,0,0l2.7,4.1
			c0.2,0.3,0.5,0.4,0.8,0.2c0,0,0,0,0,0l4.6-2.9C813,360.1,813.1,359.7,812.9,359.4C812.9,359.5,812.9,359.4,812.9,359.4z"/>
		<path d="M806.1,364.3l-3.1-4.5c-0.1-0.2-0.4-0.2-0.6-0.1l-4.6,3.1c-0.2,0.1-0.3,0.4-0.1,0.6l2.9,4.4c0.1,0.2,0.4,0.3,0.6,0.1
			l4.8-3c0.2-0.1,0.3-0.4,0.2-0.6C806.2,364.4,806.2,364.3,806.1,364.3z"/>
		<path d="M887.1,318.1l-2.7-3.9c-0.3-0.4-0.9-0.5-1.4-0.2l-10.6,7.4c-0.4,0.3-0.5,0.9-0.3,1.3l2.5,3.9c0.3,0.5,0.9,0.6,1.4,0.3
			c0,0,0,0,0,0l10.7-7.5C887.3,319.2,887.4,318.6,887.1,318.1z"/>
		<path d="M818,366.6l-3.3-4.7c-0.1-0.2-0.4-0.3-0.6-0.1c0,0,0,0,0,0l-11.4,8c-0.2,0.1-0.3,0.4-0.1,0.6l3.1,4.8
			c0.1,0.2,0.4,0.3,0.6,0.1c0,0,0,0,0,0l11.6-8.1C818.1,367.1,818.1,366.9,818,366.6z"/>
		<path d="M854.3,330.8l-3.1-4.5c-0.1-0.2-0.4-0.3-0.6-0.1l-25.4,17.1c-0.2,0.1-0.3,0.4-0.1,0.6l3.1,4.8c0.1,0.2,0.4,0.3,0.6,0.1
			c0,0,0,0,0,0l25.3-17.4C854.4,331.3,854.4,331,854.3,330.8C854.3,330.8,854.3,330.8,854.3,330.8z"/>
	</g>
	<path class="st14" d="M896.8,331.8l-2.5-3.6c-0.3-0.4-0.9-0.5-1.4-0.3l-3.7,2.5c-0.4,0.3-0.6,0.9-0.3,1.4l2.3,3.5
		c0.3,0.4,0.9,0.6,1.3,0.3l3.9-2.5C897,332.9,897.1,332.2,896.8,331.8C896.8,331.8,896.8,331.8,896.8,331.8z"/>
	<path class="st14" d="M890.1,336.4l-2.5-3.6c-0.3-0.4-0.9-0.5-1.3-0.3l-3.7,2.5c-0.4,0.3-0.6,0.9-0.3,1.4l2.3,3.5
		c0.3,0.4,0.9,0.6,1.3,0.3l3.9-2.5C890.3,337.5,890.4,336.9,890.1,336.4C890.1,336.4,890.1,336.4,890.1,336.4z"/>
	<path class="st14" d="M883.1,341.3l-2.5-3.6c-0.3-0.4-0.9-0.5-1.4-0.3l-3.7,2.5c-0.4,0.3-0.6,0.9-0.3,1.4l2.3,3.5
		c0.3,0.4,0.9,0.6,1.3,0.3l3.9-2.5C883.3,342.4,883.4,341.8,883.1,341.3C883.1,341.3,883.1,341.3,883.1,341.3z"/>
	<path class="st14" d="M875.9,346.2l-2.5-3.6c-0.3-0.4-0.9-0.5-1.3-0.3l-3.7,2.5c-0.5,0.3-0.6,0.9-0.3,1.4c0,0,0,0,0,0l2.3,3.5
		c0.3,0.4,0.9,0.6,1.3,0.3l3.9-2.5C876.1,347.4,876.3,346.7,875.9,346.2C876,346.3,876,346.2,875.9,346.2z"/>
	<path class="st14" d="M868.8,351.1l-2.5-3.6c-0.3-0.4-0.9-0.5-1.3-0.3l-3.7,2.5c-0.4,0.3-0.6,0.9-0.3,1.4l2.3,3.5
		c0.3,0.4,0.9,0.6,1.3,0.3l3.9-2.5C869,352.2,869.1,351.6,868.8,351.1C868.8,351.2,868.8,351.2,868.8,351.1z"/>
	<path class="st14" d="M862,356.5l-3.1-4.5c-0.1-0.2-0.4-0.3-0.6-0.1c0,0,0,0,0,0l-4.6,3.1c-0.2,0.1-0.3,0.4-0.1,0.6c0,0,0,0,0,0
		l2.9,4.4c0.1,0.2,0.4,0.3,0.6,0.1l4.8-3C862.1,357.1,862.2,356.8,862,356.5C862,356.6,862,356.5,862,356.5z"/>
	<path class="st14" d="M854.9,361.5l-3.1-4.5c-0.1-0.2-0.4-0.3-0.6-0.1c0,0,0,0,0,0l-4.6,3.1c-0.2,0.1-0.3,0.4-0.1,0.6c0,0,0,0,0,0
		l2.9,4.4c0.1,0.2,0.4,0.3,0.6,0.1c0,0,0,0,0,0l4.8-3C855,362,855.1,361.7,854.9,361.5C854.9,361.5,854.9,361.5,854.9,361.5z"/>
	<path class="st14" d="M848.6,365.8l-3.1-4.5c-0.1-0.2-0.4-0.2-0.6-0.1l-4.6,3c-0.2,0.1-0.3,0.4-0.1,0.6l2.9,4.4
		c0.1,0.2,0.4,0.3,0.6,0.1l4.8-3C848.7,366.3,848.7,366.1,848.6,365.8C848.6,365.8,848.6,365.8,848.6,365.8z"/>
	<path class="st14" d="M841.5,370.7l-3.1-4.4c-0.1-0.2-0.4-0.2-0.6-0.1l-4.6,3.1c-0.2,0.1-0.3,0.4-0.1,0.6c0,0,0,0,0,0l2.9,4.4
		c0.1,0.2,0.4,0.3,0.6,0.1l4.8-3c0.2-0.1,0.3-0.4,0.2-0.6C841.6,370.8,841.6,370.8,841.5,370.7z"/>
	<path class="st14" d="M834.7,375.5l-3.1-4.5c-0.1-0.2-0.4-0.3-0.6-0.1c0,0,0,0,0,0l-4.6,3.1c-0.2,0.1-0.3,0.4-0.1,0.6c0,0,0,0,0,0
		l2.9,4.4c0.1,0.2,0.4,0.3,0.6,0.1c0,0,0,0,0,0l4.8-3C834.8,376,834.8,375.7,834.7,375.5C834.7,375.5,834.7,375.5,834.7,375.5z"/>
	<path class="st14" d="M827.8,380.2l-3.1-4.5c-0.1-0.2-0.4-0.2-0.6-0.1l-4.6,3.1c-0.2,0.1-0.3,0.4-0.1,0.6l2.9,4.4
		c0.1,0.2,0.4,0.3,0.6,0.1l4.8-3C827.9,380.8,828,380.5,827.8,380.2C827.9,380.2,827.9,380.2,827.8,380.2z"/>
	<path class="st14" d="M821,384.9l-3.1-4.5c-0.1-0.2-0.4-0.3-0.6-0.1c0,0,0,0,0,0l-4.6,3.1c-0.2,0.1-0.3,0.4-0.1,0.6c0,0,0,0,0,0
		l2.9,4.4c0.1,0.2,0.4,0.3,0.6,0.1c0,0,0,0,0,0l4.8-3C821.1,385.5,821.2,385.2,821,384.9C821,385,821,384.9,821,384.9z"/>
	<path class="st14" d="M892.3,325.3l-2.5-3.6c-0.3-0.4-0.9-0.5-1.3-0.3l-3.7,2.5c-0.4,0.3-0.6,0.9-0.3,1.4l2.3,3.5
		c0.3,0.4,0.9,0.6,1.3,0.3l3.9-2.5C892.5,326.4,892.6,325.8,892.3,325.3C892.3,325.3,892.3,325.3,892.3,325.3z"/>
	<path class="st14" d="M882.5,311l-2.5-3.6c-0.3-0.4-0.9-0.5-1.3-0.3l-3.7,2.5c-0.4,0.3-0.6,0.9-0.3,1.4l2.3,3.5
		c0.3,0.4,0.9,0.6,1.3,0.3l3.9-2.5C882.6,312.1,882.8,311.5,882.5,311C882.5,311,882.5,311,882.5,311z"/>
	<path class="st14" d="M885.6,329.9l-2.5-3.6c-0.3-0.4-0.9-0.5-1.3-0.3l-3.7,2.5c-0.4,0.3-0.6,0.9-0.3,1.4l2.3,3.5
		c0.3,0.4,0.9,0.6,1.3,0.3l3.9-2.5C885.8,331,885.9,330.4,885.6,329.9z"/>
	<path class="st14" d="M878.6,334.8l-2.5-3.6c-0.3-0.4-0.9-0.5-1.3-0.3l-3.7,2.5c-0.4,0.3-0.6,0.9-0.3,1.4l2.3,3.5
		c0.3,0.4,0.9,0.6,1.3,0.3l3.9-2.5C878.8,335.9,878.9,335.2,878.6,334.8C878.6,334.8,878.6,334.8,878.6,334.8z"/>
	<path class="st14" d="M871.4,339.7l-2.5-3.6c-0.3-0.4-0.9-0.5-1.4-0.3l-3.7,2.5c-0.4,0.3-0.6,0.9-0.3,1.4l2.3,3.5
		c0.3,0.4,0.9,0.6,1.3,0.3l3.9-2.5C871.6,340.8,871.7,340.2,871.4,339.7C871.4,339.7,871.4,339.7,871.4,339.7z"/>
	<path class="st14" d="M875.9,315.9l-2.5-3.6c-0.3-0.4-0.9-0.5-1.3-0.3l-3.7,2.5c-0.4,0.3-0.6,0.9-0.3,1.4l2.3,3.5
		c0.3,0.4,0.9,0.6,1.3,0.3l3.9-2.5C876.1,317,876.2,316.4,875.9,315.9z"/>
	<path class="st14" d="M868.9,320.8l-2.5-3.6c-0.3-0.4-0.9-0.5-1.3-0.3l-3.7,2.5c-0.4,0.3-0.6,0.9-0.3,1.4l2.3,3.5
		c0.3,0.4,0.9,0.6,1.3,0.3l3.9-2.5C869.1,321.9,869.2,321.2,868.9,320.8C868.9,320.8,868.9,320.8,868.9,320.8z"/>
	<path class="st14" d="M861.8,325.7l-2.5-3.6c-0.3-0.4-0.9-0.5-1.4-0.3l-3.7,2.5c-0.4,0.3-0.6,0.9-0.3,1.4l2.3,3.6
		c0.3,0.4,0.9,0.6,1.3,0.3l3.9-2.5C861.9,326.8,862.1,326.2,861.8,325.7C861.8,325.7,861.8,325.7,861.8,325.7z"/>
	<path class="st14" d="M864.3,344.6l-2.5-3.6c-0.3-0.4-0.9-0.5-1.3-0.3l-3.7,2.5c-0.4,0.3-0.6,0.9-0.3,1.4l2.3,3.5
		c0.3,0.4,0.9,0.6,1.3,0.3l3.9-2.5C864.5,345.7,864.6,345.1,864.3,344.6z"/>
	<path class="st14" d="M857.2,349.6l-2.5-3.6c-0.3-0.4-0.9-0.5-1.3-0.3l-3.7,2.6c-0.4,0.3-0.6,0.9-0.3,1.4l2.3,3.5
		c0.3,0.4,0.9,0.6,1.3,0.3l3.9-2.5C857.4,350.7,857.5,350.1,857.2,349.6C857.2,349.6,857.2,349.6,857.2,349.6z"/>
	<path class="st14" d="M850.4,355l-3.1-4.5c-0.1-0.2-0.4-0.3-0.6-0.1c0,0,0,0,0,0l-4.5,3.1c-0.2,0.1-0.3,0.4-0.1,0.6c0,0,0,0,0,0
		l2.9,4.4c0.1,0.2,0.4,0.3,0.6,0.1c0,0,0,0,0,0l4.8-3C850.5,355.5,850.6,355.2,850.4,355C850.4,355,850.4,355,850.4,355z"/>
	<path class="st14" d="M844.1,359.3l-3.1-4.5c-0.1-0.2-0.4-0.3-0.6-0.1l-4.6,3.1c-0.2,0.1-0.3,0.4-0.1,0.6l2.9,4.4
		c0.1,0.2,0.4,0.3,0.6,0.1l4.8-3C844.2,359.9,844.2,359.6,844.1,359.3C844.1,359.3,844.1,359.3,844.1,359.3z"/>
	<path class="st14" d="M837,364.2l-3.1-4.5c-0.1-0.2-0.4-0.2-0.6-0.1l-4.6,3.1c-0.2,0.1-0.3,0.4-0.1,0.6l2.9,4.4
		c0.1,0.2,0.4,0.3,0.6,0.1l4.8-3c0.2-0.1,0.3-0.4,0.2-0.6C837.1,364.3,837,364.2,837,364.2z"/>
	<path class="st14" d="M830.2,368.9l-3.1-4.5c-0.1-0.2-0.4-0.3-0.6-0.1c0,0,0,0,0,0l-4.6,3.1c-0.2,0.1-0.3,0.4-0.1,0.6l2.9,4.4
		c0.1,0.2,0.4,0.3,0.6,0.1l4.8-3C830.3,369.5,830.4,369.2,830.2,368.9C830.2,369,830.2,369,830.2,368.9z"/>
	<path class="st14" d="M873.9,328l-2.5-3.6c-0.3-0.4-0.9-0.5-1.4-0.3l-3.7,2.5c-0.4,0.3-0.6,0.9-0.3,1.4l2.3,3.5
		c0.3,0.4,0.9,0.6,1.3,0.3l3.9-2.5C874.1,329.1,874.2,328.5,873.9,328C873.9,328,873.9,328,873.9,328z"/>
	<path class="st14" d="M866.8,332.9l-2.5-3.6c-0.3-0.4-0.9-0.5-1.3-0.3l-3.7,2.5c-0.4,0.3-0.6,0.9-0.3,1.4l2.3,3.5
		c0.3,0.4,0.9,0.6,1.3,0.3l3.9-2.5C866.9,334,867.1,333.4,866.8,332.9C866.8,332.9,866.8,332.9,866.8,332.9z"/>
	<path class="st14" d="M859.6,337.9l-2.5-3.6c-0.3-0.4-0.9-0.5-1.4-0.3l-3.6,2.5c-0.4,0.3-0.6,0.9-0.3,1.4l2.3,3.5
		c0.3,0.4,0.9,0.6,1.3,0.3l3.9-2.5C859.8,338.9,860,338.3,859.6,337.9C859.6,337.9,859.6,337.9,859.6,337.9z"/>
	<path class="st14" d="M852.5,342.8l-2.5-3.6c-0.3-0.4-0.9-0.5-1.3-0.3l-3.7,2.5c-0.4,0.3-0.6,0.9-0.3,1.4l2.3,3.5
		c0.3,0.4,0.9,0.6,1.3,0.3l3.9-2.5C852.7,343.9,852.8,343.3,852.5,342.8C852.5,342.8,852.5,342.8,852.5,342.8z"/>
	<path class="st14" d="M845.7,348.2l-3.1-4.5c-0.1-0.2-0.4-0.3-0.6-0.1c0,0,0,0,0,0l-4.6,3.1c-0.2,0.1-0.3,0.4-0.1,0.6l2.9,4.4
		c0.1,0.2,0.4,0.3,0.6,0.1c0,0,0,0,0,0l4.8-3C845.8,348.7,845.9,348.5,845.7,348.2C845.7,348.2,845.7,348.2,845.7,348.2z"/>
	<path class="st14" d="M839.4,352.6l-3.1-4.5c-0.1-0.2-0.4-0.3-0.6-0.1c0,0,0,0,0,0l-4.5,3.1c-0.2,0.1-0.3,0.4-0.1,0.6l2.9,4.4
		c0.1,0.2,0.4,0.3,0.6,0.1l4.8-3C839.5,353.1,839.6,352.8,839.4,352.6C839.4,352.6,839.4,352.6,839.4,352.6z"/>
	<path class="st14" d="M832.3,357.4l-3.1-4.5c-0.1-0.2-0.4-0.3-0.6-0.1l-4.6,3.1c-0.2,0.1-0.3,0.4-0.1,0.6l2.9,4.4
		c0.1,0.2,0.4,0.3,0.6,0.1l4.8-3C832.4,358,832.5,357.7,832.3,357.4C832.4,357.5,832.3,357.5,832.3,357.4z"/>
	<path class="st14" d="M825.5,362.2l-3.1-4.5c-0.1-0.2-0.4-0.3-0.6-0.1c0,0,0,0,0,0l-4.6,3.1c-0.2,0.1-0.3,0.4-0.1,0.6c0,0,0,0,0,0
		l2.9,4.4c0.1,0.2,0.4,0.3,0.6,0.1c0,0,0,0,0,0l4.8-3C825.6,362.7,825.7,362.4,825.5,362.2C825.5,362.2,825.5,362.2,825.5,362.2z"/>
	<path class="st14" d="M823.3,373.7l-3.1-4.5c-0.1-0.2-0.4-0.3-0.6-0.1l-4.6,3.1c-0.2,0.1-0.3,0.4-0.1,0.6l2.9,4.4
		c0.1,0.2,0.4,0.3,0.6,0.1l4.8-3C823.4,374.3,823.5,374,823.3,373.7C823.4,373.7,823.4,373.7,823.3,373.7z"/>
	<path class="st14" d="M816.5,378.4l-3.1-4.5c-0.1-0.2-0.4-0.3-0.6-0.1c0,0,0,0,0,0l-4.6,3.1c-0.2,0.1-0.3,0.4-0.1,0.6l2.9,4.4
		c0.1,0.2,0.4,0.3,0.6,0.1c0,0,0,0,0,0l4.8-3C816.6,379,816.7,378.7,816.5,378.4C816.5,378.5,816.5,378.4,816.5,378.4z"/>
	<path class="st14" d="M827.2,350.1l-3-4.2c-0.2-0.3-0.6-0.3-0.8-0.1l-4.4,2.9c-0.3,0.2-0.4,0.6-0.2,0.9l2.7,4.2
		c0.2,0.3,0.6,0.4,0.8,0.2l4.6-2.9C827.3,350.8,827.4,350.4,827.2,350.1C827.2,350.1,827.2,350.1,827.2,350.1z"/>
	<path class="st14" d="M820.4,354.8l-3-4.2c-0.2-0.3-0.6-0.4-0.8-0.2c0,0,0,0,0,0l-4.3,2.9c-0.3,0.2-0.4,0.6-0.2,0.8l2.7,4.2
		c0.2,0.3,0.6,0.4,0.8,0.2l4.6-2.9C820.5,355.5,820.6,355.1,820.4,354.8C820.4,354.8,820.4,354.8,820.4,354.8z"/>
	<path class="st14" d="M813.5,359.6l-3-4.2c-0.2-0.3-0.6-0.3-0.8-0.1l-4.3,2.9c-0.3,0.2-0.4,0.6-0.2,0.9l2.7,4.2
		c0.2,0.3,0.6,0.4,0.8,0.2l4.6-2.9C813.6,360.3,813.7,359.9,813.5,359.6C813.6,359.6,813.6,359.6,813.5,359.6z"/>
	<path class="st14" d="M806.8,364.4l-3.1-4.5c-0.1-0.2-0.4-0.3-0.6-0.1l-4.6,3.1c-0.2,0.1-0.3,0.4-0.1,0.6l2.9,4.4
		c0.1,0.2,0.4,0.3,0.6,0.1l4.8-3C806.9,365,807,364.7,806.8,364.4C806.8,364.5,806.8,364.4,806.8,364.4z"/>
	<path class="st14" d="M887.8,318.3l-2.7-3.9c-0.3-0.4-0.9-0.5-1.4-0.2l-10.6,7.4c-0.4,0.3-0.5,0.9-0.3,1.3l2.6,3.9
		c0.3,0.5,0.9,0.6,1.4,0.3c0,0,0,0,0,0l10.7-7.5C887.9,319.3,888,318.7,887.8,318.3z"/>
	<path class="st14" d="M818.6,366.8l-3.3-4.7c-0.1-0.2-0.4-0.3-0.6-0.1c0,0,0,0,0,0l-11.4,8c-0.2,0.1-0.3,0.4-0.1,0.6l3.1,4.8
		c0.1,0.2,0.4,0.3,0.6,0.1c0,0,0,0,0,0l11.6-8.1C818.7,367.3,818.8,367,818.6,366.8z"/>
	<path class="st14" d="M855,330.9l-3-4.5c-0.1-0.2-0.4-0.3-0.6-0.1L826,343.4c-0.2,0.1-0.3,0.4-0.1,0.6c0,0,0,0,0,0l3.1,4.8
		c0.1,0.2,0.4,0.3,0.6,0.1c0,0,0,0,0,0l25.3-17.4C855.1,331.4,855.1,331.1,855,330.9z"/>
	<path class="st7" d="M855.1,315.6L841.6,296c-0.8-1.1-2.3-1.4-3.5-0.7L801,320.3c-1.1,0.8-1.4,2.3-0.7,3.5c0,0,0,0,0,0l13.7,20.2
		c0.8,1.1,2.3,1.4,3.5,0.7c0,0,0,0,0,0l36.9-25.5C855.6,318.3,855.9,316.8,855.1,315.6C855.1,315.6,855.1,315.6,855.1,315.6z"/>
	<path class="st16" d="M855.7,315.7l-13.5-19.6c-0.8-1.1-2.3-1.4-3.5-0.7l-37.1,25c-1.1,0.8-1.5,2.3-0.7,3.5c0,0,0,0,0,0l13.7,20.1
		c0.8,1.1,2.3,1.4,3.5,0.7c0,0,0,0,0,0l36.9-25.5C856.2,318.4,856.5,316.9,855.7,315.7C855.7,315.7,855.7,315.7,855.7,315.7z"/>
	<path class="st11" d="M939.3,347.4l-28.6-9.5L819,401.6l28.4,9.3c1.6,0.5,3.3,0.3,4.6-0.7l87.6-60.9c0.5-0.3,0.6-0.9,0.4-1.4
		C939.8,347.6,939.5,347.5,939.3,347.4z"/>
</g>
<g id="Layer_2">
	<rect x="-1.6" y="0.1" class="st17" width="1085.8" height="758.4"/>
</g>
</svg>
