<?xml version="1.0" encoding="utf-8"?>
<!-- Generator: Adobe Illustrator 23.0.1, SVG Export Plug-In . SVG Version: 6.00 Build 0)  -->
<svg version="1.1" id="Layer_1" transform="matrix(.69 0 0 .69 15.5 15.5)"
	 xmlns="http://www.w3.org/2000/svg" xmlns:xlink="http://www.w3.org/1999/xlink" x="0px" y="0px" viewBox="0 0 100 100"
	 style="enable-background:new 0 0 100 100;" xml:space="preserve">
<style type="text/css">
	.st0{fill:#83B93B;}
</style>
<path class="st0" d="M38.9,77.8h9.7c0.2,0,0.4-0.2,0.4-0.4c0-0.2-0.2-0.4-0.4-0.4h-9.7c-0.2,0-0.4,0.2-0.4,0.4S38.7,77.8,38.9,77.8z
	 M50.2,77.8h1.6c0.2,0,0.4-0.2,0.4-0.4c0-0.2-0.2-0.4-0.4-0.4h-1.6c-0.2,0-0.4,0.2-0.4,0.4C49.8,77.6,50,77.8,50.2,77.8z M53.2,77.8
	h1.1c0.2,0,0.4-0.2,0.4-0.4c0-0.2-0.2-0.4-0.4-0.4h-1.1c-0.2,0-0.4,0.2-0.4,0.4C52.8,77.6,53,77.8,53.2,77.8z M50.9,79.3
	c0,0.2,0.2,0.4,0.4,0.4h9.7c0.2,0,0.4-0.2,0.4-0.4c0-0.2-0.2-0.4-0.4-0.4h-9.7C51.1,78.9,50.9,79.1,50.9,79.3z M47.8,79.3
	c0,0.2,0.2,0.4,0.4,0.4h1.6c0.2,0,0.4-0.2,0.4-0.4c0-0.2-0.2-0.4-0.4-0.4h-1.6C47.9,78.9,47.8,79.1,47.8,79.3z M46.8,78.9h-1.1
	c-0.2,0-0.4,0.2-0.4,0.4c0,0.2,0.2,0.4,0.4,0.4h1.1c0.2,0,0.4-0.2,0.4-0.4C47.2,79.1,47,78.9,46.8,78.9z"/>
<path class="st0" d="M79.3,65.8c2.2-4.5,3.3-9.3,3.3-14.3s-1.1-9.8-3.3-14.2v-8.8c0-3.1-2.5-5.6-5.6-5.6c-0.2,0-0.4,0.2-0.4,0.4v5.5
	c-4.3-4.5-9.8-7.6-15.9-9c-1.5-2.1-3.8-3.6-6.4-3.9s-5.1,0.5-7.1,2.3c-0.5,0.5-1,1-1.4,1.6c-6.1,1.4-11.5,4.5-15.9,9v-5.5
	c0-0.2-0.2-0.4-0.4-0.4c-3.1,0-5.6,2.5-5.6,5.6v8.8c-2.2,4.5-3.3,9.3-3.3,14.2c0,5,1.1,9.8,3.3,14.3v3.6c0,3.1,2.5,5.6,5.6,5.6h1.1
	c6.1,5.9,14.2,9.1,22.7,9.1s16.5-3.2,22.6-9.2h1.1c3.1,0,5.6-2.5,5.6-5.6V65.8z M81.8,51.5c0,4.3-0.8,8.4-2.5,12.3V39.2
	C80.9,43.1,81.8,47.2,81.8,51.5z M78.5,28.5v38C77.6,65,76,64,74.2,63.8V23.8C76.5,24,78.5,26,78.5,28.5z M73.1,29.8H57.7
	c1.1-1.7,1.6-3.7,1.3-5.8c-0.1-1.1-0.5-2.2-1-3.2C63.8,22.3,69,25.4,73.1,29.8z M44.5,18.8c1.8-1.6,4.1-2.3,6.4-2.1
	c3.8,0.4,6.9,3.5,7.3,7.3c0.3,2.5-0.5,4.9-2.3,6.7c-1.8,1.9-2.9,4.2-2.9,6.7h-1.4v-8h0.8c0.9,0,1.6-0.7,1.6-1.6
	c0-0.9-0.7-1.6-1.6-1.6c-0.9,0-1.6,0.7-1.6,1.6v0.8h-1.5v-0.8c0-0.9-0.7-1.6-1.6-1.6c-0.9,0-1.6,0.7-1.6,1.6c0,0.9,0.7,1.6,1.6,1.6
	h0.8v8h-1.4c-0.1-2.5-1.1-4.9-2.9-6.6c-1.6-1.6-2.4-3.7-2.4-5.8C41.8,22.7,42.8,20.4,44.5,18.8z M46.5,65.5V62h7v7h-7
	C46.5,69,46.5,65.5,46.5,65.5z M50,55.4l-3.3-3.3l3.3-3.3l3.3,3.3C53.3,52.1,50,55.4,50,55.4z M46.1,42.6c-0.2,0-0.4-0.2-0.4-0.4
	v-0.5h8.6v0.5c0,0.2-0.2,0.4-0.4,0.4C53.9,42.6,46.1,42.6,46.1,42.6z M54.3,40.8h-8.7v-0.9h8.6L54.3,40.8L54.3,40.8z M54.3,39.1
	h-8.7v-0.5c0-0.2,0.2-0.4,0.4-0.4h7.8c0.2,0,0.4,0.2,0.4,0.4C54.3,38.6,54.3,39.1,54.3,39.1z M48.4,28.6h-0.8
	c-0.5,0-0.8-0.4-0.8-0.8s0.4-0.8,0.8-0.8c0.5,0,0.8,0.4,0.8,0.8V28.6z M50.8,37.4h-1.5v-8h1.5C50.8,29.4,50.8,37.4,50.8,37.4z
	 M51.6,28.6v-0.8c0-0.5,0.4-0.8,0.8-0.8c0.5,0,0.8,0.4,0.8,0.8s-0.4,0.8-0.8,0.8H51.6z M42,20.8c-0.7,1.3-1,2.7-1,4.2
	c0,1.7,0.5,3.4,1.4,4.8H26.9C31,25.4,36.2,22.3,42,20.8z M25.9,23.8v40.1C24,64,22.4,65,21.5,66.5v-38C21.5,26,23.5,24,25.9,23.8z
	 M18.2,51.5c0-4.3,0.8-8.4,2.5-12.3v24.6C19.1,59.9,18.2,55.8,18.2,51.5z M50,83.3c-8,0-15.6-2.9-21.5-8.3h42.9
	C65.6,80.3,58,83.3,50,83.3z M73.7,74.1H26.3c-2.6,0-4.8-2.1-4.8-4.8s2.1-4.7,4.8-4.7c0.2,0,0.4-0.2,0.4-0.4V30.6h16.2
	c0.2,0.3,0.5,0.5,0.7,0.8c1.6,1.5,2.5,3.7,2.6,6h-0.1c-0.7,0-1.2,0.5-1.2,1.2v3.5c0,0.7,0.5,1.2,1.2,1.2h3.5V48l-3.7,3.7h-4.4
	c-0.2-2.2-2.1-3.9-4.3-3.9c-2.4,0-4.3,1.9-4.3,4.3c0,2.4,1.9,4.3,4.3,4.3c2.2,0,4.1-1.7,4.3-3.9H46l3.7,3.7v5h-3.5
	c-0.2,0-0.4,0.2-0.4,0.4v3.5h-4.2c-0.2-2.2-2.1-3.9-4.3-3.9c-2.4,0-4.3,1.9-4.3,4.3c0,2.4,1.9,4.3,4.3,4.3c2.2,0,4.1-1.7,4.3-3.9
	h4.2v3.5c0,0.2,0.2,0.4,0.4,0.4h7.8c0.2,0,0.4-0.2,0.4-0.4v-7.8c0-0.2-0.2-0.4-0.4-0.4h-3.5v-5l3.7-3.7h4.4v3.5
	c0,0.2,0.2,0.4,0.4,0.4h3.5v4.8c-2.2,0.2-3.9,2.1-3.9,4.3c0,2.4,1.9,4.3,4.3,4.3s4.3-1.9,4.3-4.3c0-2.2-1.7-4.1-3.9-4.3v-4.8h3.5
	c0.2,0,0.4-0.2,0.4-0.4v-7.8c0-0.2-0.2-0.4-0.4-0.4h-7.8c-0.2,0-0.4,0.2-0.4,0.4v3.5h-4.3L50.4,48v-4.6h3.5c0.7,0,1.2-0.5,1.2-1.2
	v-3.5c0-0.7-0.5-1.2-1.2-1.2h-0.1c0.1-2.2,1.1-4.4,2.7-6.1c0.2-0.2,0.4-0.5,0.6-0.7h16.2v33.6c0,0.2,0.2,0.4,0.4,0.4
	c2.6,0,4.7,2.1,4.8,4.7C78.5,72,76.3,74.1,73.7,74.1z M40.7,52.1c0,1.9-1.6,3.5-3.5,3.5c-1.9,0-3.5-1.6-3.5-3.5s1.6-3.5,3.5-3.5
	C39.2,48.6,40.7,50.1,40.7,52.1z M40.7,65.5c0,1.9-1.6,3.5-3.5,3.5c-1.9,0-3.5-1.6-3.5-3.5c0-1.9,1.6-3.5,3.5-3.5
	C39.2,62,40.7,63.5,40.7,65.5z M62.7,62c1.9,0,3.5,1.6,3.5,3.5c0,1.9-1.6,3.5-3.5,3.5c-1.9,0-3.5-1.6-3.5-3.5
	C59.3,63.5,60.8,62,62.7,62z M59.3,55.6v-7h7v7H59.3z"/>
</svg>
